%TF.GenerationSoftware,KiCad,Pcbnew,10.0.4*%
%TF.CreationDate,2026-08-11T00:38:03+09:00*%
%TF.ProjectId,esp32_wroom_tmc5160_carrier_revJ,65737033-325f-4777-926f-6f6d5f746d63,rev?*%
%TF.SameCoordinates,Original*%
%TF.FileFunction,Copper,L2,Bot*%
%TF.FilePolarity,Positive*%
%FSLAX46Y46*%
G04 Gerber Fmt 4.6, Leading zero omitted, Abs format (unit mm)*
G04 Created by KiCad (PCBNEW 10.0.4) date 2026-08-11 00:38:03*
%MOMM*%
%LPD*%
G01*
G04 APERTURE LIST*
G04 Aperture macros list*
%AMRoundRect*
0 Rectangle with rounded corners*
0 $1 Rounding radius*
0 $2 $3 $4 $5 $6 $7 $8 $9 X,Y pos of 4 corners*
0 Add a 4 corners polygon primitive as box body*
4,1,4,$2,$3,$4,$5,$6,$7,$8,$9,$2,$3,0*
0 Add four circle primitives for the rounded corners*
1,1,$1+$1,$2,$3*
1,1,$1+$1,$4,$5*
1,1,$1+$1,$6,$7*
1,1,$1+$1,$8,$9*
0 Add four rect primitives between the rounded corners*
20,1,$1+$1,$2,$3,$4,$5,0*
20,1,$1+$1,$4,$5,$6,$7,0*
20,1,$1+$1,$6,$7,$8,$9,0*
20,1,$1+$1,$8,$9,$2,$3,0*%
G04 Aperture macros list end*
%TA.AperFunction,ComponentPad*%
%ADD10RoundRect,0.250000X-0.350000X-0.625000X0.350000X-0.625000X0.350000X0.625000X-0.350000X0.625000X0*%
%TD*%
%TA.AperFunction,ComponentPad*%
%ADD11O,1.200000X1.750000*%
%TD*%
%TA.AperFunction,ComponentPad*%
%ADD12C,2.800000*%
%TD*%
%TA.AperFunction,ComponentPad*%
%ADD13C,2.000000*%
%TD*%
%TA.AperFunction,ViaPad*%
%ADD14C,1.000000*%
%TD*%
%TA.AperFunction,Conductor*%
%ADD15C,0.500000*%
%TD*%
%TA.AperFunction,Conductor*%
%ADD16C,0.300000*%
%TD*%
%TA.AperFunction,Conductor*%
%ADD17C,1.000000*%
%TD*%
G04 APERTURE END LIST*
D10*
%TO.P,J4,1*%
%TO.N,M_A2*%
X96000000Y-32080000D03*
D11*
%TO.P,J4,2*%
%TO.N,M_A1*%
X96000000Y-34080000D03*
%TO.P,J4,3*%
%TO.N,M_B2*%
X96000000Y-36080000D03*
%TO.P,J4,4*%
%TO.N,M_B1*%
X96000000Y-38080000D03*
%TD*%
D12*
%TO.P,J1,1*%
%TO.N,GND*%
X74460000Y-8000000D03*
%TO.P,J1,2*%
%TO.N,VMOT*%
X79540000Y-8000000D03*
%TD*%
D13*
%TO.P,R1,1*%
%TO.N,+3V3*%
X15500000Y-18000000D03*
%TO.P,R1,2*%
%TO.N,ENC_A_RAW*%
X20580000Y-18000000D03*
%TD*%
%TO.P,R2,1*%
%TO.N,+3V3*%
X15500000Y-21500000D03*
%TO.P,R2,2*%
%TO.N,ENC_B_RAW*%
X20580000Y-21500000D03*
%TD*%
%TO.P,TMC_R,9*%
%TO.N,VMOT*%
X84350000Y-27000000D03*
%TO.P,TMC_R,10*%
%TO.N,GND*%
X84350000Y-29540000D03*
%TO.P,TMC_R,11*%
%TO.N,M_A2*%
X84350000Y-32080000D03*
%TO.P,TMC_R,12*%
%TO.N,M_A1*%
X84350000Y-34620000D03*
%TO.P,TMC_R,13*%
%TO.N,M_B2*%
X84350000Y-37160000D03*
%TO.P,TMC_R,14*%
%TO.N,M_B1*%
X84350000Y-39700000D03*
%TO.P,TMC_R,15*%
%TO.N,+3V3*%
X84350000Y-42240000D03*
%TO.P,TMC_R,16*%
%TO.N,GND*%
X84350000Y-44780000D03*
%TD*%
%TO.P,R4,1*%
%TO.N,ENC_B_RAW*%
X15500000Y-27700000D03*
%TO.P,R4,2*%
%TO.N,ENC_B*%
X20580000Y-27700000D03*
%TD*%
%TO.P,ESP_R,R1*%
%TO.N,GND*%
X53240000Y-15000000D03*
%TO.P,ESP_R,R2*%
%TO.N,SPI_MOSI*%
X53240000Y-17540000D03*
%TO.P,ESP_R,R3*%
%TO.N,IO22*%
X53240000Y-20080000D03*
%TO.P,ESP_R,R4*%
%TO.N,N/C*%
X53240000Y-22620000D03*
%TO.P,ESP_R,R5*%
X53240000Y-25160000D03*
%TO.P,ESP_R,R6*%
%TO.N,IO21*%
X53240000Y-27700000D03*
%TO.P,ESP_R,R7*%
%TO.N,GND*%
X53240000Y-30240000D03*
%TO.P,ESP_R,R8*%
%TO.N,SPI_MISO*%
X53240000Y-32780000D03*
%TO.P,ESP_R,R9*%
%TO.N,SPI_SCK*%
X53240000Y-35320000D03*
%TO.P,ESP_R,R10*%
%TO.N,SPI_CS*%
X53240000Y-37860000D03*
%TO.P,ESP_R,R11*%
%TO.N,N/C*%
X53240000Y-40400000D03*
%TO.P,ESP_R,R12*%
X53240000Y-42940000D03*
%TO.P,ESP_R,R13*%
X53240000Y-45480000D03*
%TO.P,ESP_R,R14*%
X53240000Y-48020000D03*
%TO.P,ESP_R,R15*%
X53240000Y-50560000D03*
%TO.P,ESP_R,R16*%
X53240000Y-53100000D03*
%TO.P,ESP_R,R17*%
%TO.N,GND*%
X53240000Y-55640000D03*
%TO.P,ESP_R,R18*%
X53240000Y-58180000D03*
%TO.P,ESP_R,R19*%
X53240000Y-60720000D03*
%TO.P,ESP_R,R20*%
X53240000Y-63260000D03*
%TD*%
%TO.P,J2,1*%
%TO.N,IO32*%
X10000000Y-30240000D03*
%TO.P,J2,2*%
%TO.N,IO33*%
X10000000Y-32780000D03*
%TO.P,J2,3*%
%TO.N,IO25*%
X10000000Y-35320000D03*
%TO.P,J2,4*%
%TO.N,IO26*%
X10000000Y-37860000D03*
%TO.P,J2,5*%
%TO.N,GND*%
X10000000Y-40400000D03*
%TO.P,J2,6*%
%TO.N,IO21*%
X10000000Y-42940000D03*
%TO.P,J2,7*%
%TO.N,IO22*%
X10000000Y-45480000D03*
%TO.P,J2,8*%
%TO.N,+3V3*%
X10000000Y-48020000D03*
%TD*%
%TO.P,ESP_L,L1*%
%TO.N,+3V3*%
X27840000Y-15000000D03*
%TO.P,ESP_L,L2*%
%TO.N,N/C*%
X27840000Y-17540000D03*
%TO.P,ESP_L,L3*%
X27840000Y-20080000D03*
%TO.P,ESP_L,L4*%
X27840000Y-22620000D03*
%TO.P,ESP_L,L5*%
%TO.N,ENC_A*%
X27840000Y-25160000D03*
%TO.P,ESP_L,L6*%
%TO.N,ENC_B*%
X27840000Y-27700000D03*
%TO.P,ESP_L,L7*%
%TO.N,IO32*%
X27840000Y-30240000D03*
%TO.P,ESP_L,L8*%
%TO.N,IO33*%
X27840000Y-32780000D03*
%TO.P,ESP_L,L9*%
%TO.N,IO25*%
X27840000Y-35320000D03*
%TO.P,ESP_L,L10*%
%TO.N,IO26*%
X27840000Y-37860000D03*
%TO.P,ESP_L,L11*%
%TO.N,TMC_DIR*%
X27840000Y-40400000D03*
%TO.P,ESP_L,L12*%
%TO.N,TMC_STEP*%
X27840000Y-42940000D03*
%TO.P,ESP_L,L13*%
%TO.N,N/C*%
X27840000Y-45480000D03*
%TO.P,ESP_L,L14*%
%TO.N,GND*%
X27840000Y-48020000D03*
%TO.P,ESP_L,L15*%
%TO.N,TMC_EN*%
X27840000Y-50560000D03*
%TO.P,ESP_L,L16*%
%TO.N,N/C*%
X27840000Y-53100000D03*
%TO.P,ESP_L,L17*%
X27840000Y-55640000D03*
%TO.P,ESP_L,L18*%
X27840000Y-58180000D03*
%TO.P,ESP_L,L19*%
%TO.N,+5V*%
X27840000Y-60720000D03*
%TO.P,ESP_L,L20*%
%TO.N,N/C*%
X27840000Y-63260000D03*
%TD*%
%TO.P,TMC_L,1*%
%TO.N,TMC_EN*%
X71650000Y-27000000D03*
%TO.P,TMC_L,2*%
%TO.N,SPI_MOSI*%
X71650000Y-29540000D03*
%TO.P,TMC_L,3*%
%TO.N,SPI_SCK*%
X71650000Y-32080000D03*
%TO.P,TMC_L,4*%
%TO.N,SPI_CS*%
X71650000Y-34620000D03*
%TO.P,TMC_L,5*%
%TO.N,SPI_MISO*%
X71650000Y-37160000D03*
%TO.P,TMC_L,6*%
%TO.N,TMC_CLK*%
X71650000Y-39700000D03*
%TO.P,TMC_L,7*%
%TO.N,TMC_STEP*%
X71650000Y-42240000D03*
%TO.P,TMC_L,8*%
%TO.N,TMC_DIR*%
X71650000Y-44780000D03*
%TD*%
%TO.P,J3,1*%
%TO.N,ENC_A_RAW*%
X10000000Y-16000000D03*
%TO.P,J3,2*%
%TO.N,ENC_B_RAW*%
X10000000Y-18540000D03*
%TO.P,J3,3*%
%TO.N,GND*%
X10000000Y-21080000D03*
%TO.P,J3,4*%
%TO.N,+5V*%
X10000000Y-23620000D03*
%TO.P,J3,5*%
%TO.N,GND*%
X10000000Y-26160000D03*
%TD*%
%TO.P,R3,1*%
%TO.N,ENC_A_RAW*%
X15500000Y-25160000D03*
%TO.P,R3,2*%
%TO.N,ENC_A*%
X20580000Y-25160000D03*
%TD*%
D14*
%TO.N,IO22*%
X40000000Y-74000000D03*
X7500000Y-50500000D03*
X9500000Y-50500000D03*
%TO.N,SPI_MISO*%
X66000000Y-37160000D03*
X66000000Y-31000000D03*
%TO.N,TMC_DIR*%
X63000000Y-44780000D03*
X12000000Y-80000000D03*
X63000000Y-80000000D03*
%TO.N,TMC_STEP*%
X14000000Y-78000000D03*
X65000000Y-78000000D03*
X65000000Y-42240000D03*
%TO.N,TMC_EN*%
X68500000Y-76000000D03*
X16000000Y-76000000D03*
%TO.N,+5V*%
X45500000Y-82000000D03*
X43000000Y-60720000D03*
%TD*%
%TO.N,+3V3*%
D15*
X27840000Y-15000000D02*
X18000000Y-12000000D01*
X8000000Y-49190000D02*
X10000000Y-48020000D01*
X55000000Y-12000000D02*
X66000000Y-10000000D01*
X8000000Y-12000000D02*
X8000000Y-49190000D01*
X18000000Y-12000000D02*
X55000000Y-12000000D01*
X18000000Y-12000000D02*
X8000000Y-12000000D01*
X92000000Y-42240000D02*
X84350000Y-42240000D01*
X66000000Y-10000000D02*
X92000000Y-10000000D01*
X27840000Y-15000000D02*
X18000000Y-12000000D01*
X92000000Y-10000000D02*
X92000000Y-42240000D01*
%TO.N,ENC_B_RAW*%
D16*
X11500000Y-20040000D02*
X11500000Y-27700000D01*
X10000000Y-18540000D02*
X11500000Y-20040000D01*
X11500000Y-27700000D02*
X15500000Y-27700000D01*
X15500000Y-27700000D02*
X20580000Y-21500000D01*
%TO.N,ENC_B*%
X20580000Y-27700000D02*
X27840000Y-27700000D01*
%TO.N,IO22*%
X9500000Y-50500000D02*
X7500000Y-50500000D01*
X40000000Y-20080000D02*
X53240000Y-20080000D01*
X40000000Y-74000000D02*
X40000000Y-20080000D01*
%TO.N,SPI_MISO*%
X66000000Y-31000000D02*
X66000000Y-37160000D01*
%TO.N,TMC_DIR*%
X27840000Y-40400000D02*
X12000000Y-40400000D01*
X63000000Y-80000000D02*
X63000000Y-44780000D01*
X12000000Y-40400000D02*
X12000000Y-80000000D01*
%TO.N,TMC_STEP*%
X65000000Y-78000000D02*
X65000000Y-42240000D01*
X14000000Y-42940000D02*
X14000000Y-78000000D01*
X27840000Y-42940000D02*
X14000000Y-42940000D01*
%TO.N,TMC_EN*%
X16000000Y-50560000D02*
X16000000Y-76000000D01*
X68500000Y-27000000D02*
X71650000Y-27000000D01*
X27840000Y-50560000D02*
X16000000Y-50560000D01*
X68500000Y-76000000D02*
X68500000Y-27000000D01*
%TO.N,+5V*%
D17*
X45500000Y-82000000D02*
X45500000Y-60720000D01*
X45500000Y-60720000D02*
X43000000Y-60720000D01*
%TD*%
%TA.AperFunction,Conductor*%
%TO.N,GND*%
G36*
X9534075Y-40592993D02*
G01*
X9599901Y-40707007D01*
X9692993Y-40800099D01*
X9807007Y-40865925D01*
X9814822Y-40868019D01*
X9233121Y-41449719D01*
X9233122Y-41449720D01*
X9318640Y-41511852D01*
X9318654Y-41511861D01*
X9411629Y-41559234D01*
X9462426Y-41607208D01*
X9479221Y-41675029D01*
X9456684Y-41741164D01*
X9411631Y-41780203D01*
X9318388Y-41827713D01*
X9152786Y-41948028D01*
X9008028Y-42092786D01*
X8887715Y-42258386D01*
X8794781Y-42440777D01*
X8792431Y-42448012D01*
X8752992Y-42505687D01*
X8688634Y-42532885D01*
X8619787Y-42520970D01*
X8568312Y-42473725D01*
X8550500Y-42409693D01*
X8550500Y-40928689D01*
X8570185Y-40861650D01*
X8622989Y-40815895D01*
X8692147Y-40805951D01*
X8755703Y-40834976D01*
X8792431Y-40890372D01*
X8795243Y-40899028D01*
X8888139Y-41081347D01*
X8950279Y-41166876D01*
X9531980Y-40585176D01*
X9534075Y-40592993D01*
G37*
%TD.AperFunction*%
%TA.AperFunction,Conductor*%
G36*
X8755703Y-38296593D02*
G01*
X8792429Y-38351985D01*
X8794780Y-38359219D01*
X8867248Y-38501446D01*
X8887715Y-38541613D01*
X9008028Y-38707213D01*
X9152786Y-38851971D01*
X9318385Y-38972284D01*
X9318387Y-38972285D01*
X9318390Y-38972287D01*
X9411080Y-39019515D01*
X9411630Y-39019795D01*
X9462426Y-39067770D01*
X9479221Y-39135591D01*
X9456684Y-39201725D01*
X9411630Y-39240765D01*
X9318649Y-39288141D01*
X9233122Y-39350278D01*
X9233122Y-39350279D01*
X9814823Y-39931980D01*
X9807007Y-39934075D01*
X9692993Y-39999901D01*
X9599901Y-40092993D01*
X9534075Y-40207007D01*
X9531980Y-40214823D01*
X8950279Y-39633122D01*
X8950278Y-39633122D01*
X8888141Y-39718648D01*
X8795244Y-39900968D01*
X8792431Y-39909629D01*
X8752993Y-39967304D01*
X8688634Y-39994502D01*
X8619788Y-39982587D01*
X8568312Y-39935342D01*
X8550500Y-39871310D01*
X8550500Y-38390306D01*
X8570185Y-38323267D01*
X8622989Y-38277512D01*
X8692147Y-38267568D01*
X8755703Y-38296593D01*
G37*
%TD.AperFunction*%
%TA.AperFunction,Conductor*%
G36*
X8755703Y-24056593D02*
G01*
X8792429Y-24111985D01*
X8794780Y-24119219D01*
X8819649Y-24168028D01*
X8887715Y-24301613D01*
X9008028Y-24467213D01*
X9152786Y-24611971D01*
X9318385Y-24732284D01*
X9318387Y-24732285D01*
X9318390Y-24732287D01*
X9411630Y-24779795D01*
X9462426Y-24827770D01*
X9479221Y-24895591D01*
X9456684Y-24961725D01*
X9411630Y-25000765D01*
X9318649Y-25048141D01*
X9233122Y-25110278D01*
X9233122Y-25110279D01*
X9814823Y-25691980D01*
X9807007Y-25694075D01*
X9692993Y-25759901D01*
X9599901Y-25852993D01*
X9534075Y-25967007D01*
X9531980Y-25974823D01*
X8950279Y-25393122D01*
X8950278Y-25393122D01*
X8888141Y-25478648D01*
X8795244Y-25660968D01*
X8792431Y-25669629D01*
X8752993Y-25727304D01*
X8688634Y-25754502D01*
X8619788Y-25742587D01*
X8568312Y-25695342D01*
X8550500Y-25631310D01*
X8550500Y-24150306D01*
X8570185Y-24083267D01*
X8622989Y-24037512D01*
X8692147Y-24027568D01*
X8755703Y-24056593D01*
G37*
%TD.AperFunction*%
%TA.AperFunction,Conductor*%
G36*
X10977763Y-24595730D02*
G01*
X11030261Y-24641836D01*
X11049500Y-24708178D01*
X11049500Y-25341980D01*
X11029815Y-25409019D01*
X11013181Y-25429661D01*
X10468019Y-25974822D01*
X10465925Y-25967007D01*
X10400099Y-25852993D01*
X10307007Y-25759901D01*
X10192993Y-25694075D01*
X10185176Y-25691980D01*
X10766876Y-25110279D01*
X10681347Y-25048139D01*
X10588369Y-25000765D01*
X10537573Y-24952790D01*
X10520778Y-24884969D01*
X10543315Y-24818835D01*
X10588370Y-24779795D01*
X10681610Y-24732287D01*
X10717813Y-24705984D01*
X10851161Y-24609103D01*
X10852270Y-24610629D01*
X10908673Y-24585325D01*
X10977763Y-24595730D01*
G37*
%TD.AperFunction*%
%TA.AperFunction,Conductor*%
G36*
X9534075Y-21272993D02*
G01*
X9599901Y-21387007D01*
X9692993Y-21480099D01*
X9807007Y-21545925D01*
X9814822Y-21548019D01*
X9233121Y-22129719D01*
X9233122Y-22129720D01*
X9318640Y-22191852D01*
X9318654Y-22191861D01*
X9411629Y-22239234D01*
X9462426Y-22287208D01*
X9479221Y-22355029D01*
X9456684Y-22421164D01*
X9411631Y-22460203D01*
X9318388Y-22507713D01*
X9152786Y-22628028D01*
X9008028Y-22772786D01*
X8887715Y-22938386D01*
X8794781Y-23120777D01*
X8792431Y-23128012D01*
X8752992Y-23185687D01*
X8688634Y-23212885D01*
X8619787Y-23200970D01*
X8568312Y-23153725D01*
X8550500Y-23089693D01*
X8550500Y-21608689D01*
X8570185Y-21541650D01*
X8622989Y-21495895D01*
X8692147Y-21485951D01*
X8755703Y-21514976D01*
X8792431Y-21570372D01*
X8795243Y-21579028D01*
X8888139Y-21761347D01*
X8950279Y-21846876D01*
X9531980Y-21265176D01*
X9534075Y-21272993D01*
G37*
%TD.AperFunction*%
%TA.AperFunction,Conductor*%
G36*
X11013181Y-21810338D02*
G01*
X11046666Y-21871661D01*
X11049500Y-21898019D01*
X11049500Y-22531821D01*
X11029815Y-22598860D01*
X10977011Y-22644615D01*
X10907853Y-22654559D01*
X10852247Y-22629401D01*
X10851161Y-22630897D01*
X10681611Y-22507713D01*
X10588369Y-22460203D01*
X10537574Y-22412229D01*
X10520779Y-22344407D01*
X10543317Y-22278273D01*
X10588371Y-22239234D01*
X10681347Y-22191861D01*
X10766876Y-22129719D01*
X10766877Y-22129718D01*
X10185178Y-21548019D01*
X10192993Y-21545925D01*
X10307007Y-21480099D01*
X10400099Y-21387007D01*
X10465925Y-21272993D01*
X10468019Y-21265176D01*
X11013181Y-21810338D01*
G37*
%TD.AperFunction*%
%TA.AperFunction,Conductor*%
G36*
X8755703Y-18976593D02*
G01*
X8792429Y-19031985D01*
X8794780Y-19039219D01*
X8819649Y-19088028D01*
X8887715Y-19221613D01*
X9008028Y-19387213D01*
X9152786Y-19531971D01*
X9318385Y-19652284D01*
X9318387Y-19652285D01*
X9318390Y-19652287D01*
X9411630Y-19699795D01*
X9462426Y-19747770D01*
X9479221Y-19815591D01*
X9456684Y-19881725D01*
X9411630Y-19920765D01*
X9318649Y-19968141D01*
X9233122Y-20030278D01*
X9233122Y-20030279D01*
X9814823Y-20611980D01*
X9807007Y-20614075D01*
X9692993Y-20679901D01*
X9599901Y-20772993D01*
X9534075Y-20887007D01*
X9531980Y-20894823D01*
X8950279Y-20313122D01*
X8950278Y-20313122D01*
X8888141Y-20398648D01*
X8795244Y-20580968D01*
X8792431Y-20589629D01*
X8752993Y-20647304D01*
X8688634Y-20674502D01*
X8619788Y-20662587D01*
X8568312Y-20615342D01*
X8550500Y-20551310D01*
X8550500Y-19070306D01*
X8570185Y-19003267D01*
X8622989Y-18957512D01*
X8692147Y-18947568D01*
X8755703Y-18976593D01*
G37*
%TD.AperFunction*%
%TA.AperFunction,Conductor*%
G36*
X104442539Y-5520185D02*
G01*
X104488294Y-5572989D01*
X104499500Y-5624500D01*
X104499500Y-84375500D01*
X104479815Y-84442539D01*
X104427011Y-84488294D01*
X104375500Y-84499500D01*
X5624500Y-84499500D01*
X5557461Y-84479815D01*
X5511706Y-84427011D01*
X5500500Y-84375500D01*
X5500500Y-50421153D01*
X6699500Y-50421153D01*
X6699500Y-50578846D01*
X6730261Y-50733489D01*
X6730264Y-50733501D01*
X6790602Y-50879172D01*
X6790609Y-50879185D01*
X6878210Y-51010288D01*
X6878213Y-51010292D01*
X6989707Y-51121786D01*
X6989711Y-51121789D01*
X7120814Y-51209390D01*
X7120827Y-51209397D01*
X7266498Y-51269735D01*
X7266503Y-51269737D01*
X7421153Y-51300499D01*
X7421156Y-51300500D01*
X7421158Y-51300500D01*
X7578844Y-51300500D01*
X7578845Y-51300499D01*
X7733497Y-51269737D01*
X7879179Y-51209394D01*
X8010289Y-51121789D01*
X8121789Y-51010289D01*
X8124914Y-51005611D01*
X8178525Y-50960806D01*
X8228018Y-50950500D01*
X8771982Y-50950500D01*
X8839021Y-50970185D01*
X8875086Y-51005612D01*
X8878211Y-51010290D01*
X8989707Y-51121786D01*
X8989711Y-51121789D01*
X9120814Y-51209390D01*
X9120827Y-51209397D01*
X9266498Y-51269735D01*
X9266503Y-51269737D01*
X9421153Y-51300499D01*
X9421156Y-51300500D01*
X9421158Y-51300500D01*
X9578844Y-51300500D01*
X9578845Y-51300499D01*
X9733497Y-51269737D01*
X9879179Y-51209394D01*
X10010289Y-51121789D01*
X10121789Y-51010289D01*
X10209394Y-50879179D01*
X10269737Y-50733497D01*
X10300500Y-50578842D01*
X10300500Y-50421158D01*
X10300500Y-50421155D01*
X10300499Y-50421153D01*
X10269738Y-50266510D01*
X10269737Y-50266503D01*
X10217422Y-50140202D01*
X10209397Y-50120827D01*
X10209390Y-50120814D01*
X10121789Y-49989711D01*
X10121786Y-49989707D01*
X10010292Y-49878213D01*
X10010288Y-49878210D01*
X9879185Y-49790609D01*
X9879172Y-49790602D01*
X9733501Y-49730264D01*
X9733489Y-49730261D01*
X9578845Y-49699500D01*
X9578842Y-49699500D01*
X9421158Y-49699500D01*
X9421155Y-49699500D01*
X9266510Y-49730261D01*
X9266498Y-49730264D01*
X9120827Y-49790602D01*
X9120814Y-49790609D01*
X8989711Y-49878210D01*
X8989707Y-49878213D01*
X8878211Y-49989709D01*
X8875086Y-49994388D01*
X8821475Y-50039194D01*
X8771982Y-50049500D01*
X8228018Y-50049500D01*
X8218008Y-50046560D01*
X8207650Y-50047816D01*
X8185056Y-50036885D01*
X8160979Y-50029815D01*
X8152477Y-50021122D01*
X8144754Y-50017386D01*
X8124914Y-49994388D01*
X8121788Y-49989709D01*
X8066795Y-49934716D01*
X8033310Y-49873393D01*
X8038294Y-49803701D01*
X8080166Y-49747768D01*
X8121694Y-49727447D01*
X8143789Y-49721391D01*
X8144144Y-49721295D01*
X8212485Y-49702984D01*
X8212486Y-49702983D01*
X8212543Y-49702968D01*
X8213675Y-49702492D01*
X8213686Y-49702487D01*
X8215399Y-49701765D01*
X8215415Y-49701761D01*
X8276690Y-49665914D01*
X8338015Y-49630509D01*
X8338017Y-49630506D01*
X8341625Y-49628424D01*
X8347292Y-49624611D01*
X9191045Y-49131016D01*
X9258847Y-49114157D01*
X9313649Y-49130859D01*
X9314049Y-49130075D01*
X9500776Y-49225218D01*
X9500778Y-49225218D01*
X9500781Y-49225220D01*
X9605137Y-49259127D01*
X9695465Y-49288477D01*
X9738613Y-49295311D01*
X9897648Y-49320500D01*
X9897649Y-49320500D01*
X10102351Y-49320500D01*
X10102352Y-49320500D01*
X10304534Y-49288477D01*
X10499219Y-49225220D01*
X10681610Y-49132287D01*
X10774590Y-49064732D01*
X10847213Y-49011971D01*
X10847215Y-49011968D01*
X10847219Y-49011966D01*
X10991966Y-48867219D01*
X10991968Y-48867215D01*
X10991971Y-48867213D01*
X11050338Y-48786876D01*
X11112287Y-48701610D01*
X11205220Y-48519219D01*
X11268477Y-48324534D01*
X11300500Y-48122352D01*
X11300500Y-47917648D01*
X11271913Y-47737157D01*
X11268477Y-47715465D01*
X11207569Y-47528012D01*
X11205220Y-47520781D01*
X11205218Y-47520777D01*
X11205218Y-47520776D01*
X11171503Y-47454607D01*
X11112287Y-47338390D01*
X11050337Y-47253122D01*
X10991971Y-47172786D01*
X10847213Y-47028028D01*
X10681614Y-46907715D01*
X10675006Y-46904348D01*
X10588917Y-46860483D01*
X10538123Y-46812511D01*
X10521328Y-46744690D01*
X10543865Y-46678555D01*
X10588917Y-46639516D01*
X10681610Y-46592287D01*
X10702770Y-46576913D01*
X10847213Y-46471971D01*
X10847215Y-46471968D01*
X10847219Y-46471966D01*
X10991966Y-46327219D01*
X10991968Y-46327215D01*
X10991971Y-46327213D01*
X11044732Y-46254590D01*
X11112287Y-46161610D01*
X11205220Y-45979219D01*
X11268477Y-45784534D01*
X11300500Y-45582352D01*
X11300500Y-45377648D01*
X11286664Y-45290292D01*
X11268477Y-45175465D01*
X11205218Y-44980776D01*
X11155050Y-44882317D01*
X11112287Y-44798390D01*
X11090171Y-44767950D01*
X10991971Y-44632786D01*
X10847213Y-44488028D01*
X10681614Y-44367715D01*
X10675006Y-44364348D01*
X10588917Y-44320483D01*
X10538123Y-44272511D01*
X10521328Y-44204690D01*
X10543865Y-44138555D01*
X10588917Y-44099516D01*
X10681610Y-44052287D01*
X10702770Y-44036913D01*
X10847213Y-43931971D01*
X10847215Y-43931968D01*
X10847219Y-43931966D01*
X10991966Y-43787219D01*
X10991968Y-43787215D01*
X10991971Y-43787213D01*
X11044732Y-43714590D01*
X11112287Y-43621610D01*
X11205220Y-43439219D01*
X11268477Y-43244534D01*
X11300500Y-43042352D01*
X11300500Y-42837648D01*
X11286664Y-42750292D01*
X11268477Y-42635465D01*
X11215847Y-42473489D01*
X11205220Y-42440781D01*
X11205218Y-42440777D01*
X11205218Y-42440776D01*
X11155067Y-42342351D01*
X11112287Y-42258390D01*
X11090171Y-42227950D01*
X10991971Y-42092786D01*
X10847213Y-41948028D01*
X10681611Y-41827713D01*
X10588369Y-41780203D01*
X10537574Y-41732229D01*
X10520779Y-41664407D01*
X10543317Y-41598273D01*
X10588371Y-41559234D01*
X10681347Y-41511861D01*
X10766876Y-41449719D01*
X10766877Y-41449718D01*
X10185178Y-40868019D01*
X10192993Y-40865925D01*
X10307007Y-40800099D01*
X10400099Y-40707007D01*
X10465925Y-40592993D01*
X10468019Y-40585177D01*
X11049718Y-41166877D01*
X11049719Y-41166876D01*
X11111859Y-41081349D01*
X11204755Y-40899031D01*
X11267990Y-40704417D01*
X11300000Y-40502317D01*
X11300000Y-40297682D01*
X11267990Y-40095582D01*
X11204755Y-39900968D01*
X11111858Y-39718649D01*
X11111852Y-39718640D01*
X11049720Y-39633122D01*
X11049719Y-39633121D01*
X10468019Y-40214821D01*
X10465925Y-40207007D01*
X10400099Y-40092993D01*
X10307007Y-39999901D01*
X10192993Y-39934075D01*
X10185176Y-39931980D01*
X10766876Y-39350279D01*
X10681347Y-39288139D01*
X10588369Y-39240765D01*
X10537573Y-39192790D01*
X10520778Y-39124969D01*
X10543315Y-39058835D01*
X10588370Y-39019795D01*
X10588920Y-39019515D01*
X10681610Y-38972287D01*
X10741143Y-38929034D01*
X10847213Y-38851971D01*
X10847215Y-38851968D01*
X10847219Y-38851966D01*
X10991966Y-38707219D01*
X10991968Y-38707215D01*
X10991971Y-38707213D01*
X11057029Y-38617667D01*
X11112287Y-38541610D01*
X11205220Y-38359219D01*
X11268477Y-38164534D01*
X11300500Y-37962352D01*
X11300500Y-37757648D01*
X11286664Y-37670292D01*
X11268477Y-37555465D01*
X11210962Y-37378453D01*
X11205220Y-37360781D01*
X11205218Y-37360777D01*
X11205218Y-37360776D01*
X11155067Y-37262351D01*
X11112287Y-37178390D01*
X11072287Y-37123334D01*
X10991971Y-37012786D01*
X10847213Y-36868028D01*
X10681614Y-36747715D01*
X10675006Y-36744348D01*
X10588917Y-36700483D01*
X10538123Y-36652511D01*
X10521328Y-36584690D01*
X10543865Y-36518555D01*
X10588917Y-36479516D01*
X10681610Y-36432287D01*
X10702770Y-36416913D01*
X10847213Y-36311971D01*
X10847215Y-36311968D01*
X10847219Y-36311966D01*
X10991966Y-36167219D01*
X10991968Y-36167215D01*
X10991971Y-36167213D01*
X11078791Y-36047713D01*
X11112287Y-36001610D01*
X11205220Y-35819219D01*
X11268477Y-35624534D01*
X11300500Y-35422352D01*
X11300500Y-35217648D01*
X11268477Y-35015466D01*
X11205220Y-34820781D01*
X11205218Y-34820777D01*
X11205218Y-34820776D01*
X11155067Y-34722351D01*
X11112287Y-34638390D01*
X11097230Y-34617666D01*
X10991971Y-34472786D01*
X10847213Y-34328028D01*
X10681614Y-34207715D01*
X10675006Y-34204348D01*
X10588917Y-34160483D01*
X10538123Y-34112511D01*
X10521328Y-34044690D01*
X10543865Y-33978555D01*
X10588917Y-33939516D01*
X10681610Y-33892287D01*
X10702770Y-33876913D01*
X10847213Y-33771971D01*
X10847215Y-33771968D01*
X10847219Y-33771966D01*
X10991966Y-33627219D01*
X10991968Y-33627215D01*
X10991971Y-33627213D01*
X11053638Y-33542334D01*
X11112287Y-33461610D01*
X11205220Y-33279219D01*
X11268477Y-33084534D01*
X11300500Y-32882352D01*
X11300500Y-32677648D01*
X11268477Y-32475466D01*
X11205220Y-32280781D01*
X11205218Y-32280777D01*
X11205218Y-32280776D01*
X11155067Y-32182351D01*
X11112287Y-32098390D01*
X11024564Y-31977648D01*
X10991971Y-31932786D01*
X10847213Y-31788028D01*
X10681614Y-31667715D01*
X10597606Y-31624911D01*
X10588917Y-31620483D01*
X10538123Y-31572511D01*
X10521328Y-31504690D01*
X10543865Y-31438555D01*
X10588917Y-31399516D01*
X10681610Y-31352287D01*
X10767727Y-31289720D01*
X10847213Y-31231971D01*
X10847215Y-31231968D01*
X10847219Y-31231966D01*
X10991966Y-31087219D01*
X10991968Y-31087215D01*
X10991971Y-31087213D01*
X11050338Y-31006876D01*
X11112287Y-30921610D01*
X11205220Y-30739219D01*
X11268477Y-30544534D01*
X11300500Y-30342352D01*
X11300500Y-30137648D01*
X11269211Y-29940099D01*
X11268477Y-29935465D01*
X11207569Y-29748012D01*
X11205220Y-29740781D01*
X11205218Y-29740777D01*
X11205218Y-29740776D01*
X11155050Y-29642317D01*
X11112287Y-29558390D01*
X11098925Y-29539999D01*
X10991971Y-29392786D01*
X10847213Y-29248028D01*
X10681613Y-29127715D01*
X10681612Y-29127714D01*
X10681610Y-29127713D01*
X10589470Y-29080765D01*
X10499223Y-29034781D01*
X10304534Y-28971522D01*
X10129995Y-28943878D01*
X10102352Y-28939500D01*
X9897648Y-28939500D01*
X9873329Y-28943351D01*
X9695465Y-28971522D01*
X9500776Y-29034781D01*
X9318386Y-29127715D01*
X9152786Y-29248028D01*
X9008028Y-29392786D01*
X8887715Y-29558386D01*
X8794781Y-29740777D01*
X8792431Y-29748012D01*
X8752992Y-29805687D01*
X8688634Y-29832885D01*
X8619787Y-29820970D01*
X8568312Y-29773725D01*
X8550500Y-29709693D01*
X8550500Y-26688689D01*
X8570185Y-26621650D01*
X8622989Y-26575895D01*
X8692147Y-26565951D01*
X8755703Y-26594976D01*
X8792431Y-26650372D01*
X8795243Y-26659028D01*
X8888139Y-26841347D01*
X8950279Y-26926876D01*
X9531980Y-26345176D01*
X9534075Y-26352993D01*
X9599901Y-26467007D01*
X9692993Y-26560099D01*
X9807007Y-26625925D01*
X9814822Y-26628019D01*
X9233121Y-27209719D01*
X9233122Y-27209720D01*
X9318640Y-27271852D01*
X9318649Y-27271858D01*
X9500968Y-27364755D01*
X9695582Y-27427990D01*
X9897683Y-27460000D01*
X10102317Y-27460000D01*
X10304417Y-27427990D01*
X10499031Y-27364755D01*
X10681349Y-27271859D01*
X10766876Y-27209719D01*
X10766877Y-27209718D01*
X10185178Y-26628019D01*
X10192993Y-26625925D01*
X10307007Y-26560099D01*
X10400099Y-26467007D01*
X10465925Y-26352993D01*
X10468019Y-26345177D01*
X11013181Y-26890338D01*
X11046666Y-26951661D01*
X11049500Y-26978019D01*
X11049500Y-27640691D01*
X11049500Y-27759309D01*
X11080201Y-27873886D01*
X11139511Y-27976613D01*
X11223387Y-28060489D01*
X11326114Y-28119799D01*
X11440691Y-28150500D01*
X14193969Y-28150500D01*
X14261008Y-28170185D01*
X14304454Y-28218205D01*
X14387715Y-28381614D01*
X14508028Y-28547213D01*
X14652786Y-28691971D01*
X14807749Y-28804556D01*
X14818390Y-28812287D01*
X14911080Y-28859515D01*
X15000776Y-28905218D01*
X15000778Y-28905218D01*
X15000781Y-28905220D01*
X15105137Y-28939127D01*
X15195465Y-28968477D01*
X15214697Y-28971523D01*
X15397648Y-29000500D01*
X15397649Y-29000500D01*
X15602351Y-29000500D01*
X15602352Y-29000500D01*
X15804534Y-28968477D01*
X15999219Y-28905220D01*
X16181610Y-28812287D01*
X16274590Y-28744732D01*
X16347213Y-28691971D01*
X16347215Y-28691968D01*
X16347219Y-28691966D01*
X16491966Y-28547219D01*
X16491968Y-28547215D01*
X16491971Y-28547213D01*
X16544732Y-28474590D01*
X16612287Y-28381610D01*
X16705220Y-28199219D01*
X16768477Y-28004534D01*
X16800500Y-27802352D01*
X16800500Y-27597648D01*
X16777194Y-27450500D01*
X16768477Y-27395465D01*
X16721050Y-27249500D01*
X16705220Y-27200781D01*
X16705218Y-27200778D01*
X16705218Y-27200776D01*
X16660042Y-27112114D01*
X16647146Y-27043445D01*
X16673422Y-26978704D01*
X16674560Y-26977293D01*
X20101436Y-22794885D01*
X20159149Y-22755507D01*
X20228992Y-22753581D01*
X20235637Y-22755535D01*
X20275466Y-22768477D01*
X20477648Y-22800500D01*
X20477649Y-22800500D01*
X20682351Y-22800500D01*
X20682352Y-22800500D01*
X20884534Y-22768477D01*
X21079219Y-22705220D01*
X21261610Y-22612287D01*
X21372363Y-22531821D01*
X21427213Y-22491971D01*
X21427215Y-22491968D01*
X21427219Y-22491966D01*
X21571966Y-22347219D01*
X21571968Y-22347215D01*
X21571971Y-22347213D01*
X21650421Y-22239234D01*
X21692287Y-22181610D01*
X21785220Y-21999219D01*
X21848477Y-21804534D01*
X21880500Y-21602352D01*
X21880500Y-21397648D01*
X21848477Y-21195466D01*
X21785220Y-21000781D01*
X21785218Y-21000778D01*
X21785218Y-21000776D01*
X21727249Y-20887007D01*
X21692287Y-20818390D01*
X21684556Y-20807749D01*
X21571971Y-20652786D01*
X21427213Y-20508028D01*
X21261613Y-20387715D01*
X21261612Y-20387714D01*
X21261610Y-20387713D01*
X21204653Y-20358691D01*
X21079223Y-20294781D01*
X20884534Y-20231522D01*
X20709995Y-20203878D01*
X20682352Y-20199500D01*
X20477648Y-20199500D01*
X20453329Y-20203351D01*
X20275465Y-20231522D01*
X20080776Y-20294781D01*
X19898386Y-20387715D01*
X19732786Y-20508028D01*
X19588028Y-20652786D01*
X19467715Y-20818386D01*
X19374781Y-21000776D01*
X19311522Y-21195465D01*
X19279500Y-21397648D01*
X19279500Y-21602351D01*
X19311522Y-21804534D01*
X19374782Y-21999226D01*
X19419956Y-22087884D01*
X19432852Y-22156553D01*
X19406575Y-22221293D01*
X19405387Y-22222767D01*
X17020416Y-25133559D01*
X16962701Y-25172939D01*
X16892858Y-25174865D01*
X16833061Y-25138725D01*
X16802295Y-25075993D01*
X16801142Y-25062490D01*
X16800883Y-25062511D01*
X16800500Y-25057650D01*
X16768477Y-24855465D01*
X16705218Y-24660776D01*
X16666773Y-24585325D01*
X16612287Y-24478390D01*
X16604167Y-24467213D01*
X16491971Y-24312786D01*
X16347213Y-24168028D01*
X16181613Y-24047715D01*
X16181612Y-24047714D01*
X16181610Y-24047713D01*
X16124653Y-24018691D01*
X15999223Y-23954781D01*
X15804534Y-23891522D01*
X15629995Y-23863878D01*
X15602352Y-23859500D01*
X15397648Y-23859500D01*
X15373329Y-23863351D01*
X15195465Y-23891522D01*
X15000776Y-23954781D01*
X14818386Y-24047715D01*
X14652786Y-24168028D01*
X14508028Y-24312786D01*
X14387715Y-24478386D01*
X14294781Y-24660776D01*
X14231522Y-24855465D01*
X14199500Y-25057648D01*
X14199500Y-25262351D01*
X14231522Y-25464534D01*
X14294781Y-25659223D01*
X14387715Y-25841613D01*
X14508028Y-26007213D01*
X14652786Y-26151971D01*
X14754441Y-26225826D01*
X14818390Y-26272287D01*
X14908862Y-26318385D01*
X14911080Y-26319515D01*
X14961876Y-26367490D01*
X14978671Y-26435311D01*
X14956134Y-26501446D01*
X14911080Y-26540485D01*
X14818386Y-26587715D01*
X14652786Y-26708028D01*
X14508028Y-26852786D01*
X14387715Y-27018385D01*
X14344932Y-27102352D01*
X14306892Y-27177011D01*
X14304454Y-27181795D01*
X14256479Y-27232591D01*
X14193969Y-27249500D01*
X12074500Y-27249500D01*
X12007461Y-27229815D01*
X11961706Y-27177011D01*
X11950500Y-27125500D01*
X11950500Y-21397648D01*
X14199500Y-21397648D01*
X14199500Y-21602351D01*
X14231522Y-21804534D01*
X14294781Y-21999223D01*
X14387715Y-22181613D01*
X14508028Y-22347213D01*
X14652786Y-22491971D01*
X14799909Y-22598860D01*
X14818390Y-22612287D01*
X14934607Y-22671503D01*
X15000776Y-22705218D01*
X15000778Y-22705218D01*
X15000781Y-22705220D01*
X15105137Y-22739127D01*
X15195465Y-22768477D01*
X15296557Y-22784488D01*
X15397648Y-22800500D01*
X15397649Y-22800500D01*
X15602351Y-22800500D01*
X15602352Y-22800500D01*
X15804534Y-22768477D01*
X15999219Y-22705220D01*
X16181610Y-22612287D01*
X16292363Y-22531821D01*
X16347213Y-22491971D01*
X16347215Y-22491968D01*
X16347219Y-22491966D01*
X16491966Y-22347219D01*
X16491968Y-22347215D01*
X16491971Y-22347213D01*
X16570421Y-22239234D01*
X16612287Y-22181610D01*
X16705220Y-21999219D01*
X16768477Y-21804534D01*
X16800500Y-21602352D01*
X16800500Y-21397648D01*
X16768477Y-21195466D01*
X16705220Y-21000781D01*
X16705218Y-21000778D01*
X16705218Y-21000776D01*
X16647249Y-20887007D01*
X16612287Y-20818390D01*
X16604556Y-20807749D01*
X16491971Y-20652786D01*
X16347213Y-20508028D01*
X16181613Y-20387715D01*
X16181612Y-20387714D01*
X16181610Y-20387713D01*
X16124653Y-20358691D01*
X15999223Y-20294781D01*
X15804534Y-20231522D01*
X15629995Y-20203878D01*
X15602352Y-20199500D01*
X15397648Y-20199500D01*
X15373329Y-20203351D01*
X15195465Y-20231522D01*
X15000776Y-20294781D01*
X14818386Y-20387715D01*
X14652786Y-20508028D01*
X14508028Y-20652786D01*
X14387715Y-20818386D01*
X14294781Y-21000776D01*
X14231522Y-21195465D01*
X14199500Y-21397648D01*
X11950500Y-21397648D01*
X11950500Y-19980693D01*
X11950500Y-19980691D01*
X11919799Y-19866114D01*
X11867463Y-19775466D01*
X11860489Y-19763386D01*
X11860488Y-19763385D01*
X11860487Y-19763383D01*
X11242054Y-19144951D01*
X11208569Y-19083628D01*
X11211803Y-19018956D01*
X11268477Y-18844534D01*
X11300500Y-18642352D01*
X11300500Y-18437648D01*
X11292512Y-18387213D01*
X11268477Y-18235465D01*
X11226309Y-18105687D01*
X11205220Y-18040781D01*
X11205218Y-18040777D01*
X11205218Y-18040776D01*
X11158491Y-17949071D01*
X11132290Y-17897648D01*
X14199500Y-17897648D01*
X14199500Y-18102351D01*
X14231522Y-18304534D01*
X14294781Y-18499223D01*
X14387715Y-18681613D01*
X14508028Y-18847213D01*
X14652786Y-18991971D01*
X14778944Y-19083628D01*
X14818390Y-19112287D01*
X14882497Y-19144951D01*
X15000776Y-19205218D01*
X15000778Y-19205218D01*
X15000781Y-19205220D01*
X15105137Y-19239127D01*
X15195465Y-19268477D01*
X15296557Y-19284488D01*
X15397648Y-19300500D01*
X15397649Y-19300500D01*
X15602351Y-19300500D01*
X15602352Y-19300500D01*
X15804534Y-19268477D01*
X15999219Y-19205220D01*
X16181610Y-19112287D01*
X16310077Y-19018951D01*
X16347213Y-18991971D01*
X16347215Y-18991968D01*
X16347219Y-18991966D01*
X16491966Y-18847219D01*
X16491968Y-18847215D01*
X16491971Y-18847213D01*
X16599278Y-18699515D01*
X16612287Y-18681610D01*
X16705220Y-18499219D01*
X16768477Y-18304534D01*
X16800500Y-18102352D01*
X16800500Y-17897648D01*
X19279500Y-17897648D01*
X19279500Y-18102351D01*
X19311522Y-18304534D01*
X19374781Y-18499223D01*
X19467715Y-18681613D01*
X19588028Y-18847213D01*
X19732786Y-18991971D01*
X19858944Y-19083628D01*
X19898390Y-19112287D01*
X19962497Y-19144951D01*
X20080776Y-19205218D01*
X20080778Y-19205218D01*
X20080781Y-19205220D01*
X20185137Y-19239127D01*
X20275465Y-19268477D01*
X20376557Y-19284488D01*
X20477648Y-19300500D01*
X20477649Y-19300500D01*
X20682351Y-19300500D01*
X20682352Y-19300500D01*
X20884534Y-19268477D01*
X21079219Y-19205220D01*
X21261610Y-19112287D01*
X21390077Y-19018951D01*
X21427213Y-18991971D01*
X21427215Y-18991968D01*
X21427219Y-18991966D01*
X21571966Y-18847219D01*
X21571968Y-18847215D01*
X21571971Y-18847213D01*
X21679278Y-18699515D01*
X21692287Y-18681610D01*
X21785220Y-18499219D01*
X21848477Y-18304534D01*
X21880500Y-18102352D01*
X21880500Y-17897648D01*
X21848477Y-17695466D01*
X21847606Y-17692786D01*
X21785218Y-17500776D01*
X21723926Y-17380485D01*
X21692287Y-17318390D01*
X21660989Y-17275311D01*
X21571971Y-17152786D01*
X21427213Y-17008028D01*
X21261613Y-16887715D01*
X21261612Y-16887714D01*
X21261610Y-16887713D01*
X21204053Y-16858386D01*
X21079223Y-16794781D01*
X20884534Y-16731522D01*
X20709995Y-16703878D01*
X20682352Y-16699500D01*
X20477648Y-16699500D01*
X20453329Y-16703351D01*
X20275465Y-16731522D01*
X20080776Y-16794781D01*
X19898386Y-16887715D01*
X19732786Y-17008028D01*
X19588028Y-17152786D01*
X19467715Y-17318386D01*
X19374781Y-17500776D01*
X19311522Y-17695465D01*
X19279500Y-17897648D01*
X16800500Y-17897648D01*
X16768477Y-17695466D01*
X16767606Y-17692786D01*
X16705218Y-17500776D01*
X16643926Y-17380485D01*
X16612287Y-17318390D01*
X16580989Y-17275311D01*
X16491971Y-17152786D01*
X16347213Y-17008028D01*
X16181613Y-16887715D01*
X16181612Y-16887714D01*
X16181610Y-16887713D01*
X16124053Y-16858386D01*
X15999223Y-16794781D01*
X15804534Y-16731522D01*
X15629995Y-16703878D01*
X15602352Y-16699500D01*
X15397648Y-16699500D01*
X15373329Y-16703351D01*
X15195465Y-16731522D01*
X15000776Y-16794781D01*
X14818386Y-16887715D01*
X14652786Y-17008028D01*
X14508028Y-17152786D01*
X14387715Y-17318386D01*
X14294781Y-17500776D01*
X14231522Y-17695465D01*
X14199500Y-17897648D01*
X11132290Y-17897648D01*
X11112284Y-17858385D01*
X10991971Y-17692786D01*
X10847213Y-17548028D01*
X10681614Y-17427715D01*
X10675006Y-17424348D01*
X10588917Y-17380483D01*
X10538123Y-17332511D01*
X10521328Y-17264690D01*
X10543865Y-17198555D01*
X10588917Y-17159516D01*
X10681610Y-17112287D01*
X10702770Y-17096913D01*
X10847213Y-16991971D01*
X10847215Y-16991968D01*
X10847219Y-16991966D01*
X10991966Y-16847219D01*
X10991968Y-16847215D01*
X10991971Y-16847213D01*
X11104167Y-16692786D01*
X11112287Y-16681610D01*
X11205220Y-16499219D01*
X11268477Y-16304534D01*
X11300500Y-16102352D01*
X11300500Y-15897648D01*
X11279788Y-15766877D01*
X11268477Y-15695465D01*
X11205218Y-15500776D01*
X11153920Y-15400099D01*
X11112287Y-15318390D01*
X11086460Y-15282842D01*
X10991971Y-15152786D01*
X10847213Y-15008028D01*
X10681613Y-14887715D01*
X10681612Y-14887714D01*
X10681610Y-14887713D01*
X10624653Y-14858691D01*
X10499223Y-14794781D01*
X10304534Y-14731522D01*
X10129995Y-14703878D01*
X10102352Y-14699500D01*
X9897648Y-14699500D01*
X9873329Y-14703351D01*
X9695465Y-14731522D01*
X9500776Y-14794781D01*
X9318386Y-14887715D01*
X9152786Y-15008028D01*
X9008028Y-15152786D01*
X8887715Y-15318386D01*
X8794781Y-15500777D01*
X8792431Y-15508012D01*
X8752992Y-15565687D01*
X8688634Y-15592885D01*
X8619787Y-15580970D01*
X8568312Y-15533725D01*
X8550500Y-15469693D01*
X8550500Y-12674500D01*
X8570185Y-12607461D01*
X8622989Y-12561706D01*
X8674500Y-12550500D01*
X17899462Y-12550500D01*
X17935624Y-12555890D01*
X18324665Y-12674500D01*
X26478081Y-15160296D01*
X26536464Y-15198675D01*
X26564391Y-15259507D01*
X26571523Y-15304534D01*
X26634780Y-15499219D01*
X26682505Y-15592885D01*
X26727715Y-15681613D01*
X26848028Y-15847213D01*
X26992786Y-15991971D01*
X27147749Y-16104556D01*
X27158390Y-16112287D01*
X27249840Y-16158883D01*
X27251080Y-16159515D01*
X27301876Y-16207490D01*
X27318671Y-16275311D01*
X27296134Y-16341446D01*
X27251080Y-16380485D01*
X27158386Y-16427715D01*
X26992786Y-16548028D01*
X26848028Y-16692786D01*
X26727715Y-16858386D01*
X26634781Y-17040776D01*
X26571522Y-17235465D01*
X26539500Y-17437648D01*
X26539500Y-17642351D01*
X26571522Y-17844534D01*
X26634781Y-18039223D01*
X26727715Y-18221613D01*
X26848028Y-18387213D01*
X26992786Y-18531971D01*
X27147749Y-18644556D01*
X27158390Y-18652287D01*
X27249840Y-18698883D01*
X27251080Y-18699515D01*
X27301876Y-18747490D01*
X27318671Y-18815311D01*
X27296134Y-18881446D01*
X27251080Y-18920485D01*
X27158386Y-18967715D01*
X26992786Y-19088028D01*
X26848028Y-19232786D01*
X26727715Y-19398386D01*
X26634781Y-19580776D01*
X26571524Y-19775461D01*
X26571523Y-19775464D01*
X26571523Y-19775466D01*
X26557166Y-19866112D01*
X26539500Y-19977648D01*
X26539500Y-20182351D01*
X26571522Y-20384534D01*
X26634781Y-20579223D01*
X26727715Y-20761613D01*
X26848028Y-20927213D01*
X26992786Y-21071971D01*
X27094441Y-21145826D01*
X27158390Y-21192287D01*
X27249840Y-21238883D01*
X27251080Y-21239515D01*
X27301876Y-21287490D01*
X27318671Y-21355311D01*
X27296134Y-21421446D01*
X27251080Y-21460485D01*
X27158386Y-21507715D01*
X26992786Y-21628028D01*
X26848028Y-21772786D01*
X26727715Y-21938386D01*
X26634781Y-22120776D01*
X26571522Y-22315465D01*
X26539500Y-22517648D01*
X26539500Y-22722351D01*
X26571522Y-22924534D01*
X26634781Y-23119223D01*
X26727715Y-23301613D01*
X26848028Y-23467213D01*
X26992786Y-23611971D01*
X27147749Y-23724556D01*
X27158390Y-23732287D01*
X27249840Y-23778883D01*
X27251080Y-23779515D01*
X27301876Y-23827490D01*
X27318671Y-23895311D01*
X27296134Y-23961446D01*
X27251080Y-24000485D01*
X27158386Y-24047715D01*
X26992786Y-24168028D01*
X26848028Y-24312786D01*
X26727715Y-24478386D01*
X26634781Y-24660776D01*
X26571522Y-24855465D01*
X26539500Y-25057648D01*
X26539500Y-25262351D01*
X26571522Y-25464534D01*
X26634781Y-25659223D01*
X26727715Y-25841613D01*
X26848028Y-26007213D01*
X26992786Y-26151971D01*
X27094441Y-26225826D01*
X27158390Y-26272287D01*
X27248862Y-26318385D01*
X27251080Y-26319515D01*
X27301876Y-26367490D01*
X27318671Y-26435311D01*
X27296134Y-26501446D01*
X27251080Y-26540485D01*
X27158386Y-26587715D01*
X26992786Y-26708028D01*
X26848028Y-26852786D01*
X26727715Y-27018385D01*
X26684932Y-27102352D01*
X26646892Y-27177011D01*
X26644454Y-27181795D01*
X26596479Y-27232591D01*
X26533969Y-27249500D01*
X21886031Y-27249500D01*
X21818992Y-27229815D01*
X21775546Y-27181795D01*
X21692287Y-27018390D01*
X21692285Y-27018387D01*
X21692284Y-27018385D01*
X21571971Y-26852786D01*
X21427213Y-26708028D01*
X21261614Y-26587715D01*
X21238416Y-26575895D01*
X21168917Y-26540483D01*
X21118123Y-26492511D01*
X21101328Y-26424690D01*
X21123865Y-26358555D01*
X21168917Y-26319516D01*
X21261610Y-26272287D01*
X21325559Y-26225826D01*
X21427213Y-26151971D01*
X21427215Y-26151968D01*
X21427219Y-26151966D01*
X21571966Y-26007219D01*
X21571968Y-26007215D01*
X21571971Y-26007213D01*
X21658791Y-25887713D01*
X21692287Y-25841610D01*
X21785220Y-25659219D01*
X21848477Y-25464534D01*
X21880500Y-25262352D01*
X21880500Y-25057648D01*
X21878994Y-25048139D01*
X21848477Y-24855465D01*
X21785218Y-24660776D01*
X21746773Y-24585325D01*
X21692287Y-24478390D01*
X21684167Y-24467213D01*
X21571971Y-24312786D01*
X21427213Y-24168028D01*
X21261613Y-24047715D01*
X21261612Y-24047714D01*
X21261610Y-24047713D01*
X21204653Y-24018691D01*
X21079223Y-23954781D01*
X20884534Y-23891522D01*
X20709995Y-23863878D01*
X20682352Y-23859500D01*
X20477648Y-23859500D01*
X20453329Y-23863351D01*
X20275465Y-23891522D01*
X20080776Y-23954781D01*
X19898386Y-24047715D01*
X19732786Y-24168028D01*
X19588028Y-24312786D01*
X19467715Y-24478386D01*
X19374781Y-24660776D01*
X19311522Y-24855465D01*
X19279500Y-25057648D01*
X19279500Y-25262351D01*
X19311522Y-25464534D01*
X19374781Y-25659223D01*
X19467715Y-25841613D01*
X19588028Y-26007213D01*
X19732786Y-26151971D01*
X19834441Y-26225826D01*
X19898390Y-26272287D01*
X19988862Y-26318385D01*
X19991080Y-26319515D01*
X20041876Y-26367490D01*
X20058671Y-26435311D01*
X20036134Y-26501446D01*
X19991080Y-26540485D01*
X19898386Y-26587715D01*
X19732786Y-26708028D01*
X19588028Y-26852786D01*
X19467715Y-27018386D01*
X19374781Y-27200776D01*
X19311522Y-27395465D01*
X19279500Y-27597648D01*
X19279500Y-27802351D01*
X19311522Y-28004534D01*
X19374781Y-28199223D01*
X19426385Y-28300500D01*
X19467282Y-28380765D01*
X19467715Y-28381613D01*
X19588028Y-28547213D01*
X19732786Y-28691971D01*
X19887749Y-28804556D01*
X19898390Y-28812287D01*
X19991080Y-28859515D01*
X20080776Y-28905218D01*
X20080778Y-28905218D01*
X20080781Y-28905220D01*
X20185137Y-28939127D01*
X20275465Y-28968477D01*
X20294697Y-28971523D01*
X20477648Y-29000500D01*
X20477649Y-29000500D01*
X20682351Y-29000500D01*
X20682352Y-29000500D01*
X20884534Y-28968477D01*
X21079219Y-28905220D01*
X21261610Y-28812287D01*
X21354590Y-28744732D01*
X21427213Y-28691971D01*
X21427215Y-28691968D01*
X21427219Y-28691966D01*
X21571966Y-28547219D01*
X21571968Y-28547215D01*
X21571971Y-28547213D01*
X21692284Y-28381614D01*
X21692285Y-28381613D01*
X21692287Y-28381610D01*
X21775546Y-28218204D01*
X21823521Y-28167409D01*
X21886031Y-28150500D01*
X26533969Y-28150500D01*
X26601008Y-28170185D01*
X26644454Y-28218205D01*
X26727715Y-28381614D01*
X26848028Y-28547213D01*
X26992786Y-28691971D01*
X27147749Y-28804556D01*
X27158390Y-28812287D01*
X27248864Y-28858386D01*
X27251080Y-28859515D01*
X27301876Y-28907490D01*
X27318671Y-28975311D01*
X27296134Y-29041446D01*
X27251080Y-29080485D01*
X27158386Y-29127715D01*
X26992786Y-29248028D01*
X26848028Y-29392786D01*
X26727715Y-29558386D01*
X26634781Y-29740776D01*
X26571522Y-29935465D01*
X26539500Y-30137648D01*
X26539500Y-30342351D01*
X26571522Y-30544534D01*
X26634781Y-30739223D01*
X26695694Y-30858769D01*
X26727481Y-30921155D01*
X26727715Y-30921613D01*
X26848028Y-31087213D01*
X26992786Y-31231971D01*
X27118682Y-31323438D01*
X27158390Y-31352287D01*
X27248864Y-31398386D01*
X27251080Y-31399515D01*
X27301876Y-31447490D01*
X27318671Y-31515311D01*
X27296134Y-31581446D01*
X27251080Y-31620485D01*
X27158386Y-31667715D01*
X26992786Y-31788028D01*
X26848028Y-31932786D01*
X26727715Y-32098386D01*
X26634781Y-32280776D01*
X26571522Y-32475465D01*
X26539500Y-32677648D01*
X26539500Y-32882351D01*
X26571522Y-33084534D01*
X26634781Y-33279223D01*
X26685339Y-33378446D01*
X26707248Y-33421446D01*
X26727715Y-33461613D01*
X26848028Y-33627213D01*
X26992786Y-33771971D01*
X27147749Y-33884556D01*
X27158390Y-33892287D01*
X27248864Y-33938386D01*
X27251080Y-33939515D01*
X27301876Y-33987490D01*
X27318671Y-34055311D01*
X27296134Y-34121446D01*
X27251080Y-34160485D01*
X27158386Y-34207715D01*
X26992786Y-34328028D01*
X26848028Y-34472786D01*
X26727715Y-34638386D01*
X26634781Y-34820776D01*
X26571522Y-35015465D01*
X26539500Y-35217648D01*
X26539500Y-35422351D01*
X26571522Y-35624534D01*
X26634781Y-35819223D01*
X26698691Y-35944653D01*
X26707248Y-35961446D01*
X26727715Y-36001613D01*
X26848028Y-36167213D01*
X26992786Y-36311971D01*
X27147749Y-36424556D01*
X27158390Y-36432287D01*
X27248864Y-36478386D01*
X27251080Y-36479515D01*
X27301876Y-36527490D01*
X27318671Y-36595311D01*
X27296134Y-36661446D01*
X27251080Y-36700485D01*
X27158386Y-36747715D01*
X26992786Y-36868028D01*
X26848028Y-37012786D01*
X26727715Y-37178386D01*
X26634781Y-37360776D01*
X26571522Y-37555465D01*
X26539500Y-37757648D01*
X26539500Y-37962351D01*
X26571522Y-38164534D01*
X26634781Y-38359223D01*
X26698691Y-38484653D01*
X26707248Y-38501446D01*
X26727715Y-38541613D01*
X26848028Y-38707213D01*
X26992786Y-38851971D01*
X27098858Y-38929035D01*
X27158390Y-38972287D01*
X27248864Y-39018386D01*
X27251080Y-39019515D01*
X27301876Y-39067490D01*
X27318671Y-39135311D01*
X27296134Y-39201446D01*
X27251080Y-39240485D01*
X27158386Y-39287715D01*
X26992786Y-39408028D01*
X26848028Y-39552786D01*
X26727715Y-39718385D01*
X26644454Y-39881795D01*
X26596479Y-39932591D01*
X26533969Y-39949500D01*
X12059309Y-39949500D01*
X11940691Y-39949500D01*
X11826114Y-39980201D01*
X11826112Y-39980201D01*
X11826112Y-39980202D01*
X11723387Y-40039511D01*
X11723384Y-40039513D01*
X11639513Y-40123384D01*
X11639511Y-40123387D01*
X11591233Y-40207007D01*
X11580201Y-40226114D01*
X11549500Y-40340691D01*
X11549500Y-40340693D01*
X11549500Y-76633134D01*
X11529815Y-76700173D01*
X11477011Y-76745928D01*
X11407853Y-76755872D01*
X11344297Y-76726847D01*
X11337819Y-76720815D01*
X11222743Y-76605739D01*
X11222736Y-76605733D01*
X11030293Y-76458067D01*
X11030292Y-76458066D01*
X11030289Y-76458064D01*
X10820212Y-76336776D01*
X10820205Y-76336773D01*
X10596104Y-76243947D01*
X10361785Y-76181161D01*
X10121289Y-76149500D01*
X10121288Y-76149500D01*
X9878712Y-76149500D01*
X9878711Y-76149500D01*
X9638214Y-76181161D01*
X9403895Y-76243947D01*
X9179794Y-76336773D01*
X9179785Y-76336777D01*
X8969706Y-76458067D01*
X8777263Y-76605733D01*
X8777256Y-76605739D01*
X8605739Y-76777256D01*
X8605733Y-76777263D01*
X8458067Y-76969706D01*
X8336777Y-77179785D01*
X8336773Y-77179794D01*
X8243947Y-77403895D01*
X8181161Y-77638214D01*
X8149500Y-77878711D01*
X8149500Y-78121288D01*
X8181161Y-78361785D01*
X8243947Y-78596104D01*
X8328611Y-78800500D01*
X8336776Y-78820212D01*
X8458064Y-79030289D01*
X8458066Y-79030292D01*
X8458067Y-79030293D01*
X8605733Y-79222736D01*
X8605739Y-79222743D01*
X8777256Y-79394260D01*
X8777262Y-79394265D01*
X8969711Y-79541936D01*
X9179788Y-79663224D01*
X9403900Y-79756054D01*
X9638211Y-79818838D01*
X9818586Y-79842584D01*
X9878711Y-79850500D01*
X9878712Y-79850500D01*
X10121289Y-79850500D01*
X10169388Y-79844167D01*
X10361789Y-79818838D01*
X10596100Y-79756054D01*
X10820212Y-79663224D01*
X11030289Y-79541936D01*
X11092650Y-79494084D01*
X11157818Y-79468890D01*
X11226263Y-79482928D01*
X11276253Y-79531741D01*
X11291917Y-79599833D01*
X11282698Y-79639912D01*
X11230263Y-79766503D01*
X11230262Y-79766506D01*
X11230262Y-79766507D01*
X11230261Y-79766510D01*
X11199500Y-79921153D01*
X11199500Y-80078846D01*
X11230261Y-80233489D01*
X11230264Y-80233501D01*
X11290602Y-80379172D01*
X11290609Y-80379185D01*
X11378210Y-80510288D01*
X11378213Y-80510292D01*
X11489707Y-80621786D01*
X11489711Y-80621789D01*
X11620814Y-80709390D01*
X11620827Y-80709397D01*
X11766498Y-80769735D01*
X11766503Y-80769737D01*
X11921153Y-80800499D01*
X11921156Y-80800500D01*
X11921158Y-80800500D01*
X12078844Y-80800500D01*
X12078845Y-80800499D01*
X12233497Y-80769737D01*
X12379179Y-80709394D01*
X12510289Y-80621789D01*
X12621789Y-80510289D01*
X12709394Y-80379179D01*
X12769737Y-80233497D01*
X12800500Y-80078842D01*
X12800500Y-79921158D01*
X12800500Y-79921155D01*
X12800499Y-79921153D01*
X12769738Y-79766510D01*
X12769737Y-79766503D01*
X12717302Y-79639912D01*
X12709397Y-79620827D01*
X12709390Y-79620814D01*
X12621789Y-79489711D01*
X12621786Y-79489707D01*
X12510292Y-79378213D01*
X12510284Y-79378207D01*
X12505605Y-79375080D01*
X12460802Y-79321466D01*
X12450500Y-79271981D01*
X12450500Y-40974500D01*
X12470185Y-40907461D01*
X12522989Y-40861706D01*
X12574500Y-40850500D01*
X26533969Y-40850500D01*
X26601008Y-40870185D01*
X26644454Y-40918205D01*
X26727715Y-41081614D01*
X26848028Y-41247213D01*
X26992786Y-41391971D01*
X27147749Y-41504556D01*
X27158390Y-41512287D01*
X27248864Y-41558386D01*
X27251080Y-41559515D01*
X27301876Y-41607490D01*
X27318671Y-41675311D01*
X27296134Y-41741446D01*
X27251080Y-41780485D01*
X27158386Y-41827715D01*
X26992786Y-41948028D01*
X26848028Y-42092786D01*
X26727715Y-42258385D01*
X26644454Y-42421795D01*
X26596479Y-42472591D01*
X26533969Y-42489500D01*
X14059309Y-42489500D01*
X13940691Y-42489500D01*
X13826114Y-42520201D01*
X13826112Y-42520201D01*
X13826112Y-42520202D01*
X13723387Y-42579511D01*
X13723384Y-42579513D01*
X13639513Y-42663384D01*
X13639511Y-42663387D01*
X13629626Y-42680509D01*
X13580201Y-42766114D01*
X13549500Y-42880691D01*
X13549500Y-42880693D01*
X13549500Y-77271981D01*
X13529815Y-77339020D01*
X13494395Y-77375080D01*
X13489715Y-77378207D01*
X13489707Y-77378213D01*
X13378213Y-77489707D01*
X13378210Y-77489711D01*
X13290609Y-77620814D01*
X13290602Y-77620827D01*
X13230264Y-77766498D01*
X13230261Y-77766510D01*
X13199500Y-77921153D01*
X13199500Y-78078846D01*
X13230261Y-78233489D01*
X13230264Y-78233501D01*
X13290602Y-78379172D01*
X13290609Y-78379185D01*
X13378210Y-78510288D01*
X13378213Y-78510292D01*
X13489707Y-78621786D01*
X13489711Y-78621789D01*
X13620814Y-78709390D01*
X13620827Y-78709397D01*
X13766498Y-78769735D01*
X13766503Y-78769737D01*
X13921153Y-78800499D01*
X13921156Y-78800500D01*
X13921158Y-78800500D01*
X14078844Y-78800500D01*
X14078845Y-78800499D01*
X14233497Y-78769737D01*
X14379179Y-78709394D01*
X14510289Y-78621789D01*
X14621789Y-78510289D01*
X14709394Y-78379179D01*
X14769737Y-78233497D01*
X14800500Y-78078842D01*
X14800500Y-77921158D01*
X14800500Y-77921155D01*
X14800499Y-77921153D01*
X14769738Y-77766510D01*
X14769737Y-77766503D01*
X14769735Y-77766498D01*
X14709397Y-77620827D01*
X14709390Y-77620814D01*
X14621789Y-77489711D01*
X14621786Y-77489707D01*
X14510292Y-77378213D01*
X14510284Y-77378207D01*
X14505605Y-77375080D01*
X14460802Y-77321466D01*
X14450500Y-77271981D01*
X14450500Y-43514500D01*
X14470185Y-43447461D01*
X14522989Y-43401706D01*
X14574500Y-43390500D01*
X26533969Y-43390500D01*
X26601008Y-43410185D01*
X26644454Y-43458205D01*
X26727715Y-43621614D01*
X26848028Y-43787213D01*
X26992786Y-43931971D01*
X27147749Y-44044556D01*
X27158390Y-44052287D01*
X27248864Y-44098386D01*
X27251080Y-44099515D01*
X27301876Y-44147490D01*
X27318671Y-44215311D01*
X27296134Y-44281446D01*
X27251080Y-44320485D01*
X27158386Y-44367715D01*
X26992786Y-44488028D01*
X26848028Y-44632786D01*
X26727715Y-44798386D01*
X26634781Y-44980776D01*
X26571522Y-45175465D01*
X26539500Y-45377648D01*
X26539500Y-45582351D01*
X26571522Y-45784534D01*
X26634781Y-45979223D01*
X26727715Y-46161613D01*
X26848028Y-46327213D01*
X26992786Y-46471971D01*
X27158385Y-46592284D01*
X27158387Y-46592285D01*
X27158390Y-46592287D01*
X27251080Y-46639515D01*
X27251630Y-46639795D01*
X27302426Y-46687770D01*
X27319221Y-46755591D01*
X27296684Y-46821725D01*
X27251630Y-46860765D01*
X27158649Y-46908141D01*
X27073122Y-46970278D01*
X27073122Y-46970279D01*
X27654823Y-47551980D01*
X27647007Y-47554075D01*
X27532993Y-47619901D01*
X27439901Y-47712993D01*
X27374075Y-47827007D01*
X27371980Y-47834823D01*
X26790279Y-47253122D01*
X26790278Y-47253122D01*
X26728141Y-47338648D01*
X26635244Y-47520968D01*
X26572009Y-47715582D01*
X26540000Y-47917682D01*
X26540000Y-48122317D01*
X26572009Y-48324417D01*
X26635244Y-48519031D01*
X26728139Y-48701347D01*
X26790279Y-48786876D01*
X27371980Y-48205176D01*
X27374075Y-48212993D01*
X27439901Y-48327007D01*
X27532993Y-48420099D01*
X27647007Y-48485925D01*
X27654822Y-48488019D01*
X27073121Y-49069719D01*
X27073122Y-49069720D01*
X27158640Y-49131852D01*
X27158654Y-49131861D01*
X27251629Y-49179234D01*
X27302426Y-49227208D01*
X27319221Y-49295029D01*
X27296684Y-49361164D01*
X27251631Y-49400203D01*
X27158388Y-49447713D01*
X26992786Y-49568028D01*
X26848028Y-49712786D01*
X26727715Y-49878385D01*
X26644454Y-50041795D01*
X26596479Y-50092591D01*
X26533969Y-50109500D01*
X16059309Y-50109500D01*
X15940691Y-50109500D01*
X15826114Y-50140201D01*
X15826112Y-50140201D01*
X15826112Y-50140202D01*
X15723387Y-50199511D01*
X15723384Y-50199513D01*
X15639513Y-50283384D01*
X15639511Y-50283387D01*
X15580201Y-50386114D01*
X15549500Y-50500691D01*
X15549500Y-50500693D01*
X15549500Y-75271981D01*
X15529815Y-75339020D01*
X15494395Y-75375080D01*
X15489715Y-75378207D01*
X15489707Y-75378213D01*
X15378213Y-75489707D01*
X15378210Y-75489711D01*
X15290609Y-75620814D01*
X15290602Y-75620827D01*
X15230264Y-75766498D01*
X15230261Y-75766510D01*
X15199500Y-75921153D01*
X15199500Y-76078846D01*
X15230261Y-76233489D01*
X15230264Y-76233501D01*
X15290602Y-76379172D01*
X15290609Y-76379185D01*
X15378210Y-76510288D01*
X15378213Y-76510292D01*
X15489707Y-76621786D01*
X15489711Y-76621789D01*
X15620814Y-76709390D01*
X15620827Y-76709397D01*
X15766498Y-76769735D01*
X15766503Y-76769737D01*
X15921153Y-76800499D01*
X15921156Y-76800500D01*
X15921158Y-76800500D01*
X16078844Y-76800500D01*
X16078845Y-76800499D01*
X16233497Y-76769737D01*
X16379179Y-76709394D01*
X16510289Y-76621789D01*
X16621789Y-76510289D01*
X16709394Y-76379179D01*
X16769737Y-76233497D01*
X16800500Y-76078842D01*
X16800500Y-75921158D01*
X16800500Y-75921155D01*
X16800499Y-75921153D01*
X16769738Y-75766510D01*
X16769737Y-75766503D01*
X16769735Y-75766498D01*
X16709397Y-75620827D01*
X16709390Y-75620814D01*
X16621789Y-75489711D01*
X16621786Y-75489707D01*
X16510292Y-75378213D01*
X16510284Y-75378207D01*
X16505605Y-75375080D01*
X16460802Y-75321466D01*
X16450500Y-75271981D01*
X16450500Y-73921153D01*
X39199500Y-73921153D01*
X39199500Y-74078846D01*
X39230261Y-74233489D01*
X39230264Y-74233501D01*
X39290602Y-74379172D01*
X39290609Y-74379185D01*
X39378210Y-74510288D01*
X39378213Y-74510292D01*
X39489707Y-74621786D01*
X39489711Y-74621789D01*
X39620814Y-74709390D01*
X39620827Y-74709397D01*
X39766498Y-74769735D01*
X39766503Y-74769737D01*
X39921153Y-74800499D01*
X39921156Y-74800500D01*
X39921158Y-74800500D01*
X40078844Y-74800500D01*
X40078845Y-74800499D01*
X40233497Y-74769737D01*
X40379179Y-74709394D01*
X40510289Y-74621789D01*
X40621789Y-74510289D01*
X40709394Y-74379179D01*
X40769737Y-74233497D01*
X40800500Y-74078842D01*
X40800500Y-73921158D01*
X40800500Y-73921155D01*
X40800499Y-73921153D01*
X40769738Y-73766510D01*
X40769737Y-73766503D01*
X40769735Y-73766498D01*
X40709397Y-73620827D01*
X40709390Y-73620814D01*
X40621789Y-73489711D01*
X40621786Y-73489707D01*
X40510292Y-73378213D01*
X40510284Y-73378207D01*
X40505605Y-73375080D01*
X40460802Y-73321466D01*
X40450500Y-73271981D01*
X40450500Y-60641153D01*
X42199500Y-60641153D01*
X42199500Y-60798846D01*
X42230261Y-60953489D01*
X42230264Y-60953501D01*
X42290602Y-61099172D01*
X42290609Y-61099185D01*
X42378210Y-61230288D01*
X42378213Y-61230292D01*
X42489707Y-61341786D01*
X42489711Y-61341789D01*
X42620814Y-61429390D01*
X42620827Y-61429397D01*
X42759596Y-61486876D01*
X42766503Y-61489737D01*
X42921153Y-61520499D01*
X42921156Y-61520500D01*
X42921158Y-61520500D01*
X44575500Y-61520500D01*
X44642539Y-61540185D01*
X44688294Y-61592989D01*
X44699500Y-61644500D01*
X44699500Y-82078846D01*
X44730261Y-82233489D01*
X44730264Y-82233501D01*
X44790602Y-82379172D01*
X44790609Y-82379185D01*
X44878210Y-82510288D01*
X44878213Y-82510292D01*
X44989707Y-82621786D01*
X44989711Y-82621789D01*
X45120814Y-82709390D01*
X45120827Y-82709397D01*
X45266498Y-82769735D01*
X45266503Y-82769737D01*
X45421153Y-82800499D01*
X45421156Y-82800500D01*
X45421158Y-82800500D01*
X45578844Y-82800500D01*
X45578845Y-82800499D01*
X45733497Y-82769737D01*
X45879179Y-82709394D01*
X46010289Y-82621789D01*
X46121789Y-82510289D01*
X46209394Y-82379179D01*
X46269737Y-82233497D01*
X46300500Y-82078842D01*
X46300500Y-60641158D01*
X46300500Y-60641155D01*
X46300499Y-60641153D01*
X46299675Y-60637007D01*
X46269738Y-60486510D01*
X46269737Y-60486503D01*
X46269735Y-60486498D01*
X46209397Y-60340827D01*
X46209390Y-60340814D01*
X46121789Y-60209711D01*
X46121786Y-60209707D01*
X46010292Y-60098213D01*
X46010288Y-60098210D01*
X45879185Y-60010609D01*
X45879172Y-60010602D01*
X45733501Y-59950264D01*
X45733489Y-59950261D01*
X45578845Y-59919500D01*
X45578842Y-59919500D01*
X42921158Y-59919500D01*
X42921155Y-59919500D01*
X42766510Y-59950261D01*
X42766498Y-59950264D01*
X42620827Y-60010602D01*
X42620814Y-60010609D01*
X42489711Y-60098210D01*
X42489707Y-60098213D01*
X42378213Y-60209707D01*
X42378210Y-60209711D01*
X42290609Y-60340814D01*
X42290602Y-60340827D01*
X42230264Y-60486498D01*
X42230261Y-60486510D01*
X42199500Y-60641153D01*
X40450500Y-60641153D01*
X40450500Y-20654500D01*
X40470185Y-20587461D01*
X40522989Y-20541706D01*
X40574500Y-20530500D01*
X51933969Y-20530500D01*
X52001008Y-20550185D01*
X52044454Y-20598205D01*
X52127715Y-20761614D01*
X52248028Y-20927213D01*
X52392786Y-21071971D01*
X52494441Y-21145826D01*
X52558390Y-21192287D01*
X52649840Y-21238883D01*
X52651080Y-21239515D01*
X52701876Y-21287490D01*
X52718671Y-21355311D01*
X52696134Y-21421446D01*
X52651080Y-21460485D01*
X52558386Y-21507715D01*
X52392786Y-21628028D01*
X52248028Y-21772786D01*
X52127715Y-21938386D01*
X52034781Y-22120776D01*
X51971522Y-22315465D01*
X51939500Y-22517648D01*
X51939500Y-22722351D01*
X51971522Y-22924534D01*
X52034781Y-23119223D01*
X52127715Y-23301613D01*
X52248028Y-23467213D01*
X52392786Y-23611971D01*
X52547749Y-23724556D01*
X52558390Y-23732287D01*
X52649840Y-23778883D01*
X52651080Y-23779515D01*
X52701876Y-23827490D01*
X52718671Y-23895311D01*
X52696134Y-23961446D01*
X52651080Y-24000485D01*
X52558386Y-24047715D01*
X52392786Y-24168028D01*
X52248028Y-24312786D01*
X52127715Y-24478386D01*
X52034781Y-24660776D01*
X51971522Y-24855465D01*
X51939500Y-25057648D01*
X51939500Y-25262351D01*
X51971522Y-25464534D01*
X52034781Y-25659223D01*
X52127715Y-25841613D01*
X52248028Y-26007213D01*
X52392786Y-26151971D01*
X52494441Y-26225826D01*
X52558390Y-26272287D01*
X52648862Y-26318385D01*
X52651080Y-26319515D01*
X52701876Y-26367490D01*
X52718671Y-26435311D01*
X52696134Y-26501446D01*
X52651080Y-26540485D01*
X52558386Y-26587715D01*
X52392786Y-26708028D01*
X52248028Y-26852786D01*
X52127715Y-27018386D01*
X52034781Y-27200776D01*
X51971522Y-27395465D01*
X51939500Y-27597648D01*
X51939500Y-27802351D01*
X51971522Y-28004534D01*
X52034781Y-28199223D01*
X52086385Y-28300500D01*
X52127282Y-28380765D01*
X52127715Y-28381613D01*
X52248028Y-28547213D01*
X52392786Y-28691971D01*
X52558385Y-28812284D01*
X52558387Y-28812285D01*
X52558390Y-28812287D01*
X52651080Y-28859515D01*
X52651630Y-28859795D01*
X52702426Y-28907770D01*
X52719221Y-28975591D01*
X52696684Y-29041725D01*
X52651630Y-29080765D01*
X52558649Y-29128141D01*
X52473122Y-29190278D01*
X52473122Y-29190279D01*
X53054823Y-29771980D01*
X53047007Y-29774075D01*
X52932993Y-29839901D01*
X52839901Y-29932993D01*
X52774075Y-30047007D01*
X52771980Y-30054823D01*
X52190279Y-29473122D01*
X52190278Y-29473122D01*
X52128141Y-29558648D01*
X52035244Y-29740968D01*
X51972009Y-29935582D01*
X51940000Y-30137682D01*
X51940000Y-30342317D01*
X51972009Y-30544417D01*
X52035244Y-30739031D01*
X52128139Y-30921347D01*
X52190279Y-31006876D01*
X52771980Y-30425176D01*
X52774075Y-30432993D01*
X52839901Y-30547007D01*
X52932993Y-30640099D01*
X53047007Y-30705925D01*
X53054822Y-30708019D01*
X52473121Y-31289719D01*
X52473122Y-31289720D01*
X52558640Y-31351852D01*
X52558654Y-31351861D01*
X52651629Y-31399234D01*
X52702426Y-31447208D01*
X52719221Y-31515029D01*
X52696684Y-31581164D01*
X52651631Y-31620203D01*
X52558388Y-31667713D01*
X52392786Y-31788028D01*
X52248028Y-31932786D01*
X52127715Y-32098386D01*
X52034781Y-32280776D01*
X51971522Y-32475465D01*
X51939500Y-32677648D01*
X51939500Y-32882351D01*
X51971522Y-33084534D01*
X52034781Y-33279223D01*
X52085339Y-33378446D01*
X52107248Y-33421446D01*
X52127715Y-33461613D01*
X52248028Y-33627213D01*
X52392786Y-33771971D01*
X52547749Y-33884556D01*
X52558390Y-33892287D01*
X52648864Y-33938386D01*
X52651080Y-33939515D01*
X52701876Y-33987490D01*
X52718671Y-34055311D01*
X52696134Y-34121446D01*
X52651080Y-34160485D01*
X52558386Y-34207715D01*
X52392786Y-34328028D01*
X52248028Y-34472786D01*
X52127715Y-34638386D01*
X52034781Y-34820776D01*
X51971522Y-35015465D01*
X51939500Y-35217648D01*
X51939500Y-35422351D01*
X51971522Y-35624534D01*
X52034781Y-35819223D01*
X52098691Y-35944653D01*
X52107248Y-35961446D01*
X52127715Y-36001613D01*
X52248028Y-36167213D01*
X52392786Y-36311971D01*
X52547749Y-36424556D01*
X52558390Y-36432287D01*
X52648864Y-36478386D01*
X52651080Y-36479515D01*
X52701876Y-36527490D01*
X52718671Y-36595311D01*
X52696134Y-36661446D01*
X52651080Y-36700485D01*
X52558386Y-36747715D01*
X52392786Y-36868028D01*
X52248028Y-37012786D01*
X52127715Y-37178386D01*
X52034781Y-37360776D01*
X51971522Y-37555465D01*
X51939500Y-37757648D01*
X51939500Y-37962351D01*
X51971522Y-38164534D01*
X52034781Y-38359223D01*
X52098691Y-38484653D01*
X52107248Y-38501446D01*
X52127715Y-38541613D01*
X52248028Y-38707213D01*
X52392786Y-38851971D01*
X52498858Y-38929035D01*
X52558390Y-38972287D01*
X52648864Y-39018386D01*
X52651080Y-39019515D01*
X52701876Y-39067490D01*
X52718671Y-39135311D01*
X52696134Y-39201446D01*
X52651080Y-39240485D01*
X52558386Y-39287715D01*
X52392786Y-39408028D01*
X52248028Y-39552786D01*
X52127715Y-39718386D01*
X52034781Y-39900776D01*
X51971522Y-40095465D01*
X51939500Y-40297648D01*
X51939500Y-40502351D01*
X51971522Y-40704534D01*
X52034781Y-40899223D01*
X52098691Y-41024653D01*
X52107248Y-41041446D01*
X52127715Y-41081613D01*
X52248028Y-41247213D01*
X52392786Y-41391971D01*
X52547749Y-41504556D01*
X52558390Y-41512287D01*
X52648864Y-41558386D01*
X52651080Y-41559515D01*
X52701876Y-41607490D01*
X52718671Y-41675311D01*
X52696134Y-41741446D01*
X52651080Y-41780485D01*
X52558386Y-41827715D01*
X52392786Y-41948028D01*
X52248028Y-42092786D01*
X52127715Y-42258386D01*
X52034781Y-42440776D01*
X51971522Y-42635465D01*
X51939500Y-42837648D01*
X51939500Y-43042351D01*
X51971522Y-43244534D01*
X52034781Y-43439223D01*
X52086385Y-43540500D01*
X52127282Y-43620765D01*
X52127715Y-43621613D01*
X52248028Y-43787213D01*
X52392786Y-43931971D01*
X52547749Y-44044556D01*
X52558390Y-44052287D01*
X52648864Y-44098386D01*
X52651080Y-44099515D01*
X52701876Y-44147490D01*
X52718671Y-44215311D01*
X52696134Y-44281446D01*
X52651080Y-44320485D01*
X52558386Y-44367715D01*
X52392786Y-44488028D01*
X52248028Y-44632786D01*
X52127715Y-44798386D01*
X52034781Y-44980776D01*
X51971522Y-45175465D01*
X51939500Y-45377648D01*
X51939500Y-45582351D01*
X51971522Y-45784534D01*
X52034781Y-45979223D01*
X52127715Y-46161613D01*
X52248028Y-46327213D01*
X52392786Y-46471971D01*
X52547749Y-46584556D01*
X52558390Y-46592287D01*
X52649840Y-46638883D01*
X52651080Y-46639515D01*
X52701876Y-46687490D01*
X52718671Y-46755311D01*
X52696134Y-46821446D01*
X52651080Y-46860485D01*
X52558386Y-46907715D01*
X52392786Y-47028028D01*
X52248028Y-47172786D01*
X52127715Y-47338386D01*
X52034781Y-47520776D01*
X51971522Y-47715465D01*
X51939500Y-47917648D01*
X51939500Y-48122351D01*
X51971522Y-48324534D01*
X52034781Y-48519223D01*
X52127715Y-48701613D01*
X52248028Y-48867213D01*
X52392786Y-49011971D01*
X52533436Y-49114157D01*
X52558390Y-49132287D01*
X52649840Y-49178883D01*
X52651080Y-49179515D01*
X52701876Y-49227490D01*
X52718671Y-49295311D01*
X52696134Y-49361446D01*
X52651080Y-49400485D01*
X52558386Y-49447715D01*
X52392786Y-49568028D01*
X52248028Y-49712786D01*
X52127715Y-49878386D01*
X52034781Y-50060776D01*
X51971522Y-50255465D01*
X51939500Y-50457648D01*
X51939500Y-50662351D01*
X51971522Y-50864534D01*
X52034781Y-51059223D01*
X52127715Y-51241613D01*
X52248028Y-51407213D01*
X52392786Y-51551971D01*
X52547749Y-51664556D01*
X52558390Y-51672287D01*
X52649840Y-51718883D01*
X52651080Y-51719515D01*
X52701876Y-51767490D01*
X52718671Y-51835311D01*
X52696134Y-51901446D01*
X52651080Y-51940485D01*
X52558386Y-51987715D01*
X52392786Y-52108028D01*
X52248028Y-52252786D01*
X52127715Y-52418386D01*
X52034781Y-52600776D01*
X51971522Y-52795465D01*
X51939500Y-52997648D01*
X51939500Y-53202351D01*
X51971522Y-53404534D01*
X52034781Y-53599223D01*
X52127715Y-53781613D01*
X52248028Y-53947213D01*
X52392786Y-54091971D01*
X52558385Y-54212284D01*
X52558387Y-54212285D01*
X52558390Y-54212287D01*
X52651080Y-54259515D01*
X52651630Y-54259795D01*
X52702426Y-54307770D01*
X52719221Y-54375591D01*
X52696684Y-54441725D01*
X52651630Y-54480765D01*
X52558649Y-54528141D01*
X52473122Y-54590278D01*
X52473122Y-54590279D01*
X53054823Y-55171980D01*
X53047007Y-55174075D01*
X52932993Y-55239901D01*
X52839901Y-55332993D01*
X52774075Y-55447007D01*
X52771980Y-55454823D01*
X52190279Y-54873122D01*
X52190278Y-54873122D01*
X52128141Y-54958648D01*
X52035244Y-55140968D01*
X51972009Y-55335582D01*
X51940000Y-55537682D01*
X51940000Y-55742317D01*
X51972009Y-55944417D01*
X52035244Y-56139031D01*
X52128139Y-56321347D01*
X52190279Y-56406876D01*
X52771980Y-55825176D01*
X52774075Y-55832993D01*
X52839901Y-55947007D01*
X52932993Y-56040099D01*
X53047007Y-56105925D01*
X53054822Y-56108019D01*
X52473121Y-56689719D01*
X52473122Y-56689720D01*
X52558640Y-56751852D01*
X52558649Y-56751858D01*
X52652180Y-56799515D01*
X52702976Y-56847490D01*
X52719771Y-56915311D01*
X52697233Y-56981446D01*
X52652180Y-57020485D01*
X52558649Y-57068141D01*
X52473122Y-57130278D01*
X52473122Y-57130279D01*
X53054823Y-57711980D01*
X53047007Y-57714075D01*
X52932993Y-57779901D01*
X52839901Y-57872993D01*
X52774075Y-57987007D01*
X52771980Y-57994823D01*
X52190279Y-57413122D01*
X52190278Y-57413122D01*
X52128141Y-57498648D01*
X52035244Y-57680968D01*
X51972009Y-57875582D01*
X51940000Y-58077682D01*
X51940000Y-58282317D01*
X51972009Y-58484417D01*
X52035244Y-58679031D01*
X52128139Y-58861347D01*
X52190279Y-58946876D01*
X52771980Y-58365176D01*
X52774075Y-58372993D01*
X52839901Y-58487007D01*
X52932993Y-58580099D01*
X53047007Y-58645925D01*
X53054822Y-58648019D01*
X52473121Y-59229719D01*
X52473122Y-59229720D01*
X52558640Y-59291852D01*
X52558649Y-59291858D01*
X52652180Y-59339515D01*
X52702976Y-59387490D01*
X52719771Y-59455311D01*
X52697233Y-59521446D01*
X52652180Y-59560485D01*
X52558649Y-59608141D01*
X52473122Y-59670278D01*
X52473122Y-59670279D01*
X53054823Y-60251980D01*
X53047007Y-60254075D01*
X52932993Y-60319901D01*
X52839901Y-60412993D01*
X52774075Y-60527007D01*
X52771980Y-60534823D01*
X52190279Y-59953122D01*
X52190278Y-59953122D01*
X52128141Y-60038648D01*
X52035244Y-60220968D01*
X51972009Y-60415582D01*
X51940000Y-60617682D01*
X51940000Y-60822317D01*
X51972009Y-61024417D01*
X52035244Y-61219031D01*
X52128139Y-61401347D01*
X52190279Y-61486876D01*
X52771980Y-60905176D01*
X52774075Y-60912993D01*
X52839901Y-61027007D01*
X52932993Y-61120099D01*
X53047007Y-61185925D01*
X53054822Y-61188019D01*
X52473121Y-61769719D01*
X52473122Y-61769720D01*
X52558640Y-61831852D01*
X52558649Y-61831858D01*
X52652180Y-61879515D01*
X52702976Y-61927490D01*
X52719771Y-61995311D01*
X52697233Y-62061446D01*
X52652180Y-62100485D01*
X52558649Y-62148141D01*
X52473122Y-62210278D01*
X52473122Y-62210279D01*
X53054823Y-62791980D01*
X53047007Y-62794075D01*
X52932993Y-62859901D01*
X52839901Y-62952993D01*
X52774075Y-63067007D01*
X52771980Y-63074823D01*
X52190279Y-62493122D01*
X52190278Y-62493122D01*
X52128141Y-62578648D01*
X52035244Y-62760968D01*
X51972009Y-62955582D01*
X51940000Y-63157682D01*
X51940000Y-63362317D01*
X51972009Y-63564417D01*
X52035244Y-63759031D01*
X52128139Y-63941347D01*
X52190279Y-64026876D01*
X52771980Y-63445176D01*
X52774075Y-63452993D01*
X52839901Y-63567007D01*
X52932993Y-63660099D01*
X53047007Y-63725925D01*
X53054822Y-63728019D01*
X52473121Y-64309719D01*
X52473122Y-64309720D01*
X52558640Y-64371852D01*
X52558649Y-64371858D01*
X52740968Y-64464755D01*
X52935582Y-64527990D01*
X53137683Y-64560000D01*
X53342317Y-64560000D01*
X53544417Y-64527990D01*
X53739031Y-64464755D01*
X53921349Y-64371859D01*
X54006876Y-64309719D01*
X54006877Y-64309718D01*
X53425178Y-63728019D01*
X53432993Y-63725925D01*
X53547007Y-63660099D01*
X53640099Y-63567007D01*
X53705925Y-63452993D01*
X53708019Y-63445177D01*
X54289718Y-64026877D01*
X54289719Y-64026876D01*
X54351859Y-63941349D01*
X54444755Y-63759031D01*
X54507990Y-63564417D01*
X54540000Y-63362317D01*
X54540000Y-63157682D01*
X54507990Y-62955582D01*
X54444755Y-62760968D01*
X54351858Y-62578649D01*
X54351852Y-62578640D01*
X54289720Y-62493122D01*
X54289719Y-62493121D01*
X53708019Y-63074821D01*
X53705925Y-63067007D01*
X53640099Y-62952993D01*
X53547007Y-62859901D01*
X53432993Y-62794075D01*
X53425176Y-62791980D01*
X54006876Y-62210279D01*
X53921347Y-62148139D01*
X53827819Y-62100485D01*
X53777023Y-62052511D01*
X53760228Y-61984690D01*
X53782765Y-61918555D01*
X53827820Y-61879515D01*
X53921347Y-61831861D01*
X54006876Y-61769719D01*
X54006877Y-61769718D01*
X53425178Y-61188019D01*
X53432993Y-61185925D01*
X53547007Y-61120099D01*
X53640099Y-61027007D01*
X53705925Y-60912993D01*
X53708019Y-60905177D01*
X54289718Y-61486877D01*
X54289719Y-61486876D01*
X54351859Y-61401349D01*
X54444755Y-61219031D01*
X54507990Y-61024417D01*
X54540000Y-60822317D01*
X54540000Y-60617682D01*
X54507990Y-60415582D01*
X54444755Y-60220968D01*
X54351858Y-60038649D01*
X54351852Y-60038640D01*
X54289720Y-59953122D01*
X54289719Y-59953121D01*
X53708019Y-60534821D01*
X53705925Y-60527007D01*
X53640099Y-60412993D01*
X53547007Y-60319901D01*
X53432993Y-60254075D01*
X53425176Y-60251980D01*
X54006876Y-59670279D01*
X53921347Y-59608139D01*
X53827819Y-59560485D01*
X53777023Y-59512511D01*
X53760228Y-59444690D01*
X53782765Y-59378555D01*
X53827820Y-59339515D01*
X53921347Y-59291861D01*
X54006876Y-59229719D01*
X54006877Y-59229718D01*
X53425178Y-58648019D01*
X53432993Y-58645925D01*
X53547007Y-58580099D01*
X53640099Y-58487007D01*
X53705925Y-58372993D01*
X53708019Y-58365177D01*
X54289718Y-58946877D01*
X54289719Y-58946876D01*
X54351859Y-58861349D01*
X54444755Y-58679031D01*
X54507990Y-58484417D01*
X54540000Y-58282317D01*
X54540000Y-58077682D01*
X54507990Y-57875582D01*
X54444755Y-57680968D01*
X54351858Y-57498649D01*
X54351852Y-57498640D01*
X54289720Y-57413122D01*
X54289719Y-57413121D01*
X53708019Y-57994821D01*
X53705925Y-57987007D01*
X53640099Y-57872993D01*
X53547007Y-57779901D01*
X53432993Y-57714075D01*
X53425176Y-57711980D01*
X54006876Y-57130279D01*
X53921347Y-57068139D01*
X53827819Y-57020485D01*
X53777023Y-56972511D01*
X53760228Y-56904690D01*
X53782765Y-56838555D01*
X53827820Y-56799515D01*
X53921347Y-56751861D01*
X54006876Y-56689719D01*
X54006877Y-56689718D01*
X53425178Y-56108019D01*
X53432993Y-56105925D01*
X53547007Y-56040099D01*
X53640099Y-55947007D01*
X53705925Y-55832993D01*
X53708019Y-55825177D01*
X54289718Y-56406877D01*
X54289719Y-56406876D01*
X54351859Y-56321349D01*
X54444755Y-56139031D01*
X54507990Y-55944417D01*
X54540000Y-55742317D01*
X54540000Y-55537682D01*
X54507990Y-55335582D01*
X54444755Y-55140968D01*
X54351858Y-54958649D01*
X54351852Y-54958640D01*
X54289720Y-54873122D01*
X54289719Y-54873121D01*
X53708019Y-55454821D01*
X53705925Y-55447007D01*
X53640099Y-55332993D01*
X53547007Y-55239901D01*
X53432993Y-55174075D01*
X53425176Y-55171980D01*
X54006876Y-54590279D01*
X53921347Y-54528139D01*
X53828369Y-54480765D01*
X53777573Y-54432790D01*
X53760778Y-54364969D01*
X53783315Y-54298835D01*
X53828370Y-54259795D01*
X53828920Y-54259515D01*
X53921610Y-54212287D01*
X53971144Y-54176298D01*
X54087213Y-54091971D01*
X54087215Y-54091968D01*
X54087219Y-54091966D01*
X54231966Y-53947219D01*
X54231968Y-53947215D01*
X54231971Y-53947213D01*
X54284732Y-53874590D01*
X54352287Y-53781610D01*
X54445220Y-53599219D01*
X54508477Y-53404534D01*
X54540500Y-53202352D01*
X54540500Y-52997648D01*
X54508477Y-52795466D01*
X54445220Y-52600781D01*
X54445218Y-52600778D01*
X54445218Y-52600776D01*
X54411503Y-52534607D01*
X54352287Y-52418390D01*
X54344556Y-52407749D01*
X54231971Y-52252786D01*
X54087213Y-52108028D01*
X53921614Y-51987715D01*
X53915006Y-51984348D01*
X53828917Y-51940483D01*
X53778123Y-51892511D01*
X53761328Y-51824690D01*
X53783865Y-51758555D01*
X53828917Y-51719516D01*
X53921610Y-51672287D01*
X53942770Y-51656913D01*
X54087213Y-51551971D01*
X54087215Y-51551968D01*
X54087219Y-51551966D01*
X54231966Y-51407219D01*
X54231968Y-51407215D01*
X54231971Y-51407213D01*
X54309502Y-51300499D01*
X54352287Y-51241610D01*
X54445220Y-51059219D01*
X54508477Y-50864534D01*
X54540500Y-50662352D01*
X54540500Y-50457648D01*
X54508477Y-50255466D01*
X54445220Y-50060781D01*
X54445218Y-50060778D01*
X54445218Y-50060776D01*
X54409006Y-49989707D01*
X54352287Y-49878390D01*
X54298023Y-49803701D01*
X54231971Y-49712786D01*
X54087213Y-49568028D01*
X53921614Y-49447715D01*
X53915006Y-49444348D01*
X53828917Y-49400483D01*
X53778123Y-49352511D01*
X53761328Y-49284690D01*
X53783865Y-49218555D01*
X53828917Y-49179516D01*
X53921610Y-49132287D01*
X54007727Y-49069720D01*
X54087213Y-49011971D01*
X54087215Y-49011968D01*
X54087219Y-49011966D01*
X54231966Y-48867219D01*
X54231968Y-48867215D01*
X54231971Y-48867213D01*
X54290338Y-48786876D01*
X54352287Y-48701610D01*
X54445220Y-48519219D01*
X54508477Y-48324534D01*
X54540500Y-48122352D01*
X54540500Y-47917648D01*
X54511913Y-47737157D01*
X54508477Y-47715465D01*
X54447569Y-47528012D01*
X54445220Y-47520781D01*
X54445218Y-47520777D01*
X54445218Y-47520776D01*
X54411503Y-47454607D01*
X54352287Y-47338390D01*
X54290337Y-47253122D01*
X54231971Y-47172786D01*
X54087213Y-47028028D01*
X53921614Y-46907715D01*
X53915006Y-46904348D01*
X53828917Y-46860483D01*
X53778123Y-46812511D01*
X53761328Y-46744690D01*
X53783865Y-46678555D01*
X53828917Y-46639516D01*
X53921610Y-46592287D01*
X53942770Y-46576913D01*
X54087213Y-46471971D01*
X54087215Y-46471968D01*
X54087219Y-46471966D01*
X54231966Y-46327219D01*
X54231968Y-46327215D01*
X54231971Y-46327213D01*
X54284732Y-46254590D01*
X54352287Y-46161610D01*
X54445220Y-45979219D01*
X54508477Y-45784534D01*
X54540500Y-45582352D01*
X54540500Y-45377648D01*
X54526664Y-45290292D01*
X54508477Y-45175465D01*
X54445218Y-44980776D01*
X54352285Y-44798387D01*
X54330172Y-44767950D01*
X54330171Y-44767949D01*
X54281641Y-44701153D01*
X62199500Y-44701153D01*
X62199500Y-44858846D01*
X62230261Y-45013489D01*
X62230264Y-45013501D01*
X62290602Y-45159172D01*
X62290609Y-45159185D01*
X62378210Y-45290288D01*
X62378213Y-45290292D01*
X62489706Y-45401785D01*
X62489709Y-45401787D01*
X62489711Y-45401789D01*
X62494386Y-45404913D01*
X62539193Y-45458521D01*
X62549500Y-45508017D01*
X62549500Y-79271981D01*
X62529815Y-79339020D01*
X62494395Y-79375080D01*
X62489715Y-79378207D01*
X62489707Y-79378213D01*
X62378213Y-79489707D01*
X62378210Y-79489711D01*
X62290609Y-79620814D01*
X62290602Y-79620827D01*
X62230264Y-79766498D01*
X62230261Y-79766510D01*
X62199500Y-79921153D01*
X62199500Y-80078846D01*
X62230261Y-80233489D01*
X62230264Y-80233501D01*
X62290602Y-80379172D01*
X62290609Y-80379185D01*
X62378210Y-80510288D01*
X62378213Y-80510292D01*
X62489707Y-80621786D01*
X62489711Y-80621789D01*
X62620814Y-80709390D01*
X62620827Y-80709397D01*
X62766498Y-80769735D01*
X62766503Y-80769737D01*
X62921153Y-80800499D01*
X62921156Y-80800500D01*
X62921158Y-80800500D01*
X63078844Y-80800500D01*
X63078845Y-80800499D01*
X63233497Y-80769737D01*
X63379179Y-80709394D01*
X63510289Y-80621789D01*
X63621789Y-80510289D01*
X63709394Y-80379179D01*
X63769737Y-80233497D01*
X63800500Y-80078842D01*
X63800500Y-79921158D01*
X63800500Y-79921155D01*
X63800499Y-79921153D01*
X63769738Y-79766510D01*
X63769737Y-79766503D01*
X63717302Y-79639912D01*
X63709397Y-79620827D01*
X63709390Y-79620814D01*
X63621789Y-79489711D01*
X63621786Y-79489707D01*
X63510292Y-79378213D01*
X63510284Y-79378207D01*
X63505605Y-79375080D01*
X63460802Y-79321466D01*
X63450500Y-79271981D01*
X63450500Y-45508017D01*
X63470185Y-45440978D01*
X63505612Y-45404913D01*
X63510289Y-45401789D01*
X63621789Y-45290289D01*
X63709394Y-45159179D01*
X63769737Y-45013497D01*
X63800500Y-44858842D01*
X63800500Y-44701158D01*
X63800500Y-44701155D01*
X63800499Y-44701153D01*
X63795830Y-44677682D01*
X63769737Y-44546503D01*
X63769735Y-44546498D01*
X63709397Y-44400827D01*
X63709390Y-44400814D01*
X63621789Y-44269711D01*
X63621786Y-44269707D01*
X63510292Y-44158213D01*
X63510288Y-44158210D01*
X63379185Y-44070609D01*
X63379172Y-44070602D01*
X63233501Y-44010264D01*
X63233489Y-44010261D01*
X63078845Y-43979500D01*
X63078842Y-43979500D01*
X62921158Y-43979500D01*
X62921155Y-43979500D01*
X62766510Y-44010261D01*
X62766498Y-44010264D01*
X62620827Y-44070602D01*
X62620814Y-44070609D01*
X62489711Y-44158210D01*
X62489707Y-44158213D01*
X62378213Y-44269707D01*
X62378210Y-44269711D01*
X62290609Y-44400814D01*
X62290602Y-44400827D01*
X62230264Y-44546498D01*
X62230261Y-44546510D01*
X62199500Y-44701153D01*
X54281641Y-44701153D01*
X54231971Y-44632787D01*
X54231967Y-44632782D01*
X54087213Y-44488028D01*
X53921614Y-44367715D01*
X53915006Y-44364348D01*
X53828917Y-44320483D01*
X53778123Y-44272511D01*
X53761328Y-44204690D01*
X53783865Y-44138555D01*
X53828917Y-44099516D01*
X53921610Y-44052287D01*
X53942770Y-44036913D01*
X54087213Y-43931971D01*
X54087215Y-43931968D01*
X54087219Y-43931966D01*
X54231966Y-43787219D01*
X54231968Y-43787215D01*
X54231971Y-43787213D01*
X54284732Y-43714590D01*
X54352287Y-43621610D01*
X54445220Y-43439219D01*
X54508477Y-43244534D01*
X54540500Y-43042352D01*
X54540500Y-42837648D01*
X54526664Y-42750292D01*
X54508477Y-42635465D01*
X54455847Y-42473489D01*
X54445220Y-42440781D01*
X54445218Y-42440777D01*
X54445218Y-42440776D01*
X54352285Y-42258387D01*
X54330172Y-42227950D01*
X54330171Y-42227949D01*
X54281641Y-42161153D01*
X64199500Y-42161153D01*
X64199500Y-42318846D01*
X64230261Y-42473489D01*
X64230264Y-42473501D01*
X64290602Y-42619172D01*
X64290609Y-42619185D01*
X64378210Y-42750288D01*
X64378213Y-42750292D01*
X64489706Y-42861785D01*
X64489709Y-42861787D01*
X64489711Y-42861789D01*
X64494386Y-42864913D01*
X64539193Y-42918521D01*
X64549500Y-42968017D01*
X64549500Y-77271981D01*
X64529815Y-77339020D01*
X64494395Y-77375080D01*
X64489715Y-77378207D01*
X64489707Y-77378213D01*
X64378213Y-77489707D01*
X64378210Y-77489711D01*
X64290609Y-77620814D01*
X64290602Y-77620827D01*
X64230264Y-77766498D01*
X64230261Y-77766510D01*
X64199500Y-77921153D01*
X64199500Y-78078846D01*
X64230261Y-78233489D01*
X64230264Y-78233501D01*
X64290602Y-78379172D01*
X64290609Y-78379185D01*
X64378210Y-78510288D01*
X64378213Y-78510292D01*
X64489707Y-78621786D01*
X64489711Y-78621789D01*
X64620814Y-78709390D01*
X64620827Y-78709397D01*
X64766498Y-78769735D01*
X64766503Y-78769737D01*
X64921153Y-78800499D01*
X64921156Y-78800500D01*
X64921158Y-78800500D01*
X65078844Y-78800500D01*
X65078845Y-78800499D01*
X65233497Y-78769737D01*
X65379179Y-78709394D01*
X65510289Y-78621789D01*
X65621789Y-78510289D01*
X65709394Y-78379179D01*
X65769737Y-78233497D01*
X65800500Y-78078842D01*
X65800500Y-77921158D01*
X65800500Y-77921155D01*
X65796062Y-77898845D01*
X65796062Y-77898844D01*
X65792057Y-77878711D01*
X100149500Y-77878711D01*
X100149500Y-78121288D01*
X100181161Y-78361785D01*
X100243947Y-78596104D01*
X100328611Y-78800500D01*
X100336776Y-78820212D01*
X100458064Y-79030289D01*
X100458066Y-79030292D01*
X100458067Y-79030293D01*
X100605733Y-79222736D01*
X100605739Y-79222743D01*
X100777256Y-79394260D01*
X100777262Y-79394265D01*
X100969711Y-79541936D01*
X101179788Y-79663224D01*
X101403900Y-79756054D01*
X101638211Y-79818838D01*
X101818586Y-79842584D01*
X101878711Y-79850500D01*
X101878712Y-79850500D01*
X102121289Y-79850500D01*
X102169388Y-79844167D01*
X102361789Y-79818838D01*
X102596100Y-79756054D01*
X102820212Y-79663224D01*
X103030289Y-79541936D01*
X103222738Y-79394265D01*
X103394265Y-79222738D01*
X103541936Y-79030289D01*
X103663224Y-78820212D01*
X103756054Y-78596100D01*
X103818838Y-78361789D01*
X103850500Y-78121288D01*
X103850500Y-77878712D01*
X103818838Y-77638211D01*
X103756054Y-77403900D01*
X103663224Y-77179788D01*
X103541936Y-76969711D01*
X103412096Y-76800500D01*
X103394266Y-76777263D01*
X103394260Y-76777256D01*
X103222743Y-76605739D01*
X103222736Y-76605733D01*
X103030293Y-76458067D01*
X103030292Y-76458066D01*
X103030289Y-76458064D01*
X102820212Y-76336776D01*
X102820205Y-76336773D01*
X102596104Y-76243947D01*
X102361785Y-76181161D01*
X102121289Y-76149500D01*
X102121288Y-76149500D01*
X101878712Y-76149500D01*
X101878711Y-76149500D01*
X101638214Y-76181161D01*
X101403895Y-76243947D01*
X101179794Y-76336773D01*
X101179785Y-76336777D01*
X100969706Y-76458067D01*
X100777263Y-76605733D01*
X100777256Y-76605739D01*
X100605739Y-76777256D01*
X100605733Y-76777263D01*
X100458067Y-76969706D01*
X100336777Y-77179785D01*
X100336773Y-77179794D01*
X100243947Y-77403895D01*
X100181161Y-77638214D01*
X100149500Y-77878711D01*
X65792057Y-77878711D01*
X65769738Y-77766510D01*
X65769737Y-77766503D01*
X65769735Y-77766498D01*
X65709397Y-77620827D01*
X65709390Y-77620814D01*
X65621789Y-77489711D01*
X65621786Y-77489707D01*
X65510292Y-77378213D01*
X65510284Y-77378207D01*
X65505605Y-77375080D01*
X65460802Y-77321466D01*
X65450500Y-77271981D01*
X65450500Y-75921153D01*
X67699500Y-75921153D01*
X67699500Y-76078846D01*
X67730261Y-76233489D01*
X67730264Y-76233501D01*
X67790602Y-76379172D01*
X67790609Y-76379185D01*
X67878210Y-76510288D01*
X67878213Y-76510292D01*
X67989707Y-76621786D01*
X67989711Y-76621789D01*
X68120814Y-76709390D01*
X68120827Y-76709397D01*
X68266498Y-76769735D01*
X68266503Y-76769737D01*
X68421153Y-76800499D01*
X68421156Y-76800500D01*
X68421158Y-76800500D01*
X68578844Y-76800500D01*
X68578845Y-76800499D01*
X68733497Y-76769737D01*
X68879179Y-76709394D01*
X69010289Y-76621789D01*
X69121789Y-76510289D01*
X69209394Y-76379179D01*
X69269737Y-76233497D01*
X69300500Y-76078842D01*
X69300500Y-75921158D01*
X69300500Y-75921155D01*
X69300499Y-75921153D01*
X69269738Y-75766510D01*
X69269737Y-75766503D01*
X69269735Y-75766498D01*
X69209397Y-75620827D01*
X69209390Y-75620814D01*
X69121789Y-75489711D01*
X69121786Y-75489707D01*
X69010292Y-75378213D01*
X69010284Y-75378207D01*
X69005605Y-75375080D01*
X68960802Y-75321466D01*
X68950500Y-75271981D01*
X68950500Y-27574500D01*
X68970185Y-27507461D01*
X69022989Y-27461706D01*
X69074500Y-27450500D01*
X70343969Y-27450500D01*
X70411008Y-27470185D01*
X70454454Y-27518205D01*
X70537715Y-27681614D01*
X70658028Y-27847213D01*
X70802786Y-27991971D01*
X70957749Y-28104556D01*
X70968390Y-28112287D01*
X71043387Y-28150500D01*
X71061080Y-28159515D01*
X71111876Y-28207490D01*
X71128671Y-28275311D01*
X71106134Y-28341446D01*
X71061080Y-28380485D01*
X70968386Y-28427715D01*
X70802786Y-28548028D01*
X70658028Y-28692786D01*
X70537715Y-28858386D01*
X70444781Y-29040776D01*
X70381522Y-29235465D01*
X70349500Y-29437648D01*
X70349500Y-29642351D01*
X70381522Y-29844534D01*
X70444781Y-30039223D01*
X70494932Y-30137648D01*
X70526447Y-30199500D01*
X70537715Y-30221613D01*
X70658028Y-30387213D01*
X70802786Y-30531971D01*
X70957749Y-30644556D01*
X70968390Y-30652287D01*
X71059840Y-30698883D01*
X71061080Y-30699515D01*
X71111876Y-30747490D01*
X71128671Y-30815311D01*
X71106134Y-30881446D01*
X71061080Y-30920485D01*
X70968386Y-30967715D01*
X70802786Y-31088028D01*
X70658028Y-31232786D01*
X70537715Y-31398386D01*
X70444781Y-31580776D01*
X70381522Y-31775465D01*
X70349500Y-31977648D01*
X70349500Y-32182351D01*
X70381522Y-32384534D01*
X70444781Y-32579223D01*
X70494932Y-32677648D01*
X70530830Y-32748102D01*
X70537715Y-32761613D01*
X70658028Y-32927213D01*
X70802786Y-33071971D01*
X70910412Y-33150164D01*
X70968390Y-33192287D01*
X71043627Y-33230622D01*
X71061080Y-33239515D01*
X71111876Y-33287490D01*
X71128671Y-33355311D01*
X71106134Y-33421446D01*
X71061080Y-33460485D01*
X70968386Y-33507715D01*
X70802786Y-33628028D01*
X70658028Y-33772786D01*
X70537715Y-33938386D01*
X70444781Y-34120776D01*
X70381522Y-34315465D01*
X70349500Y-34517648D01*
X70349500Y-34722351D01*
X70381522Y-34924534D01*
X70444781Y-35119223D01*
X70537715Y-35301613D01*
X70658028Y-35467213D01*
X70802786Y-35611971D01*
X70946391Y-35716304D01*
X70968390Y-35732287D01*
X71059840Y-35778883D01*
X71061080Y-35779515D01*
X71111876Y-35827490D01*
X71128671Y-35895311D01*
X71106134Y-35961446D01*
X71061080Y-36000485D01*
X70968386Y-36047715D01*
X70802786Y-36168028D01*
X70658028Y-36312786D01*
X70537715Y-36478386D01*
X70444781Y-36660776D01*
X70381522Y-36855465D01*
X70349500Y-37057648D01*
X70349500Y-37262351D01*
X70381522Y-37464534D01*
X70444781Y-37659223D01*
X70537715Y-37841613D01*
X70658028Y-38007213D01*
X70802786Y-38151971D01*
X70957749Y-38264556D01*
X70968390Y-38272287D01*
X71059840Y-38318883D01*
X71061080Y-38319515D01*
X71111876Y-38367490D01*
X71128671Y-38435311D01*
X71106134Y-38501446D01*
X71061080Y-38540485D01*
X70968386Y-38587715D01*
X70802786Y-38708028D01*
X70658028Y-38852786D01*
X70537715Y-39018386D01*
X70444781Y-39200776D01*
X70381522Y-39395465D01*
X70349500Y-39597648D01*
X70349500Y-39802351D01*
X70381522Y-40004534D01*
X70444781Y-40199223D01*
X70537715Y-40381613D01*
X70658028Y-40547213D01*
X70802786Y-40691971D01*
X70957749Y-40804556D01*
X70968390Y-40812287D01*
X71043387Y-40850500D01*
X71061080Y-40859515D01*
X71111876Y-40907490D01*
X71128671Y-40975311D01*
X71106134Y-41041446D01*
X71061080Y-41080485D01*
X70968386Y-41127715D01*
X70802786Y-41248028D01*
X70658028Y-41392786D01*
X70537715Y-41558386D01*
X70444781Y-41740776D01*
X70381522Y-41935465D01*
X70349500Y-42137648D01*
X70349500Y-42342351D01*
X70381522Y-42544534D01*
X70444781Y-42739223D01*
X70494932Y-42837648D01*
X70536139Y-42918521D01*
X70537715Y-42921613D01*
X70658028Y-43087213D01*
X70802786Y-43231971D01*
X70957749Y-43344556D01*
X70968390Y-43352287D01*
X71043387Y-43390500D01*
X71061080Y-43399515D01*
X71111876Y-43447490D01*
X71128671Y-43515311D01*
X71106134Y-43581446D01*
X71061080Y-43620485D01*
X70968386Y-43667715D01*
X70802786Y-43788028D01*
X70658028Y-43932786D01*
X70537715Y-44098386D01*
X70444781Y-44280776D01*
X70381522Y-44475465D01*
X70349500Y-44677648D01*
X70349500Y-44882351D01*
X70381522Y-45084534D01*
X70444781Y-45279223D01*
X70494932Y-45377648D01*
X70536139Y-45458521D01*
X70537715Y-45461613D01*
X70658028Y-45627213D01*
X70802786Y-45771971D01*
X70957749Y-45884556D01*
X70968390Y-45892287D01*
X71068444Y-45943267D01*
X71150776Y-45985218D01*
X71150778Y-45985218D01*
X71150781Y-45985220D01*
X71227988Y-46010306D01*
X71345465Y-46048477D01*
X71446557Y-46064488D01*
X71547648Y-46080500D01*
X71547649Y-46080500D01*
X71752351Y-46080500D01*
X71752352Y-46080500D01*
X71954534Y-46048477D01*
X72149219Y-45985220D01*
X72331610Y-45892287D01*
X72424590Y-45824732D01*
X72497213Y-45771971D01*
X72497215Y-45771968D01*
X72497219Y-45771966D01*
X72641966Y-45627219D01*
X72641968Y-45627215D01*
X72641971Y-45627213D01*
X72700338Y-45546876D01*
X72762287Y-45461610D01*
X72855220Y-45279219D01*
X72918477Y-45084534D01*
X72950500Y-44882352D01*
X72950500Y-44677648D01*
X72936144Y-44587007D01*
X72918477Y-44475465D01*
X72883466Y-44367713D01*
X72855220Y-44280781D01*
X72855218Y-44280778D01*
X72855218Y-44280776D01*
X72792767Y-44158211D01*
X72762287Y-44098390D01*
X72742098Y-44070602D01*
X72641971Y-43932786D01*
X72497213Y-43788028D01*
X72331614Y-43667715D01*
X72325006Y-43664348D01*
X72238917Y-43620483D01*
X72188123Y-43572511D01*
X72171328Y-43504690D01*
X72193865Y-43438555D01*
X72238917Y-43399516D01*
X72331610Y-43352287D01*
X72352770Y-43336913D01*
X72497213Y-43231971D01*
X72497215Y-43231968D01*
X72497219Y-43231966D01*
X72641966Y-43087219D01*
X72641968Y-43087215D01*
X72641971Y-43087213D01*
X72694732Y-43014590D01*
X72762287Y-42921610D01*
X72855220Y-42739219D01*
X72918477Y-42544534D01*
X72950500Y-42342352D01*
X72950500Y-42137648D01*
X72943394Y-42092781D01*
X72918477Y-41935465D01*
X72883466Y-41827713D01*
X72855220Y-41740781D01*
X72855218Y-41740778D01*
X72855218Y-41740776D01*
X72816305Y-41664407D01*
X72762287Y-41558390D01*
X72742098Y-41530602D01*
X72641971Y-41392786D01*
X72497213Y-41248028D01*
X72331614Y-41127715D01*
X72325006Y-41124348D01*
X72238917Y-41080483D01*
X72188123Y-41032511D01*
X72171328Y-40964690D01*
X72193865Y-40898555D01*
X72238917Y-40859516D01*
X72331610Y-40812287D01*
X72476517Y-40707007D01*
X72497213Y-40691971D01*
X72497215Y-40691968D01*
X72497219Y-40691966D01*
X72641966Y-40547219D01*
X72641968Y-40547215D01*
X72641971Y-40547213D01*
X72701101Y-40465826D01*
X72762287Y-40381610D01*
X72855220Y-40199219D01*
X72918477Y-40004534D01*
X72950500Y-39802352D01*
X72950500Y-39597648D01*
X72918477Y-39395466D01*
X72855220Y-39200781D01*
X72855218Y-39200778D01*
X72855218Y-39200776D01*
X72787447Y-39067770D01*
X72762287Y-39018390D01*
X72754556Y-39007749D01*
X72641971Y-38852786D01*
X72497213Y-38708028D01*
X72331614Y-38587715D01*
X72325006Y-38584348D01*
X72238917Y-38540483D01*
X72188123Y-38492511D01*
X72171328Y-38424690D01*
X72193865Y-38358555D01*
X72238917Y-38319516D01*
X72331610Y-38272287D01*
X72352770Y-38256913D01*
X72497213Y-38151971D01*
X72497215Y-38151968D01*
X72497219Y-38151966D01*
X72641966Y-38007219D01*
X72641968Y-38007215D01*
X72641971Y-38007213D01*
X72698259Y-37929738D01*
X72762287Y-37841610D01*
X72855220Y-37659219D01*
X72918477Y-37464534D01*
X72950500Y-37262352D01*
X72950500Y-37057648D01*
X72930129Y-36929034D01*
X72918477Y-36855465D01*
X72883466Y-36747713D01*
X72855220Y-36660781D01*
X72855218Y-36660778D01*
X72855218Y-36660776D01*
X72791172Y-36535080D01*
X72762287Y-36478390D01*
X72737080Y-36443695D01*
X72641971Y-36312786D01*
X72497213Y-36168028D01*
X72331614Y-36047715D01*
X72325006Y-36044348D01*
X72238917Y-36000483D01*
X72188123Y-35952511D01*
X72171328Y-35884690D01*
X72193865Y-35818555D01*
X72238917Y-35779516D01*
X72331610Y-35732287D01*
X72353609Y-35716304D01*
X72497213Y-35611971D01*
X72497215Y-35611968D01*
X72497219Y-35611966D01*
X72641966Y-35467219D01*
X72641968Y-35467215D01*
X72641971Y-35467213D01*
X72706463Y-35378446D01*
X72762287Y-35301610D01*
X72855220Y-35119219D01*
X72918477Y-34924534D01*
X72950500Y-34722352D01*
X72950500Y-34517648D01*
X72938787Y-34443695D01*
X72918477Y-34315465D01*
X72883466Y-34207713D01*
X72855220Y-34120781D01*
X72855218Y-34120778D01*
X72855218Y-34120776D01*
X72816450Y-34044690D01*
X72762287Y-33938390D01*
X72754556Y-33927749D01*
X72641971Y-33772786D01*
X72497213Y-33628028D01*
X72331614Y-33507715D01*
X72325006Y-33504348D01*
X72238917Y-33460483D01*
X72188123Y-33412511D01*
X72171328Y-33344690D01*
X72193865Y-33278555D01*
X72238917Y-33239516D01*
X72331610Y-33192287D01*
X72451676Y-33105055D01*
X72497213Y-33071971D01*
X72497215Y-33071968D01*
X72497219Y-33071966D01*
X72641966Y-32927219D01*
X72641968Y-32927215D01*
X72641971Y-32927213D01*
X72707832Y-32836561D01*
X72762287Y-32761610D01*
X72855220Y-32579219D01*
X72918477Y-32384534D01*
X72950500Y-32182352D01*
X72950500Y-31977648D01*
X72918477Y-31775466D01*
X72855220Y-31580781D01*
X72855218Y-31580778D01*
X72855218Y-31580776D01*
X72816305Y-31504407D01*
X72762287Y-31398390D01*
X72748324Y-31379172D01*
X72641971Y-31232786D01*
X72497213Y-31088028D01*
X72331614Y-30967715D01*
X72325006Y-30964348D01*
X72238917Y-30920483D01*
X72188123Y-30872511D01*
X72171328Y-30804690D01*
X72193865Y-30738555D01*
X72238917Y-30699516D01*
X72331610Y-30652287D01*
X72417727Y-30589720D01*
X72497213Y-30531971D01*
X72497215Y-30531968D01*
X72497219Y-30531966D01*
X72641966Y-30387219D01*
X72641968Y-30387215D01*
X72641971Y-30387213D01*
X72701101Y-30305826D01*
X72762287Y-30221610D01*
X72855220Y-30039219D01*
X72918477Y-29844534D01*
X72950500Y-29642352D01*
X72950500Y-29437648D01*
X72920467Y-29248028D01*
X72918477Y-29235465D01*
X72883466Y-29127713D01*
X72855220Y-29040781D01*
X72855218Y-29040778D01*
X72855218Y-29040776D01*
X72816450Y-28964690D01*
X72762287Y-28858390D01*
X72754556Y-28847749D01*
X72641971Y-28692786D01*
X72497213Y-28548028D01*
X72331614Y-28427715D01*
X72325006Y-28424348D01*
X72238917Y-28380483D01*
X72188123Y-28332511D01*
X72171328Y-28264690D01*
X72193865Y-28198555D01*
X72238917Y-28159516D01*
X72331610Y-28112287D01*
X72352770Y-28096913D01*
X72497213Y-27991971D01*
X72497215Y-27991968D01*
X72497219Y-27991966D01*
X72641966Y-27847219D01*
X72641968Y-27847215D01*
X72641971Y-27847213D01*
X72705838Y-27759306D01*
X72762287Y-27681610D01*
X72855220Y-27499219D01*
X72918477Y-27304534D01*
X72950500Y-27102352D01*
X72950500Y-26897648D01*
X72918477Y-26695466D01*
X72906953Y-26660000D01*
X72876395Y-26565951D01*
X72855220Y-26500781D01*
X72855218Y-26500778D01*
X72855218Y-26500776D01*
X72816450Y-26424690D01*
X72762287Y-26318390D01*
X72754556Y-26307749D01*
X72641971Y-26152786D01*
X72497213Y-26008028D01*
X72331613Y-25887715D01*
X72331612Y-25887714D01*
X72331610Y-25887713D01*
X72241128Y-25841610D01*
X72149223Y-25794781D01*
X71954534Y-25731522D01*
X71779995Y-25703878D01*
X71752352Y-25699500D01*
X71547648Y-25699500D01*
X71523329Y-25703351D01*
X71345465Y-25731522D01*
X71150776Y-25794781D01*
X70968386Y-25887715D01*
X70802786Y-26008028D01*
X70658028Y-26152786D01*
X70537715Y-26318385D01*
X70454454Y-26481795D01*
X70406479Y-26532591D01*
X70343969Y-26549500D01*
X68559309Y-26549500D01*
X68440691Y-26549500D01*
X68326114Y-26580201D01*
X68326112Y-26580201D01*
X68326112Y-26580202D01*
X68223387Y-26639511D01*
X68223384Y-26639513D01*
X68139513Y-26723384D01*
X68139511Y-26723387D01*
X68080201Y-26826114D01*
X68049500Y-26940691D01*
X68049500Y-26940693D01*
X68049500Y-75271981D01*
X68029815Y-75339020D01*
X67994395Y-75375080D01*
X67989715Y-75378207D01*
X67989707Y-75378213D01*
X67878213Y-75489707D01*
X67878210Y-75489711D01*
X67790609Y-75620814D01*
X67790602Y-75620827D01*
X67730264Y-75766498D01*
X67730261Y-75766510D01*
X67699500Y-75921153D01*
X65450500Y-75921153D01*
X65450500Y-42968017D01*
X65470185Y-42900978D01*
X65505612Y-42864913D01*
X65510289Y-42861789D01*
X65621789Y-42750289D01*
X65709394Y-42619179D01*
X65769737Y-42473497D01*
X65800500Y-42318842D01*
X65800500Y-42161158D01*
X65800500Y-42161155D01*
X65800499Y-42161153D01*
X65769737Y-42006503D01*
X65740313Y-41935466D01*
X65709397Y-41860827D01*
X65709390Y-41860814D01*
X65621789Y-41729711D01*
X65621786Y-41729707D01*
X65510292Y-41618213D01*
X65510288Y-41618210D01*
X65379185Y-41530609D01*
X65379172Y-41530602D01*
X65233501Y-41470264D01*
X65233489Y-41470261D01*
X65078845Y-41439500D01*
X65078842Y-41439500D01*
X64921158Y-41439500D01*
X64921155Y-41439500D01*
X64766510Y-41470261D01*
X64766498Y-41470264D01*
X64620827Y-41530602D01*
X64620814Y-41530609D01*
X64489711Y-41618210D01*
X64489707Y-41618213D01*
X64378213Y-41729707D01*
X64378210Y-41729711D01*
X64290609Y-41860814D01*
X64290602Y-41860827D01*
X64230264Y-42006498D01*
X64230261Y-42006510D01*
X64199500Y-42161153D01*
X54281641Y-42161153D01*
X54231971Y-42092787D01*
X54231967Y-42092782D01*
X54087213Y-41948028D01*
X53921614Y-41827715D01*
X53915006Y-41824348D01*
X53828917Y-41780483D01*
X53778123Y-41732511D01*
X53761328Y-41664690D01*
X53783865Y-41598555D01*
X53828917Y-41559516D01*
X53921610Y-41512287D01*
X53979452Y-41470263D01*
X54087213Y-41391971D01*
X54087215Y-41391968D01*
X54087219Y-41391966D01*
X54231966Y-41247219D01*
X54231968Y-41247215D01*
X54231971Y-41247213D01*
X54318791Y-41127713D01*
X54352287Y-41081610D01*
X54445220Y-40899219D01*
X54508477Y-40704534D01*
X54540500Y-40502352D01*
X54540500Y-40297648D01*
X54511913Y-40117157D01*
X54508477Y-40095465D01*
X54471025Y-39980201D01*
X54445220Y-39900781D01*
X54445218Y-39900778D01*
X54445218Y-39900776D01*
X54395067Y-39802351D01*
X54352287Y-39718390D01*
X54290337Y-39633122D01*
X54231971Y-39552786D01*
X54087213Y-39408028D01*
X53921614Y-39287715D01*
X53915006Y-39284348D01*
X53828917Y-39240483D01*
X53778123Y-39192511D01*
X53761328Y-39124690D01*
X53783865Y-39058555D01*
X53828917Y-39019516D01*
X53921610Y-38972287D01*
X53981143Y-38929034D01*
X54087213Y-38851971D01*
X54087215Y-38851968D01*
X54087219Y-38851966D01*
X54231966Y-38707219D01*
X54231968Y-38707215D01*
X54231971Y-38707213D01*
X54297029Y-38617667D01*
X54352287Y-38541610D01*
X54445220Y-38359219D01*
X54508477Y-38164534D01*
X54540500Y-37962352D01*
X54540500Y-37757648D01*
X54526664Y-37670292D01*
X54508477Y-37555465D01*
X54450962Y-37378453D01*
X54445220Y-37360781D01*
X54445218Y-37360777D01*
X54445218Y-37360776D01*
X54395067Y-37262351D01*
X54352287Y-37178390D01*
X54312287Y-37123334D01*
X54231971Y-37012786D01*
X54087213Y-36868028D01*
X53921614Y-36747715D01*
X53915006Y-36744348D01*
X53828917Y-36700483D01*
X53778123Y-36652511D01*
X53761328Y-36584690D01*
X53783865Y-36518555D01*
X53828917Y-36479516D01*
X53921610Y-36432287D01*
X53942770Y-36416913D01*
X54087213Y-36311971D01*
X54087215Y-36311968D01*
X54087219Y-36311966D01*
X54231966Y-36167219D01*
X54231968Y-36167215D01*
X54231971Y-36167213D01*
X54318791Y-36047713D01*
X54352287Y-36001610D01*
X54445220Y-35819219D01*
X54508477Y-35624534D01*
X54540500Y-35422352D01*
X54540500Y-35217648D01*
X54508477Y-35015466D01*
X54445220Y-34820781D01*
X54445218Y-34820777D01*
X54445218Y-34820776D01*
X54395067Y-34722351D01*
X54352287Y-34638390D01*
X54337230Y-34617666D01*
X54231971Y-34472786D01*
X54087213Y-34328028D01*
X53921614Y-34207715D01*
X53915006Y-34204348D01*
X53828917Y-34160483D01*
X53778123Y-34112511D01*
X53761328Y-34044690D01*
X53783865Y-33978555D01*
X53828917Y-33939516D01*
X53921610Y-33892287D01*
X53942770Y-33876913D01*
X54087213Y-33771971D01*
X54087215Y-33771968D01*
X54087219Y-33771966D01*
X54231966Y-33627219D01*
X54231968Y-33627215D01*
X54231971Y-33627213D01*
X54293638Y-33542334D01*
X54352287Y-33461610D01*
X54445220Y-33279219D01*
X54508477Y-33084534D01*
X54540500Y-32882352D01*
X54540500Y-32677648D01*
X54508477Y-32475466D01*
X54445220Y-32280781D01*
X54445218Y-32280777D01*
X54445218Y-32280776D01*
X54395067Y-32182351D01*
X54352287Y-32098390D01*
X54264564Y-31977648D01*
X54231971Y-31932786D01*
X54087213Y-31788028D01*
X53921611Y-31667713D01*
X53828369Y-31620203D01*
X53777574Y-31572229D01*
X53760779Y-31504407D01*
X53783317Y-31438273D01*
X53828371Y-31399234D01*
X53921347Y-31351861D01*
X54006876Y-31289719D01*
X54006877Y-31289718D01*
X53425178Y-30708019D01*
X53432993Y-30705925D01*
X53547007Y-30640099D01*
X53640099Y-30547007D01*
X53705925Y-30432993D01*
X53708019Y-30425177D01*
X54289718Y-31006877D01*
X54289719Y-31006876D01*
X54351859Y-30921349D01*
X54351959Y-30921153D01*
X65199500Y-30921153D01*
X65199500Y-31078846D01*
X65230261Y-31233489D01*
X65230264Y-31233501D01*
X65290602Y-31379172D01*
X65290609Y-31379185D01*
X65378210Y-31510288D01*
X65378213Y-31510292D01*
X65489706Y-31621785D01*
X65489709Y-31621787D01*
X65489711Y-31621789D01*
X65494386Y-31624913D01*
X65539193Y-31678521D01*
X65549500Y-31728017D01*
X65549500Y-36431981D01*
X65529815Y-36499020D01*
X65494395Y-36535080D01*
X65489715Y-36538207D01*
X65489707Y-36538213D01*
X65378213Y-36649707D01*
X65378210Y-36649711D01*
X65290609Y-36780814D01*
X65290602Y-36780827D01*
X65230264Y-36926498D01*
X65230261Y-36926510D01*
X65199500Y-37081153D01*
X65199500Y-37238846D01*
X65230261Y-37393489D01*
X65230264Y-37393501D01*
X65290602Y-37539172D01*
X65290609Y-37539185D01*
X65378210Y-37670288D01*
X65378213Y-37670292D01*
X65489707Y-37781786D01*
X65489711Y-37781789D01*
X65620814Y-37869390D01*
X65620827Y-37869397D01*
X65766498Y-37929735D01*
X65766503Y-37929737D01*
X65921153Y-37960499D01*
X65921156Y-37960500D01*
X65921158Y-37960500D01*
X66078844Y-37960500D01*
X66078845Y-37960499D01*
X66233497Y-37929737D01*
X66379179Y-37869394D01*
X66510289Y-37781789D01*
X66621789Y-37670289D01*
X66709394Y-37539179D01*
X66769737Y-37393497D01*
X66800500Y-37238842D01*
X66800500Y-37081158D01*
X66800500Y-37081155D01*
X66800499Y-37081153D01*
X66800270Y-37080000D01*
X66769737Y-36926503D01*
X66740313Y-36855466D01*
X66709397Y-36780827D01*
X66709390Y-36780814D01*
X66621789Y-36649711D01*
X66621786Y-36649707D01*
X66510292Y-36538213D01*
X66510284Y-36538207D01*
X66505605Y-36535080D01*
X66460802Y-36481466D01*
X66450500Y-36431981D01*
X66450500Y-31728017D01*
X66470185Y-31660978D01*
X66505612Y-31624913D01*
X66510289Y-31621789D01*
X66621789Y-31510289D01*
X66709394Y-31379179D01*
X66769737Y-31233497D01*
X66800500Y-31078842D01*
X66800500Y-30921158D01*
X66800500Y-30921155D01*
X66800499Y-30921153D01*
X66788090Y-30858769D01*
X66769737Y-30766503D01*
X66741990Y-30699515D01*
X66709397Y-30620827D01*
X66709390Y-30620814D01*
X66621789Y-30489711D01*
X66621786Y-30489707D01*
X66510292Y-30378213D01*
X66510288Y-30378210D01*
X66379185Y-30290609D01*
X66379172Y-30290602D01*
X66233501Y-30230264D01*
X66233489Y-30230261D01*
X66078845Y-30199500D01*
X66078842Y-30199500D01*
X65921158Y-30199500D01*
X65921155Y-30199500D01*
X65766510Y-30230261D01*
X65766498Y-30230264D01*
X65620827Y-30290602D01*
X65620814Y-30290609D01*
X65489711Y-30378210D01*
X65489707Y-30378213D01*
X65378213Y-30489707D01*
X65378210Y-30489711D01*
X65290609Y-30620814D01*
X65290602Y-30620827D01*
X65230264Y-30766498D01*
X65230261Y-30766510D01*
X65199500Y-30921153D01*
X54351959Y-30921153D01*
X54383745Y-30858771D01*
X54383746Y-30858769D01*
X54444754Y-30739034D01*
X54507990Y-30544417D01*
X54540000Y-30342317D01*
X54540000Y-30137682D01*
X54507990Y-29935582D01*
X54444755Y-29740968D01*
X54351858Y-29558649D01*
X54351852Y-29558640D01*
X54289720Y-29473122D01*
X54289719Y-29473121D01*
X53708019Y-30054821D01*
X53705925Y-30047007D01*
X53640099Y-29932993D01*
X53547007Y-29839901D01*
X53432993Y-29774075D01*
X53425176Y-29771980D01*
X54006876Y-29190279D01*
X53921347Y-29128139D01*
X53828369Y-29080765D01*
X53777573Y-29032790D01*
X53760778Y-28964969D01*
X53783315Y-28898835D01*
X53828370Y-28859795D01*
X53828920Y-28859515D01*
X53921610Y-28812287D01*
X53975518Y-28773121D01*
X54087213Y-28691971D01*
X54087215Y-28691968D01*
X54087219Y-28691966D01*
X54231966Y-28547219D01*
X54231968Y-28547215D01*
X54231971Y-28547213D01*
X54284732Y-28474590D01*
X54352287Y-28381610D01*
X54445220Y-28199219D01*
X54508477Y-28004534D01*
X54540500Y-27802352D01*
X54540500Y-27597648D01*
X54517194Y-27450500D01*
X54508477Y-27395465D01*
X54461050Y-27249500D01*
X54445220Y-27200781D01*
X54445218Y-27200778D01*
X54445218Y-27200776D01*
X54395067Y-27102351D01*
X54352287Y-27018390D01*
X54303806Y-26951661D01*
X54231971Y-26852786D01*
X54087213Y-26708028D01*
X53921614Y-26587715D01*
X53898416Y-26575895D01*
X53828917Y-26540483D01*
X53778123Y-26492511D01*
X53761328Y-26424690D01*
X53783865Y-26358555D01*
X53828917Y-26319516D01*
X53921610Y-26272287D01*
X53985559Y-26225826D01*
X54087213Y-26151971D01*
X54087215Y-26151968D01*
X54087219Y-26151966D01*
X54231966Y-26007219D01*
X54231968Y-26007215D01*
X54231971Y-26007213D01*
X54318791Y-25887713D01*
X54352287Y-25841610D01*
X54445220Y-25659219D01*
X54508477Y-25464534D01*
X54540500Y-25262352D01*
X54540500Y-25057648D01*
X54538994Y-25048139D01*
X54508477Y-24855465D01*
X54445218Y-24660776D01*
X54406773Y-24585325D01*
X54352287Y-24478390D01*
X54344167Y-24467213D01*
X54231971Y-24312786D01*
X54087213Y-24168028D01*
X53921614Y-24047715D01*
X53882073Y-24027568D01*
X53828917Y-24000483D01*
X53778123Y-23952511D01*
X53761328Y-23884690D01*
X53783865Y-23818555D01*
X53828917Y-23779516D01*
X53921610Y-23732287D01*
X53942770Y-23716913D01*
X54087213Y-23611971D01*
X54087215Y-23611968D01*
X54087219Y-23611966D01*
X54231966Y-23467219D01*
X54231968Y-23467215D01*
X54231971Y-23467213D01*
X54284732Y-23394590D01*
X54352287Y-23301610D01*
X54445220Y-23119219D01*
X54508477Y-22924534D01*
X54540500Y-22722352D01*
X54540500Y-22517648D01*
X54536432Y-22491966D01*
X54508477Y-22315465D01*
X54468312Y-22191852D01*
X54445220Y-22120781D01*
X54445218Y-22120778D01*
X54445218Y-22120776D01*
X54411503Y-22054607D01*
X54352287Y-21938390D01*
X54285799Y-21846876D01*
X54231971Y-21772786D01*
X54087213Y-21628028D01*
X53921614Y-21507715D01*
X53898416Y-21495895D01*
X53828917Y-21460483D01*
X53778123Y-21412511D01*
X53761328Y-21344690D01*
X53783865Y-21278555D01*
X53828917Y-21239516D01*
X53921610Y-21192287D01*
X53985559Y-21145826D01*
X54087213Y-21071971D01*
X54087215Y-21071968D01*
X54087219Y-21071966D01*
X54231966Y-20927219D01*
X54231968Y-20927215D01*
X54231971Y-20927213D01*
X54311037Y-20818386D01*
X54352287Y-20761610D01*
X54445220Y-20579219D01*
X54508477Y-20384534D01*
X54540500Y-20182352D01*
X54540500Y-19977648D01*
X54508477Y-19775466D01*
X54508476Y-19775464D01*
X54508476Y-19775461D01*
X54461050Y-19629500D01*
X54445220Y-19580781D01*
X54445218Y-19580778D01*
X54445218Y-19580776D01*
X54411503Y-19514607D01*
X54352287Y-19398390D01*
X54344167Y-19387213D01*
X54231971Y-19232786D01*
X54087213Y-19088028D01*
X53921614Y-18967715D01*
X53882073Y-18947568D01*
X53828917Y-18920483D01*
X53778123Y-18872511D01*
X53761328Y-18804690D01*
X53783865Y-18738555D01*
X53828917Y-18699516D01*
X53921610Y-18652287D01*
X53942770Y-18636913D01*
X54087213Y-18531971D01*
X54087215Y-18531968D01*
X54087219Y-18531966D01*
X54231966Y-18387219D01*
X54231968Y-18387215D01*
X54231971Y-18387213D01*
X54292040Y-18304534D01*
X54352287Y-18221610D01*
X54445220Y-18039219D01*
X54508477Y-17844534D01*
X54540500Y-17642352D01*
X54540500Y-17437648D01*
X54521611Y-17318390D01*
X54508477Y-17235465D01*
X54445218Y-17040776D01*
X54411503Y-16974607D01*
X54352287Y-16858390D01*
X54306072Y-16794780D01*
X54231971Y-16692786D01*
X54087213Y-16548028D01*
X53921611Y-16427713D01*
X53828369Y-16380203D01*
X53777574Y-16332229D01*
X53760779Y-16264407D01*
X53783317Y-16198273D01*
X53828371Y-16159234D01*
X53921347Y-16111861D01*
X54006876Y-16049719D01*
X54006877Y-16049718D01*
X53425178Y-15468019D01*
X53432993Y-15465925D01*
X53547007Y-15400099D01*
X53640099Y-15307007D01*
X53705925Y-15192993D01*
X53708019Y-15185177D01*
X54289718Y-15766877D01*
X54289719Y-15766876D01*
X54351859Y-15681349D01*
X54444755Y-15499031D01*
X54507990Y-15304417D01*
X54540000Y-15102317D01*
X54540000Y-14897682D01*
X54507990Y-14695582D01*
X54444755Y-14500968D01*
X54351858Y-14318649D01*
X54351852Y-14318640D01*
X54289720Y-14233122D01*
X54289719Y-14233121D01*
X53708019Y-14814821D01*
X53705925Y-14807007D01*
X53640099Y-14692993D01*
X53547007Y-14599901D01*
X53432993Y-14534075D01*
X53425176Y-14531980D01*
X54006876Y-13950279D01*
X53921347Y-13888139D01*
X53739031Y-13795244D01*
X53544417Y-13732009D01*
X53342317Y-13700000D01*
X53137683Y-13700000D01*
X52935582Y-13732009D01*
X52740968Y-13795244D01*
X52558648Y-13888141D01*
X52473122Y-13950278D01*
X52473122Y-13950279D01*
X53054823Y-14531980D01*
X53047007Y-14534075D01*
X52932993Y-14599901D01*
X52839901Y-14692993D01*
X52774075Y-14807007D01*
X52771980Y-14814823D01*
X52190279Y-14233122D01*
X52190278Y-14233122D01*
X52128141Y-14318648D01*
X52035244Y-14500968D01*
X51972009Y-14695582D01*
X51940000Y-14897682D01*
X51940000Y-15102317D01*
X51972009Y-15304417D01*
X52035244Y-15499031D01*
X52128139Y-15681347D01*
X52190279Y-15766876D01*
X52771980Y-15185176D01*
X52774075Y-15192993D01*
X52839901Y-15307007D01*
X52932993Y-15400099D01*
X53047007Y-15465925D01*
X53054822Y-15468019D01*
X52473121Y-16049719D01*
X52473122Y-16049720D01*
X52558640Y-16111852D01*
X52558654Y-16111861D01*
X52651629Y-16159234D01*
X52702426Y-16207208D01*
X52719221Y-16275029D01*
X52696684Y-16341164D01*
X52651631Y-16380203D01*
X52558388Y-16427713D01*
X52392786Y-16548028D01*
X52248028Y-16692786D01*
X52127715Y-16858386D01*
X52034781Y-17040776D01*
X51971522Y-17235465D01*
X51939500Y-17437648D01*
X51939500Y-17642351D01*
X51971522Y-17844534D01*
X52034781Y-18039223D01*
X52127715Y-18221613D01*
X52248028Y-18387213D01*
X52392786Y-18531971D01*
X52547749Y-18644556D01*
X52558390Y-18652287D01*
X52649840Y-18698883D01*
X52651080Y-18699515D01*
X52701876Y-18747490D01*
X52718671Y-18815311D01*
X52696134Y-18881446D01*
X52651080Y-18920485D01*
X52558386Y-18967715D01*
X52392786Y-19088028D01*
X52248028Y-19232786D01*
X52127715Y-19398385D01*
X52044454Y-19561795D01*
X51996479Y-19612591D01*
X51933969Y-19629500D01*
X40059309Y-19629500D01*
X39940691Y-19629500D01*
X39826114Y-19660201D01*
X39826112Y-19660201D01*
X39826112Y-19660202D01*
X39723387Y-19719511D01*
X39723384Y-19719513D01*
X39639513Y-19803384D01*
X39639511Y-19803387D01*
X39580201Y-19906114D01*
X39549500Y-20020691D01*
X39549500Y-20020693D01*
X39549500Y-73271981D01*
X39529815Y-73339020D01*
X39494395Y-73375080D01*
X39489715Y-73378207D01*
X39489707Y-73378213D01*
X39378213Y-73489707D01*
X39378210Y-73489711D01*
X39290609Y-73620814D01*
X39290602Y-73620827D01*
X39230264Y-73766498D01*
X39230261Y-73766510D01*
X39199500Y-73921153D01*
X16450500Y-73921153D01*
X16450500Y-51134500D01*
X16470185Y-51067461D01*
X16522989Y-51021706D01*
X16574500Y-51010500D01*
X26533969Y-51010500D01*
X26601008Y-51030185D01*
X26644454Y-51078205D01*
X26727715Y-51241614D01*
X26848028Y-51407213D01*
X26992786Y-51551971D01*
X27147749Y-51664556D01*
X27158390Y-51672287D01*
X27249840Y-51718883D01*
X27251080Y-51719515D01*
X27301876Y-51767490D01*
X27318671Y-51835311D01*
X27296134Y-51901446D01*
X27251080Y-51940485D01*
X27158386Y-51987715D01*
X26992786Y-52108028D01*
X26848028Y-52252786D01*
X26727715Y-52418386D01*
X26634781Y-52600776D01*
X26571522Y-52795465D01*
X26539500Y-52997648D01*
X26539500Y-53202351D01*
X26571522Y-53404534D01*
X26634781Y-53599223D01*
X26727715Y-53781613D01*
X26848028Y-53947213D01*
X26992786Y-54091971D01*
X27147749Y-54204556D01*
X27158390Y-54212287D01*
X27249840Y-54258883D01*
X27251080Y-54259515D01*
X27301876Y-54307490D01*
X27318671Y-54375311D01*
X27296134Y-54441446D01*
X27251080Y-54480485D01*
X27158386Y-54527715D01*
X26992786Y-54648028D01*
X26848028Y-54792786D01*
X26727715Y-54958386D01*
X26634781Y-55140776D01*
X26571522Y-55335465D01*
X26539500Y-55537648D01*
X26539500Y-55742351D01*
X26571522Y-55944534D01*
X26634781Y-56139223D01*
X26727715Y-56321613D01*
X26848028Y-56487213D01*
X26992786Y-56631971D01*
X27147749Y-56744556D01*
X27158390Y-56752287D01*
X27249840Y-56798883D01*
X27251080Y-56799515D01*
X27301876Y-56847490D01*
X27318671Y-56915311D01*
X27296134Y-56981446D01*
X27251080Y-57020485D01*
X27158386Y-57067715D01*
X26992786Y-57188028D01*
X26848028Y-57332786D01*
X26727715Y-57498386D01*
X26634781Y-57680776D01*
X26571522Y-57875465D01*
X26539500Y-58077648D01*
X26539500Y-58282351D01*
X26571522Y-58484534D01*
X26634781Y-58679223D01*
X26727715Y-58861613D01*
X26848028Y-59027213D01*
X26992786Y-59171971D01*
X27147749Y-59284556D01*
X27158390Y-59292287D01*
X27249840Y-59338883D01*
X27251080Y-59339515D01*
X27301876Y-59387490D01*
X27318671Y-59455311D01*
X27296134Y-59521446D01*
X27251080Y-59560485D01*
X27158386Y-59607715D01*
X26992786Y-59728028D01*
X26848028Y-59872786D01*
X26727715Y-60038386D01*
X26634781Y-60220776D01*
X26571522Y-60415465D01*
X26539500Y-60617648D01*
X26539500Y-60822351D01*
X26571522Y-61024534D01*
X26634781Y-61219223D01*
X26727715Y-61401613D01*
X26848028Y-61567213D01*
X26992786Y-61711971D01*
X27147749Y-61824556D01*
X27158390Y-61832287D01*
X27249840Y-61878883D01*
X27251080Y-61879515D01*
X27301876Y-61927490D01*
X27318671Y-61995311D01*
X27296134Y-62061446D01*
X27251080Y-62100485D01*
X27158386Y-62147715D01*
X26992786Y-62268028D01*
X26848028Y-62412786D01*
X26727715Y-62578386D01*
X26634781Y-62760776D01*
X26571522Y-62955465D01*
X26539500Y-63157648D01*
X26539500Y-63362351D01*
X26571522Y-63564534D01*
X26634781Y-63759223D01*
X26727715Y-63941613D01*
X26848028Y-64107213D01*
X26992786Y-64251971D01*
X27147749Y-64364556D01*
X27158390Y-64372287D01*
X27274607Y-64431503D01*
X27340776Y-64465218D01*
X27340778Y-64465218D01*
X27340781Y-64465220D01*
X27445137Y-64499127D01*
X27535465Y-64528477D01*
X27636557Y-64544488D01*
X27737648Y-64560500D01*
X27737649Y-64560500D01*
X27942351Y-64560500D01*
X27942352Y-64560500D01*
X28144534Y-64528477D01*
X28339219Y-64465220D01*
X28521610Y-64372287D01*
X28614590Y-64304732D01*
X28687213Y-64251971D01*
X28687215Y-64251968D01*
X28687219Y-64251966D01*
X28831966Y-64107219D01*
X28831968Y-64107215D01*
X28831971Y-64107213D01*
X28890338Y-64026876D01*
X28952287Y-63941610D01*
X29045220Y-63759219D01*
X29108477Y-63564534D01*
X29140500Y-63362352D01*
X29140500Y-63157648D01*
X29111913Y-62977157D01*
X29108477Y-62955465D01*
X29056038Y-62794075D01*
X29045220Y-62760781D01*
X29045218Y-62760778D01*
X29045218Y-62760776D01*
X29011503Y-62694607D01*
X28952287Y-62578390D01*
X28890337Y-62493122D01*
X28831971Y-62412786D01*
X28687213Y-62268028D01*
X28521614Y-62147715D01*
X28515006Y-62144348D01*
X28428917Y-62100483D01*
X28378123Y-62052511D01*
X28361328Y-61984690D01*
X28383865Y-61918555D01*
X28428917Y-61879516D01*
X28521610Y-61832287D01*
X28607727Y-61769720D01*
X28687213Y-61711971D01*
X28687215Y-61711968D01*
X28687219Y-61711966D01*
X28831966Y-61567219D01*
X28831968Y-61567215D01*
X28831971Y-61567213D01*
X28888259Y-61489738D01*
X28952287Y-61401610D01*
X29045220Y-61219219D01*
X29108477Y-61024534D01*
X29140500Y-60822352D01*
X29140500Y-60617648D01*
X29126144Y-60527007D01*
X29108477Y-60415465D01*
X29056038Y-60254075D01*
X29045220Y-60220781D01*
X29045218Y-60220778D01*
X29045218Y-60220776D01*
X28982767Y-60098211D01*
X28952287Y-60038390D01*
X28890337Y-59953122D01*
X28831971Y-59872786D01*
X28687213Y-59728028D01*
X28521614Y-59607715D01*
X28515006Y-59604348D01*
X28428917Y-59560483D01*
X28378123Y-59512511D01*
X28361328Y-59444690D01*
X28383865Y-59378555D01*
X28428917Y-59339516D01*
X28521610Y-59292287D01*
X28607727Y-59229720D01*
X28687213Y-59171971D01*
X28687215Y-59171968D01*
X28687219Y-59171966D01*
X28831966Y-59027219D01*
X28831968Y-59027215D01*
X28831971Y-59027213D01*
X28890338Y-58946876D01*
X28952287Y-58861610D01*
X29045220Y-58679219D01*
X29108477Y-58484534D01*
X29140500Y-58282352D01*
X29140500Y-58077648D01*
X29111913Y-57897157D01*
X29108477Y-57875465D01*
X29056038Y-57714075D01*
X29045220Y-57680781D01*
X29045218Y-57680778D01*
X29045218Y-57680776D01*
X29011503Y-57614607D01*
X28952287Y-57498390D01*
X28890337Y-57413122D01*
X28831971Y-57332786D01*
X28687213Y-57188028D01*
X28521614Y-57067715D01*
X28515006Y-57064348D01*
X28428917Y-57020483D01*
X28378123Y-56972511D01*
X28361328Y-56904690D01*
X28383865Y-56838555D01*
X28428917Y-56799516D01*
X28521610Y-56752287D01*
X28607727Y-56689720D01*
X28687213Y-56631971D01*
X28687215Y-56631968D01*
X28687219Y-56631966D01*
X28831966Y-56487219D01*
X28831968Y-56487215D01*
X28831971Y-56487213D01*
X28890338Y-56406876D01*
X28952287Y-56321610D01*
X29045220Y-56139219D01*
X29108477Y-55944534D01*
X29140500Y-55742352D01*
X29140500Y-55537648D01*
X29111913Y-55357157D01*
X29108477Y-55335465D01*
X29056038Y-55174075D01*
X29045220Y-55140781D01*
X29045218Y-55140778D01*
X29045218Y-55140776D01*
X29011503Y-55074607D01*
X28952287Y-54958390D01*
X28890337Y-54873122D01*
X28831971Y-54792786D01*
X28687213Y-54648028D01*
X28521614Y-54527715D01*
X28515006Y-54524348D01*
X28428917Y-54480483D01*
X28378123Y-54432511D01*
X28361328Y-54364690D01*
X28383865Y-54298555D01*
X28428917Y-54259516D01*
X28521610Y-54212287D01*
X28542770Y-54196913D01*
X28687213Y-54091971D01*
X28687215Y-54091968D01*
X28687219Y-54091966D01*
X28831966Y-53947219D01*
X28831968Y-53947215D01*
X28831971Y-53947213D01*
X28884732Y-53874590D01*
X28952287Y-53781610D01*
X29045220Y-53599219D01*
X29108477Y-53404534D01*
X29140500Y-53202352D01*
X29140500Y-52997648D01*
X29108477Y-52795466D01*
X29045220Y-52600781D01*
X29045218Y-52600778D01*
X29045218Y-52600776D01*
X29011503Y-52534607D01*
X28952287Y-52418390D01*
X28944556Y-52407749D01*
X28831971Y-52252786D01*
X28687213Y-52108028D01*
X28521614Y-51987715D01*
X28515006Y-51984348D01*
X28428917Y-51940483D01*
X28378123Y-51892511D01*
X28361328Y-51824690D01*
X28383865Y-51758555D01*
X28428917Y-51719516D01*
X28521610Y-51672287D01*
X28542770Y-51656913D01*
X28687213Y-51551971D01*
X28687215Y-51551968D01*
X28687219Y-51551966D01*
X28831966Y-51407219D01*
X28831968Y-51407215D01*
X28831971Y-51407213D01*
X28909502Y-51300499D01*
X28952287Y-51241610D01*
X29045220Y-51059219D01*
X29108477Y-50864534D01*
X29140500Y-50662352D01*
X29140500Y-50457648D01*
X29108477Y-50255466D01*
X29045220Y-50060781D01*
X29045218Y-50060778D01*
X29045218Y-50060776D01*
X29009006Y-49989707D01*
X28952287Y-49878390D01*
X28898023Y-49803701D01*
X28831971Y-49712786D01*
X28687213Y-49568028D01*
X28521611Y-49447713D01*
X28428369Y-49400203D01*
X28377574Y-49352229D01*
X28360779Y-49284407D01*
X28383317Y-49218273D01*
X28428371Y-49179234D01*
X28521347Y-49131861D01*
X28606876Y-49069719D01*
X28606877Y-49069718D01*
X28025178Y-48488019D01*
X28032993Y-48485925D01*
X28147007Y-48420099D01*
X28240099Y-48327007D01*
X28305925Y-48212993D01*
X28308019Y-48205177D01*
X28889718Y-48786877D01*
X28889719Y-48786876D01*
X28951859Y-48701349D01*
X29044755Y-48519031D01*
X29107990Y-48324417D01*
X29140000Y-48122317D01*
X29140000Y-47917682D01*
X29107990Y-47715582D01*
X29044755Y-47520968D01*
X28951858Y-47338649D01*
X28951852Y-47338640D01*
X28889720Y-47253122D01*
X28889719Y-47253121D01*
X28308019Y-47834821D01*
X28305925Y-47827007D01*
X28240099Y-47712993D01*
X28147007Y-47619901D01*
X28032993Y-47554075D01*
X28025176Y-47551980D01*
X28606876Y-46970279D01*
X28521347Y-46908139D01*
X28428369Y-46860765D01*
X28377573Y-46812790D01*
X28360778Y-46744969D01*
X28383315Y-46678835D01*
X28428370Y-46639795D01*
X28428920Y-46639515D01*
X28521610Y-46592287D01*
X28571144Y-46556298D01*
X28687213Y-46471971D01*
X28687215Y-46471968D01*
X28687219Y-46471966D01*
X28831966Y-46327219D01*
X28831968Y-46327215D01*
X28831971Y-46327213D01*
X28884732Y-46254590D01*
X28952287Y-46161610D01*
X29045220Y-45979219D01*
X29108477Y-45784534D01*
X29140500Y-45582352D01*
X29140500Y-45377648D01*
X29126664Y-45290292D01*
X29108477Y-45175465D01*
X29045218Y-44980776D01*
X28995050Y-44882317D01*
X28952287Y-44798390D01*
X28930171Y-44767950D01*
X28831971Y-44632786D01*
X28687213Y-44488028D01*
X28521614Y-44367715D01*
X28515006Y-44364348D01*
X28428917Y-44320483D01*
X28378123Y-44272511D01*
X28361328Y-44204690D01*
X28383865Y-44138555D01*
X28428917Y-44099516D01*
X28521610Y-44052287D01*
X28542770Y-44036913D01*
X28687213Y-43931971D01*
X28687215Y-43931968D01*
X28687219Y-43931966D01*
X28831966Y-43787219D01*
X28831968Y-43787215D01*
X28831971Y-43787213D01*
X28884732Y-43714590D01*
X28952287Y-43621610D01*
X29045220Y-43439219D01*
X29108477Y-43244534D01*
X29140500Y-43042352D01*
X29140500Y-42837648D01*
X29126664Y-42750292D01*
X29108477Y-42635465D01*
X29055847Y-42473489D01*
X29045220Y-42440781D01*
X29045218Y-42440777D01*
X29045218Y-42440776D01*
X28995067Y-42342351D01*
X28952287Y-42258390D01*
X28930171Y-42227950D01*
X28831971Y-42092786D01*
X28687213Y-41948028D01*
X28521614Y-41827715D01*
X28515006Y-41824348D01*
X28428917Y-41780483D01*
X28378123Y-41732511D01*
X28361328Y-41664690D01*
X28383865Y-41598555D01*
X28428917Y-41559516D01*
X28521610Y-41512287D01*
X28579452Y-41470263D01*
X28687213Y-41391971D01*
X28687215Y-41391968D01*
X28687219Y-41391966D01*
X28831966Y-41247219D01*
X28831968Y-41247215D01*
X28831971Y-41247213D01*
X28918791Y-41127713D01*
X28952287Y-41081610D01*
X29045220Y-40899219D01*
X29108477Y-40704534D01*
X29140500Y-40502352D01*
X29140500Y-40297648D01*
X29111913Y-40117157D01*
X29108477Y-40095465D01*
X29071025Y-39980201D01*
X29045220Y-39900781D01*
X29045218Y-39900778D01*
X29045218Y-39900776D01*
X28995067Y-39802351D01*
X28952287Y-39718390D01*
X28890337Y-39633122D01*
X28831971Y-39552786D01*
X28687213Y-39408028D01*
X28521614Y-39287715D01*
X28515006Y-39284348D01*
X28428917Y-39240483D01*
X28378123Y-39192511D01*
X28361328Y-39124690D01*
X28383865Y-39058555D01*
X28428917Y-39019516D01*
X28521610Y-38972287D01*
X28581143Y-38929034D01*
X28687213Y-38851971D01*
X28687215Y-38851968D01*
X28687219Y-38851966D01*
X28831966Y-38707219D01*
X28831968Y-38707215D01*
X28831971Y-38707213D01*
X28897029Y-38617667D01*
X28952287Y-38541610D01*
X29045220Y-38359219D01*
X29108477Y-38164534D01*
X29140500Y-37962352D01*
X29140500Y-37757648D01*
X29126664Y-37670292D01*
X29108477Y-37555465D01*
X29050962Y-37378453D01*
X29045220Y-37360781D01*
X29045218Y-37360777D01*
X29045218Y-37360776D01*
X28995067Y-37262351D01*
X28952287Y-37178390D01*
X28912287Y-37123334D01*
X28831971Y-37012786D01*
X28687213Y-36868028D01*
X28521614Y-36747715D01*
X28515006Y-36744348D01*
X28428917Y-36700483D01*
X28378123Y-36652511D01*
X28361328Y-36584690D01*
X28383865Y-36518555D01*
X28428917Y-36479516D01*
X28521610Y-36432287D01*
X28542770Y-36416913D01*
X28687213Y-36311971D01*
X28687215Y-36311968D01*
X28687219Y-36311966D01*
X28831966Y-36167219D01*
X28831968Y-36167215D01*
X28831971Y-36167213D01*
X28918791Y-36047713D01*
X28952287Y-36001610D01*
X29045220Y-35819219D01*
X29108477Y-35624534D01*
X29140500Y-35422352D01*
X29140500Y-35217648D01*
X29108477Y-35015466D01*
X29045220Y-34820781D01*
X29045218Y-34820777D01*
X29045218Y-34820776D01*
X28995067Y-34722351D01*
X28952287Y-34638390D01*
X28937230Y-34617666D01*
X28831971Y-34472786D01*
X28687213Y-34328028D01*
X28521614Y-34207715D01*
X28515006Y-34204348D01*
X28428917Y-34160483D01*
X28378123Y-34112511D01*
X28361328Y-34044690D01*
X28383865Y-33978555D01*
X28428917Y-33939516D01*
X28521610Y-33892287D01*
X28542770Y-33876913D01*
X28687213Y-33771971D01*
X28687215Y-33771968D01*
X28687219Y-33771966D01*
X28831966Y-33627219D01*
X28831968Y-33627215D01*
X28831971Y-33627213D01*
X28893638Y-33542334D01*
X28952287Y-33461610D01*
X29045220Y-33279219D01*
X29108477Y-33084534D01*
X29140500Y-32882352D01*
X29140500Y-32677648D01*
X29108477Y-32475466D01*
X29045220Y-32280781D01*
X29045218Y-32280777D01*
X29045218Y-32280776D01*
X28995067Y-32182351D01*
X28952287Y-32098390D01*
X28864564Y-31977648D01*
X28831971Y-31932786D01*
X28687213Y-31788028D01*
X28521614Y-31667715D01*
X28437606Y-31624911D01*
X28428917Y-31620483D01*
X28378123Y-31572511D01*
X28361328Y-31504690D01*
X28383865Y-31438555D01*
X28428917Y-31399516D01*
X28521610Y-31352287D01*
X28607727Y-31289720D01*
X28687213Y-31231971D01*
X28687215Y-31231968D01*
X28687219Y-31231966D01*
X28831966Y-31087219D01*
X28831968Y-31087215D01*
X28831971Y-31087213D01*
X28890338Y-31006876D01*
X28952287Y-30921610D01*
X29045220Y-30739219D01*
X29108477Y-30544534D01*
X29140500Y-30342352D01*
X29140500Y-30137648D01*
X29109211Y-29940099D01*
X29108477Y-29935465D01*
X29047569Y-29748012D01*
X29045220Y-29740781D01*
X29045218Y-29740777D01*
X29045218Y-29740776D01*
X28995050Y-29642317D01*
X28952287Y-29558390D01*
X28938925Y-29539999D01*
X28831971Y-29392786D01*
X28687213Y-29248028D01*
X28521614Y-29127715D01*
X28515006Y-29124348D01*
X28428917Y-29080483D01*
X28378123Y-29032511D01*
X28361328Y-28964690D01*
X28383865Y-28898555D01*
X28428917Y-28859516D01*
X28521610Y-28812287D01*
X28542770Y-28796913D01*
X28687213Y-28691971D01*
X28687215Y-28691968D01*
X28687219Y-28691966D01*
X28831966Y-28547219D01*
X28831968Y-28547215D01*
X28831971Y-28547213D01*
X28884732Y-28474590D01*
X28952287Y-28381610D01*
X29045220Y-28199219D01*
X29108477Y-28004534D01*
X29140500Y-27802352D01*
X29140500Y-27597648D01*
X29117194Y-27450500D01*
X29108477Y-27395465D01*
X29061050Y-27249500D01*
X29045220Y-27200781D01*
X29045218Y-27200778D01*
X29045218Y-27200776D01*
X28995067Y-27102351D01*
X28952287Y-27018390D01*
X28903806Y-26951661D01*
X28831971Y-26852786D01*
X28687213Y-26708028D01*
X28521614Y-26587715D01*
X28498416Y-26575895D01*
X28428917Y-26540483D01*
X28378123Y-26492511D01*
X28361328Y-26424690D01*
X28383865Y-26358555D01*
X28428917Y-26319516D01*
X28521610Y-26272287D01*
X28585559Y-26225826D01*
X28687213Y-26151971D01*
X28687215Y-26151968D01*
X28687219Y-26151966D01*
X28831966Y-26007219D01*
X28831968Y-26007215D01*
X28831971Y-26007213D01*
X28918791Y-25887713D01*
X28952287Y-25841610D01*
X29045220Y-25659219D01*
X29108477Y-25464534D01*
X29140500Y-25262352D01*
X29140500Y-25057648D01*
X29138994Y-25048139D01*
X29108477Y-24855465D01*
X29045218Y-24660776D01*
X29006773Y-24585325D01*
X28952287Y-24478390D01*
X28944167Y-24467213D01*
X28831971Y-24312786D01*
X28687213Y-24168028D01*
X28521614Y-24047715D01*
X28482073Y-24027568D01*
X28428917Y-24000483D01*
X28378123Y-23952511D01*
X28361328Y-23884690D01*
X28383865Y-23818555D01*
X28428917Y-23779516D01*
X28521610Y-23732287D01*
X28542770Y-23716913D01*
X28687213Y-23611971D01*
X28687215Y-23611968D01*
X28687219Y-23611966D01*
X28831966Y-23467219D01*
X28831968Y-23467215D01*
X28831971Y-23467213D01*
X28884732Y-23394590D01*
X28952287Y-23301610D01*
X29045220Y-23119219D01*
X29108477Y-22924534D01*
X29140500Y-22722352D01*
X29140500Y-22517648D01*
X29136432Y-22491966D01*
X29108477Y-22315465D01*
X29068312Y-22191852D01*
X29045220Y-22120781D01*
X29045218Y-22120778D01*
X29045218Y-22120776D01*
X29011503Y-22054607D01*
X28952287Y-21938390D01*
X28885799Y-21846876D01*
X28831971Y-21772786D01*
X28687213Y-21628028D01*
X28521614Y-21507715D01*
X28498416Y-21495895D01*
X28428917Y-21460483D01*
X28378123Y-21412511D01*
X28361328Y-21344690D01*
X28383865Y-21278555D01*
X28428917Y-21239516D01*
X28521610Y-21192287D01*
X28585559Y-21145826D01*
X28687213Y-21071971D01*
X28687215Y-21071968D01*
X28687219Y-21071966D01*
X28831966Y-20927219D01*
X28831968Y-20927215D01*
X28831971Y-20927213D01*
X28911037Y-20818386D01*
X28952287Y-20761610D01*
X29045220Y-20579219D01*
X29108477Y-20384534D01*
X29140500Y-20182352D01*
X29140500Y-19977648D01*
X29108477Y-19775466D01*
X29108476Y-19775464D01*
X29108476Y-19775461D01*
X29061050Y-19629500D01*
X29045220Y-19580781D01*
X29045218Y-19580778D01*
X29045218Y-19580776D01*
X29011503Y-19514607D01*
X28952287Y-19398390D01*
X28944167Y-19387213D01*
X28831971Y-19232786D01*
X28687213Y-19088028D01*
X28521614Y-18967715D01*
X28482073Y-18947568D01*
X28428917Y-18920483D01*
X28378123Y-18872511D01*
X28361328Y-18804690D01*
X28383865Y-18738555D01*
X28428917Y-18699516D01*
X28521610Y-18652287D01*
X28542770Y-18636913D01*
X28687213Y-18531971D01*
X28687215Y-18531968D01*
X28687219Y-18531966D01*
X28831966Y-18387219D01*
X28831968Y-18387215D01*
X28831971Y-18387213D01*
X28892040Y-18304534D01*
X28952287Y-18221610D01*
X29045220Y-18039219D01*
X29108477Y-17844534D01*
X29140500Y-17642352D01*
X29140500Y-17437648D01*
X29121611Y-17318390D01*
X29108477Y-17235465D01*
X29045218Y-17040776D01*
X29011503Y-16974607D01*
X28952287Y-16858390D01*
X28906072Y-16794780D01*
X28831971Y-16692786D01*
X28687213Y-16548028D01*
X28521614Y-16427715D01*
X28487535Y-16410351D01*
X28428917Y-16380483D01*
X28378123Y-16332511D01*
X28361328Y-16264690D01*
X28383865Y-16198555D01*
X28428917Y-16159516D01*
X28521610Y-16112287D01*
X28607727Y-16049720D01*
X28687213Y-15991971D01*
X28687215Y-15991968D01*
X28687219Y-15991966D01*
X28831966Y-15847219D01*
X28831968Y-15847215D01*
X28831971Y-15847213D01*
X28890338Y-15766876D01*
X28952287Y-15681610D01*
X29045220Y-15499219D01*
X29108477Y-15304534D01*
X29140500Y-15102352D01*
X29140500Y-14897648D01*
X29109116Y-14699500D01*
X29108477Y-14695465D01*
X29056038Y-14534075D01*
X29045220Y-14500781D01*
X29045218Y-14500778D01*
X29045218Y-14500776D01*
X29011503Y-14434607D01*
X28952287Y-14318390D01*
X28890337Y-14233122D01*
X28831971Y-14152786D01*
X28687213Y-14008028D01*
X28521613Y-13887715D01*
X28521612Y-13887714D01*
X28521610Y-13887713D01*
X28464653Y-13858691D01*
X28339223Y-13794781D01*
X28144534Y-13731522D01*
X27969995Y-13703878D01*
X27942352Y-13699500D01*
X27737648Y-13699500D01*
X27713329Y-13703351D01*
X27535465Y-13731522D01*
X27340776Y-13794781D01*
X27158386Y-13887715D01*
X26992781Y-14008033D01*
X26992775Y-14008038D01*
X26924217Y-14076595D01*
X26862893Y-14110080D01*
X26800375Y-14107523D01*
X22489095Y-12793110D01*
X22430711Y-12754731D01*
X22402343Y-12690879D01*
X22413001Y-12621827D01*
X22459298Y-12569498D01*
X22525257Y-12550500D01*
X54977433Y-12550500D01*
X55027170Y-12554585D01*
X55049638Y-12550500D01*
X55072475Y-12550500D01*
X55115778Y-12538895D01*
X55125673Y-12536674D01*
X66038641Y-10552500D01*
X66060823Y-10550500D01*
X91325500Y-10550500D01*
X91392539Y-10570185D01*
X91438294Y-10622989D01*
X91449500Y-10674500D01*
X91449500Y-41565500D01*
X91429815Y-41632539D01*
X91377011Y-41678294D01*
X91325500Y-41689500D01*
X85605078Y-41689500D01*
X85538039Y-41669815D01*
X85494593Y-41621794D01*
X85462286Y-41558388D01*
X85341971Y-41392786D01*
X85197213Y-41248028D01*
X85031614Y-41127715D01*
X85025006Y-41124348D01*
X84938917Y-41080483D01*
X84888123Y-41032511D01*
X84871328Y-40964690D01*
X84893865Y-40898555D01*
X84938917Y-40859516D01*
X85031610Y-40812287D01*
X85176517Y-40707007D01*
X85197213Y-40691971D01*
X85197215Y-40691968D01*
X85197219Y-40691966D01*
X85341966Y-40547219D01*
X85341968Y-40547215D01*
X85341971Y-40547213D01*
X85401101Y-40465826D01*
X85462287Y-40381610D01*
X85555220Y-40199219D01*
X85618477Y-40004534D01*
X85650500Y-39802352D01*
X85650500Y-39597648D01*
X85618477Y-39395466D01*
X85555220Y-39200781D01*
X85555218Y-39200778D01*
X85555218Y-39200776D01*
X85487447Y-39067770D01*
X85462287Y-39018390D01*
X85454556Y-39007749D01*
X85341971Y-38852786D01*
X85197213Y-38708028D01*
X85031614Y-38587715D01*
X85025006Y-38584348D01*
X84938917Y-38540483D01*
X84888123Y-38492511D01*
X84871328Y-38424690D01*
X84893865Y-38358555D01*
X84938917Y-38319516D01*
X85031610Y-38272287D01*
X85052770Y-38256913D01*
X85197213Y-38151971D01*
X85197215Y-38151968D01*
X85197219Y-38151966D01*
X85341966Y-38007219D01*
X85341968Y-38007215D01*
X85341971Y-38007213D01*
X85398259Y-37929738D01*
X85462287Y-37841610D01*
X85555220Y-37659219D01*
X85618477Y-37464534D01*
X85650500Y-37262352D01*
X85650500Y-37057648D01*
X85630129Y-36929034D01*
X85618477Y-36855465D01*
X85583466Y-36747713D01*
X85555220Y-36660781D01*
X85555218Y-36660778D01*
X85555218Y-36660776D01*
X85491172Y-36535080D01*
X85462287Y-36478390D01*
X85437080Y-36443695D01*
X85341971Y-36312786D01*
X85197213Y-36168028D01*
X85031614Y-36047715D01*
X85025006Y-36044348D01*
X84938917Y-36000483D01*
X84888123Y-35952511D01*
X84871328Y-35884690D01*
X84893865Y-35818555D01*
X84938917Y-35779516D01*
X85031610Y-35732287D01*
X85053609Y-35716304D01*
X85197213Y-35611971D01*
X85197215Y-35611968D01*
X85197219Y-35611966D01*
X85341966Y-35467219D01*
X85341968Y-35467215D01*
X85341971Y-35467213D01*
X85406463Y-35378446D01*
X85462287Y-35301610D01*
X85555220Y-35119219D01*
X85618477Y-34924534D01*
X85650500Y-34722352D01*
X85650500Y-34517648D01*
X85638787Y-34443695D01*
X85618477Y-34315465D01*
X85583466Y-34207713D01*
X85555220Y-34120781D01*
X85555218Y-34120778D01*
X85555218Y-34120776D01*
X85516450Y-34044690D01*
X85462287Y-33938390D01*
X85454556Y-33927749D01*
X85341971Y-33772786D01*
X85197213Y-33628028D01*
X85031614Y-33507715D01*
X85025006Y-33504348D01*
X84938917Y-33460483D01*
X84888123Y-33412511D01*
X84871328Y-33344690D01*
X84893865Y-33278555D01*
X84938917Y-33239516D01*
X85031610Y-33192287D01*
X85151676Y-33105055D01*
X85197213Y-33071971D01*
X85197215Y-33071968D01*
X85197219Y-33071966D01*
X85341966Y-32927219D01*
X85341968Y-32927215D01*
X85341971Y-32927213D01*
X85407832Y-32836561D01*
X85462287Y-32761610D01*
X85555220Y-32579219D01*
X85618477Y-32384534D01*
X85650500Y-32182352D01*
X85650500Y-31977648D01*
X85618477Y-31775466D01*
X85555220Y-31580781D01*
X85555218Y-31580778D01*
X85555218Y-31580776D01*
X85516305Y-31504407D01*
X85462287Y-31398390D01*
X85448324Y-31379172D01*
X85341971Y-31232786D01*
X85197213Y-31088028D01*
X85031611Y-30967713D01*
X84938369Y-30920203D01*
X84887574Y-30872229D01*
X84870779Y-30804407D01*
X84893317Y-30738273D01*
X84938371Y-30699234D01*
X85031347Y-30651861D01*
X85116876Y-30589719D01*
X85116877Y-30589718D01*
X84535178Y-30008019D01*
X84542993Y-30005925D01*
X84657007Y-29940099D01*
X84750099Y-29847007D01*
X84815925Y-29732993D01*
X84818019Y-29725177D01*
X85399718Y-30306877D01*
X85399719Y-30306876D01*
X85461859Y-30221349D01*
X85554755Y-30039031D01*
X85617990Y-29844417D01*
X85650000Y-29642317D01*
X85650000Y-29437682D01*
X85617990Y-29235582D01*
X85554755Y-29040968D01*
X85461858Y-28858649D01*
X85461852Y-28858640D01*
X85399720Y-28773122D01*
X85399719Y-28773121D01*
X84818019Y-29354821D01*
X84815925Y-29347007D01*
X84750099Y-29232993D01*
X84657007Y-29139901D01*
X84542993Y-29074075D01*
X84535176Y-29071980D01*
X85116876Y-28490279D01*
X85031347Y-28428139D01*
X84938369Y-28380765D01*
X84887573Y-28332790D01*
X84870778Y-28264969D01*
X84893315Y-28198835D01*
X84938370Y-28159795D01*
X84938920Y-28159515D01*
X85031610Y-28112287D01*
X85081144Y-28076298D01*
X85197213Y-27991971D01*
X85197215Y-27991968D01*
X85197219Y-27991966D01*
X85341966Y-27847219D01*
X85341968Y-27847215D01*
X85341971Y-27847213D01*
X85405838Y-27759306D01*
X85462287Y-27681610D01*
X85555220Y-27499219D01*
X85618477Y-27304534D01*
X85650500Y-27102352D01*
X85650500Y-26897648D01*
X85618477Y-26695466D01*
X85606953Y-26660000D01*
X85576395Y-26565951D01*
X85555220Y-26500781D01*
X85555218Y-26500778D01*
X85555218Y-26500776D01*
X85516450Y-26424690D01*
X85462287Y-26318390D01*
X85454556Y-26307749D01*
X85341971Y-26152786D01*
X85197213Y-26008028D01*
X85031613Y-25887715D01*
X85031612Y-25887714D01*
X85031610Y-25887713D01*
X84941128Y-25841610D01*
X84849223Y-25794781D01*
X84654534Y-25731522D01*
X84479995Y-25703878D01*
X84452352Y-25699500D01*
X84247648Y-25699500D01*
X84223329Y-25703351D01*
X84045465Y-25731522D01*
X83850776Y-25794781D01*
X83668386Y-25887715D01*
X83502786Y-26008028D01*
X83358028Y-26152786D01*
X83237715Y-26318386D01*
X83144781Y-26500776D01*
X83081522Y-26695465D01*
X83049500Y-26897648D01*
X83049500Y-27102351D01*
X83081522Y-27304534D01*
X83144781Y-27499223D01*
X83237715Y-27681613D01*
X83358028Y-27847213D01*
X83502786Y-27991971D01*
X83668385Y-28112284D01*
X83668387Y-28112285D01*
X83668390Y-28112287D01*
X83761080Y-28159515D01*
X83761630Y-28159795D01*
X83812426Y-28207770D01*
X83829221Y-28275591D01*
X83806684Y-28341725D01*
X83761630Y-28380765D01*
X83668649Y-28428141D01*
X83583122Y-28490278D01*
X83583122Y-28490279D01*
X84164823Y-29071980D01*
X84157007Y-29074075D01*
X84042993Y-29139901D01*
X83949901Y-29232993D01*
X83884075Y-29347007D01*
X83881980Y-29354823D01*
X83300279Y-28773122D01*
X83300278Y-28773122D01*
X83238141Y-28858648D01*
X83145244Y-29040968D01*
X83082009Y-29235582D01*
X83050000Y-29437682D01*
X83050000Y-29642317D01*
X83082009Y-29844417D01*
X83145244Y-30039031D01*
X83238139Y-30221347D01*
X83300279Y-30306876D01*
X83881980Y-29725176D01*
X83884075Y-29732993D01*
X83949901Y-29847007D01*
X84042993Y-29940099D01*
X84157007Y-30005925D01*
X84164822Y-30008019D01*
X83583121Y-30589719D01*
X83583122Y-30589720D01*
X83668640Y-30651852D01*
X83668654Y-30651861D01*
X83761629Y-30699234D01*
X83812426Y-30747208D01*
X83829221Y-30815029D01*
X83806684Y-30881164D01*
X83761631Y-30920203D01*
X83668388Y-30967713D01*
X83502786Y-31088028D01*
X83358028Y-31232786D01*
X83237715Y-31398386D01*
X83144781Y-31580776D01*
X83081522Y-31775465D01*
X83049500Y-31977648D01*
X83049500Y-32182351D01*
X83081522Y-32384534D01*
X83144781Y-32579223D01*
X83194932Y-32677648D01*
X83230830Y-32748102D01*
X83237715Y-32761613D01*
X83358028Y-32927213D01*
X83502786Y-33071971D01*
X83610412Y-33150164D01*
X83668390Y-33192287D01*
X83743627Y-33230622D01*
X83761080Y-33239515D01*
X83811876Y-33287490D01*
X83828671Y-33355311D01*
X83806134Y-33421446D01*
X83761080Y-33460485D01*
X83668386Y-33507715D01*
X83502786Y-33628028D01*
X83358028Y-33772786D01*
X83237715Y-33938386D01*
X83144781Y-34120776D01*
X83081522Y-34315465D01*
X83049500Y-34517648D01*
X83049500Y-34722351D01*
X83081522Y-34924534D01*
X83144781Y-35119223D01*
X83237715Y-35301613D01*
X83358028Y-35467213D01*
X83502786Y-35611971D01*
X83646391Y-35716304D01*
X83668390Y-35732287D01*
X83759840Y-35778883D01*
X83761080Y-35779515D01*
X83811876Y-35827490D01*
X83828671Y-35895311D01*
X83806134Y-35961446D01*
X83761080Y-36000485D01*
X83668386Y-36047715D01*
X83502786Y-36168028D01*
X83358028Y-36312786D01*
X83237715Y-36478386D01*
X83144781Y-36660776D01*
X83081522Y-36855465D01*
X83049500Y-37057648D01*
X83049500Y-37262351D01*
X83081522Y-37464534D01*
X83144781Y-37659223D01*
X83237715Y-37841613D01*
X83358028Y-38007213D01*
X83502786Y-38151971D01*
X83657749Y-38264556D01*
X83668390Y-38272287D01*
X83759840Y-38318883D01*
X83761080Y-38319515D01*
X83811876Y-38367490D01*
X83828671Y-38435311D01*
X83806134Y-38501446D01*
X83761080Y-38540485D01*
X83668386Y-38587715D01*
X83502786Y-38708028D01*
X83358028Y-38852786D01*
X83237715Y-39018386D01*
X83144781Y-39200776D01*
X83081522Y-39395465D01*
X83049500Y-39597648D01*
X83049500Y-39802351D01*
X83081522Y-40004534D01*
X83144781Y-40199223D01*
X83237715Y-40381613D01*
X83358028Y-40547213D01*
X83502786Y-40691971D01*
X83657749Y-40804556D01*
X83668390Y-40812287D01*
X83743387Y-40850500D01*
X83761080Y-40859515D01*
X83811876Y-40907490D01*
X83828671Y-40975311D01*
X83806134Y-41041446D01*
X83761080Y-41080485D01*
X83668386Y-41127715D01*
X83502786Y-41248028D01*
X83358028Y-41392786D01*
X83237715Y-41558386D01*
X83144781Y-41740776D01*
X83081522Y-41935465D01*
X83049500Y-42137648D01*
X83049500Y-42342351D01*
X83081522Y-42544534D01*
X83144781Y-42739223D01*
X83194932Y-42837648D01*
X83236139Y-42918521D01*
X83237715Y-42921613D01*
X83358028Y-43087213D01*
X83502786Y-43231971D01*
X83668385Y-43352284D01*
X83668387Y-43352285D01*
X83668390Y-43352287D01*
X83743627Y-43390622D01*
X83761630Y-43399795D01*
X83812426Y-43447770D01*
X83829221Y-43515591D01*
X83806684Y-43581725D01*
X83761630Y-43620765D01*
X83668649Y-43668141D01*
X83583122Y-43730278D01*
X83583122Y-43730279D01*
X84164823Y-44311980D01*
X84157007Y-44314075D01*
X84042993Y-44379901D01*
X83949901Y-44472993D01*
X83884075Y-44587007D01*
X83881980Y-44594823D01*
X83300279Y-44013122D01*
X83300278Y-44013122D01*
X83238141Y-44098648D01*
X83145244Y-44280968D01*
X83082009Y-44475582D01*
X83050000Y-44677682D01*
X83050000Y-44882317D01*
X83082009Y-45084417D01*
X83145244Y-45279031D01*
X83238139Y-45461347D01*
X83300279Y-45546876D01*
X83881980Y-44965176D01*
X83884075Y-44972993D01*
X83949901Y-45087007D01*
X84042993Y-45180099D01*
X84157007Y-45245925D01*
X84164822Y-45248019D01*
X83583121Y-45829719D01*
X83583122Y-45829720D01*
X83668640Y-45891852D01*
X83668649Y-45891858D01*
X83850968Y-45984755D01*
X84045582Y-46047990D01*
X84247683Y-46080000D01*
X84452317Y-46080000D01*
X84654417Y-46047990D01*
X84849031Y-45984755D01*
X85031349Y-45891859D01*
X85116876Y-45829719D01*
X85116877Y-45829718D01*
X84535178Y-45248019D01*
X84542993Y-45245925D01*
X84657007Y-45180099D01*
X84750099Y-45087007D01*
X84815925Y-44972993D01*
X84818019Y-44965177D01*
X85399718Y-45546877D01*
X85399719Y-45546876D01*
X85461859Y-45461349D01*
X85554755Y-45279031D01*
X85617990Y-45084417D01*
X85650000Y-44882317D01*
X85650000Y-44677682D01*
X85617990Y-44475582D01*
X85554755Y-44280968D01*
X85461858Y-44098649D01*
X85461852Y-44098640D01*
X85399720Y-44013122D01*
X85399719Y-44013121D01*
X84818019Y-44594821D01*
X84815925Y-44587007D01*
X84750099Y-44472993D01*
X84657007Y-44379901D01*
X84542993Y-44314075D01*
X84535176Y-44311980D01*
X85116876Y-43730279D01*
X85031347Y-43668139D01*
X84938369Y-43620765D01*
X84887573Y-43572790D01*
X84870778Y-43504969D01*
X84893315Y-43438835D01*
X84938370Y-43399795D01*
X84956373Y-43390622D01*
X85031610Y-43352287D01*
X85081144Y-43316298D01*
X85197213Y-43231971D01*
X85197215Y-43231968D01*
X85197219Y-43231966D01*
X85341966Y-43087219D01*
X85341968Y-43087215D01*
X85341971Y-43087213D01*
X85462286Y-42921611D01*
X85463861Y-42918521D01*
X85494593Y-42858205D01*
X85542567Y-42807409D01*
X85605078Y-42790500D01*
X92072472Y-42790500D01*
X92072475Y-42790500D01*
X92212485Y-42752984D01*
X92338015Y-42680509D01*
X92440509Y-42578015D01*
X92512984Y-42452485D01*
X92550500Y-42312475D01*
X92550500Y-31411898D01*
X95099500Y-31411898D01*
X95099500Y-32748102D01*
X95105126Y-32794954D01*
X95110122Y-32836561D01*
X95165639Y-32977343D01*
X95257074Y-33097917D01*
X95257078Y-33097922D01*
X95257082Y-33097925D01*
X95263073Y-33103916D01*
X95260852Y-33106136D01*
X95293380Y-33150164D01*
X95297924Y-33219885D01*
X95280029Y-33261654D01*
X95201990Y-33378446D01*
X95201983Y-33378459D01*
X95134106Y-33542332D01*
X95134103Y-33542341D01*
X95099500Y-33716304D01*
X95099500Y-34443695D01*
X95134103Y-34617658D01*
X95134106Y-34617667D01*
X95201983Y-34781540D01*
X95201990Y-34781553D01*
X95300535Y-34929034D01*
X95300538Y-34929038D01*
X95363819Y-34992319D01*
X95397304Y-35053642D01*
X95392320Y-35123334D01*
X95363819Y-35167681D01*
X95300538Y-35230961D01*
X95300535Y-35230965D01*
X95201990Y-35378446D01*
X95201983Y-35378459D01*
X95134106Y-35542332D01*
X95134103Y-35542341D01*
X95099500Y-35716304D01*
X95099500Y-36443695D01*
X95134103Y-36617658D01*
X95134106Y-36617667D01*
X95201983Y-36781540D01*
X95201990Y-36781553D01*
X95300535Y-36929034D01*
X95300538Y-36929038D01*
X95363819Y-36992319D01*
X95397304Y-37053642D01*
X95392320Y-37123334D01*
X95363819Y-37167681D01*
X95300538Y-37230961D01*
X95300535Y-37230965D01*
X95201990Y-37378446D01*
X95201983Y-37378459D01*
X95134106Y-37542332D01*
X95134103Y-37542341D01*
X95099500Y-37716304D01*
X95099500Y-38443695D01*
X95134103Y-38617658D01*
X95134106Y-38617667D01*
X95201983Y-38781540D01*
X95201990Y-38781553D01*
X95300535Y-38929034D01*
X95300538Y-38929038D01*
X95425961Y-39054461D01*
X95425965Y-39054464D01*
X95573446Y-39153009D01*
X95573459Y-39153016D01*
X95688764Y-39200776D01*
X95737334Y-39220894D01*
X95737336Y-39220894D01*
X95737341Y-39220896D01*
X95911304Y-39255499D01*
X95911307Y-39255500D01*
X95911309Y-39255500D01*
X96088693Y-39255500D01*
X96088694Y-39255499D01*
X96146682Y-39243964D01*
X96262658Y-39220896D01*
X96262661Y-39220894D01*
X96262666Y-39220894D01*
X96426547Y-39153013D01*
X96574035Y-39054464D01*
X96699464Y-38929035D01*
X96798013Y-38781547D01*
X96865894Y-38617666D01*
X96900500Y-38443691D01*
X96900500Y-37716309D01*
X96900500Y-37716306D01*
X96900499Y-37716304D01*
X96865896Y-37542341D01*
X96865893Y-37542332D01*
X96864589Y-37539185D01*
X96833669Y-37464534D01*
X96798016Y-37378459D01*
X96798009Y-37378446D01*
X96699464Y-37230965D01*
X96699461Y-37230961D01*
X96636181Y-37167681D01*
X96602696Y-37106358D01*
X96607680Y-37036666D01*
X96636181Y-36992319D01*
X96699461Y-36929038D01*
X96699464Y-36929035D01*
X96798013Y-36781547D01*
X96865894Y-36617666D01*
X96871095Y-36591523D01*
X96900499Y-36443695D01*
X96900500Y-36443693D01*
X96900500Y-35716306D01*
X96900499Y-35716304D01*
X96865896Y-35542341D01*
X96865893Y-35542332D01*
X96798016Y-35378459D01*
X96798009Y-35378446D01*
X96699464Y-35230965D01*
X96699461Y-35230961D01*
X96636181Y-35167681D01*
X96602696Y-35106358D01*
X96607680Y-35036666D01*
X96636181Y-34992319D01*
X96699461Y-34929038D01*
X96699464Y-34929035D01*
X96798013Y-34781547D01*
X96865894Y-34617666D01*
X96900500Y-34443691D01*
X96900500Y-33716309D01*
X96900500Y-33716306D01*
X96900499Y-33716304D01*
X96865896Y-33542341D01*
X96865893Y-33542332D01*
X96798016Y-33378459D01*
X96798014Y-33378455D01*
X96798013Y-33378453D01*
X96719970Y-33261654D01*
X96699092Y-33194977D01*
X96717576Y-33127597D01*
X96738066Y-33105055D01*
X96736927Y-33103916D01*
X96742913Y-33097928D01*
X96742922Y-33097922D01*
X96834361Y-32977342D01*
X96889877Y-32836564D01*
X96900500Y-32748102D01*
X96900500Y-31411898D01*
X96889877Y-31323436D01*
X96834361Y-31182658D01*
X96834360Y-31182657D01*
X96834360Y-31182656D01*
X96742922Y-31062077D01*
X96622343Y-30970639D01*
X96497347Y-30921347D01*
X96481564Y-30915123D01*
X96481563Y-30915122D01*
X96481561Y-30915122D01*
X96435926Y-30909642D01*
X96393102Y-30904500D01*
X95606898Y-30904500D01*
X95567853Y-30909188D01*
X95518438Y-30915122D01*
X95377656Y-30970639D01*
X95257077Y-31062077D01*
X95165639Y-31182656D01*
X95110122Y-31323438D01*
X95106658Y-31352287D01*
X95099500Y-31411898D01*
X92550500Y-31411898D01*
X92550500Y-9927525D01*
X92512984Y-9787515D01*
X92441225Y-9663226D01*
X92440511Y-9661988D01*
X92440506Y-9661982D01*
X92338017Y-9559493D01*
X92338011Y-9559488D01*
X92212488Y-9487017D01*
X92212489Y-9487017D01*
X92201006Y-9483940D01*
X92072475Y-9449500D01*
X92072472Y-9449500D01*
X80794734Y-9449500D01*
X80727695Y-9429815D01*
X80681940Y-9377011D01*
X80671996Y-9307853D01*
X80701021Y-9244297D01*
X80707053Y-9237819D01*
X80821242Y-9123629D01*
X80821247Y-9123624D01*
X80956948Y-8946774D01*
X81068405Y-8753726D01*
X81153710Y-8547781D01*
X81211404Y-8332463D01*
X81240500Y-8111457D01*
X81240500Y-7888543D01*
X81239206Y-7878711D01*
X100149500Y-7878711D01*
X100149500Y-8121288D01*
X100181161Y-8361785D01*
X100243947Y-8596104D01*
X100336773Y-8820205D01*
X100336776Y-8820212D01*
X100458064Y-9030289D01*
X100458066Y-9030292D01*
X100458067Y-9030293D01*
X100605733Y-9222736D01*
X100605739Y-9222743D01*
X100777256Y-9394260D01*
X100777263Y-9394266D01*
X100866080Y-9462417D01*
X100969711Y-9541936D01*
X101179788Y-9663224D01*
X101403900Y-9756054D01*
X101638211Y-9818838D01*
X101818586Y-9842584D01*
X101878711Y-9850500D01*
X101878712Y-9850500D01*
X102121289Y-9850500D01*
X102169388Y-9844167D01*
X102361789Y-9818838D01*
X102596100Y-9756054D01*
X102820212Y-9663224D01*
X103030289Y-9541936D01*
X103222738Y-9394265D01*
X103394265Y-9222738D01*
X103541936Y-9030289D01*
X103663224Y-8820212D01*
X103756054Y-8596100D01*
X103818838Y-8361789D01*
X103850500Y-8121288D01*
X103850500Y-7878712D01*
X103818838Y-7638211D01*
X103756054Y-7403900D01*
X103663224Y-7179788D01*
X103541936Y-6969711D01*
X103470313Y-6876370D01*
X103394266Y-6777263D01*
X103394260Y-6777256D01*
X103222743Y-6605739D01*
X103222736Y-6605733D01*
X103030293Y-6458067D01*
X103030292Y-6458066D01*
X103030289Y-6458064D01*
X102820212Y-6336776D01*
X102820205Y-6336773D01*
X102596104Y-6243947D01*
X102361785Y-6181161D01*
X102121289Y-6149500D01*
X102121288Y-6149500D01*
X101878712Y-6149500D01*
X101878711Y-6149500D01*
X101638214Y-6181161D01*
X101403895Y-6243947D01*
X101179794Y-6336773D01*
X101179785Y-6336777D01*
X100969706Y-6458067D01*
X100777263Y-6605733D01*
X100777256Y-6605739D01*
X100605739Y-6777256D01*
X100605733Y-6777263D01*
X100458067Y-6969706D01*
X100336777Y-7179785D01*
X100336773Y-7179794D01*
X100243947Y-7403895D01*
X100181161Y-7638214D01*
X100149500Y-7878711D01*
X81239206Y-7878711D01*
X81211404Y-7667537D01*
X81153710Y-7452219D01*
X81068405Y-7246274D01*
X80956948Y-7053226D01*
X80821247Y-6876376D01*
X80821242Y-6876370D01*
X80663629Y-6718757D01*
X80663622Y-6718751D01*
X80486782Y-6583058D01*
X80486780Y-6583057D01*
X80486774Y-6583052D01*
X80293726Y-6471595D01*
X80293722Y-6471593D01*
X80087790Y-6386293D01*
X80087783Y-6386291D01*
X80087781Y-6386290D01*
X79872463Y-6328596D01*
X79872457Y-6328595D01*
X79872452Y-6328594D01*
X79651466Y-6299501D01*
X79651463Y-6299500D01*
X79651457Y-6299500D01*
X79428543Y-6299500D01*
X79428537Y-6299500D01*
X79428533Y-6299501D01*
X79207547Y-6328594D01*
X79207540Y-6328595D01*
X79207537Y-6328596D01*
X78992219Y-6386290D01*
X78992209Y-6386293D01*
X78786277Y-6471593D01*
X78786273Y-6471595D01*
X78593226Y-6583052D01*
X78593217Y-6583058D01*
X78416377Y-6718751D01*
X78416370Y-6718757D01*
X78258757Y-6876370D01*
X78258751Y-6876377D01*
X78123058Y-7053217D01*
X78123052Y-7053226D01*
X78011595Y-7246273D01*
X78011593Y-7246277D01*
X77926293Y-7452209D01*
X77926290Y-7452219D01*
X77868597Y-7667534D01*
X77868594Y-7667547D01*
X77839501Y-7888533D01*
X77839500Y-7888549D01*
X77839500Y-8111450D01*
X77839501Y-8111466D01*
X77868594Y-8332452D01*
X77868595Y-8332457D01*
X77868596Y-8332463D01*
X77926290Y-8547780D01*
X77926293Y-8547790D01*
X78011593Y-8753722D01*
X78011595Y-8753726D01*
X78123052Y-8946774D01*
X78123057Y-8946780D01*
X78123058Y-8946782D01*
X78258751Y-9123622D01*
X78258757Y-9123629D01*
X78372947Y-9237819D01*
X78406432Y-9299142D01*
X78401448Y-9368834D01*
X78359576Y-9424767D01*
X78294112Y-9449184D01*
X78285266Y-9449500D01*
X75637320Y-9449500D01*
X75570281Y-9429815D01*
X75524526Y-9377011D01*
X75517863Y-9340705D01*
X74757489Y-8580330D01*
X74767890Y-8576022D01*
X74874351Y-8504888D01*
X74964888Y-8414351D01*
X75036022Y-8307890D01*
X75040330Y-8297488D01*
X75795255Y-9052413D01*
X75795257Y-9052413D01*
X75876533Y-8946495D01*
X75876535Y-8946491D01*
X75987945Y-8753520D01*
X75987954Y-8753502D01*
X76073236Y-8547618D01*
X76130911Y-8332367D01*
X76130914Y-8332354D01*
X76160000Y-8111424D01*
X76160000Y-7888575D01*
X76130914Y-7667645D01*
X76130911Y-7667632D01*
X76073236Y-7452381D01*
X75987954Y-7246497D01*
X75987945Y-7246479D01*
X75876537Y-7053511D01*
X75795256Y-6947585D01*
X75040330Y-7702511D01*
X75036022Y-7692110D01*
X74964888Y-7585649D01*
X74874351Y-7495112D01*
X74767890Y-7423978D01*
X74757487Y-7419669D01*
X75512413Y-6664742D01*
X75406488Y-6583462D01*
X75213520Y-6472054D01*
X75213502Y-6472045D01*
X75007618Y-6386763D01*
X74792367Y-6329088D01*
X74792354Y-6329085D01*
X74571425Y-6300000D01*
X74348575Y-6300000D01*
X74127645Y-6329085D01*
X74127632Y-6329088D01*
X73912381Y-6386763D01*
X73706497Y-6472045D01*
X73706479Y-6472054D01*
X73513508Y-6583464D01*
X73513506Y-6583465D01*
X73407585Y-6664741D01*
X73407585Y-6664742D01*
X74162512Y-7419669D01*
X74152110Y-7423978D01*
X74045649Y-7495112D01*
X73955112Y-7585649D01*
X73883978Y-7692110D01*
X73879669Y-7702512D01*
X73124742Y-6947585D01*
X73124741Y-6947585D01*
X73043465Y-7053506D01*
X73043464Y-7053508D01*
X72932054Y-7246479D01*
X72932045Y-7246497D01*
X72846763Y-7452381D01*
X72789088Y-7667632D01*
X72789085Y-7667645D01*
X72760000Y-7888575D01*
X72760000Y-8111424D01*
X72789085Y-8332354D01*
X72789088Y-8332367D01*
X72846763Y-8547618D01*
X72932045Y-8753502D01*
X72932054Y-8753520D01*
X73043462Y-8946488D01*
X73124742Y-9052413D01*
X73879669Y-8297487D01*
X73883978Y-8307890D01*
X73955112Y-8414351D01*
X74045649Y-8504888D01*
X74152110Y-8576022D01*
X74162511Y-8580330D01*
X73400925Y-9341916D01*
X73391155Y-9385575D01*
X73341456Y-9434685D01*
X73282679Y-9449500D01*
X66022567Y-9449500D01*
X65972830Y-9445415D01*
X65950362Y-9449500D01*
X65927525Y-9449500D01*
X65884225Y-9461101D01*
X65874317Y-9463325D01*
X54961360Y-11447500D01*
X54939178Y-11449500D01*
X18072475Y-11449500D01*
X18009394Y-11449500D01*
X17946351Y-11447348D01*
X17937063Y-11449500D01*
X8072475Y-11449500D01*
X7927525Y-11449500D01*
X7798993Y-11483940D01*
X7787511Y-11487017D01*
X7661988Y-11559488D01*
X7661982Y-11559493D01*
X7559493Y-11661982D01*
X7559488Y-11661988D01*
X7487017Y-11787511D01*
X7487016Y-11787515D01*
X7449500Y-11927525D01*
X7449500Y-49119127D01*
X7449095Y-49120674D01*
X7449500Y-49191486D01*
X7449500Y-49262543D01*
X7449640Y-49263561D01*
X7449739Y-49264301D01*
X7449901Y-49265537D01*
X7468569Y-49333650D01*
X7468753Y-49334331D01*
X7487014Y-49402479D01*
X7487797Y-49404369D01*
X7487797Y-49404370D01*
X7487801Y-49404380D01*
X7488207Y-49405361D01*
X7523914Y-49466399D01*
X7524239Y-49466957D01*
X7551111Y-49513501D01*
X7567584Y-49581399D01*
X7544732Y-49647426D01*
X7489811Y-49690617D01*
X7443724Y-49699500D01*
X7421155Y-49699500D01*
X7266510Y-49730261D01*
X7266498Y-49730264D01*
X7120827Y-49790602D01*
X7120814Y-49790609D01*
X6989711Y-49878210D01*
X6989707Y-49878213D01*
X6878213Y-49989707D01*
X6878210Y-49989711D01*
X6790609Y-50120814D01*
X6790602Y-50120827D01*
X6730264Y-50266498D01*
X6730261Y-50266510D01*
X6699500Y-50421153D01*
X5500500Y-50421153D01*
X5500500Y-7878711D01*
X6149500Y-7878711D01*
X6149500Y-8121288D01*
X6181161Y-8361785D01*
X6243947Y-8596104D01*
X6336773Y-8820205D01*
X6336776Y-8820212D01*
X6458064Y-9030289D01*
X6458066Y-9030292D01*
X6458067Y-9030293D01*
X6605733Y-9222736D01*
X6605739Y-9222743D01*
X6777256Y-9394260D01*
X6777263Y-9394266D01*
X6866080Y-9462417D01*
X6969711Y-9541936D01*
X7179788Y-9663224D01*
X7403900Y-9756054D01*
X7638211Y-9818838D01*
X7818586Y-9842584D01*
X7878711Y-9850500D01*
X7878712Y-9850500D01*
X8121289Y-9850500D01*
X8169388Y-9844167D01*
X8361789Y-9818838D01*
X8596100Y-9756054D01*
X8820212Y-9663224D01*
X9030289Y-9541936D01*
X9222738Y-9394265D01*
X9394265Y-9222738D01*
X9541936Y-9030289D01*
X9663224Y-8820212D01*
X9756054Y-8596100D01*
X9818838Y-8361789D01*
X9850500Y-8121288D01*
X9850500Y-7878712D01*
X9818838Y-7638211D01*
X9756054Y-7403900D01*
X9663224Y-7179788D01*
X9541936Y-6969711D01*
X9511083Y-6929503D01*
X9402644Y-6788181D01*
X9394266Y-6777263D01*
X9394260Y-6777256D01*
X9222743Y-6605739D01*
X9222736Y-6605733D01*
X9030293Y-6458067D01*
X9030292Y-6458066D01*
X9030289Y-6458064D01*
X8820212Y-6336776D01*
X8820205Y-6336773D01*
X8596104Y-6243947D01*
X8361785Y-6181161D01*
X8121289Y-6149500D01*
X8121288Y-6149500D01*
X7878712Y-6149500D01*
X7878711Y-6149500D01*
X7638214Y-6181161D01*
X7403895Y-6243947D01*
X7179794Y-6336773D01*
X7179785Y-6336777D01*
X6969706Y-6458067D01*
X6777263Y-6605733D01*
X6777256Y-6605739D01*
X6605739Y-6777256D01*
X6605733Y-6777263D01*
X6458067Y-6969706D01*
X6336777Y-7179785D01*
X6336773Y-7179794D01*
X6243947Y-7403895D01*
X6181161Y-7638214D01*
X6149500Y-7878711D01*
X5500500Y-7878711D01*
X5500500Y-5624500D01*
X5520185Y-5557461D01*
X5572989Y-5511706D01*
X5624500Y-5500500D01*
X104375500Y-5500500D01*
X104442539Y-5520185D01*
G37*
%TD.AperFunction*%
%TD*%
M02*
