%TF.GenerationSoftware,KiCad,Pcbnew,10.0.4*%
%TF.CreationDate,2026-08-11T00:38:03+09:00*%
%TF.ProjectId,esp32_wroom_tmc5160_carrier_revJ,65737033-325f-4777-926f-6f6d5f746d63,rev?*%
%TF.SameCoordinates,Original*%
%TF.FileFunction,Soldermask,Top*%
%TF.FilePolarity,Negative*%
%FSLAX46Y46*%
G04 Gerber Fmt 4.6, Leading zero omitted, Abs format (unit mm)*
G04 Created by KiCad (PCBNEW 10.0.4) date 2026-08-11 00:38:03*
%MOMM*%
%LPD*%
G01*
G04 APERTURE LIST*
G04 Aperture macros list*
%AMRoundRect*
0 Rectangle with rounded corners*
0 $1 Rounding radius*
0 $2 $3 $4 $5 $6 $7 $8 $9 X,Y pos of 4 corners*
0 Add a 4 corners polygon primitive as box body*
4,1,4,$2,$3,$4,$5,$6,$7,$8,$9,$2,$3,0*
0 Add four circle primitives for the rounded corners*
1,1,$1+$1,$2,$3*
1,1,$1+$1,$4,$5*
1,1,$1+$1,$6,$7*
1,1,$1+$1,$8,$9*
0 Add four rect primitives between the rounded corners*
20,1,$1+$1,$2,$3,$4,$5,0*
20,1,$1+$1,$4,$5,$6,$7,0*
20,1,$1+$1,$6,$7,$8,$9,0*
20,1,$1+$1,$8,$9,$2,$3,0*%
G04 Aperture macros list end*
%ADD10RoundRect,0.250000X-0.350000X-0.625000X0.350000X-0.625000X0.350000X0.625000X-0.350000X0.625000X0*%
%ADD11O,1.200000X1.750000*%
%ADD12C,2.800000*%
%ADD13C,3.200000*%
%ADD14C,2.000000*%
G04 APERTURE END LIST*
D10*
%TO.C,J4*%
X96000000Y-32080000D03*
D11*
X96000000Y-34080000D03*
X96000000Y-36080000D03*
X96000000Y-38080000D03*
%TD*%
D12*
%TO.C,J1*%
X74460000Y-8000000D03*
X79540000Y-8000000D03*
%TD*%
D13*
%TO.C,H3*%
X10000000Y-78000000D03*
%TD*%
%TO.C,H1*%
X8000000Y-8000000D03*
%TD*%
%TO.C,H4*%
X102000000Y-78000000D03*
%TD*%
D14*
%TO.C,R1*%
X15500000Y-18000000D03*
X20580000Y-18000000D03*
%TD*%
%TO.C,R2*%
X15500000Y-21500000D03*
X20580000Y-21500000D03*
%TD*%
%TO.C,TMC_R*%
X84350000Y-27000000D03*
X84350000Y-29540000D03*
X84350000Y-32080000D03*
X84350000Y-34620000D03*
X84350000Y-37160000D03*
X84350000Y-39700000D03*
X84350000Y-42240000D03*
X84350000Y-44780000D03*
%TD*%
%TO.C,R4*%
X15500000Y-27700000D03*
X20580000Y-27700000D03*
%TD*%
%TO.C,ESP_R*%
X53240000Y-15000000D03*
X53240000Y-17540000D03*
X53240000Y-20080000D03*
X53240000Y-22620000D03*
X53240000Y-25160000D03*
X53240000Y-27700000D03*
X53240000Y-30240000D03*
X53240000Y-32780000D03*
X53240000Y-35320000D03*
X53240000Y-37860000D03*
X53240000Y-40400000D03*
X53240000Y-42940000D03*
X53240000Y-45480000D03*
X53240000Y-48020000D03*
X53240000Y-50560000D03*
X53240000Y-53100000D03*
X53240000Y-55640000D03*
X53240000Y-58180000D03*
X53240000Y-60720000D03*
X53240000Y-63260000D03*
%TD*%
%TO.C,J2*%
X10000000Y-30240000D03*
X10000000Y-32780000D03*
X10000000Y-35320000D03*
X10000000Y-37860000D03*
X10000000Y-40400000D03*
X10000000Y-42940000D03*
X10000000Y-45480000D03*
X10000000Y-48020000D03*
%TD*%
%TO.C,ESP_L*%
X27840000Y-15000000D03*
X27840000Y-17540000D03*
X27840000Y-20080000D03*
X27840000Y-22620000D03*
X27840000Y-25160000D03*
X27840000Y-27700000D03*
X27840000Y-30240000D03*
X27840000Y-32780000D03*
X27840000Y-35320000D03*
X27840000Y-37860000D03*
X27840000Y-40400000D03*
X27840000Y-42940000D03*
X27840000Y-45480000D03*
X27840000Y-48020000D03*
X27840000Y-50560000D03*
X27840000Y-53100000D03*
X27840000Y-55640000D03*
X27840000Y-58180000D03*
X27840000Y-60720000D03*
X27840000Y-63260000D03*
%TD*%
%TO.C,TMC_L*%
X71650000Y-27000000D03*
X71650000Y-29540000D03*
X71650000Y-32080000D03*
X71650000Y-34620000D03*
X71650000Y-37160000D03*
X71650000Y-39700000D03*
X71650000Y-42240000D03*
X71650000Y-44780000D03*
%TD*%
%TO.C,J3*%
X10000000Y-16000000D03*
X10000000Y-18540000D03*
X10000000Y-21080000D03*
X10000000Y-23620000D03*
X10000000Y-26160000D03*
%TD*%
D13*
%TO.C,H2*%
X102000000Y-8000000D03*
%TD*%
D14*
%TO.C,R3*%
X15500000Y-25160000D03*
X20580000Y-25160000D03*
%TD*%
M02*
