%TF.GenerationSoftware,KiCad,Pcbnew,10.0.4*%
%TF.CreationDate,2026-08-11T00:38:03+09:00*%
%TF.ProjectId,esp32_wroom_tmc5160_carrier_revJ,65737033-325f-4777-926f-6f6d5f746d63,rev?*%
%TF.SameCoordinates,Original*%
%TF.FileFunction,Copper,L1,Top*%
%TF.FilePolarity,Positive*%
%FSLAX46Y46*%
G04 Gerber Fmt 4.6, Leading zero omitted, Abs format (unit mm)*
G04 Created by KiCad (PCBNEW 10.0.4) date 2026-08-11 00:38:03*
%MOMM*%
%LPD*%
G01*
G04 APERTURE LIST*
G04 Aperture macros list*
%AMRoundRect*
0 Rectangle with rounded corners*
0 $1 Rounding radius*
0 $2 $3 $4 $5 $6 $7 $8 $9 X,Y pos of 4 corners*
0 Add a 4 corners polygon primitive as box body*
4,1,4,$2,$3,$4,$5,$6,$7,$8,$9,$2,$3,0*
0 Add four circle primitives for the rounded corners*
1,1,$1+$1,$2,$3*
1,1,$1+$1,$4,$5*
1,1,$1+$1,$6,$7*
1,1,$1+$1,$8,$9*
0 Add four rect primitives between the rounded corners*
20,1,$1+$1,$2,$3,$4,$5,0*
20,1,$1+$1,$4,$5,$6,$7,0*
20,1,$1+$1,$6,$7,$8,$9,0*
20,1,$1+$1,$8,$9,$2,$3,0*%
G04 Aperture macros list end*
%TA.AperFunction,ComponentPad*%
%ADD10RoundRect,0.250000X-0.350000X-0.625000X0.350000X-0.625000X0.350000X0.625000X-0.350000X0.625000X0*%
%TD*%
%TA.AperFunction,ComponentPad*%
%ADD11O,1.200000X1.750000*%
%TD*%
%TA.AperFunction,ComponentPad*%
%ADD12C,2.800000*%
%TD*%
%TA.AperFunction,ComponentPad*%
%ADD13C,2.000000*%
%TD*%
%TA.AperFunction,ViaPad*%
%ADD14C,1.000000*%
%TD*%
%TA.AperFunction,Conductor*%
%ADD15C,1.500000*%
%TD*%
%TA.AperFunction,Conductor*%
%ADD16C,2.000000*%
%TD*%
%TA.AperFunction,Conductor*%
%ADD17C,0.500000*%
%TD*%
%TA.AperFunction,Conductor*%
%ADD18C,0.300000*%
%TD*%
%TA.AperFunction,Conductor*%
%ADD19C,1.000000*%
%TD*%
G04 APERTURE END LIST*
D10*
%TO.P,J4,1*%
%TO.N,M_A2*%
X96000000Y-32080000D03*
D11*
%TO.P,J4,2*%
%TO.N,M_A1*%
X96000000Y-34080000D03*
%TO.P,J4,3*%
%TO.N,M_B2*%
X96000000Y-36080000D03*
%TO.P,J4,4*%
%TO.N,M_B1*%
X96000000Y-38080000D03*
%TD*%
D12*
%TO.P,J1,1*%
%TO.N,GND*%
X74460000Y-8000000D03*
%TO.P,J1,2*%
%TO.N,VMOT*%
X79540000Y-8000000D03*
%TD*%
D13*
%TO.P,R1,1*%
%TO.N,+3V3*%
X15500000Y-18000000D03*
%TO.P,R1,2*%
%TO.N,ENC_A_RAW*%
X20580000Y-18000000D03*
%TD*%
%TO.P,R2,1*%
%TO.N,+3V3*%
X15500000Y-21500000D03*
%TO.P,R2,2*%
%TO.N,ENC_B_RAW*%
X20580000Y-21500000D03*
%TD*%
%TO.P,TMC_R,9*%
%TO.N,VMOT*%
X84350000Y-27000000D03*
%TO.P,TMC_R,10*%
%TO.N,GND*%
X84350000Y-29540000D03*
%TO.P,TMC_R,11*%
%TO.N,M_A2*%
X84350000Y-32080000D03*
%TO.P,TMC_R,12*%
%TO.N,M_A1*%
X84350000Y-34620000D03*
%TO.P,TMC_R,13*%
%TO.N,M_B2*%
X84350000Y-37160000D03*
%TO.P,TMC_R,14*%
%TO.N,M_B1*%
X84350000Y-39700000D03*
%TO.P,TMC_R,15*%
%TO.N,+3V3*%
X84350000Y-42240000D03*
%TO.P,TMC_R,16*%
%TO.N,GND*%
X84350000Y-44780000D03*
%TD*%
%TO.P,R4,1*%
%TO.N,ENC_B_RAW*%
X15500000Y-27700000D03*
%TO.P,R4,2*%
%TO.N,ENC_B*%
X20580000Y-27700000D03*
%TD*%
%TO.P,ESP_R,R1*%
%TO.N,GND*%
X53240000Y-15000000D03*
%TO.P,ESP_R,R2*%
%TO.N,SPI_MOSI*%
X53240000Y-17540000D03*
%TO.P,ESP_R,R3*%
%TO.N,IO22*%
X53240000Y-20080000D03*
%TO.P,ESP_R,R4*%
%TO.N,N/C*%
X53240000Y-22620000D03*
%TO.P,ESP_R,R5*%
X53240000Y-25160000D03*
%TO.P,ESP_R,R6*%
%TO.N,IO21*%
X53240000Y-27700000D03*
%TO.P,ESP_R,R7*%
%TO.N,GND*%
X53240000Y-30240000D03*
%TO.P,ESP_R,R8*%
%TO.N,SPI_MISO*%
X53240000Y-32780000D03*
%TO.P,ESP_R,R9*%
%TO.N,SPI_SCK*%
X53240000Y-35320000D03*
%TO.P,ESP_R,R10*%
%TO.N,SPI_CS*%
X53240000Y-37860000D03*
%TO.P,ESP_R,R11*%
%TO.N,N/C*%
X53240000Y-40400000D03*
%TO.P,ESP_R,R12*%
X53240000Y-42940000D03*
%TO.P,ESP_R,R13*%
X53240000Y-45480000D03*
%TO.P,ESP_R,R14*%
X53240000Y-48020000D03*
%TO.P,ESP_R,R15*%
X53240000Y-50560000D03*
%TO.P,ESP_R,R16*%
X53240000Y-53100000D03*
%TO.P,ESP_R,R17*%
%TO.N,GND*%
X53240000Y-55640000D03*
%TO.P,ESP_R,R18*%
X53240000Y-58180000D03*
%TO.P,ESP_R,R19*%
X53240000Y-60720000D03*
%TO.P,ESP_R,R20*%
X53240000Y-63260000D03*
%TD*%
%TO.P,J2,1*%
%TO.N,IO32*%
X10000000Y-30240000D03*
%TO.P,J2,2*%
%TO.N,IO33*%
X10000000Y-32780000D03*
%TO.P,J2,3*%
%TO.N,IO25*%
X10000000Y-35320000D03*
%TO.P,J2,4*%
%TO.N,IO26*%
X10000000Y-37860000D03*
%TO.P,J2,5*%
%TO.N,GND*%
X10000000Y-40400000D03*
%TO.P,J2,6*%
%TO.N,IO21*%
X10000000Y-42940000D03*
%TO.P,J2,7*%
%TO.N,IO22*%
X10000000Y-45480000D03*
%TO.P,J2,8*%
%TO.N,+3V3*%
X10000000Y-48020000D03*
%TD*%
%TO.P,ESP_L,L1*%
%TO.N,+3V3*%
X27840000Y-15000000D03*
%TO.P,ESP_L,L2*%
%TO.N,N/C*%
X27840000Y-17540000D03*
%TO.P,ESP_L,L3*%
X27840000Y-20080000D03*
%TO.P,ESP_L,L4*%
X27840000Y-22620000D03*
%TO.P,ESP_L,L5*%
%TO.N,ENC_A*%
X27840000Y-25160000D03*
%TO.P,ESP_L,L6*%
%TO.N,ENC_B*%
X27840000Y-27700000D03*
%TO.P,ESP_L,L7*%
%TO.N,IO32*%
X27840000Y-30240000D03*
%TO.P,ESP_L,L8*%
%TO.N,IO33*%
X27840000Y-32780000D03*
%TO.P,ESP_L,L9*%
%TO.N,IO25*%
X27840000Y-35320000D03*
%TO.P,ESP_L,L10*%
%TO.N,IO26*%
X27840000Y-37860000D03*
%TO.P,ESP_L,L11*%
%TO.N,TMC_DIR*%
X27840000Y-40400000D03*
%TO.P,ESP_L,L12*%
%TO.N,TMC_STEP*%
X27840000Y-42940000D03*
%TO.P,ESP_L,L13*%
%TO.N,N/C*%
X27840000Y-45480000D03*
%TO.P,ESP_L,L14*%
%TO.N,GND*%
X27840000Y-48020000D03*
%TO.P,ESP_L,L15*%
%TO.N,TMC_EN*%
X27840000Y-50560000D03*
%TO.P,ESP_L,L16*%
%TO.N,N/C*%
X27840000Y-53100000D03*
%TO.P,ESP_L,L17*%
X27840000Y-55640000D03*
%TO.P,ESP_L,L18*%
X27840000Y-58180000D03*
%TO.P,ESP_L,L19*%
%TO.N,+5V*%
X27840000Y-60720000D03*
%TO.P,ESP_L,L20*%
%TO.N,N/C*%
X27840000Y-63260000D03*
%TD*%
%TO.P,TMC_L,1*%
%TO.N,TMC_EN*%
X71650000Y-27000000D03*
%TO.P,TMC_L,2*%
%TO.N,SPI_MOSI*%
X71650000Y-29540000D03*
%TO.P,TMC_L,3*%
%TO.N,SPI_SCK*%
X71650000Y-32080000D03*
%TO.P,TMC_L,4*%
%TO.N,SPI_CS*%
X71650000Y-34620000D03*
%TO.P,TMC_L,5*%
%TO.N,SPI_MISO*%
X71650000Y-37160000D03*
%TO.P,TMC_L,6*%
%TO.N,TMC_CLK*%
X71650000Y-39700000D03*
%TO.P,TMC_L,7*%
%TO.N,TMC_STEP*%
X71650000Y-42240000D03*
%TO.P,TMC_L,8*%
%TO.N,TMC_DIR*%
X71650000Y-44780000D03*
%TD*%
%TO.P,J3,1*%
%TO.N,ENC_A_RAW*%
X10000000Y-16000000D03*
%TO.P,J3,2*%
%TO.N,ENC_B_RAW*%
X10000000Y-18540000D03*
%TO.P,J3,3*%
%TO.N,GND*%
X10000000Y-21080000D03*
%TO.P,J3,4*%
%TO.N,+5V*%
X10000000Y-23620000D03*
%TO.P,J3,5*%
%TO.N,GND*%
X10000000Y-26160000D03*
%TD*%
%TO.P,R3,1*%
%TO.N,ENC_A_RAW*%
X15500000Y-25160000D03*
%TO.P,R3,2*%
%TO.N,ENC_A*%
X20580000Y-25160000D03*
%TD*%
D14*
%TO.N,IO22*%
X40000000Y-74000000D03*
X7500000Y-50500000D03*
X9500000Y-50500000D03*
%TO.N,SPI_MISO*%
X66000000Y-37160000D03*
X66000000Y-31000000D03*
%TO.N,TMC_DIR*%
X63000000Y-44780000D03*
X12000000Y-80000000D03*
X63000000Y-80000000D03*
%TO.N,TMC_STEP*%
X14000000Y-78000000D03*
X65000000Y-78000000D03*
X65000000Y-42240000D03*
%TO.N,TMC_EN*%
X68500000Y-76000000D03*
X16000000Y-76000000D03*
%TO.N,+5V*%
X45500000Y-82000000D03*
X43000000Y-60720000D03*
%TD*%
%TO.N,M_A2*%
D15*
X84350000Y-32080000D02*
X96000000Y-32080000D01*
%TO.N,M_A1*%
X84350000Y-34620000D02*
X96000000Y-34080000D01*
%TO.N,M_B2*%
X84350000Y-37160000D02*
X96000000Y-36080000D01*
%TO.N,M_B1*%
X84350000Y-39700000D02*
X96000000Y-38080000D01*
%TO.N,VMOT*%
D16*
X88000000Y-13920000D02*
X88000000Y-27000000D01*
X79540000Y-8000000D02*
X88000000Y-13920000D01*
X88000000Y-27000000D02*
X84350000Y-27000000D01*
%TO.N,+3V3*%
D17*
X12960000Y-14000000D02*
X22300000Y-14000000D01*
X22300000Y-14000000D02*
X27840000Y-15000000D01*
X15500000Y-18000000D02*
X12960000Y-14000000D01*
X15500000Y-21500000D02*
X15500000Y-18000000D01*
%TO.N,ENC_A_RAW*%
D18*
X15500000Y-25160000D02*
X20580000Y-18000000D01*
X11500000Y-17500000D02*
X11500000Y-25160000D01*
X10000000Y-16000000D02*
X11500000Y-17500000D01*
X11500000Y-25160000D02*
X15500000Y-25160000D01*
%TO.N,SPI_MOSI*%
X61000000Y-29540000D02*
X71650000Y-29540000D01*
X61000000Y-17540000D02*
X61000000Y-29540000D01*
X53240000Y-17540000D02*
X61000000Y-17540000D01*
%TO.N,IO22*%
X18000000Y-45480000D02*
X18000000Y-50500000D01*
X10000000Y-45480000D02*
X18000000Y-45480000D01*
X7500000Y-50500000D02*
X7500000Y-74000000D01*
X18000000Y-50500000D02*
X9500000Y-50500000D01*
X7500000Y-74000000D02*
X40000000Y-74000000D01*
%TO.N,IO21*%
X10000000Y-42940000D02*
X8500000Y-42940000D01*
X8500000Y-42940000D02*
X8500000Y-72000000D01*
X44000000Y-72000000D02*
X44000000Y-27700000D01*
X44000000Y-27700000D02*
X53240000Y-27700000D01*
X8500000Y-72000000D02*
X44000000Y-72000000D01*
%TO.N,SPI_MISO*%
X66000000Y-37160000D02*
X71650000Y-37160000D01*
X55000000Y-31000000D02*
X66000000Y-31000000D01*
X55000000Y-32780000D02*
X55000000Y-31000000D01*
X53240000Y-32780000D02*
X55000000Y-32780000D01*
%TO.N,SPI_SCK*%
X53240000Y-35320000D02*
X58000000Y-35320000D01*
X58000000Y-35320000D02*
X61240000Y-32080000D01*
X61240000Y-32080000D02*
X71650000Y-32080000D01*
%TO.N,SPI_CS*%
X58000000Y-37860000D02*
X61240000Y-34620000D01*
X53240000Y-37860000D02*
X58000000Y-37860000D01*
X61240000Y-34620000D02*
X71650000Y-34620000D01*
%TO.N,IO32*%
X10000000Y-30240000D02*
X27840000Y-30240000D01*
%TO.N,IO33*%
X10000000Y-32780000D02*
X27840000Y-32780000D01*
%TO.N,IO25*%
X10000000Y-35320000D02*
X27840000Y-35320000D01*
%TO.N,IO26*%
X10000000Y-37860000D02*
X27840000Y-37860000D01*
%TO.N,ENC_A*%
X20580000Y-25160000D02*
X27840000Y-25160000D01*
%TO.N,TMC_DIR*%
X12000000Y-80000000D02*
X63000000Y-80000000D01*
X63000000Y-44780000D02*
X71650000Y-44780000D01*
%TO.N,TMC_STEP*%
X65000000Y-42240000D02*
X71650000Y-42240000D01*
X14000000Y-78000000D02*
X65000000Y-78000000D01*
%TO.N,TMC_EN*%
X16000000Y-76000000D02*
X68500000Y-76000000D01*
%TO.N,+5V*%
D19*
X43000000Y-60720000D02*
X27840000Y-60720000D01*
X6000000Y-82000000D02*
X6000000Y-23620000D01*
X45500000Y-82000000D02*
X6000000Y-82000000D01*
X6000000Y-23620000D02*
X10000000Y-23620000D01*
%TD*%
%TA.AperFunction,Conductor*%
%TO.N,GND*%
G36*
X104442539Y-5520185D02*
G01*
X104488294Y-5572989D01*
X104499500Y-5624500D01*
X104499500Y-84375500D01*
X104479815Y-84442539D01*
X104427011Y-84488294D01*
X104375500Y-84499500D01*
X5624500Y-84499500D01*
X5557461Y-84479815D01*
X5511706Y-84427011D01*
X5500500Y-84375500D01*
X5500500Y-82845134D01*
X5520185Y-82778095D01*
X5572989Y-82732340D01*
X5642147Y-82722396D01*
X5671950Y-82730572D01*
X5766503Y-82769737D01*
X5921153Y-82800499D01*
X5921156Y-82800500D01*
X5921158Y-82800500D01*
X45578844Y-82800500D01*
X45578845Y-82800499D01*
X45733497Y-82769737D01*
X45879179Y-82709394D01*
X46010289Y-82621789D01*
X46121789Y-82510289D01*
X46209394Y-82379179D01*
X46269737Y-82233497D01*
X46300500Y-82078842D01*
X46300500Y-81921158D01*
X46300500Y-81921155D01*
X46300499Y-81921153D01*
X46269738Y-81766510D01*
X46269737Y-81766503D01*
X46269735Y-81766498D01*
X46209397Y-81620827D01*
X46209390Y-81620814D01*
X46121789Y-81489711D01*
X46121786Y-81489707D01*
X46010292Y-81378213D01*
X46010288Y-81378210D01*
X45879185Y-81290609D01*
X45879172Y-81290602D01*
X45733501Y-81230264D01*
X45733489Y-81230261D01*
X45578845Y-81199500D01*
X45578842Y-81199500D01*
X6924500Y-81199500D01*
X6857461Y-81179815D01*
X6811706Y-81127011D01*
X6800500Y-81075500D01*
X6800500Y-77878711D01*
X8149500Y-77878711D01*
X8149500Y-78121288D01*
X8181161Y-78361785D01*
X8243947Y-78596104D01*
X8328611Y-78800500D01*
X8336776Y-78820212D01*
X8458064Y-79030289D01*
X8458066Y-79030292D01*
X8458067Y-79030293D01*
X8605733Y-79222736D01*
X8605739Y-79222743D01*
X8777256Y-79394260D01*
X8777262Y-79394265D01*
X8969711Y-79541936D01*
X9179788Y-79663224D01*
X9403900Y-79756054D01*
X9638211Y-79818838D01*
X9818586Y-79842584D01*
X9878711Y-79850500D01*
X9878712Y-79850500D01*
X10121289Y-79850500D01*
X10169388Y-79844167D01*
X10361789Y-79818838D01*
X10596100Y-79756054D01*
X10820212Y-79663224D01*
X11030289Y-79541936D01*
X11092650Y-79494084D01*
X11157818Y-79468890D01*
X11226263Y-79482928D01*
X11276253Y-79531741D01*
X11291917Y-79599833D01*
X11282698Y-79639912D01*
X11230263Y-79766503D01*
X11230262Y-79766506D01*
X11230262Y-79766507D01*
X11230261Y-79766510D01*
X11199500Y-79921153D01*
X11199500Y-80078846D01*
X11230261Y-80233489D01*
X11230264Y-80233501D01*
X11290602Y-80379172D01*
X11290609Y-80379185D01*
X11378210Y-80510288D01*
X11378213Y-80510292D01*
X11489707Y-80621786D01*
X11489711Y-80621789D01*
X11620814Y-80709390D01*
X11620827Y-80709397D01*
X11766498Y-80769735D01*
X11766503Y-80769737D01*
X11921153Y-80800499D01*
X11921156Y-80800500D01*
X11921158Y-80800500D01*
X12078844Y-80800500D01*
X12078845Y-80800499D01*
X12233497Y-80769737D01*
X12379179Y-80709394D01*
X12510289Y-80621789D01*
X12621789Y-80510289D01*
X12624914Y-80505611D01*
X12678525Y-80460806D01*
X12728018Y-80450500D01*
X62271982Y-80450500D01*
X62339021Y-80470185D01*
X62375086Y-80505612D01*
X62378211Y-80510290D01*
X62489707Y-80621786D01*
X62489711Y-80621789D01*
X62620814Y-80709390D01*
X62620827Y-80709397D01*
X62766498Y-80769735D01*
X62766503Y-80769737D01*
X62921153Y-80800499D01*
X62921156Y-80800500D01*
X62921158Y-80800500D01*
X63078844Y-80800500D01*
X63078845Y-80800499D01*
X63233497Y-80769737D01*
X63379179Y-80709394D01*
X63510289Y-80621789D01*
X63621789Y-80510289D01*
X63709394Y-80379179D01*
X63769737Y-80233497D01*
X63800500Y-80078842D01*
X63800500Y-79921158D01*
X63800500Y-79921155D01*
X63800499Y-79921153D01*
X63769738Y-79766510D01*
X63769737Y-79766503D01*
X63717302Y-79639912D01*
X63709397Y-79620827D01*
X63709390Y-79620814D01*
X63621789Y-79489711D01*
X63621786Y-79489707D01*
X63510292Y-79378213D01*
X63510288Y-79378210D01*
X63379185Y-79290609D01*
X63379172Y-79290602D01*
X63233501Y-79230264D01*
X63233489Y-79230261D01*
X63078845Y-79199500D01*
X63078842Y-79199500D01*
X62921158Y-79199500D01*
X62921155Y-79199500D01*
X62766510Y-79230261D01*
X62766498Y-79230264D01*
X62620827Y-79290602D01*
X62620814Y-79290609D01*
X62489711Y-79378210D01*
X62489707Y-79378213D01*
X62378211Y-79489709D01*
X62375086Y-79494388D01*
X62321475Y-79539194D01*
X62271982Y-79549500D01*
X12728018Y-79549500D01*
X12660979Y-79529815D01*
X12624914Y-79494388D01*
X12621788Y-79489709D01*
X12510292Y-79378213D01*
X12510288Y-79378210D01*
X12379185Y-79290609D01*
X12379172Y-79290602D01*
X12233501Y-79230264D01*
X12233489Y-79230261D01*
X12078845Y-79199500D01*
X12078842Y-79199500D01*
X11921158Y-79199500D01*
X11921155Y-79199500D01*
X11766510Y-79230261D01*
X11766507Y-79230262D01*
X11766506Y-79230262D01*
X11766503Y-79230263D01*
X11697391Y-79258890D01*
X11639912Y-79282698D01*
X11570442Y-79290166D01*
X11507963Y-79258890D01*
X11472311Y-79198801D01*
X11474806Y-79128976D01*
X11494083Y-79092651D01*
X11541936Y-79030289D01*
X11663224Y-78820212D01*
X11756054Y-78596100D01*
X11818838Y-78361789D01*
X11850500Y-78121288D01*
X11850500Y-77921153D01*
X13199500Y-77921153D01*
X13199500Y-78078846D01*
X13230261Y-78233489D01*
X13230264Y-78233501D01*
X13290602Y-78379172D01*
X13290609Y-78379185D01*
X13378210Y-78510288D01*
X13378213Y-78510292D01*
X13489707Y-78621786D01*
X13489711Y-78621789D01*
X13620814Y-78709390D01*
X13620827Y-78709397D01*
X13766498Y-78769735D01*
X13766503Y-78769737D01*
X13921153Y-78800499D01*
X13921156Y-78800500D01*
X13921158Y-78800500D01*
X14078844Y-78800500D01*
X14078845Y-78800499D01*
X14233497Y-78769737D01*
X14379179Y-78709394D01*
X14510289Y-78621789D01*
X14621789Y-78510289D01*
X14624914Y-78505611D01*
X14678525Y-78460806D01*
X14728018Y-78450500D01*
X64271982Y-78450500D01*
X64339021Y-78470185D01*
X64375086Y-78505612D01*
X64378211Y-78510290D01*
X64489707Y-78621786D01*
X64489711Y-78621789D01*
X64620814Y-78709390D01*
X64620827Y-78709397D01*
X64766498Y-78769735D01*
X64766503Y-78769737D01*
X64921153Y-78800499D01*
X64921156Y-78800500D01*
X64921158Y-78800500D01*
X65078844Y-78800500D01*
X65078845Y-78800499D01*
X65233497Y-78769737D01*
X65379179Y-78709394D01*
X65510289Y-78621789D01*
X65621789Y-78510289D01*
X65709394Y-78379179D01*
X65769737Y-78233497D01*
X65800500Y-78078842D01*
X65800500Y-77921158D01*
X65800500Y-77921155D01*
X65796062Y-77898845D01*
X65796062Y-77898844D01*
X65792057Y-77878711D01*
X100149500Y-77878711D01*
X100149500Y-78121288D01*
X100181161Y-78361785D01*
X100243947Y-78596104D01*
X100328611Y-78800500D01*
X100336776Y-78820212D01*
X100458064Y-79030289D01*
X100458066Y-79030292D01*
X100458067Y-79030293D01*
X100605733Y-79222736D01*
X100605739Y-79222743D01*
X100777256Y-79394260D01*
X100777262Y-79394265D01*
X100969711Y-79541936D01*
X101179788Y-79663224D01*
X101403900Y-79756054D01*
X101638211Y-79818838D01*
X101818586Y-79842584D01*
X101878711Y-79850500D01*
X101878712Y-79850500D01*
X102121289Y-79850500D01*
X102169388Y-79844167D01*
X102361789Y-79818838D01*
X102596100Y-79756054D01*
X102820212Y-79663224D01*
X103030289Y-79541936D01*
X103222738Y-79394265D01*
X103394265Y-79222738D01*
X103541936Y-79030289D01*
X103663224Y-78820212D01*
X103756054Y-78596100D01*
X103818838Y-78361789D01*
X103850500Y-78121288D01*
X103850500Y-77878712D01*
X103818838Y-77638211D01*
X103756054Y-77403900D01*
X103663224Y-77179788D01*
X103541936Y-76969711D01*
X103412096Y-76800500D01*
X103394266Y-76777263D01*
X103394260Y-76777256D01*
X103222743Y-76605739D01*
X103222736Y-76605733D01*
X103030293Y-76458067D01*
X103030292Y-76458066D01*
X103030289Y-76458064D01*
X102820212Y-76336776D01*
X102820205Y-76336773D01*
X102596104Y-76243947D01*
X102361785Y-76181161D01*
X102121289Y-76149500D01*
X102121288Y-76149500D01*
X101878712Y-76149500D01*
X101878711Y-76149500D01*
X101638214Y-76181161D01*
X101403895Y-76243947D01*
X101179794Y-76336773D01*
X101179785Y-76336777D01*
X100969706Y-76458067D01*
X100777263Y-76605733D01*
X100777256Y-76605739D01*
X100605739Y-76777256D01*
X100605733Y-76777263D01*
X100458067Y-76969706D01*
X100336777Y-77179785D01*
X100336773Y-77179794D01*
X100243947Y-77403895D01*
X100181161Y-77638214D01*
X100149500Y-77878711D01*
X65792057Y-77878711D01*
X65769738Y-77766510D01*
X65769737Y-77766503D01*
X65769735Y-77766498D01*
X65709397Y-77620827D01*
X65709390Y-77620814D01*
X65621789Y-77489711D01*
X65621786Y-77489707D01*
X65510292Y-77378213D01*
X65510288Y-77378210D01*
X65379185Y-77290609D01*
X65379172Y-77290602D01*
X65233501Y-77230264D01*
X65233489Y-77230261D01*
X65078845Y-77199500D01*
X65078842Y-77199500D01*
X64921158Y-77199500D01*
X64921155Y-77199500D01*
X64766510Y-77230261D01*
X64766498Y-77230264D01*
X64620827Y-77290602D01*
X64620814Y-77290609D01*
X64489711Y-77378210D01*
X64489707Y-77378213D01*
X64378211Y-77489709D01*
X64375086Y-77494388D01*
X64321475Y-77539194D01*
X64271982Y-77549500D01*
X14728018Y-77549500D01*
X14660979Y-77529815D01*
X14624914Y-77494388D01*
X14621788Y-77489709D01*
X14510292Y-77378213D01*
X14510288Y-77378210D01*
X14379185Y-77290609D01*
X14379172Y-77290602D01*
X14233501Y-77230264D01*
X14233489Y-77230261D01*
X14078845Y-77199500D01*
X14078842Y-77199500D01*
X13921158Y-77199500D01*
X13921155Y-77199500D01*
X13766510Y-77230261D01*
X13766498Y-77230264D01*
X13620827Y-77290602D01*
X13620814Y-77290609D01*
X13489711Y-77378210D01*
X13489707Y-77378213D01*
X13378213Y-77489707D01*
X13378210Y-77489711D01*
X13290609Y-77620814D01*
X13290602Y-77620827D01*
X13230264Y-77766498D01*
X13230261Y-77766510D01*
X13199500Y-77921153D01*
X11850500Y-77921153D01*
X11850500Y-77878712D01*
X11818838Y-77638211D01*
X11756054Y-77403900D01*
X11663224Y-77179788D01*
X11541936Y-76969711D01*
X11412096Y-76800500D01*
X11394266Y-76777263D01*
X11394260Y-76777256D01*
X11222743Y-76605739D01*
X11222736Y-76605733D01*
X11030293Y-76458067D01*
X11030292Y-76458066D01*
X11030289Y-76458064D01*
X10820212Y-76336776D01*
X10820205Y-76336773D01*
X10596104Y-76243947D01*
X10361785Y-76181161D01*
X10121289Y-76149500D01*
X10121288Y-76149500D01*
X9878712Y-76149500D01*
X9878711Y-76149500D01*
X9638214Y-76181161D01*
X9403895Y-76243947D01*
X9179794Y-76336773D01*
X9179785Y-76336777D01*
X8969706Y-76458067D01*
X8777263Y-76605733D01*
X8777256Y-76605739D01*
X8605739Y-76777256D01*
X8605733Y-76777263D01*
X8458067Y-76969706D01*
X8336777Y-77179785D01*
X8336773Y-77179794D01*
X8243947Y-77403895D01*
X8181161Y-77638214D01*
X8149500Y-77878711D01*
X6800500Y-77878711D01*
X6800500Y-75921153D01*
X15199500Y-75921153D01*
X15199500Y-76078846D01*
X15230261Y-76233489D01*
X15230264Y-76233501D01*
X15290602Y-76379172D01*
X15290609Y-76379185D01*
X15378210Y-76510288D01*
X15378213Y-76510292D01*
X15489707Y-76621786D01*
X15489711Y-76621789D01*
X15620814Y-76709390D01*
X15620827Y-76709397D01*
X15766498Y-76769735D01*
X15766503Y-76769737D01*
X15921153Y-76800499D01*
X15921156Y-76800500D01*
X15921158Y-76800500D01*
X16078844Y-76800500D01*
X16078845Y-76800499D01*
X16233497Y-76769737D01*
X16379179Y-76709394D01*
X16510289Y-76621789D01*
X16621789Y-76510289D01*
X16624914Y-76505611D01*
X16678525Y-76460806D01*
X16728018Y-76450500D01*
X67771982Y-76450500D01*
X67839021Y-76470185D01*
X67875086Y-76505612D01*
X67878211Y-76510290D01*
X67989707Y-76621786D01*
X67989711Y-76621789D01*
X68120814Y-76709390D01*
X68120827Y-76709397D01*
X68266498Y-76769735D01*
X68266503Y-76769737D01*
X68421153Y-76800499D01*
X68421156Y-76800500D01*
X68421158Y-76800500D01*
X68578844Y-76800500D01*
X68578845Y-76800499D01*
X68733497Y-76769737D01*
X68879179Y-76709394D01*
X69010289Y-76621789D01*
X69121789Y-76510289D01*
X69209394Y-76379179D01*
X69269737Y-76233497D01*
X69300500Y-76078842D01*
X69300500Y-75921158D01*
X69300500Y-75921155D01*
X69300499Y-75921153D01*
X69269738Y-75766510D01*
X69269737Y-75766503D01*
X69269735Y-75766498D01*
X69209397Y-75620827D01*
X69209390Y-75620814D01*
X69121789Y-75489711D01*
X69121786Y-75489707D01*
X69010292Y-75378213D01*
X69010288Y-75378210D01*
X68879185Y-75290609D01*
X68879172Y-75290602D01*
X68733501Y-75230264D01*
X68733489Y-75230261D01*
X68578845Y-75199500D01*
X68578842Y-75199500D01*
X68421158Y-75199500D01*
X68421155Y-75199500D01*
X68266510Y-75230261D01*
X68266498Y-75230264D01*
X68120827Y-75290602D01*
X68120814Y-75290609D01*
X67989711Y-75378210D01*
X67989707Y-75378213D01*
X67878211Y-75489709D01*
X67875086Y-75494388D01*
X67821475Y-75539194D01*
X67771982Y-75549500D01*
X16728018Y-75549500D01*
X16660979Y-75529815D01*
X16624914Y-75494388D01*
X16621788Y-75489709D01*
X16510292Y-75378213D01*
X16510288Y-75378210D01*
X16379185Y-75290609D01*
X16379172Y-75290602D01*
X16233501Y-75230264D01*
X16233489Y-75230261D01*
X16078845Y-75199500D01*
X16078842Y-75199500D01*
X15921158Y-75199500D01*
X15921155Y-75199500D01*
X15766510Y-75230261D01*
X15766498Y-75230264D01*
X15620827Y-75290602D01*
X15620814Y-75290609D01*
X15489711Y-75378210D01*
X15489707Y-75378213D01*
X15378213Y-75489707D01*
X15378210Y-75489711D01*
X15290609Y-75620814D01*
X15290602Y-75620827D01*
X15230264Y-75766498D01*
X15230261Y-75766510D01*
X15199500Y-75921153D01*
X6800500Y-75921153D01*
X6800500Y-51227349D01*
X6803360Y-51217605D01*
X6802094Y-51207529D01*
X6813039Y-51184643D01*
X6820185Y-51160310D01*
X6827858Y-51153660D01*
X6832241Y-51144498D01*
X6853822Y-51131162D01*
X6872989Y-51114555D01*
X6883039Y-51113109D01*
X6891680Y-51107771D01*
X6917041Y-51108220D01*
X6942147Y-51104611D01*
X6953245Y-51108862D01*
X6961538Y-51109010D01*
X6993371Y-51124235D01*
X6994380Y-51124909D01*
X7039190Y-51178513D01*
X7049500Y-51228017D01*
X7049500Y-73940691D01*
X7049500Y-74059309D01*
X7080201Y-74173886D01*
X7139511Y-74276613D01*
X7223387Y-74360489D01*
X7326114Y-74419799D01*
X7440691Y-74450500D01*
X39271982Y-74450500D01*
X39339021Y-74470185D01*
X39375086Y-74505612D01*
X39378211Y-74510290D01*
X39489707Y-74621786D01*
X39489711Y-74621789D01*
X39620814Y-74709390D01*
X39620827Y-74709397D01*
X39766498Y-74769735D01*
X39766503Y-74769737D01*
X39921153Y-74800499D01*
X39921156Y-74800500D01*
X39921158Y-74800500D01*
X40078844Y-74800500D01*
X40078845Y-74800499D01*
X40233497Y-74769737D01*
X40379179Y-74709394D01*
X40510289Y-74621789D01*
X40621789Y-74510289D01*
X40709394Y-74379179D01*
X40769737Y-74233497D01*
X40800500Y-74078842D01*
X40800500Y-73921158D01*
X40800500Y-73921155D01*
X40800499Y-73921153D01*
X40769738Y-73766510D01*
X40769737Y-73766503D01*
X40769735Y-73766498D01*
X40709397Y-73620827D01*
X40709390Y-73620814D01*
X40621789Y-73489711D01*
X40621786Y-73489707D01*
X40510292Y-73378213D01*
X40510288Y-73378210D01*
X40379185Y-73290609D01*
X40379172Y-73290602D01*
X40233501Y-73230264D01*
X40233489Y-73230261D01*
X40078845Y-73199500D01*
X40078842Y-73199500D01*
X39921158Y-73199500D01*
X39921155Y-73199500D01*
X39766510Y-73230261D01*
X39766498Y-73230264D01*
X39620827Y-73290602D01*
X39620814Y-73290609D01*
X39489711Y-73378210D01*
X39489707Y-73378213D01*
X39378211Y-73489709D01*
X39375086Y-73494388D01*
X39321475Y-73539194D01*
X39271982Y-73549500D01*
X8074500Y-73549500D01*
X8007461Y-73529815D01*
X7961706Y-73477011D01*
X7950500Y-73425500D01*
X7950500Y-72386964D01*
X7970185Y-72319925D01*
X8022989Y-72274170D01*
X8092147Y-72264226D01*
X8155703Y-72293251D01*
X8162181Y-72299283D01*
X8223387Y-72360489D01*
X8326114Y-72419799D01*
X8440691Y-72450500D01*
X8440694Y-72450500D01*
X44059306Y-72450500D01*
X44059309Y-72450500D01*
X44173886Y-72419799D01*
X44276613Y-72360489D01*
X44360489Y-72276613D01*
X44419799Y-72173886D01*
X44450500Y-72059309D01*
X44450500Y-28274500D01*
X44470185Y-28207461D01*
X44522989Y-28161706D01*
X44574500Y-28150500D01*
X51933969Y-28150500D01*
X52001008Y-28170185D01*
X52044454Y-28218205D01*
X52127715Y-28381614D01*
X52248028Y-28547213D01*
X52392786Y-28691971D01*
X52558385Y-28812284D01*
X52558387Y-28812285D01*
X52558390Y-28812287D01*
X52651080Y-28859515D01*
X52651630Y-28859795D01*
X52702426Y-28907770D01*
X52719221Y-28975591D01*
X52696684Y-29041725D01*
X52651630Y-29080765D01*
X52558649Y-29128141D01*
X52473122Y-29190278D01*
X52473122Y-29190279D01*
X53054823Y-29771980D01*
X53047007Y-29774075D01*
X52932993Y-29839901D01*
X52839901Y-29932993D01*
X52774075Y-30047007D01*
X52771980Y-30054823D01*
X52190279Y-29473122D01*
X52190278Y-29473122D01*
X52128141Y-29558648D01*
X52035244Y-29740968D01*
X51972009Y-29935582D01*
X51940000Y-30137682D01*
X51940000Y-30342317D01*
X51972009Y-30544417D01*
X52035244Y-30739031D01*
X52128139Y-30921347D01*
X52190279Y-31006876D01*
X52771980Y-30425176D01*
X52774075Y-30432993D01*
X52839901Y-30547007D01*
X52932993Y-30640099D01*
X53047007Y-30705925D01*
X53054822Y-30708019D01*
X52473121Y-31289719D01*
X52473122Y-31289720D01*
X52558640Y-31351852D01*
X52558654Y-31351861D01*
X52651629Y-31399234D01*
X52702426Y-31447208D01*
X52719221Y-31515029D01*
X52696684Y-31581164D01*
X52651631Y-31620203D01*
X52558388Y-31667713D01*
X52392786Y-31788028D01*
X52248028Y-31932786D01*
X52127715Y-32098386D01*
X52034781Y-32280776D01*
X51971522Y-32475465D01*
X51939500Y-32677648D01*
X51939500Y-32882351D01*
X51971522Y-33084534D01*
X52034781Y-33279223D01*
X52085342Y-33378453D01*
X52126680Y-33459583D01*
X52127715Y-33461613D01*
X52248028Y-33627213D01*
X52392786Y-33771971D01*
X52547749Y-33884556D01*
X52558390Y-33892287D01*
X52648862Y-33938385D01*
X52651080Y-33939515D01*
X52701876Y-33987490D01*
X52718671Y-34055311D01*
X52696134Y-34121446D01*
X52651080Y-34160485D01*
X52558386Y-34207715D01*
X52392786Y-34328028D01*
X52248028Y-34472786D01*
X52127715Y-34638386D01*
X52034781Y-34820776D01*
X51971522Y-35015465D01*
X51939500Y-35217648D01*
X51939500Y-35422351D01*
X51971522Y-35624534D01*
X52034781Y-35819223D01*
X52098691Y-35944653D01*
X52127139Y-36000484D01*
X52127715Y-36001613D01*
X52248028Y-36167213D01*
X52392786Y-36311971D01*
X52547749Y-36424556D01*
X52558390Y-36432287D01*
X52648862Y-36478385D01*
X52651080Y-36479515D01*
X52701876Y-36527490D01*
X52718671Y-36595311D01*
X52696134Y-36661446D01*
X52651080Y-36700485D01*
X52558386Y-36747715D01*
X52392786Y-36868028D01*
X52248028Y-37012786D01*
X52127715Y-37178386D01*
X52034781Y-37360776D01*
X51971522Y-37555465D01*
X51939500Y-37757648D01*
X51939500Y-37962351D01*
X51971522Y-38164534D01*
X52034781Y-38359223D01*
X52078304Y-38444640D01*
X52107248Y-38501446D01*
X52127715Y-38541613D01*
X52248028Y-38707213D01*
X52392786Y-38851971D01*
X52498858Y-38929035D01*
X52558390Y-38972287D01*
X52648864Y-39018386D01*
X52651080Y-39019515D01*
X52701876Y-39067490D01*
X52718671Y-39135311D01*
X52696134Y-39201446D01*
X52651080Y-39240485D01*
X52558386Y-39287715D01*
X52392786Y-39408028D01*
X52248028Y-39552786D01*
X52127715Y-39718386D01*
X52034781Y-39900776D01*
X51971522Y-40095465D01*
X51939500Y-40297648D01*
X51939500Y-40502351D01*
X51971522Y-40704534D01*
X52034781Y-40899223D01*
X52098691Y-41024653D01*
X52107248Y-41041446D01*
X52127715Y-41081613D01*
X52248028Y-41247213D01*
X52392786Y-41391971D01*
X52547749Y-41504556D01*
X52558390Y-41512287D01*
X52648862Y-41558385D01*
X52651080Y-41559515D01*
X52701876Y-41607490D01*
X52718671Y-41675311D01*
X52696134Y-41741446D01*
X52651080Y-41780485D01*
X52558386Y-41827715D01*
X52392786Y-41948028D01*
X52248028Y-42092786D01*
X52127715Y-42258386D01*
X52034781Y-42440776D01*
X51971522Y-42635465D01*
X51939500Y-42837648D01*
X51939500Y-43042351D01*
X51971522Y-43244534D01*
X52034781Y-43439223D01*
X52086385Y-43540500D01*
X52127282Y-43620765D01*
X52127715Y-43621613D01*
X52248028Y-43787213D01*
X52392786Y-43931971D01*
X52547749Y-44044556D01*
X52558390Y-44052287D01*
X52648862Y-44098385D01*
X52651080Y-44099515D01*
X52701876Y-44147490D01*
X52718671Y-44215311D01*
X52696134Y-44281446D01*
X52651080Y-44320485D01*
X52558386Y-44367715D01*
X52392786Y-44488028D01*
X52248028Y-44632786D01*
X52127715Y-44798386D01*
X52034781Y-44980776D01*
X51971522Y-45175465D01*
X51939500Y-45377648D01*
X51939500Y-45582351D01*
X51971522Y-45784534D01*
X52034781Y-45979223D01*
X52127715Y-46161613D01*
X52248028Y-46327213D01*
X52392786Y-46471971D01*
X52547749Y-46584556D01*
X52558390Y-46592287D01*
X52649840Y-46638883D01*
X52651080Y-46639515D01*
X52701876Y-46687490D01*
X52718671Y-46755311D01*
X52696134Y-46821446D01*
X52651080Y-46860485D01*
X52558386Y-46907715D01*
X52392786Y-47028028D01*
X52248028Y-47172786D01*
X52127715Y-47338386D01*
X52034781Y-47520776D01*
X51971522Y-47715465D01*
X51939500Y-47917648D01*
X51939500Y-48122351D01*
X51971522Y-48324534D01*
X52034781Y-48519223D01*
X52127715Y-48701613D01*
X52248028Y-48867213D01*
X52392786Y-49011971D01*
X52547749Y-49124556D01*
X52558390Y-49132287D01*
X52649840Y-49178883D01*
X52651080Y-49179515D01*
X52701876Y-49227490D01*
X52718671Y-49295311D01*
X52696134Y-49361446D01*
X52651080Y-49400485D01*
X52558386Y-49447715D01*
X52392786Y-49568028D01*
X52248028Y-49712786D01*
X52127715Y-49878386D01*
X52034781Y-50060776D01*
X51971522Y-50255465D01*
X51939500Y-50457648D01*
X51939500Y-50662351D01*
X51971522Y-50864534D01*
X52034781Y-51059223D01*
X52087016Y-51161738D01*
X52112437Y-51211630D01*
X52127715Y-51241613D01*
X52248028Y-51407213D01*
X52392786Y-51551971D01*
X52547749Y-51664556D01*
X52558390Y-51672287D01*
X52649840Y-51718883D01*
X52651080Y-51719515D01*
X52701876Y-51767490D01*
X52718671Y-51835311D01*
X52696134Y-51901446D01*
X52651080Y-51940485D01*
X52558386Y-51987715D01*
X52392786Y-52108028D01*
X52248028Y-52252786D01*
X52127715Y-52418386D01*
X52034781Y-52600776D01*
X51971522Y-52795465D01*
X51939500Y-52997648D01*
X51939500Y-53202351D01*
X51971522Y-53404534D01*
X52034781Y-53599223D01*
X52127715Y-53781613D01*
X52248028Y-53947213D01*
X52392786Y-54091971D01*
X52558385Y-54212284D01*
X52558387Y-54212285D01*
X52558390Y-54212287D01*
X52651080Y-54259515D01*
X52651630Y-54259795D01*
X52702426Y-54307770D01*
X52719221Y-54375591D01*
X52696684Y-54441725D01*
X52651630Y-54480765D01*
X52558649Y-54528141D01*
X52473122Y-54590278D01*
X52473122Y-54590279D01*
X53054823Y-55171980D01*
X53047007Y-55174075D01*
X52932993Y-55239901D01*
X52839901Y-55332993D01*
X52774075Y-55447007D01*
X52771980Y-55454823D01*
X52190279Y-54873122D01*
X52190278Y-54873122D01*
X52128141Y-54958648D01*
X52035244Y-55140968D01*
X51972009Y-55335582D01*
X51940000Y-55537682D01*
X51940000Y-55742317D01*
X51972009Y-55944417D01*
X52035244Y-56139031D01*
X52128139Y-56321347D01*
X52190279Y-56406876D01*
X52771980Y-55825176D01*
X52774075Y-55832993D01*
X52839901Y-55947007D01*
X52932993Y-56040099D01*
X53047007Y-56105925D01*
X53054822Y-56108019D01*
X52473121Y-56689719D01*
X52473122Y-56689720D01*
X52558640Y-56751852D01*
X52558649Y-56751858D01*
X52652180Y-56799515D01*
X52702976Y-56847490D01*
X52719771Y-56915311D01*
X52697233Y-56981446D01*
X52652180Y-57020485D01*
X52558649Y-57068141D01*
X52473122Y-57130278D01*
X52473122Y-57130279D01*
X53054823Y-57711980D01*
X53047007Y-57714075D01*
X52932993Y-57779901D01*
X52839901Y-57872993D01*
X52774075Y-57987007D01*
X52771980Y-57994823D01*
X52190279Y-57413122D01*
X52190278Y-57413122D01*
X52128141Y-57498648D01*
X52035244Y-57680968D01*
X51972009Y-57875582D01*
X51940000Y-58077682D01*
X51940000Y-58282317D01*
X51972009Y-58484417D01*
X52035244Y-58679031D01*
X52128139Y-58861347D01*
X52190279Y-58946876D01*
X52771980Y-58365176D01*
X52774075Y-58372993D01*
X52839901Y-58487007D01*
X52932993Y-58580099D01*
X53047007Y-58645925D01*
X53054822Y-58648019D01*
X52473121Y-59229719D01*
X52473122Y-59229720D01*
X52558640Y-59291852D01*
X52558649Y-59291858D01*
X52652180Y-59339515D01*
X52702976Y-59387490D01*
X52719771Y-59455311D01*
X52697233Y-59521446D01*
X52652180Y-59560485D01*
X52558649Y-59608141D01*
X52473122Y-59670278D01*
X52473122Y-59670279D01*
X53054823Y-60251980D01*
X53047007Y-60254075D01*
X52932993Y-60319901D01*
X52839901Y-60412993D01*
X52774075Y-60527007D01*
X52771980Y-60534823D01*
X52190279Y-59953122D01*
X52190278Y-59953122D01*
X52128141Y-60038648D01*
X52035244Y-60220968D01*
X51972009Y-60415582D01*
X51940000Y-60617682D01*
X51940000Y-60822317D01*
X51972009Y-61024417D01*
X52035244Y-61219031D01*
X52128139Y-61401347D01*
X52190279Y-61486876D01*
X52771980Y-60905176D01*
X52774075Y-60912993D01*
X52839901Y-61027007D01*
X52932993Y-61120099D01*
X53047007Y-61185925D01*
X53054822Y-61188019D01*
X52473121Y-61769719D01*
X52473122Y-61769720D01*
X52558640Y-61831852D01*
X52558649Y-61831858D01*
X52652180Y-61879515D01*
X52702976Y-61927490D01*
X52719771Y-61995311D01*
X52697233Y-62061446D01*
X52652180Y-62100485D01*
X52558649Y-62148141D01*
X52473122Y-62210278D01*
X52473122Y-62210279D01*
X53054823Y-62791980D01*
X53047007Y-62794075D01*
X52932993Y-62859901D01*
X52839901Y-62952993D01*
X52774075Y-63067007D01*
X52771980Y-63074823D01*
X52190279Y-62493122D01*
X52190278Y-62493122D01*
X52128141Y-62578648D01*
X52035244Y-62760968D01*
X51972009Y-62955582D01*
X51940000Y-63157682D01*
X51940000Y-63362317D01*
X51972009Y-63564417D01*
X52035244Y-63759031D01*
X52128139Y-63941347D01*
X52190279Y-64026876D01*
X52771980Y-63445176D01*
X52774075Y-63452993D01*
X52839901Y-63567007D01*
X52932993Y-63660099D01*
X53047007Y-63725925D01*
X53054822Y-63728019D01*
X52473121Y-64309719D01*
X52473122Y-64309720D01*
X52558640Y-64371852D01*
X52558649Y-64371858D01*
X52740968Y-64464755D01*
X52935582Y-64527990D01*
X53137683Y-64560000D01*
X53342317Y-64560000D01*
X53544417Y-64527990D01*
X53739031Y-64464755D01*
X53921349Y-64371859D01*
X54006876Y-64309719D01*
X54006877Y-64309718D01*
X53425178Y-63728019D01*
X53432993Y-63725925D01*
X53547007Y-63660099D01*
X53640099Y-63567007D01*
X53705925Y-63452993D01*
X53708019Y-63445177D01*
X54289718Y-64026877D01*
X54289719Y-64026876D01*
X54351859Y-63941349D01*
X54444755Y-63759031D01*
X54507990Y-63564417D01*
X54540000Y-63362317D01*
X54540000Y-63157682D01*
X54507990Y-62955582D01*
X54444755Y-62760968D01*
X54351858Y-62578649D01*
X54351852Y-62578640D01*
X54289720Y-62493122D01*
X54289719Y-62493121D01*
X53708019Y-63074821D01*
X53705925Y-63067007D01*
X53640099Y-62952993D01*
X53547007Y-62859901D01*
X53432993Y-62794075D01*
X53425176Y-62791980D01*
X54006876Y-62210279D01*
X53921347Y-62148139D01*
X53827819Y-62100485D01*
X53777023Y-62052511D01*
X53760228Y-61984690D01*
X53782765Y-61918555D01*
X53827820Y-61879515D01*
X53921347Y-61831861D01*
X54006876Y-61769719D01*
X54006877Y-61769718D01*
X53425178Y-61188019D01*
X53432993Y-61185925D01*
X53547007Y-61120099D01*
X53640099Y-61027007D01*
X53705925Y-60912993D01*
X53708019Y-60905177D01*
X54289718Y-61486877D01*
X54289719Y-61486876D01*
X54351859Y-61401349D01*
X54444755Y-61219031D01*
X54507990Y-61024417D01*
X54540000Y-60822317D01*
X54540000Y-60617682D01*
X54507990Y-60415582D01*
X54444755Y-60220968D01*
X54351858Y-60038649D01*
X54351852Y-60038640D01*
X54289720Y-59953122D01*
X54289719Y-59953121D01*
X53708019Y-60534821D01*
X53705925Y-60527007D01*
X53640099Y-60412993D01*
X53547007Y-60319901D01*
X53432993Y-60254075D01*
X53425176Y-60251980D01*
X54006876Y-59670279D01*
X53921347Y-59608139D01*
X53827819Y-59560485D01*
X53777023Y-59512511D01*
X53760228Y-59444690D01*
X53782765Y-59378555D01*
X53827820Y-59339515D01*
X53921347Y-59291861D01*
X54006876Y-59229719D01*
X54006877Y-59229718D01*
X53425178Y-58648019D01*
X53432993Y-58645925D01*
X53547007Y-58580099D01*
X53640099Y-58487007D01*
X53705925Y-58372993D01*
X53708019Y-58365177D01*
X54289718Y-58946877D01*
X54289719Y-58946876D01*
X54351859Y-58861349D01*
X54444755Y-58679031D01*
X54507990Y-58484417D01*
X54540000Y-58282317D01*
X54540000Y-58077682D01*
X54507990Y-57875582D01*
X54444755Y-57680968D01*
X54351858Y-57498649D01*
X54351852Y-57498640D01*
X54289720Y-57413122D01*
X54289719Y-57413121D01*
X53708019Y-57994821D01*
X53705925Y-57987007D01*
X53640099Y-57872993D01*
X53547007Y-57779901D01*
X53432993Y-57714075D01*
X53425176Y-57711980D01*
X54006876Y-57130279D01*
X53921347Y-57068139D01*
X53827819Y-57020485D01*
X53777023Y-56972511D01*
X53760228Y-56904690D01*
X53782765Y-56838555D01*
X53827820Y-56799515D01*
X53921347Y-56751861D01*
X54006876Y-56689719D01*
X54006877Y-56689718D01*
X53425178Y-56108019D01*
X53432993Y-56105925D01*
X53547007Y-56040099D01*
X53640099Y-55947007D01*
X53705925Y-55832993D01*
X53708019Y-55825177D01*
X54289718Y-56406877D01*
X54289719Y-56406876D01*
X54351859Y-56321349D01*
X54444755Y-56139031D01*
X54507990Y-55944417D01*
X54540000Y-55742317D01*
X54540000Y-55537682D01*
X54507990Y-55335582D01*
X54444755Y-55140968D01*
X54351858Y-54958649D01*
X54351852Y-54958640D01*
X54289720Y-54873122D01*
X54289719Y-54873121D01*
X53708019Y-55454821D01*
X53705925Y-55447007D01*
X53640099Y-55332993D01*
X53547007Y-55239901D01*
X53432993Y-55174075D01*
X53425176Y-55171980D01*
X54006876Y-54590279D01*
X53921347Y-54528139D01*
X53828369Y-54480765D01*
X53777573Y-54432790D01*
X53760778Y-54364969D01*
X53783315Y-54298835D01*
X53828370Y-54259795D01*
X53828920Y-54259515D01*
X53921610Y-54212287D01*
X53971144Y-54176298D01*
X54087213Y-54091971D01*
X54087215Y-54091968D01*
X54087219Y-54091966D01*
X54231966Y-53947219D01*
X54231968Y-53947215D01*
X54231971Y-53947213D01*
X54284732Y-53874590D01*
X54352287Y-53781610D01*
X54445220Y-53599219D01*
X54508477Y-53404534D01*
X54540500Y-53202352D01*
X54540500Y-52997648D01*
X54508477Y-52795466D01*
X54445220Y-52600781D01*
X54445218Y-52600778D01*
X54445218Y-52600776D01*
X54411503Y-52534607D01*
X54352287Y-52418390D01*
X54344556Y-52407749D01*
X54231971Y-52252786D01*
X54087213Y-52108028D01*
X53921614Y-51987715D01*
X53915006Y-51984348D01*
X53828917Y-51940483D01*
X53778123Y-51892511D01*
X53761328Y-51824690D01*
X53783865Y-51758555D01*
X53828917Y-51719516D01*
X53921610Y-51672287D01*
X53942770Y-51656913D01*
X54087213Y-51551971D01*
X54087215Y-51551968D01*
X54087219Y-51551966D01*
X54231966Y-51407219D01*
X54231968Y-51407215D01*
X54231971Y-51407213D01*
X54309502Y-51300499D01*
X54352287Y-51241610D01*
X54445220Y-51059219D01*
X54508477Y-50864534D01*
X54540500Y-50662352D01*
X54540500Y-50457648D01*
X54508477Y-50255466D01*
X54445220Y-50060781D01*
X54445218Y-50060778D01*
X54445218Y-50060776D01*
X54409007Y-49989709D01*
X54352287Y-49878390D01*
X54314344Y-49826165D01*
X54231971Y-49712786D01*
X54087213Y-49568028D01*
X53921614Y-49447715D01*
X53915006Y-49444348D01*
X53828917Y-49400483D01*
X53778123Y-49352511D01*
X53761328Y-49284690D01*
X53783865Y-49218555D01*
X53828917Y-49179516D01*
X53921610Y-49132287D01*
X53942770Y-49116913D01*
X54087213Y-49011971D01*
X54087215Y-49011968D01*
X54087219Y-49011966D01*
X54231966Y-48867219D01*
X54231968Y-48867215D01*
X54231971Y-48867213D01*
X54290338Y-48786876D01*
X54352287Y-48701610D01*
X54445220Y-48519219D01*
X54508477Y-48324534D01*
X54540500Y-48122352D01*
X54540500Y-47917648D01*
X54511913Y-47737157D01*
X54508477Y-47715465D01*
X54456038Y-47554075D01*
X54445220Y-47520781D01*
X54445218Y-47520778D01*
X54445218Y-47520776D01*
X54411503Y-47454607D01*
X54352287Y-47338390D01*
X54290337Y-47253122D01*
X54231971Y-47172786D01*
X54087213Y-47028028D01*
X53921614Y-46907715D01*
X53915006Y-46904348D01*
X53828917Y-46860483D01*
X53778123Y-46812511D01*
X53761328Y-46744690D01*
X53783865Y-46678555D01*
X53828917Y-46639516D01*
X53921610Y-46592287D01*
X53942770Y-46576913D01*
X54087213Y-46471971D01*
X54087215Y-46471968D01*
X54087219Y-46471966D01*
X54231966Y-46327219D01*
X54231968Y-46327215D01*
X54231971Y-46327213D01*
X54289500Y-46248029D01*
X54352287Y-46161610D01*
X54445220Y-45979219D01*
X54508477Y-45784534D01*
X54540500Y-45582352D01*
X54540500Y-45377648D01*
X54526664Y-45290290D01*
X54508477Y-45175465D01*
X54455847Y-45013489D01*
X54445220Y-44980781D01*
X54445218Y-44980778D01*
X54445218Y-44980776D01*
X54395050Y-44882317D01*
X54352287Y-44798390D01*
X54338925Y-44779999D01*
X54231971Y-44632786D01*
X54087213Y-44488028D01*
X53921614Y-44367715D01*
X53915006Y-44364348D01*
X53828917Y-44320483D01*
X53778123Y-44272511D01*
X53761328Y-44204690D01*
X53783865Y-44138555D01*
X53828917Y-44099516D01*
X53921610Y-44052287D01*
X53942770Y-44036913D01*
X54087213Y-43931971D01*
X54087215Y-43931968D01*
X54087219Y-43931966D01*
X54231966Y-43787219D01*
X54231968Y-43787215D01*
X54231971Y-43787213D01*
X54289500Y-43708029D01*
X54352287Y-43621610D01*
X54445220Y-43439219D01*
X54508477Y-43244534D01*
X54540500Y-43042352D01*
X54540500Y-42837648D01*
X54526664Y-42750290D01*
X54508477Y-42635465D01*
X54455847Y-42473489D01*
X54445220Y-42440781D01*
X54445218Y-42440778D01*
X54445218Y-42440776D01*
X54395067Y-42342351D01*
X54352287Y-42258390D01*
X54344556Y-42247749D01*
X54231971Y-42092786D01*
X54087213Y-41948028D01*
X53921614Y-41827715D01*
X53915006Y-41824348D01*
X53828917Y-41780483D01*
X53778123Y-41732511D01*
X53761328Y-41664690D01*
X53783865Y-41598555D01*
X53828917Y-41559516D01*
X53921610Y-41512287D01*
X53979452Y-41470263D01*
X54087213Y-41391971D01*
X54087215Y-41391968D01*
X54087219Y-41391966D01*
X54231966Y-41247219D01*
X54231968Y-41247215D01*
X54231971Y-41247213D01*
X54318791Y-41127713D01*
X54352287Y-41081610D01*
X54445220Y-40899219D01*
X54508477Y-40704534D01*
X54540500Y-40502352D01*
X54540500Y-40297648D01*
X54511913Y-40117157D01*
X54508477Y-40095465D01*
X54456038Y-39934075D01*
X54445220Y-39900781D01*
X54445218Y-39900778D01*
X54445218Y-39900776D01*
X54395067Y-39802351D01*
X54352287Y-39718390D01*
X54290337Y-39633122D01*
X54231971Y-39552786D01*
X54087213Y-39408028D01*
X53921614Y-39287715D01*
X53915006Y-39284348D01*
X53828917Y-39240483D01*
X53778123Y-39192511D01*
X53761328Y-39124690D01*
X53783865Y-39058555D01*
X53828917Y-39019516D01*
X53921610Y-38972287D01*
X53981143Y-38929034D01*
X54087213Y-38851971D01*
X54087215Y-38851968D01*
X54087219Y-38851966D01*
X54231966Y-38707219D01*
X54231968Y-38707215D01*
X54231971Y-38707213D01*
X54352284Y-38541614D01*
X54352285Y-38541613D01*
X54352287Y-38541610D01*
X54435546Y-38378204D01*
X54483521Y-38327409D01*
X54546031Y-38310500D01*
X58059308Y-38310500D01*
X58059309Y-38310500D01*
X58149673Y-38286286D01*
X58173887Y-38279799D01*
X58276614Y-38220489D01*
X61390284Y-35106819D01*
X61451607Y-35073334D01*
X61477965Y-35070500D01*
X70343969Y-35070500D01*
X70411008Y-35090185D01*
X70454453Y-35138204D01*
X70501718Y-35230965D01*
X70537715Y-35301614D01*
X70658028Y-35467213D01*
X70802786Y-35611971D01*
X70957749Y-35724556D01*
X70968390Y-35732287D01*
X71043385Y-35770499D01*
X71061080Y-35779515D01*
X71111876Y-35827490D01*
X71128671Y-35895311D01*
X71106134Y-35961446D01*
X71061080Y-36000485D01*
X70968386Y-36047715D01*
X70802786Y-36168028D01*
X70658028Y-36312786D01*
X70537715Y-36478385D01*
X70454454Y-36641795D01*
X70406479Y-36692591D01*
X70343969Y-36709500D01*
X66728018Y-36709500D01*
X66660979Y-36689815D01*
X66624914Y-36654388D01*
X66621788Y-36649709D01*
X66510292Y-36538213D01*
X66510288Y-36538210D01*
X66379185Y-36450609D01*
X66379172Y-36450602D01*
X66233501Y-36390264D01*
X66233489Y-36390261D01*
X66078845Y-36359500D01*
X66078842Y-36359500D01*
X65921158Y-36359500D01*
X65921155Y-36359500D01*
X65766510Y-36390261D01*
X65766498Y-36390264D01*
X65620827Y-36450602D01*
X65620814Y-36450609D01*
X65489711Y-36538210D01*
X65489707Y-36538213D01*
X65378213Y-36649707D01*
X65378210Y-36649711D01*
X65290609Y-36780814D01*
X65290602Y-36780827D01*
X65230264Y-36926498D01*
X65230261Y-36926510D01*
X65199500Y-37081153D01*
X65199500Y-37238846D01*
X65230261Y-37393489D01*
X65230264Y-37393501D01*
X65290602Y-37539172D01*
X65290609Y-37539185D01*
X65378210Y-37670288D01*
X65378213Y-37670292D01*
X65489707Y-37781786D01*
X65489711Y-37781789D01*
X65620814Y-37869390D01*
X65620827Y-37869397D01*
X65763536Y-37928508D01*
X65766503Y-37929737D01*
X65921153Y-37960499D01*
X65921156Y-37960500D01*
X65921158Y-37960500D01*
X66078844Y-37960500D01*
X66078845Y-37960499D01*
X66233497Y-37929737D01*
X66379179Y-37869394D01*
X66510289Y-37781789D01*
X66621789Y-37670289D01*
X66624914Y-37665611D01*
X66678525Y-37620806D01*
X66728018Y-37610500D01*
X70343969Y-37610500D01*
X70411008Y-37630185D01*
X70454454Y-37678205D01*
X70537715Y-37841614D01*
X70658028Y-38007213D01*
X70802786Y-38151971D01*
X70957749Y-38264556D01*
X70968390Y-38272287D01*
X71043385Y-38310499D01*
X71061080Y-38319515D01*
X71111876Y-38367490D01*
X71128671Y-38435311D01*
X71106134Y-38501446D01*
X71061080Y-38540485D01*
X70968386Y-38587715D01*
X70802786Y-38708028D01*
X70658028Y-38852786D01*
X70537715Y-39018386D01*
X70444781Y-39200776D01*
X70381522Y-39395465D01*
X70349500Y-39597648D01*
X70349500Y-39802351D01*
X70381522Y-40004534D01*
X70444781Y-40199223D01*
X70537715Y-40381613D01*
X70658028Y-40547213D01*
X70802786Y-40691971D01*
X70957749Y-40804556D01*
X70968390Y-40812287D01*
X71059840Y-40858883D01*
X71061080Y-40859515D01*
X71111876Y-40907490D01*
X71128671Y-40975311D01*
X71106134Y-41041446D01*
X71061080Y-41080485D01*
X70968386Y-41127715D01*
X70802786Y-41248028D01*
X70658028Y-41392786D01*
X70537715Y-41558385D01*
X70454454Y-41721795D01*
X70406479Y-41772591D01*
X70343969Y-41789500D01*
X65728018Y-41789500D01*
X65660979Y-41769815D01*
X65624914Y-41734388D01*
X65621788Y-41729709D01*
X65510292Y-41618213D01*
X65510288Y-41618210D01*
X65379185Y-41530609D01*
X65379172Y-41530602D01*
X65233501Y-41470264D01*
X65233489Y-41470261D01*
X65078845Y-41439500D01*
X65078842Y-41439500D01*
X64921158Y-41439500D01*
X64921155Y-41439500D01*
X64766510Y-41470261D01*
X64766498Y-41470264D01*
X64620827Y-41530602D01*
X64620814Y-41530609D01*
X64489711Y-41618210D01*
X64489707Y-41618213D01*
X64378213Y-41729707D01*
X64378210Y-41729711D01*
X64290609Y-41860814D01*
X64290602Y-41860827D01*
X64230264Y-42006498D01*
X64230261Y-42006510D01*
X64199500Y-42161153D01*
X64199500Y-42318846D01*
X64230261Y-42473489D01*
X64230264Y-42473501D01*
X64290602Y-42619172D01*
X64290609Y-42619185D01*
X64378210Y-42750288D01*
X64378213Y-42750292D01*
X64489707Y-42861786D01*
X64489711Y-42861789D01*
X64620814Y-42949390D01*
X64620827Y-42949397D01*
X64766498Y-43009735D01*
X64766503Y-43009737D01*
X64921153Y-43040499D01*
X64921156Y-43040500D01*
X64921158Y-43040500D01*
X65078844Y-43040500D01*
X65078845Y-43040499D01*
X65233497Y-43009737D01*
X65379179Y-42949394D01*
X65510289Y-42861789D01*
X65621789Y-42750289D01*
X65624914Y-42745611D01*
X65678525Y-42700806D01*
X65728018Y-42690500D01*
X70343969Y-42690500D01*
X70411008Y-42710185D01*
X70454454Y-42758205D01*
X70537715Y-42921614D01*
X70658028Y-43087213D01*
X70802786Y-43231971D01*
X70957749Y-43344556D01*
X70968390Y-43352287D01*
X71059840Y-43398883D01*
X71061080Y-43399515D01*
X71111876Y-43447490D01*
X71128671Y-43515311D01*
X71106134Y-43581446D01*
X71061080Y-43620485D01*
X70968386Y-43667715D01*
X70802786Y-43788028D01*
X70658028Y-43932786D01*
X70537715Y-44098385D01*
X70454454Y-44261795D01*
X70406479Y-44312591D01*
X70343969Y-44329500D01*
X63728018Y-44329500D01*
X63660979Y-44309815D01*
X63624914Y-44274388D01*
X63621788Y-44269709D01*
X63510292Y-44158213D01*
X63510288Y-44158210D01*
X63379185Y-44070609D01*
X63379172Y-44070602D01*
X63233501Y-44010264D01*
X63233489Y-44010261D01*
X63078845Y-43979500D01*
X63078842Y-43979500D01*
X62921158Y-43979500D01*
X62921155Y-43979500D01*
X62766510Y-44010261D01*
X62766498Y-44010264D01*
X62620827Y-44070602D01*
X62620814Y-44070609D01*
X62489711Y-44158210D01*
X62489707Y-44158213D01*
X62378213Y-44269707D01*
X62378210Y-44269711D01*
X62290609Y-44400814D01*
X62290602Y-44400827D01*
X62230264Y-44546498D01*
X62230261Y-44546510D01*
X62199500Y-44701153D01*
X62199500Y-44858846D01*
X62230261Y-45013489D01*
X62230264Y-45013501D01*
X62290602Y-45159172D01*
X62290609Y-45159185D01*
X62378210Y-45290288D01*
X62378213Y-45290292D01*
X62489707Y-45401786D01*
X62489711Y-45401789D01*
X62620814Y-45489390D01*
X62620827Y-45489397D01*
X62759596Y-45546876D01*
X62766503Y-45549737D01*
X62921153Y-45580499D01*
X62921156Y-45580500D01*
X62921158Y-45580500D01*
X63078844Y-45580500D01*
X63078845Y-45580499D01*
X63233497Y-45549737D01*
X63379179Y-45489394D01*
X63510289Y-45401789D01*
X63621789Y-45290289D01*
X63624914Y-45285611D01*
X63678525Y-45240806D01*
X63728018Y-45230500D01*
X70343969Y-45230500D01*
X70411008Y-45250185D01*
X70454454Y-45298205D01*
X70537715Y-45461614D01*
X70658028Y-45627213D01*
X70802786Y-45771971D01*
X70957749Y-45884556D01*
X70968390Y-45892287D01*
X71076573Y-45947409D01*
X71150776Y-45985218D01*
X71150778Y-45985218D01*
X71150781Y-45985220D01*
X71255137Y-46019127D01*
X71345465Y-46048477D01*
X71446557Y-46064488D01*
X71547648Y-46080500D01*
X71547649Y-46080500D01*
X71752351Y-46080500D01*
X71752352Y-46080500D01*
X71954534Y-46048477D01*
X72149219Y-45985220D01*
X72331610Y-45892287D01*
X72424590Y-45824732D01*
X72497213Y-45771971D01*
X72497215Y-45771968D01*
X72497219Y-45771966D01*
X72641966Y-45627219D01*
X72641968Y-45627215D01*
X72641971Y-45627213D01*
X72698259Y-45549738D01*
X72762287Y-45461610D01*
X72855220Y-45279219D01*
X72918477Y-45084534D01*
X72950500Y-44882352D01*
X72950500Y-44677648D01*
X72936144Y-44587007D01*
X72918477Y-44475465D01*
X72871050Y-44329500D01*
X72855220Y-44280781D01*
X72855218Y-44280778D01*
X72855218Y-44280776D01*
X72792767Y-44158211D01*
X72762287Y-44098390D01*
X72742098Y-44070602D01*
X72641971Y-43932786D01*
X72497213Y-43788028D01*
X72331614Y-43667715D01*
X72325006Y-43664348D01*
X72238917Y-43620483D01*
X72188123Y-43572511D01*
X72171328Y-43504690D01*
X72193865Y-43438555D01*
X72238917Y-43399516D01*
X72331610Y-43352287D01*
X72352770Y-43336913D01*
X72497213Y-43231971D01*
X72497215Y-43231968D01*
X72497219Y-43231966D01*
X72641966Y-43087219D01*
X72641968Y-43087215D01*
X72641971Y-43087213D01*
X72698259Y-43009738D01*
X72762287Y-42921610D01*
X72855220Y-42739219D01*
X72918477Y-42544534D01*
X72950500Y-42342352D01*
X72950500Y-42137648D01*
X72943394Y-42092781D01*
X72918477Y-41935465D01*
X72871050Y-41789500D01*
X72855220Y-41740781D01*
X72855218Y-41740778D01*
X72855218Y-41740776D01*
X72816305Y-41664407D01*
X72762287Y-41558390D01*
X72742098Y-41530602D01*
X72641971Y-41392786D01*
X72497213Y-41248028D01*
X72331614Y-41127715D01*
X72325006Y-41124348D01*
X72238917Y-41080483D01*
X72188123Y-41032511D01*
X72171328Y-40964690D01*
X72193865Y-40898555D01*
X72238917Y-40859516D01*
X72331610Y-40812287D01*
X72476517Y-40707007D01*
X72497213Y-40691971D01*
X72497215Y-40691968D01*
X72497219Y-40691966D01*
X72641966Y-40547219D01*
X72641968Y-40547215D01*
X72641971Y-40547213D01*
X72701101Y-40465826D01*
X72762287Y-40381610D01*
X72855220Y-40199219D01*
X72918477Y-40004534D01*
X72950500Y-39802352D01*
X72950500Y-39597648D01*
X72918477Y-39395466D01*
X72855220Y-39200781D01*
X72855218Y-39200778D01*
X72855218Y-39200776D01*
X72787447Y-39067770D01*
X72762287Y-39018390D01*
X72754556Y-39007749D01*
X72641971Y-38852786D01*
X72497213Y-38708028D01*
X72331614Y-38587715D01*
X72265152Y-38553851D01*
X72238917Y-38540483D01*
X72188123Y-38492511D01*
X72171328Y-38424690D01*
X72193865Y-38358555D01*
X72238917Y-38319516D01*
X72331610Y-38272287D01*
X72402903Y-38220490D01*
X72497213Y-38151971D01*
X72497215Y-38151968D01*
X72497219Y-38151966D01*
X72641966Y-38007219D01*
X72641968Y-38007215D01*
X72641971Y-38007213D01*
X72698259Y-37929738D01*
X72762287Y-37841610D01*
X72855220Y-37659219D01*
X72918477Y-37464534D01*
X72950500Y-37262352D01*
X72950500Y-37057648D01*
X72930129Y-36929034D01*
X72918477Y-36855465D01*
X72871050Y-36709500D01*
X72855220Y-36660781D01*
X72855218Y-36660778D01*
X72855218Y-36660776D01*
X72792767Y-36538211D01*
X72762287Y-36478390D01*
X72742098Y-36450602D01*
X72641971Y-36312786D01*
X72497213Y-36168028D01*
X72331614Y-36047715D01*
X72312155Y-36037800D01*
X72238917Y-36000483D01*
X72188123Y-35952511D01*
X72171328Y-35884690D01*
X72193865Y-35818555D01*
X72238917Y-35779516D01*
X72331610Y-35732287D01*
X72352770Y-35716913D01*
X72497213Y-35611971D01*
X72497215Y-35611968D01*
X72497219Y-35611966D01*
X72641966Y-35467219D01*
X72641968Y-35467215D01*
X72641971Y-35467213D01*
X72706461Y-35378449D01*
X72762287Y-35301610D01*
X72855220Y-35119219D01*
X72918477Y-34924534D01*
X72950500Y-34722352D01*
X72950500Y-34517648D01*
X72918477Y-34315466D01*
X72855220Y-34120781D01*
X72855218Y-34120778D01*
X72855218Y-34120776D01*
X72816450Y-34044690D01*
X72762287Y-33938390D01*
X72754556Y-33927749D01*
X72641971Y-33772786D01*
X72497213Y-33628028D01*
X72331614Y-33507715D01*
X72325006Y-33504348D01*
X72238917Y-33460483D01*
X72188123Y-33412511D01*
X72171328Y-33344690D01*
X72193865Y-33278555D01*
X72238917Y-33239516D01*
X72331610Y-33192287D01*
X72376885Y-33159393D01*
X72497213Y-33071971D01*
X72497215Y-33071968D01*
X72497219Y-33071966D01*
X72641966Y-32927219D01*
X72641968Y-32927215D01*
X72641971Y-32927213D01*
X72707832Y-32836561D01*
X72762287Y-32761610D01*
X72855220Y-32579219D01*
X72918477Y-32384534D01*
X72950500Y-32182352D01*
X72950500Y-31977648D01*
X72918477Y-31775466D01*
X72917866Y-31773587D01*
X72868544Y-31621789D01*
X72855220Y-31580781D01*
X72855218Y-31580778D01*
X72855218Y-31580776D01*
X72818379Y-31508477D01*
X72762287Y-31398390D01*
X72748324Y-31379172D01*
X72641971Y-31232786D01*
X72497213Y-31088028D01*
X72331614Y-30967715D01*
X72278576Y-30940691D01*
X72238917Y-30920483D01*
X72188123Y-30872511D01*
X72171328Y-30804690D01*
X72193865Y-30738555D01*
X72238917Y-30699516D01*
X72331610Y-30652287D01*
X72417727Y-30589720D01*
X72497213Y-30531971D01*
X72497215Y-30531968D01*
X72497219Y-30531966D01*
X72641966Y-30387219D01*
X72641968Y-30387215D01*
X72641971Y-30387213D01*
X72701101Y-30305826D01*
X72762287Y-30221610D01*
X72855220Y-30039219D01*
X72918477Y-29844534D01*
X72950500Y-29642352D01*
X72950500Y-29437648D01*
X72920467Y-29248028D01*
X72918477Y-29235465D01*
X72871050Y-29089500D01*
X72855220Y-29040781D01*
X72855218Y-29040778D01*
X72855218Y-29040776D01*
X72816450Y-28964690D01*
X72762287Y-28858390D01*
X72754556Y-28847749D01*
X72641971Y-28692786D01*
X72497213Y-28548028D01*
X72331614Y-28427715D01*
X72325006Y-28424348D01*
X72238917Y-28380483D01*
X72188123Y-28332511D01*
X72171328Y-28264690D01*
X72193865Y-28198555D01*
X72238917Y-28159516D01*
X72331610Y-28112287D01*
X72352770Y-28096913D01*
X72497213Y-27991971D01*
X72497215Y-27991968D01*
X72497219Y-27991966D01*
X72641966Y-27847219D01*
X72641968Y-27847215D01*
X72641971Y-27847213D01*
X72694732Y-27774590D01*
X72762287Y-27681610D01*
X72855220Y-27499219D01*
X72918477Y-27304534D01*
X72950500Y-27102352D01*
X72950500Y-26897648D01*
X72918477Y-26695466D01*
X72906953Y-26660000D01*
X72883466Y-26587713D01*
X72855220Y-26500781D01*
X72855218Y-26500778D01*
X72855218Y-26500776D01*
X72816450Y-26424690D01*
X72762287Y-26318390D01*
X72754556Y-26307749D01*
X72641971Y-26152786D01*
X72497213Y-26008028D01*
X72331613Y-25887715D01*
X72331612Y-25887714D01*
X72331610Y-25887713D01*
X72274653Y-25858691D01*
X72149223Y-25794781D01*
X71954534Y-25731522D01*
X71779995Y-25703878D01*
X71752352Y-25699500D01*
X71547648Y-25699500D01*
X71523329Y-25703351D01*
X71345465Y-25731522D01*
X71150776Y-25794781D01*
X70968386Y-25887715D01*
X70802786Y-26008028D01*
X70658028Y-26152786D01*
X70537715Y-26318386D01*
X70444781Y-26500776D01*
X70381522Y-26695465D01*
X70349500Y-26897648D01*
X70349500Y-27102351D01*
X70381522Y-27304534D01*
X70444781Y-27499223D01*
X70537715Y-27681613D01*
X70658028Y-27847213D01*
X70802786Y-27991971D01*
X70957749Y-28104556D01*
X70968390Y-28112287D01*
X71043387Y-28150500D01*
X71061080Y-28159515D01*
X71111876Y-28207490D01*
X71128671Y-28275311D01*
X71106134Y-28341446D01*
X71061080Y-28380485D01*
X70968386Y-28427715D01*
X70802786Y-28548028D01*
X70658028Y-28692786D01*
X70537715Y-28858385D01*
X70496385Y-28939500D01*
X70456892Y-29017011D01*
X70454454Y-29021795D01*
X70406479Y-29072591D01*
X70343969Y-29089500D01*
X61574500Y-29089500D01*
X61507461Y-29069815D01*
X61461706Y-29017011D01*
X61450500Y-28965500D01*
X61450500Y-17480693D01*
X61450500Y-17480691D01*
X61419799Y-17366114D01*
X61360489Y-17263387D01*
X61276613Y-17179511D01*
X61173886Y-17120201D01*
X61059309Y-17089500D01*
X61059306Y-17089500D01*
X54546031Y-17089500D01*
X54478992Y-17069815D01*
X54435546Y-17021795D01*
X54352287Y-16858390D01*
X54352285Y-16858387D01*
X54352284Y-16858385D01*
X54231971Y-16692786D01*
X54087213Y-16548028D01*
X53921611Y-16427713D01*
X53828369Y-16380203D01*
X53777574Y-16332229D01*
X53760779Y-16264407D01*
X53783317Y-16198273D01*
X53828371Y-16159234D01*
X53921347Y-16111861D01*
X54006876Y-16049719D01*
X54006877Y-16049718D01*
X53425178Y-15468019D01*
X53432993Y-15465925D01*
X53547007Y-15400099D01*
X53640099Y-15307007D01*
X53705925Y-15192993D01*
X53708019Y-15185177D01*
X54289718Y-15766877D01*
X54289719Y-15766876D01*
X54351859Y-15681349D01*
X54444755Y-15499031D01*
X54507990Y-15304417D01*
X54540000Y-15102317D01*
X54540000Y-14897682D01*
X54507990Y-14695582D01*
X54444755Y-14500968D01*
X54351858Y-14318649D01*
X54351852Y-14318640D01*
X54289720Y-14233122D01*
X54289719Y-14233121D01*
X53708019Y-14814821D01*
X53705925Y-14807007D01*
X53640099Y-14692993D01*
X53547007Y-14599901D01*
X53432993Y-14534075D01*
X53425176Y-14531980D01*
X54006876Y-13950279D01*
X53921347Y-13888139D01*
X53739031Y-13795244D01*
X53544417Y-13732009D01*
X53342317Y-13700000D01*
X53137683Y-13700000D01*
X52935582Y-13732009D01*
X52740968Y-13795244D01*
X52558648Y-13888141D01*
X52473122Y-13950278D01*
X52473122Y-13950279D01*
X53054823Y-14531980D01*
X53047007Y-14534075D01*
X52932993Y-14599901D01*
X52839901Y-14692993D01*
X52774075Y-14807007D01*
X52771980Y-14814823D01*
X52190279Y-14233122D01*
X52190278Y-14233122D01*
X52128141Y-14318648D01*
X52035244Y-14500968D01*
X51972009Y-14695582D01*
X51940000Y-14897682D01*
X51940000Y-15102317D01*
X51972009Y-15304417D01*
X52035244Y-15499031D01*
X52128139Y-15681347D01*
X52190279Y-15766876D01*
X52771980Y-15185176D01*
X52774075Y-15192993D01*
X52839901Y-15307007D01*
X52932993Y-15400099D01*
X53047007Y-15465925D01*
X53054822Y-15468019D01*
X52473121Y-16049719D01*
X52473122Y-16049720D01*
X52558640Y-16111852D01*
X52558654Y-16111861D01*
X52651629Y-16159234D01*
X52702426Y-16207208D01*
X52719221Y-16275029D01*
X52696684Y-16341164D01*
X52651631Y-16380203D01*
X52558388Y-16427713D01*
X52392786Y-16548028D01*
X52248028Y-16692786D01*
X52127715Y-16858386D01*
X52034781Y-17040776D01*
X51971522Y-17235465D01*
X51939500Y-17437648D01*
X51939500Y-17642351D01*
X51971522Y-17844534D01*
X52034781Y-18039223D01*
X52127715Y-18221613D01*
X52248028Y-18387213D01*
X52392786Y-18531971D01*
X52547749Y-18644556D01*
X52558390Y-18652287D01*
X52649840Y-18698883D01*
X52651080Y-18699515D01*
X52701876Y-18747490D01*
X52718671Y-18815311D01*
X52696134Y-18881446D01*
X52651080Y-18920485D01*
X52558386Y-18967715D01*
X52392786Y-19088028D01*
X52248028Y-19232786D01*
X52127715Y-19398386D01*
X52034781Y-19580776D01*
X51971522Y-19775465D01*
X51939500Y-19977648D01*
X51939500Y-20182351D01*
X51971522Y-20384534D01*
X52034781Y-20579223D01*
X52127715Y-20761613D01*
X52248028Y-20927213D01*
X52392786Y-21071971D01*
X52494441Y-21145826D01*
X52558390Y-21192287D01*
X52649840Y-21238883D01*
X52651080Y-21239515D01*
X52701876Y-21287490D01*
X52718671Y-21355311D01*
X52696134Y-21421446D01*
X52651080Y-21460485D01*
X52558386Y-21507715D01*
X52392786Y-21628028D01*
X52248028Y-21772786D01*
X52127715Y-21938386D01*
X52034781Y-22120776D01*
X51971522Y-22315465D01*
X51939500Y-22517648D01*
X51939500Y-22722351D01*
X51971522Y-22924534D01*
X52034781Y-23119223D01*
X52127715Y-23301613D01*
X52248028Y-23467213D01*
X52392786Y-23611971D01*
X52547749Y-23724556D01*
X52558390Y-23732287D01*
X52649840Y-23778883D01*
X52651080Y-23779515D01*
X52701876Y-23827490D01*
X52718671Y-23895311D01*
X52696134Y-23961446D01*
X52651080Y-24000485D01*
X52558386Y-24047715D01*
X52392786Y-24168028D01*
X52248028Y-24312786D01*
X52127715Y-24478386D01*
X52034781Y-24660776D01*
X51971522Y-24855465D01*
X51939500Y-25057648D01*
X51939500Y-25262351D01*
X51971522Y-25464534D01*
X52034781Y-25659223D01*
X52127715Y-25841613D01*
X52248028Y-26007213D01*
X52392786Y-26151971D01*
X52494441Y-26225826D01*
X52558390Y-26272287D01*
X52648864Y-26318386D01*
X52651080Y-26319515D01*
X52701876Y-26367490D01*
X52718671Y-26435311D01*
X52696134Y-26501446D01*
X52651080Y-26540485D01*
X52558386Y-26587715D01*
X52392786Y-26708028D01*
X52248028Y-26852786D01*
X52127715Y-27018385D01*
X52044454Y-27181795D01*
X51996479Y-27232591D01*
X51933969Y-27249500D01*
X44059309Y-27249500D01*
X43940691Y-27249500D01*
X43826114Y-27280201D01*
X43826112Y-27280201D01*
X43826112Y-27280202D01*
X43723387Y-27339511D01*
X43723384Y-27339513D01*
X43639513Y-27423384D01*
X43639511Y-27423387D01*
X43580201Y-27526114D01*
X43549500Y-27640691D01*
X43549500Y-27640693D01*
X43549500Y-59895575D01*
X43529815Y-59962614D01*
X43477011Y-60008369D01*
X43407853Y-60018313D01*
X43378048Y-60010137D01*
X43330314Y-59990365D01*
X43233497Y-59950263D01*
X43233492Y-59950262D01*
X43233489Y-59950261D01*
X43078845Y-59919500D01*
X43078842Y-59919500D01*
X28929033Y-59919500D01*
X28861994Y-59899815D01*
X28834748Y-59876038D01*
X28831964Y-59872779D01*
X28687213Y-59728028D01*
X28521614Y-59607715D01*
X28515006Y-59604348D01*
X28428917Y-59560483D01*
X28378123Y-59512511D01*
X28361328Y-59444690D01*
X28383865Y-59378555D01*
X28428917Y-59339516D01*
X28521610Y-59292287D01*
X28607727Y-59229720D01*
X28687213Y-59171971D01*
X28687215Y-59171968D01*
X28687219Y-59171966D01*
X28831966Y-59027219D01*
X28831968Y-59027215D01*
X28831971Y-59027213D01*
X28890338Y-58946876D01*
X28952287Y-58861610D01*
X29045220Y-58679219D01*
X29108477Y-58484534D01*
X29140500Y-58282352D01*
X29140500Y-58077648D01*
X29111913Y-57897157D01*
X29108477Y-57875465D01*
X29056038Y-57714075D01*
X29045220Y-57680781D01*
X29045218Y-57680778D01*
X29045218Y-57680776D01*
X29011503Y-57614607D01*
X28952287Y-57498390D01*
X28890337Y-57413122D01*
X28831971Y-57332786D01*
X28687213Y-57188028D01*
X28521614Y-57067715D01*
X28515006Y-57064348D01*
X28428917Y-57020483D01*
X28378123Y-56972511D01*
X28361328Y-56904690D01*
X28383865Y-56838555D01*
X28428917Y-56799516D01*
X28521610Y-56752287D01*
X28607727Y-56689720D01*
X28687213Y-56631971D01*
X28687215Y-56631968D01*
X28687219Y-56631966D01*
X28831966Y-56487219D01*
X28831968Y-56487215D01*
X28831971Y-56487213D01*
X28890338Y-56406876D01*
X28952287Y-56321610D01*
X29045220Y-56139219D01*
X29108477Y-55944534D01*
X29140500Y-55742352D01*
X29140500Y-55537648D01*
X29111913Y-55357157D01*
X29108477Y-55335465D01*
X29056038Y-55174075D01*
X29045220Y-55140781D01*
X29045218Y-55140778D01*
X29045218Y-55140776D01*
X29011503Y-55074607D01*
X28952287Y-54958390D01*
X28890337Y-54873122D01*
X28831971Y-54792786D01*
X28687213Y-54648028D01*
X28521614Y-54527715D01*
X28515006Y-54524348D01*
X28428917Y-54480483D01*
X28378123Y-54432511D01*
X28361328Y-54364690D01*
X28383865Y-54298555D01*
X28428917Y-54259516D01*
X28521610Y-54212287D01*
X28542770Y-54196913D01*
X28687213Y-54091971D01*
X28687215Y-54091968D01*
X28687219Y-54091966D01*
X28831966Y-53947219D01*
X28831968Y-53947215D01*
X28831971Y-53947213D01*
X28884732Y-53874590D01*
X28952287Y-53781610D01*
X29045220Y-53599219D01*
X29108477Y-53404534D01*
X29140500Y-53202352D01*
X29140500Y-52997648D01*
X29108477Y-52795466D01*
X29045220Y-52600781D01*
X29045218Y-52600778D01*
X29045218Y-52600776D01*
X29011503Y-52534607D01*
X28952287Y-52418390D01*
X28944556Y-52407749D01*
X28831971Y-52252786D01*
X28687213Y-52108028D01*
X28521614Y-51987715D01*
X28515006Y-51984348D01*
X28428917Y-51940483D01*
X28378123Y-51892511D01*
X28361328Y-51824690D01*
X28383865Y-51758555D01*
X28428917Y-51719516D01*
X28521610Y-51672287D01*
X28542770Y-51656913D01*
X28687213Y-51551971D01*
X28687215Y-51551968D01*
X28687219Y-51551966D01*
X28831966Y-51407219D01*
X28831968Y-51407215D01*
X28831971Y-51407213D01*
X28909502Y-51300499D01*
X28952287Y-51241610D01*
X29045220Y-51059219D01*
X29108477Y-50864534D01*
X29140500Y-50662352D01*
X29140500Y-50457648D01*
X29108477Y-50255466D01*
X29045220Y-50060781D01*
X29045218Y-50060778D01*
X29045218Y-50060776D01*
X29009007Y-49989709D01*
X28952287Y-49878390D01*
X28914344Y-49826165D01*
X28831971Y-49712786D01*
X28687213Y-49568028D01*
X28521611Y-49447713D01*
X28428369Y-49400203D01*
X28377574Y-49352229D01*
X28360779Y-49284407D01*
X28383317Y-49218273D01*
X28428371Y-49179234D01*
X28521347Y-49131861D01*
X28606876Y-49069719D01*
X28606877Y-49069718D01*
X28025178Y-48488019D01*
X28032993Y-48485925D01*
X28147007Y-48420099D01*
X28240099Y-48327007D01*
X28305925Y-48212993D01*
X28308019Y-48205177D01*
X28889718Y-48786877D01*
X28889719Y-48786876D01*
X28951859Y-48701349D01*
X29044755Y-48519031D01*
X29107990Y-48324417D01*
X29140000Y-48122317D01*
X29140000Y-47917682D01*
X29107990Y-47715582D01*
X29044755Y-47520968D01*
X28951858Y-47338649D01*
X28951852Y-47338640D01*
X28889720Y-47253122D01*
X28889719Y-47253121D01*
X28308019Y-47834821D01*
X28305925Y-47827007D01*
X28240099Y-47712993D01*
X28147007Y-47619901D01*
X28032993Y-47554075D01*
X28025176Y-47551980D01*
X28606876Y-46970279D01*
X28521347Y-46908139D01*
X28428369Y-46860765D01*
X28377573Y-46812790D01*
X28360778Y-46744969D01*
X28383315Y-46678835D01*
X28428370Y-46639795D01*
X28428920Y-46639515D01*
X28521610Y-46592287D01*
X28571144Y-46556298D01*
X28687213Y-46471971D01*
X28687215Y-46471968D01*
X28687219Y-46471966D01*
X28831966Y-46327219D01*
X28831968Y-46327215D01*
X28831971Y-46327213D01*
X28889500Y-46248029D01*
X28952287Y-46161610D01*
X29045220Y-45979219D01*
X29108477Y-45784534D01*
X29140500Y-45582352D01*
X29140500Y-45377648D01*
X29126664Y-45290290D01*
X29108477Y-45175465D01*
X29055847Y-45013489D01*
X29045220Y-44980781D01*
X29045218Y-44980778D01*
X29045218Y-44980776D01*
X28995050Y-44882317D01*
X28952287Y-44798390D01*
X28938925Y-44779999D01*
X28831971Y-44632786D01*
X28687213Y-44488028D01*
X28521614Y-44367715D01*
X28515006Y-44364348D01*
X28428917Y-44320483D01*
X28378123Y-44272511D01*
X28361328Y-44204690D01*
X28383865Y-44138555D01*
X28428917Y-44099516D01*
X28521610Y-44052287D01*
X28542770Y-44036913D01*
X28687213Y-43931971D01*
X28687215Y-43931968D01*
X28687219Y-43931966D01*
X28831966Y-43787219D01*
X28831968Y-43787215D01*
X28831971Y-43787213D01*
X28889500Y-43708029D01*
X28952287Y-43621610D01*
X29045220Y-43439219D01*
X29108477Y-43244534D01*
X29140500Y-43042352D01*
X29140500Y-42837648D01*
X29126664Y-42750290D01*
X29108477Y-42635465D01*
X29055847Y-42473489D01*
X29045220Y-42440781D01*
X29045218Y-42440778D01*
X29045218Y-42440776D01*
X28995067Y-42342351D01*
X28952287Y-42258390D01*
X28944556Y-42247749D01*
X28831971Y-42092786D01*
X28687213Y-41948028D01*
X28521614Y-41827715D01*
X28515006Y-41824348D01*
X28428917Y-41780483D01*
X28378123Y-41732511D01*
X28361328Y-41664690D01*
X28383865Y-41598555D01*
X28428917Y-41559516D01*
X28521610Y-41512287D01*
X28579452Y-41470263D01*
X28687213Y-41391971D01*
X28687215Y-41391968D01*
X28687219Y-41391966D01*
X28831966Y-41247219D01*
X28831968Y-41247215D01*
X28831971Y-41247213D01*
X28918791Y-41127713D01*
X28952287Y-41081610D01*
X29045220Y-40899219D01*
X29108477Y-40704534D01*
X29140500Y-40502352D01*
X29140500Y-40297648D01*
X29111913Y-40117157D01*
X29108477Y-40095465D01*
X29056038Y-39934075D01*
X29045220Y-39900781D01*
X29045218Y-39900778D01*
X29045218Y-39900776D01*
X28995067Y-39802351D01*
X28952287Y-39718390D01*
X28890337Y-39633122D01*
X28831971Y-39552786D01*
X28687213Y-39408028D01*
X28521614Y-39287715D01*
X28515006Y-39284348D01*
X28428917Y-39240483D01*
X28378123Y-39192511D01*
X28361328Y-39124690D01*
X28383865Y-39058555D01*
X28428917Y-39019516D01*
X28521610Y-38972287D01*
X28581143Y-38929034D01*
X28687213Y-38851971D01*
X28687215Y-38851968D01*
X28687219Y-38851966D01*
X28831966Y-38707219D01*
X28831968Y-38707215D01*
X28831971Y-38707213D01*
X28943393Y-38553851D01*
X28952287Y-38541610D01*
X29045220Y-38359219D01*
X29108477Y-38164534D01*
X29140500Y-37962352D01*
X29140500Y-37757648D01*
X29126664Y-37670290D01*
X29108477Y-37555465D01*
X29055666Y-37392932D01*
X29045220Y-37360781D01*
X29045218Y-37360778D01*
X29045218Y-37360776D01*
X28995067Y-37262351D01*
X28952287Y-37178390D01*
X28944507Y-37167681D01*
X28831971Y-37012786D01*
X28687213Y-36868028D01*
X28521614Y-36747715D01*
X28515006Y-36744348D01*
X28428917Y-36700483D01*
X28378123Y-36652511D01*
X28361328Y-36584690D01*
X28383865Y-36518555D01*
X28428917Y-36479516D01*
X28521610Y-36432287D01*
X28579452Y-36390263D01*
X28687213Y-36311971D01*
X28687215Y-36311968D01*
X28687219Y-36311966D01*
X28831966Y-36167219D01*
X28831968Y-36167215D01*
X28831971Y-36167213D01*
X28924830Y-36039401D01*
X28952287Y-36001610D01*
X29045220Y-35819219D01*
X29108477Y-35624534D01*
X29140500Y-35422352D01*
X29140500Y-35217648D01*
X29108477Y-35015466D01*
X29045220Y-34820781D01*
X29045218Y-34820778D01*
X29045218Y-34820776D01*
X28989364Y-34711158D01*
X28952287Y-34638390D01*
X28944556Y-34627749D01*
X28831971Y-34472786D01*
X28687213Y-34328028D01*
X28521614Y-34207715D01*
X28494133Y-34193713D01*
X28428917Y-34160483D01*
X28378123Y-34112511D01*
X28361328Y-34044690D01*
X28383865Y-33978555D01*
X28428917Y-33939516D01*
X28521610Y-33892287D01*
X28542770Y-33876913D01*
X28687213Y-33771971D01*
X28687215Y-33771968D01*
X28687219Y-33771966D01*
X28831966Y-33627219D01*
X28831968Y-33627215D01*
X28831971Y-33627213D01*
X28895455Y-33539833D01*
X28952287Y-33461610D01*
X29045220Y-33279219D01*
X29108477Y-33084534D01*
X29140500Y-32882352D01*
X29140500Y-32677648D01*
X29108477Y-32475466D01*
X29045220Y-32280781D01*
X29045218Y-32280778D01*
X29045218Y-32280776D01*
X28958678Y-32110934D01*
X28952287Y-32098390D01*
X28925181Y-32061081D01*
X28831971Y-31932786D01*
X28687213Y-31788028D01*
X28521614Y-31667715D01*
X28494133Y-31653713D01*
X28428917Y-31620483D01*
X28378123Y-31572511D01*
X28361328Y-31504690D01*
X28383865Y-31438555D01*
X28428917Y-31399516D01*
X28521610Y-31352287D01*
X28607727Y-31289720D01*
X28687213Y-31231971D01*
X28687215Y-31231968D01*
X28687219Y-31231966D01*
X28831966Y-31087219D01*
X28831968Y-31087215D01*
X28831971Y-31087213D01*
X28893251Y-31002867D01*
X28952287Y-30921610D01*
X29045220Y-30739219D01*
X29108477Y-30544534D01*
X29140500Y-30342352D01*
X29140500Y-30137648D01*
X29109211Y-29940099D01*
X29108477Y-29935465D01*
X29056038Y-29774075D01*
X29045220Y-29740781D01*
X29045218Y-29740778D01*
X29045218Y-29740776D01*
X28995050Y-29642317D01*
X28952287Y-29558390D01*
X28938925Y-29539999D01*
X28831971Y-29392786D01*
X28687213Y-29248028D01*
X28521614Y-29127715D01*
X28515006Y-29124348D01*
X28428917Y-29080483D01*
X28378123Y-29032511D01*
X28361328Y-28964690D01*
X28383865Y-28898555D01*
X28428917Y-28859516D01*
X28521610Y-28812287D01*
X28542770Y-28796913D01*
X28687213Y-28691971D01*
X28687215Y-28691968D01*
X28687219Y-28691966D01*
X28831966Y-28547219D01*
X28831968Y-28547215D01*
X28831971Y-28547213D01*
X28884732Y-28474590D01*
X28952287Y-28381610D01*
X29045220Y-28199219D01*
X29108477Y-28004534D01*
X29140500Y-27802352D01*
X29140500Y-27597648D01*
X29118698Y-27460000D01*
X29108477Y-27395465D01*
X29061050Y-27249500D01*
X29045220Y-27200781D01*
X29045218Y-27200778D01*
X29045218Y-27200776D01*
X28995067Y-27102351D01*
X28952287Y-27018390D01*
X28944556Y-27007749D01*
X28831971Y-26852786D01*
X28687213Y-26708028D01*
X28521614Y-26587715D01*
X28515006Y-26584348D01*
X28428917Y-26540483D01*
X28378123Y-26492511D01*
X28361328Y-26424690D01*
X28383865Y-26358555D01*
X28428917Y-26319516D01*
X28521610Y-26272287D01*
X28585559Y-26225826D01*
X28687213Y-26151971D01*
X28687215Y-26151968D01*
X28687219Y-26151966D01*
X28831966Y-26007219D01*
X28831968Y-26007215D01*
X28831971Y-26007213D01*
X28918791Y-25887713D01*
X28952287Y-25841610D01*
X29045220Y-25659219D01*
X29108477Y-25464534D01*
X29140500Y-25262352D01*
X29140500Y-25057648D01*
X29138994Y-25048139D01*
X29108477Y-24855465D01*
X29060620Y-24708178D01*
X29045220Y-24660781D01*
X29045218Y-24660778D01*
X29045218Y-24660776D01*
X29006773Y-24585325D01*
X28952287Y-24478390D01*
X28924530Y-24440185D01*
X28831971Y-24312786D01*
X28687213Y-24168028D01*
X28521614Y-24047715D01*
X28515006Y-24044348D01*
X28428917Y-24000483D01*
X28378123Y-23952511D01*
X28361328Y-23884690D01*
X28383865Y-23818555D01*
X28428917Y-23779516D01*
X28521610Y-23732287D01*
X28542770Y-23716913D01*
X28687213Y-23611971D01*
X28687215Y-23611968D01*
X28687219Y-23611966D01*
X28831966Y-23467219D01*
X28831968Y-23467215D01*
X28831971Y-23467213D01*
X28884732Y-23394590D01*
X28952287Y-23301610D01*
X29045220Y-23119219D01*
X29108477Y-22924534D01*
X29140500Y-22722352D01*
X29140500Y-22517648D01*
X29136432Y-22491966D01*
X29108477Y-22315465D01*
X29068312Y-22191852D01*
X29045220Y-22120781D01*
X29045218Y-22120778D01*
X29045218Y-22120776D01*
X28983281Y-21999219D01*
X28952287Y-21938390D01*
X28885799Y-21846876D01*
X28831971Y-21772786D01*
X28687213Y-21628028D01*
X28521614Y-21507715D01*
X28515006Y-21504348D01*
X28428917Y-21460483D01*
X28378123Y-21412511D01*
X28361328Y-21344690D01*
X28383865Y-21278555D01*
X28428917Y-21239516D01*
X28521610Y-21192287D01*
X28585559Y-21145826D01*
X28687213Y-21071971D01*
X28687215Y-21071968D01*
X28687219Y-21071966D01*
X28831966Y-20927219D01*
X28831968Y-20927215D01*
X28831971Y-20927213D01*
X28911037Y-20818386D01*
X28952287Y-20761610D01*
X29045220Y-20579219D01*
X29108477Y-20384534D01*
X29140500Y-20182352D01*
X29140500Y-19977648D01*
X29138994Y-19968139D01*
X29108477Y-19775465D01*
X29045218Y-19580776D01*
X29006773Y-19505325D01*
X28952287Y-19398390D01*
X28899040Y-19325101D01*
X28831971Y-19232786D01*
X28687213Y-19088028D01*
X28521614Y-18967715D01*
X28515006Y-18964348D01*
X28428917Y-18920483D01*
X28378123Y-18872511D01*
X28361328Y-18804690D01*
X28383865Y-18738555D01*
X28428917Y-18699516D01*
X28521610Y-18652287D01*
X28542770Y-18636913D01*
X28687213Y-18531971D01*
X28687215Y-18531968D01*
X28687219Y-18531966D01*
X28831966Y-18387219D01*
X28831968Y-18387215D01*
X28831971Y-18387213D01*
X28892040Y-18304534D01*
X28952287Y-18221610D01*
X29045220Y-18039219D01*
X29108477Y-17844534D01*
X29140500Y-17642352D01*
X29140500Y-17437648D01*
X29124207Y-17334780D01*
X29108477Y-17235465D01*
X29061050Y-17089500D01*
X29045220Y-17040781D01*
X29045218Y-17040778D01*
X29045218Y-17040776D01*
X29011503Y-16974607D01*
X28952287Y-16858390D01*
X28906072Y-16794780D01*
X28831971Y-16692786D01*
X28687213Y-16548028D01*
X28521614Y-16427715D01*
X28515006Y-16424348D01*
X28428917Y-16380483D01*
X28378123Y-16332511D01*
X28361328Y-16264690D01*
X28383865Y-16198555D01*
X28428917Y-16159516D01*
X28521610Y-16112287D01*
X28607727Y-16049720D01*
X28687213Y-15991971D01*
X28687215Y-15991968D01*
X28687219Y-15991966D01*
X28831966Y-15847219D01*
X28831968Y-15847215D01*
X28831971Y-15847213D01*
X28890338Y-15766876D01*
X28952287Y-15681610D01*
X29045220Y-15499219D01*
X29108477Y-15304534D01*
X29140500Y-15102352D01*
X29140500Y-14897648D01*
X29124207Y-14794780D01*
X29108477Y-14695465D01*
X29062015Y-14552472D01*
X29045220Y-14500781D01*
X29045218Y-14500778D01*
X29045218Y-14500776D01*
X29011503Y-14434607D01*
X28952287Y-14318390D01*
X28928254Y-14285311D01*
X28831971Y-14152786D01*
X28687213Y-14008028D01*
X28521613Y-13887715D01*
X28521612Y-13887714D01*
X28521610Y-13887713D01*
X28464653Y-13858691D01*
X28339223Y-13794781D01*
X28144534Y-13731522D01*
X27969995Y-13703878D01*
X27942352Y-13699500D01*
X27737648Y-13699500D01*
X27713329Y-13703351D01*
X27535465Y-13731522D01*
X27340776Y-13794781D01*
X27158386Y-13887715D01*
X26992786Y-14008028D01*
X26848036Y-14152778D01*
X26848029Y-14152787D01*
X26823920Y-14185970D01*
X26768590Y-14228636D01*
X26701576Y-14235112D01*
X22425424Y-13463243D01*
X22425424Y-13463242D01*
X22420327Y-13462322D01*
X22372475Y-13449500D01*
X22349289Y-13449500D01*
X22338363Y-13447528D01*
X22338360Y-13447528D01*
X22326467Y-13445381D01*
X22326466Y-13445381D01*
X22307836Y-13446935D01*
X22282228Y-13449071D01*
X22271922Y-13449500D01*
X13020699Y-13449500D01*
X13009209Y-13446935D01*
X12948403Y-13449500D01*
X12887522Y-13449500D01*
X12878089Y-13452027D01*
X12876150Y-13452547D01*
X12864388Y-13453044D01*
X12806317Y-13471258D01*
X12803791Y-13471936D01*
X12803790Y-13471935D01*
X12747513Y-13487016D01*
X12747510Y-13487018D01*
X12737317Y-13492902D01*
X12726083Y-13496427D01*
X12674718Y-13529043D01*
X12672446Y-13530355D01*
X12672436Y-13530362D01*
X12621981Y-13559493D01*
X12615536Y-13564439D01*
X12615514Y-13564410D01*
X12609929Y-13568885D01*
X12609952Y-13568913D01*
X12603720Y-13574126D01*
X12564297Y-13617020D01*
X12562526Y-13618949D01*
X12519491Y-13661985D01*
X12513603Y-13672180D01*
X12505638Y-13680848D01*
X12505636Y-13680851D01*
X12478654Y-13732494D01*
X12477443Y-13734810D01*
X12447016Y-13787515D01*
X12443968Y-13798884D01*
X12438515Y-13809324D01*
X12425819Y-13866192D01*
X12425248Y-13868746D01*
X12409500Y-13927525D01*
X12409500Y-13939296D01*
X12406935Y-13950787D01*
X12409390Y-14008989D01*
X12409500Y-14014214D01*
X12409500Y-14072475D01*
X12412547Y-14083849D01*
X12413044Y-14095612D01*
X12431261Y-14153689D01*
X12431938Y-14156214D01*
X12431937Y-14156216D01*
X12447014Y-14212480D01*
X12450127Y-14219995D01*
X12450093Y-14220008D01*
X12452969Y-14226558D01*
X12453002Y-14226543D01*
X12456425Y-14233912D01*
X12456427Y-14233917D01*
X12456429Y-14233920D01*
X12487660Y-14283104D01*
X12489067Y-14285321D01*
X12519491Y-14338015D01*
X12527809Y-14346333D01*
X12535137Y-14357873D01*
X12535141Y-14357877D01*
X14361964Y-17234764D01*
X14381283Y-17301910D01*
X14367770Y-17357530D01*
X14294781Y-17500776D01*
X14231522Y-17695465D01*
X14199500Y-17897648D01*
X14199500Y-18102351D01*
X14231522Y-18304534D01*
X14294781Y-18499223D01*
X14387715Y-18681613D01*
X14508028Y-18847213D01*
X14508034Y-18847219D01*
X14652781Y-18991966D01*
X14818390Y-19112287D01*
X14881795Y-19144593D01*
X14932590Y-19192566D01*
X14949500Y-19255077D01*
X14949500Y-20244921D01*
X14929815Y-20311960D01*
X14881796Y-20355405D01*
X14818388Y-20387713D01*
X14652786Y-20508028D01*
X14508028Y-20652786D01*
X14387715Y-20818386D01*
X14294781Y-21000776D01*
X14231522Y-21195465D01*
X14199500Y-21397648D01*
X14199500Y-21602351D01*
X14231522Y-21804534D01*
X14294781Y-21999223D01*
X14387715Y-22181613D01*
X14508028Y-22347213D01*
X14652786Y-22491971D01*
X14799909Y-22598860D01*
X14818390Y-22612287D01*
X14934607Y-22671503D01*
X15000776Y-22705218D01*
X15000778Y-22705218D01*
X15000781Y-22705220D01*
X15053505Y-22722351D01*
X15195465Y-22768477D01*
X15296557Y-22784488D01*
X15397648Y-22800500D01*
X15397649Y-22800500D01*
X15602351Y-22800500D01*
X15602352Y-22800500D01*
X15804534Y-22768477D01*
X15999219Y-22705220D01*
X16181610Y-22612287D01*
X16292363Y-22531821D01*
X16347213Y-22491971D01*
X16347215Y-22491968D01*
X16347219Y-22491966D01*
X16491966Y-22347219D01*
X16491968Y-22347215D01*
X16491971Y-22347213D01*
X16604839Y-22191861D01*
X16612287Y-22181610D01*
X16705220Y-21999219D01*
X16768477Y-21804534D01*
X16800500Y-21602352D01*
X16800500Y-21397648D01*
X16768477Y-21195466D01*
X16705220Y-21000781D01*
X16705218Y-21000778D01*
X16705218Y-21000776D01*
X16647249Y-20887007D01*
X16612287Y-20818390D01*
X16604556Y-20807749D01*
X16491971Y-20652786D01*
X16347213Y-20508028D01*
X16181611Y-20387713D01*
X16118204Y-20355405D01*
X16067409Y-20307431D01*
X16050500Y-20244921D01*
X16050500Y-19255077D01*
X16070185Y-19188038D01*
X16118204Y-19144593D01*
X16181610Y-19112287D01*
X16347219Y-18991966D01*
X16491966Y-18847219D01*
X16491968Y-18847215D01*
X16491971Y-18847213D01*
X16564423Y-18747490D01*
X16612287Y-18681610D01*
X16705220Y-18499219D01*
X16768477Y-18304534D01*
X16800500Y-18102352D01*
X16800500Y-17897648D01*
X16768477Y-17695466D01*
X16767606Y-17692786D01*
X16705218Y-17500776D01*
X16643926Y-17380485D01*
X16612287Y-17318390D01*
X16580989Y-17275311D01*
X16491971Y-17152786D01*
X16347213Y-17008028D01*
X16181613Y-16887715D01*
X16181612Y-16887714D01*
X16181610Y-16887713D01*
X16124051Y-16858385D01*
X15999223Y-16794781D01*
X15804534Y-16731522D01*
X15629995Y-16703878D01*
X15602352Y-16699500D01*
X15397648Y-16699500D01*
X15394441Y-16699500D01*
X15327402Y-16679815D01*
X15289762Y-16641971D01*
X14205311Y-14934174D01*
X14082626Y-14740970D01*
X14063308Y-14673825D01*
X14083357Y-14606894D01*
X14136409Y-14561427D01*
X14187306Y-14550500D01*
X22239613Y-14550500D01*
X22261639Y-14552471D01*
X26507477Y-15318868D01*
X26569951Y-15350147D01*
X26603379Y-15402576D01*
X26634781Y-15499223D01*
X26727715Y-15681613D01*
X26848028Y-15847213D01*
X26992786Y-15991971D01*
X27147749Y-16104556D01*
X27158390Y-16112287D01*
X27249840Y-16158883D01*
X27251080Y-16159515D01*
X27301876Y-16207490D01*
X27318671Y-16275311D01*
X27296134Y-16341446D01*
X27251080Y-16380485D01*
X27158386Y-16427715D01*
X26992786Y-16548028D01*
X26848028Y-16692786D01*
X26727715Y-16858386D01*
X26634781Y-17040776D01*
X26571522Y-17235465D01*
X26539500Y-17437648D01*
X26539500Y-17642351D01*
X26571522Y-17844534D01*
X26634781Y-18039223D01*
X26727715Y-18221613D01*
X26848028Y-18387213D01*
X26992786Y-18531971D01*
X27147749Y-18644556D01*
X27158390Y-18652287D01*
X27249840Y-18698883D01*
X27251080Y-18699515D01*
X27301876Y-18747490D01*
X27318671Y-18815311D01*
X27296134Y-18881446D01*
X27251080Y-18920485D01*
X27158386Y-18967715D01*
X26992786Y-19088028D01*
X26848028Y-19232786D01*
X26727715Y-19398386D01*
X26634781Y-19580776D01*
X26571522Y-19775465D01*
X26539500Y-19977648D01*
X26539500Y-20182351D01*
X26571522Y-20384534D01*
X26634781Y-20579223D01*
X26727715Y-20761613D01*
X26848028Y-20927213D01*
X26992786Y-21071971D01*
X27094441Y-21145826D01*
X27158390Y-21192287D01*
X27249840Y-21238883D01*
X27251080Y-21239515D01*
X27301876Y-21287490D01*
X27318671Y-21355311D01*
X27296134Y-21421446D01*
X27251080Y-21460485D01*
X27158386Y-21507715D01*
X26992786Y-21628028D01*
X26848028Y-21772786D01*
X26727715Y-21938386D01*
X26634781Y-22120776D01*
X26571522Y-22315465D01*
X26539500Y-22517648D01*
X26539500Y-22722351D01*
X26571522Y-22924534D01*
X26634781Y-23119223D01*
X26727715Y-23301613D01*
X26848028Y-23467213D01*
X26992786Y-23611971D01*
X27147749Y-23724556D01*
X27158390Y-23732287D01*
X27249840Y-23778883D01*
X27251080Y-23779515D01*
X27301876Y-23827490D01*
X27318671Y-23895311D01*
X27296134Y-23961446D01*
X27251080Y-24000485D01*
X27158386Y-24047715D01*
X26992786Y-24168028D01*
X26848028Y-24312786D01*
X26727715Y-24478385D01*
X26725549Y-24482637D01*
X26646892Y-24637011D01*
X26644454Y-24641795D01*
X26596479Y-24692591D01*
X26533969Y-24709500D01*
X21886031Y-24709500D01*
X21818992Y-24689815D01*
X21775546Y-24641795D01*
X21692287Y-24478390D01*
X21692285Y-24478387D01*
X21692284Y-24478385D01*
X21571971Y-24312786D01*
X21427213Y-24168028D01*
X21261613Y-24047715D01*
X21261612Y-24047714D01*
X21261610Y-24047713D01*
X21204653Y-24018691D01*
X21079223Y-23954781D01*
X20884534Y-23891522D01*
X20709995Y-23863878D01*
X20682352Y-23859500D01*
X20477648Y-23859500D01*
X20453329Y-23863351D01*
X20275465Y-23891522D01*
X20080776Y-23954781D01*
X19898386Y-24047715D01*
X19732786Y-24168028D01*
X19588028Y-24312786D01*
X19467715Y-24478386D01*
X19374781Y-24660776D01*
X19311522Y-24855465D01*
X19279500Y-25057648D01*
X19279500Y-25262351D01*
X19311522Y-25464534D01*
X19374781Y-25659223D01*
X19467715Y-25841613D01*
X19588028Y-26007213D01*
X19732786Y-26151971D01*
X19834441Y-26225826D01*
X19898390Y-26272287D01*
X19988864Y-26318386D01*
X19991080Y-26319515D01*
X20041876Y-26367490D01*
X20058671Y-26435311D01*
X20036134Y-26501446D01*
X19991080Y-26540485D01*
X19898386Y-26587715D01*
X19732786Y-26708028D01*
X19588028Y-26852786D01*
X19467715Y-27018386D01*
X19374781Y-27200776D01*
X19311522Y-27395465D01*
X19279500Y-27597648D01*
X19279500Y-27802351D01*
X19311522Y-28004534D01*
X19374781Y-28199223D01*
X19426385Y-28300500D01*
X19467282Y-28380765D01*
X19467715Y-28381613D01*
X19588028Y-28547213D01*
X19732786Y-28691971D01*
X19887749Y-28804556D01*
X19898390Y-28812287D01*
X19991080Y-28859515D01*
X20080776Y-28905218D01*
X20080778Y-28905218D01*
X20080781Y-28905220D01*
X20185137Y-28939127D01*
X20275465Y-28968477D01*
X20294697Y-28971523D01*
X20477648Y-29000500D01*
X20477649Y-29000500D01*
X20682351Y-29000500D01*
X20682352Y-29000500D01*
X20884534Y-28968477D01*
X21079219Y-28905220D01*
X21261610Y-28812287D01*
X21354590Y-28744732D01*
X21427213Y-28691971D01*
X21427215Y-28691968D01*
X21427219Y-28691966D01*
X21571966Y-28547219D01*
X21571968Y-28547215D01*
X21571971Y-28547213D01*
X21624732Y-28474590D01*
X21692287Y-28381610D01*
X21785220Y-28199219D01*
X21848477Y-28004534D01*
X21880500Y-27802352D01*
X21880500Y-27597648D01*
X21858698Y-27460000D01*
X21848477Y-27395465D01*
X21801050Y-27249500D01*
X21785220Y-27200781D01*
X21785218Y-27200778D01*
X21785218Y-27200776D01*
X21735067Y-27102351D01*
X21692287Y-27018390D01*
X21684556Y-27007749D01*
X21571971Y-26852786D01*
X21427213Y-26708028D01*
X21261614Y-26587715D01*
X21255006Y-26584348D01*
X21168917Y-26540483D01*
X21118123Y-26492511D01*
X21101328Y-26424690D01*
X21123865Y-26358555D01*
X21168917Y-26319516D01*
X21261610Y-26272287D01*
X21325559Y-26225826D01*
X21427213Y-26151971D01*
X21427215Y-26151968D01*
X21427219Y-26151966D01*
X21571966Y-26007219D01*
X21571968Y-26007215D01*
X21571971Y-26007213D01*
X21692284Y-25841614D01*
X21692285Y-25841613D01*
X21692287Y-25841610D01*
X21775546Y-25678204D01*
X21823521Y-25627409D01*
X21886031Y-25610500D01*
X26533969Y-25610500D01*
X26601008Y-25630185D01*
X26644453Y-25678204D01*
X26686080Y-25759901D01*
X26727715Y-25841614D01*
X26848028Y-26007213D01*
X26992786Y-26151971D01*
X27094441Y-26225826D01*
X27158390Y-26272287D01*
X27248864Y-26318386D01*
X27251080Y-26319515D01*
X27301876Y-26367490D01*
X27318671Y-26435311D01*
X27296134Y-26501446D01*
X27251080Y-26540485D01*
X27158386Y-26587715D01*
X26992786Y-26708028D01*
X26848028Y-26852786D01*
X26727715Y-27018386D01*
X26634781Y-27200776D01*
X26571522Y-27395465D01*
X26539500Y-27597648D01*
X26539500Y-27802351D01*
X26571522Y-28004534D01*
X26634781Y-28199223D01*
X26686385Y-28300500D01*
X26727282Y-28380765D01*
X26727715Y-28381613D01*
X26848028Y-28547213D01*
X26992786Y-28691971D01*
X27147749Y-28804556D01*
X27158390Y-28812287D01*
X27248862Y-28858385D01*
X27251080Y-28859515D01*
X27301876Y-28907490D01*
X27318671Y-28975311D01*
X27296134Y-29041446D01*
X27251080Y-29080485D01*
X27158386Y-29127715D01*
X26992786Y-29248028D01*
X26848028Y-29392786D01*
X26727715Y-29558385D01*
X26644454Y-29721795D01*
X26596479Y-29772591D01*
X26533969Y-29789500D01*
X11306031Y-29789500D01*
X11238992Y-29769815D01*
X11195546Y-29721795D01*
X11133136Y-29599309D01*
X11112287Y-29558390D01*
X11112285Y-29558387D01*
X11112284Y-29558385D01*
X10991971Y-29392786D01*
X10847213Y-29248028D01*
X10681613Y-29127715D01*
X10681612Y-29127714D01*
X10681610Y-29127713D01*
X10589470Y-29080765D01*
X10499223Y-29034781D01*
X10304534Y-28971522D01*
X10129995Y-28943878D01*
X10102352Y-28939500D01*
X9897648Y-28939500D01*
X9873329Y-28943351D01*
X9695465Y-28971522D01*
X9500776Y-29034781D01*
X9318386Y-29127715D01*
X9152786Y-29248028D01*
X9008028Y-29392786D01*
X8887715Y-29558386D01*
X8794781Y-29740776D01*
X8731522Y-29935465D01*
X8699500Y-30137648D01*
X8699500Y-30342351D01*
X8731522Y-30544534D01*
X8794781Y-30739223D01*
X8839055Y-30826114D01*
X8887481Y-30921155D01*
X8887715Y-30921613D01*
X9008028Y-31087213D01*
X9152786Y-31231971D01*
X9278682Y-31323438D01*
X9318390Y-31352287D01*
X9408862Y-31398385D01*
X9411080Y-31399515D01*
X9461876Y-31447490D01*
X9478671Y-31515311D01*
X9456134Y-31581446D01*
X9411080Y-31620485D01*
X9318386Y-31667715D01*
X9152786Y-31788028D01*
X9008028Y-31932786D01*
X8887715Y-32098386D01*
X8794781Y-32280776D01*
X8731522Y-32475465D01*
X8699500Y-32677648D01*
X8699500Y-32882351D01*
X8731522Y-33084534D01*
X8794781Y-33279223D01*
X8845342Y-33378453D01*
X8886680Y-33459583D01*
X8887715Y-33461613D01*
X9008028Y-33627213D01*
X9152786Y-33771971D01*
X9307749Y-33884556D01*
X9318390Y-33892287D01*
X9408862Y-33938385D01*
X9411080Y-33939515D01*
X9461876Y-33987490D01*
X9478671Y-34055311D01*
X9456134Y-34121446D01*
X9411080Y-34160485D01*
X9318386Y-34207715D01*
X9152786Y-34328028D01*
X9008028Y-34472786D01*
X8887715Y-34638386D01*
X8794781Y-34820776D01*
X8731522Y-35015465D01*
X8699500Y-35217648D01*
X8699500Y-35422351D01*
X8731522Y-35624534D01*
X8794781Y-35819223D01*
X8858691Y-35944653D01*
X8887139Y-36000484D01*
X8887715Y-36001613D01*
X9008028Y-36167213D01*
X9152786Y-36311971D01*
X9307749Y-36424556D01*
X9318390Y-36432287D01*
X9408862Y-36478385D01*
X9411080Y-36479515D01*
X9461876Y-36527490D01*
X9478671Y-36595311D01*
X9456134Y-36661446D01*
X9411080Y-36700485D01*
X9318386Y-36747715D01*
X9152786Y-36868028D01*
X9008028Y-37012786D01*
X8887715Y-37178386D01*
X8794781Y-37360776D01*
X8731522Y-37555465D01*
X8699500Y-37757648D01*
X8699500Y-37962351D01*
X8731522Y-38164534D01*
X8794781Y-38359223D01*
X8838304Y-38444640D01*
X8867248Y-38501446D01*
X8887715Y-38541613D01*
X9008028Y-38707213D01*
X9152786Y-38851971D01*
X9318385Y-38972284D01*
X9318387Y-38972285D01*
X9318390Y-38972287D01*
X9411080Y-39019515D01*
X9411630Y-39019795D01*
X9462426Y-39067770D01*
X9479221Y-39135591D01*
X9456684Y-39201725D01*
X9411630Y-39240765D01*
X9318649Y-39288141D01*
X9233122Y-39350278D01*
X9233122Y-39350279D01*
X9814823Y-39931980D01*
X9807007Y-39934075D01*
X9692993Y-39999901D01*
X9599901Y-40092993D01*
X9534075Y-40207007D01*
X9531980Y-40214823D01*
X8950279Y-39633122D01*
X8950278Y-39633122D01*
X8888141Y-39718648D01*
X8795244Y-39900968D01*
X8732009Y-40095582D01*
X8700000Y-40297682D01*
X8700000Y-40502317D01*
X8732009Y-40704417D01*
X8795244Y-40899031D01*
X8888139Y-41081347D01*
X8950279Y-41166876D01*
X9531980Y-40585176D01*
X9534075Y-40592993D01*
X9599901Y-40707007D01*
X9692993Y-40800099D01*
X9807007Y-40865925D01*
X9814822Y-40868019D01*
X9233121Y-41449719D01*
X9233122Y-41449720D01*
X9318640Y-41511852D01*
X9318654Y-41511861D01*
X9411629Y-41559234D01*
X9462426Y-41607208D01*
X9479221Y-41675029D01*
X9456684Y-41741164D01*
X9411631Y-41780203D01*
X9318388Y-41827713D01*
X9152786Y-41948028D01*
X9008028Y-42092786D01*
X8887715Y-42258385D01*
X8804454Y-42421795D01*
X8756479Y-42472591D01*
X8693969Y-42489500D01*
X8559309Y-42489500D01*
X8440691Y-42489500D01*
X8326114Y-42520201D01*
X8326112Y-42520201D01*
X8326112Y-42520202D01*
X8223387Y-42579511D01*
X8223384Y-42579513D01*
X8139513Y-42663384D01*
X8139511Y-42663387D01*
X8080201Y-42766114D01*
X8049500Y-42880691D01*
X8049500Y-42880693D01*
X8049500Y-49675575D01*
X8029815Y-49742614D01*
X7977011Y-49788369D01*
X7907853Y-49798313D01*
X7878048Y-49790137D01*
X7830314Y-49770365D01*
X7733497Y-49730263D01*
X7733492Y-49730262D01*
X7733489Y-49730261D01*
X7578845Y-49699500D01*
X7578842Y-49699500D01*
X7421158Y-49699500D01*
X7421155Y-49699500D01*
X7266510Y-49730261D01*
X7266498Y-49730264D01*
X7120827Y-49790602D01*
X7120814Y-49790609D01*
X6993391Y-49875751D01*
X6926713Y-49896629D01*
X6859333Y-49878144D01*
X6812643Y-49826165D01*
X6800500Y-49772649D01*
X6800500Y-24544500D01*
X6820185Y-24477461D01*
X6872989Y-24431706D01*
X6924500Y-24420500D01*
X8910967Y-24420500D01*
X8978006Y-24440185D01*
X9005252Y-24463962D01*
X9008035Y-24467220D01*
X9152786Y-24611971D01*
X9318385Y-24732284D01*
X9318387Y-24732285D01*
X9318390Y-24732287D01*
X9411630Y-24779795D01*
X9462426Y-24827770D01*
X9479221Y-24895591D01*
X9456684Y-24961725D01*
X9411630Y-25000765D01*
X9318649Y-25048141D01*
X9233122Y-25110278D01*
X9233122Y-25110279D01*
X9814823Y-25691980D01*
X9807007Y-25694075D01*
X9692993Y-25759901D01*
X9599901Y-25852993D01*
X9534075Y-25967007D01*
X9531980Y-25974823D01*
X8950279Y-25393122D01*
X8950278Y-25393122D01*
X8888141Y-25478648D01*
X8795244Y-25660968D01*
X8732009Y-25855582D01*
X8700000Y-26057682D01*
X8700000Y-26262317D01*
X8732009Y-26464417D01*
X8795244Y-26659031D01*
X8888139Y-26841347D01*
X8950279Y-26926876D01*
X9531980Y-26345176D01*
X9534075Y-26352993D01*
X9599901Y-26467007D01*
X9692993Y-26560099D01*
X9807007Y-26625925D01*
X9814822Y-26628019D01*
X9233121Y-27209719D01*
X9233122Y-27209720D01*
X9318640Y-27271852D01*
X9318649Y-27271858D01*
X9500968Y-27364755D01*
X9695582Y-27427990D01*
X9897683Y-27460000D01*
X10102317Y-27460000D01*
X10304417Y-27427990D01*
X10499031Y-27364755D01*
X10681349Y-27271859D01*
X10766876Y-27209719D01*
X10766877Y-27209718D01*
X10185178Y-26628019D01*
X10192993Y-26625925D01*
X10307007Y-26560099D01*
X10400099Y-26467007D01*
X10465925Y-26352993D01*
X10468019Y-26345177D01*
X11049718Y-26926877D01*
X11049719Y-26926876D01*
X11111859Y-26841349D01*
X11204755Y-26659031D01*
X11267990Y-26464417D01*
X11300000Y-26262317D01*
X11300000Y-26057682D01*
X11267990Y-25855582D01*
X11234866Y-25753641D01*
X11232870Y-25683800D01*
X11268950Y-25623967D01*
X11331651Y-25593138D01*
X11384889Y-25595547D01*
X11440691Y-25610500D01*
X14193969Y-25610500D01*
X14261008Y-25630185D01*
X14304453Y-25678204D01*
X14346080Y-25759901D01*
X14387715Y-25841614D01*
X14508028Y-26007213D01*
X14652786Y-26151971D01*
X14754441Y-26225826D01*
X14818390Y-26272287D01*
X14908864Y-26318386D01*
X14911080Y-26319515D01*
X14961876Y-26367490D01*
X14978671Y-26435311D01*
X14956134Y-26501446D01*
X14911080Y-26540485D01*
X14818386Y-26587715D01*
X14652786Y-26708028D01*
X14508028Y-26852786D01*
X14387715Y-27018386D01*
X14294781Y-27200776D01*
X14231522Y-27395465D01*
X14199500Y-27597648D01*
X14199500Y-27802351D01*
X14231522Y-28004534D01*
X14294781Y-28199223D01*
X14346385Y-28300500D01*
X14387282Y-28380765D01*
X14387715Y-28381613D01*
X14508028Y-28547213D01*
X14652786Y-28691971D01*
X14807749Y-28804556D01*
X14818390Y-28812287D01*
X14911080Y-28859515D01*
X15000776Y-28905218D01*
X15000778Y-28905218D01*
X15000781Y-28905220D01*
X15105137Y-28939127D01*
X15195465Y-28968477D01*
X15214697Y-28971523D01*
X15397648Y-29000500D01*
X15397649Y-29000500D01*
X15602351Y-29000500D01*
X15602352Y-29000500D01*
X15804534Y-28968477D01*
X15999219Y-28905220D01*
X16181610Y-28812287D01*
X16274590Y-28744732D01*
X16347213Y-28691971D01*
X16347215Y-28691968D01*
X16347219Y-28691966D01*
X16491966Y-28547219D01*
X16491968Y-28547215D01*
X16491971Y-28547213D01*
X16544732Y-28474590D01*
X16612287Y-28381610D01*
X16705220Y-28199219D01*
X16768477Y-28004534D01*
X16800500Y-27802352D01*
X16800500Y-27597648D01*
X16778698Y-27460000D01*
X16768477Y-27395465D01*
X16721050Y-27249500D01*
X16705220Y-27200781D01*
X16705218Y-27200778D01*
X16705218Y-27200776D01*
X16655067Y-27102351D01*
X16612287Y-27018390D01*
X16604556Y-27007749D01*
X16491971Y-26852786D01*
X16347213Y-26708028D01*
X16181614Y-26587715D01*
X16175006Y-26584348D01*
X16088917Y-26540483D01*
X16038123Y-26492511D01*
X16021328Y-26424690D01*
X16043865Y-26358555D01*
X16088917Y-26319516D01*
X16181610Y-26272287D01*
X16245559Y-26225826D01*
X16347213Y-26151971D01*
X16347215Y-26151968D01*
X16347219Y-26151966D01*
X16491966Y-26007219D01*
X16491968Y-26007215D01*
X16491971Y-26007213D01*
X16578791Y-25887713D01*
X16612287Y-25841610D01*
X16705220Y-25659219D01*
X16768477Y-25464534D01*
X16800500Y-25262352D01*
X16800500Y-25057648D01*
X16798994Y-25048139D01*
X16768477Y-24855465D01*
X16720620Y-24708178D01*
X16705220Y-24660781D01*
X16705218Y-24660778D01*
X16705218Y-24660776D01*
X16666773Y-24585325D01*
X16614449Y-24482634D01*
X16601554Y-24413968D01*
X16623801Y-24354594D01*
X18721746Y-21397648D01*
X19279500Y-21397648D01*
X19279500Y-21602351D01*
X19311522Y-21804534D01*
X19374781Y-21999223D01*
X19467715Y-22181613D01*
X19588028Y-22347213D01*
X19732786Y-22491971D01*
X19879909Y-22598860D01*
X19898390Y-22612287D01*
X20014607Y-22671503D01*
X20080776Y-22705218D01*
X20080778Y-22705218D01*
X20080781Y-22705220D01*
X20133505Y-22722351D01*
X20275465Y-22768477D01*
X20376557Y-22784488D01*
X20477648Y-22800500D01*
X20477649Y-22800500D01*
X20682351Y-22800500D01*
X20682352Y-22800500D01*
X20884534Y-22768477D01*
X21079219Y-22705220D01*
X21261610Y-22612287D01*
X21372363Y-22531821D01*
X21427213Y-22491971D01*
X21427215Y-22491968D01*
X21427219Y-22491966D01*
X21571966Y-22347219D01*
X21571968Y-22347215D01*
X21571971Y-22347213D01*
X21684839Y-22191861D01*
X21692287Y-22181610D01*
X21785220Y-21999219D01*
X21848477Y-21804534D01*
X21880500Y-21602352D01*
X21880500Y-21397648D01*
X21848477Y-21195466D01*
X21785220Y-21000781D01*
X21785218Y-21000778D01*
X21785218Y-21000776D01*
X21727249Y-20887007D01*
X21692287Y-20818390D01*
X21684556Y-20807749D01*
X21571971Y-20652786D01*
X21427213Y-20508028D01*
X21261613Y-20387715D01*
X21261612Y-20387714D01*
X21261610Y-20387713D01*
X21186929Y-20349661D01*
X21079223Y-20294781D01*
X20884534Y-20231522D01*
X20709995Y-20203878D01*
X20682352Y-20199500D01*
X20477648Y-20199500D01*
X20453329Y-20203351D01*
X20275465Y-20231522D01*
X20080776Y-20294781D01*
X19898386Y-20387715D01*
X19732786Y-20508028D01*
X19588028Y-20652786D01*
X19467715Y-20818386D01*
X19374781Y-21000776D01*
X19311522Y-21195465D01*
X19279500Y-21397648D01*
X18721746Y-21397648D01*
X20192214Y-19325099D01*
X20247058Y-19281816D01*
X20312741Y-19274381D01*
X20385368Y-19285884D01*
X20477648Y-19300500D01*
X20477649Y-19300500D01*
X20682351Y-19300500D01*
X20682352Y-19300500D01*
X20884534Y-19268477D01*
X21079219Y-19205220D01*
X21261610Y-19112287D01*
X21362180Y-19039219D01*
X21427213Y-18991971D01*
X21427215Y-18991968D01*
X21427219Y-18991966D01*
X21571966Y-18847219D01*
X21571968Y-18847215D01*
X21571971Y-18847213D01*
X21644423Y-18747490D01*
X21692287Y-18681610D01*
X21785220Y-18499219D01*
X21848477Y-18304534D01*
X21880500Y-18102352D01*
X21880500Y-17897648D01*
X21848477Y-17695466D01*
X21847606Y-17692786D01*
X21785218Y-17500776D01*
X21723926Y-17380485D01*
X21692287Y-17318390D01*
X21660989Y-17275311D01*
X21571971Y-17152786D01*
X21427213Y-17008028D01*
X21261613Y-16887715D01*
X21261612Y-16887714D01*
X21261610Y-16887713D01*
X21204051Y-16858385D01*
X21079223Y-16794781D01*
X20884534Y-16731522D01*
X20709995Y-16703878D01*
X20682352Y-16699500D01*
X20477648Y-16699500D01*
X20453329Y-16703351D01*
X20275465Y-16731522D01*
X20080776Y-16794781D01*
X19898386Y-16887715D01*
X19732786Y-17008028D01*
X19588028Y-17152786D01*
X19467715Y-17318386D01*
X19374781Y-17500776D01*
X19311522Y-17695465D01*
X19279500Y-17897648D01*
X19279500Y-18102351D01*
X19311522Y-18304534D01*
X19374781Y-18499223D01*
X19465548Y-18677361D01*
X19478444Y-18746030D01*
X19456194Y-18805408D01*
X17298282Y-21846876D01*
X15887786Y-23834898D01*
X15832940Y-23878183D01*
X15767258Y-23885618D01*
X15602352Y-23859500D01*
X15397648Y-23859500D01*
X15373329Y-23863351D01*
X15195465Y-23891522D01*
X15000776Y-23954781D01*
X14818386Y-24047715D01*
X14652786Y-24168028D01*
X14508028Y-24312786D01*
X14387715Y-24478385D01*
X14385549Y-24482637D01*
X14306892Y-24637011D01*
X14304454Y-24641795D01*
X14256479Y-24692591D01*
X14193969Y-24709500D01*
X12074500Y-24709500D01*
X12007461Y-24689815D01*
X11961706Y-24637011D01*
X11950500Y-24585500D01*
X11950500Y-17440693D01*
X11950500Y-17440691D01*
X11919799Y-17326114D01*
X11864459Y-17230263D01*
X11860489Y-17223386D01*
X11242054Y-16604951D01*
X11208569Y-16543628D01*
X11211803Y-16478956D01*
X11268477Y-16304534D01*
X11300500Y-16102352D01*
X11300500Y-15897648D01*
X11279788Y-15766877D01*
X11268477Y-15695465D01*
X11205218Y-15500776D01*
X11153920Y-15400099D01*
X11112287Y-15318390D01*
X11086460Y-15282842D01*
X10991971Y-15152786D01*
X10847213Y-15008028D01*
X10681613Y-14887715D01*
X10681612Y-14887714D01*
X10681610Y-14887713D01*
X10624653Y-14858691D01*
X10499223Y-14794781D01*
X10304534Y-14731522D01*
X10129995Y-14703878D01*
X10102352Y-14699500D01*
X9897648Y-14699500D01*
X9873329Y-14703351D01*
X9695465Y-14731522D01*
X9500776Y-14794781D01*
X9318386Y-14887715D01*
X9152786Y-15008028D01*
X9008028Y-15152786D01*
X8887715Y-15318386D01*
X8794781Y-15500776D01*
X8731522Y-15695465D01*
X8699500Y-15897648D01*
X8699500Y-16102351D01*
X8731522Y-16304534D01*
X8794781Y-16499223D01*
X8848653Y-16604951D01*
X8886798Y-16679815D01*
X8887715Y-16681613D01*
X9008028Y-16847213D01*
X9152786Y-16991971D01*
X9287026Y-17089500D01*
X9318390Y-17112287D01*
X9397864Y-17152781D01*
X9411080Y-17159515D01*
X9461876Y-17207490D01*
X9478671Y-17275311D01*
X9456134Y-17341446D01*
X9411080Y-17380485D01*
X9318386Y-17427715D01*
X9152786Y-17548028D01*
X9008028Y-17692786D01*
X8887715Y-17858386D01*
X8794781Y-18040776D01*
X8731522Y-18235465D01*
X8699500Y-18437648D01*
X8699500Y-18642351D01*
X8731522Y-18844534D01*
X8794781Y-19039223D01*
X8848470Y-19144592D01*
X8872914Y-19192566D01*
X8887715Y-19221613D01*
X9008028Y-19387213D01*
X9152786Y-19531971D01*
X9318385Y-19652284D01*
X9318387Y-19652285D01*
X9318390Y-19652287D01*
X9411630Y-19699795D01*
X9462426Y-19747770D01*
X9479221Y-19815591D01*
X9456684Y-19881725D01*
X9411630Y-19920765D01*
X9318649Y-19968141D01*
X9233122Y-20030278D01*
X9233122Y-20030279D01*
X9814823Y-20611980D01*
X9807007Y-20614075D01*
X9692993Y-20679901D01*
X9599901Y-20772993D01*
X9534075Y-20887007D01*
X9531980Y-20894823D01*
X8950279Y-20313122D01*
X8950278Y-20313122D01*
X8888141Y-20398648D01*
X8795244Y-20580968D01*
X8732009Y-20775582D01*
X8700000Y-20977682D01*
X8700000Y-21182317D01*
X8732009Y-21384417D01*
X8795244Y-21579031D01*
X8888139Y-21761347D01*
X8950279Y-21846876D01*
X9531980Y-21265176D01*
X9534075Y-21272993D01*
X9599901Y-21387007D01*
X9692993Y-21480099D01*
X9807007Y-21545925D01*
X9814822Y-21548019D01*
X9233121Y-22129719D01*
X9233122Y-22129720D01*
X9318640Y-22191852D01*
X9318654Y-22191861D01*
X9411629Y-22239234D01*
X9462426Y-22287208D01*
X9479221Y-22355029D01*
X9456684Y-22421164D01*
X9411631Y-22460203D01*
X9318388Y-22507713D01*
X9152786Y-22628028D01*
X9008035Y-22772779D01*
X9005252Y-22776038D01*
X8946742Y-22814227D01*
X8910967Y-22819500D01*
X5921155Y-22819500D01*
X5766510Y-22850261D01*
X5766507Y-22850261D01*
X5671952Y-22889427D01*
X5602482Y-22896895D01*
X5540003Y-22865619D01*
X5504351Y-22805530D01*
X5500500Y-22774865D01*
X5500500Y-7878711D01*
X6149500Y-7878711D01*
X6149500Y-8121288D01*
X6181161Y-8361785D01*
X6243947Y-8596104D01*
X6336773Y-8820205D01*
X6336776Y-8820212D01*
X6458064Y-9030289D01*
X6458066Y-9030292D01*
X6458067Y-9030293D01*
X6605733Y-9222736D01*
X6605739Y-9222743D01*
X6777256Y-9394260D01*
X6777262Y-9394265D01*
X6969711Y-9541936D01*
X7179788Y-9663224D01*
X7403900Y-9756054D01*
X7638211Y-9818838D01*
X7818586Y-9842584D01*
X7878711Y-9850500D01*
X7878712Y-9850500D01*
X8121289Y-9850500D01*
X8169388Y-9844167D01*
X8361789Y-9818838D01*
X8596100Y-9756054D01*
X8820212Y-9663224D01*
X9030289Y-9541936D01*
X9222738Y-9394265D01*
X9394265Y-9222738D01*
X9394269Y-9222733D01*
X9402646Y-9211817D01*
X9476139Y-9116036D01*
X9541936Y-9030289D01*
X9663224Y-8820212D01*
X9756054Y-8596100D01*
X9818838Y-8361789D01*
X9850500Y-8121288D01*
X9850500Y-7888575D01*
X72760000Y-7888575D01*
X72760000Y-8111424D01*
X72789085Y-8332354D01*
X72789088Y-8332367D01*
X72846763Y-8547618D01*
X72932045Y-8753502D01*
X72932054Y-8753520D01*
X73043462Y-8946488D01*
X73124742Y-9052413D01*
X73879669Y-8297487D01*
X73883978Y-8307890D01*
X73955112Y-8414351D01*
X74045649Y-8504888D01*
X74152110Y-8576022D01*
X74162511Y-8580330D01*
X73407585Y-9335256D01*
X73513511Y-9416537D01*
X73706479Y-9527945D01*
X73706497Y-9527954D01*
X73912381Y-9613236D01*
X74127632Y-9670911D01*
X74127645Y-9670914D01*
X74348575Y-9700000D01*
X74571425Y-9700000D01*
X74792354Y-9670914D01*
X74792367Y-9670911D01*
X75007618Y-9613236D01*
X75213502Y-9527954D01*
X75213520Y-9527945D01*
X75406491Y-9416535D01*
X75406495Y-9416533D01*
X75512413Y-9335257D01*
X75512413Y-9335255D01*
X74757489Y-8580330D01*
X74767890Y-8576022D01*
X74874351Y-8504888D01*
X74964888Y-8414351D01*
X75036022Y-8307890D01*
X75040330Y-8297488D01*
X75795255Y-9052413D01*
X75795257Y-9052413D01*
X75876533Y-8946495D01*
X75876535Y-8946491D01*
X75987945Y-8753520D01*
X75987954Y-8753502D01*
X76073236Y-8547618D01*
X76130911Y-8332367D01*
X76130914Y-8332354D01*
X76160000Y-8111424D01*
X76160000Y-7888575D01*
X76159997Y-7888549D01*
X77839500Y-7888549D01*
X77839500Y-8111450D01*
X77839501Y-8111466D01*
X77868594Y-8332452D01*
X77868595Y-8332457D01*
X77868596Y-8332463D01*
X77926290Y-8547780D01*
X77926293Y-8547790D01*
X78011593Y-8753722D01*
X78011595Y-8753726D01*
X78123052Y-8946774D01*
X78123057Y-8946780D01*
X78123058Y-8946782D01*
X78258751Y-9123622D01*
X78258757Y-9123629D01*
X78416370Y-9281242D01*
X78416377Y-9281248D01*
X78542294Y-9377867D01*
X78593226Y-9416948D01*
X78786274Y-9528405D01*
X78818941Y-9541936D01*
X78991074Y-9613236D01*
X78992219Y-9613710D01*
X79207537Y-9671404D01*
X79428543Y-9700500D01*
X79428550Y-9700500D01*
X79651442Y-9700500D01*
X79651457Y-9700500D01*
X79651471Y-9700498D01*
X79653970Y-9700334D01*
X79654712Y-9700500D01*
X79655516Y-9700500D01*
X79655516Y-9700679D01*
X79722155Y-9715584D01*
X79733178Y-9722466D01*
X86646594Y-14560221D01*
X86690234Y-14614784D01*
X86699500Y-14661816D01*
X86699500Y-25575500D01*
X86679815Y-25642539D01*
X86627011Y-25688294D01*
X86575500Y-25699500D01*
X84247648Y-25699500D01*
X84223329Y-25703351D01*
X84045465Y-25731522D01*
X83850776Y-25794781D01*
X83668386Y-25887715D01*
X83502786Y-26008028D01*
X83358028Y-26152786D01*
X83237715Y-26318386D01*
X83144781Y-26500776D01*
X83081522Y-26695465D01*
X83049500Y-26897648D01*
X83049500Y-27102351D01*
X83081522Y-27304534D01*
X83144781Y-27499223D01*
X83237715Y-27681613D01*
X83358028Y-27847213D01*
X83502786Y-27991971D01*
X83668385Y-28112284D01*
X83668387Y-28112285D01*
X83668390Y-28112287D01*
X83761080Y-28159515D01*
X83761630Y-28159795D01*
X83812426Y-28207770D01*
X83829221Y-28275591D01*
X83806684Y-28341725D01*
X83761630Y-28380765D01*
X83668649Y-28428141D01*
X83583122Y-28490278D01*
X83583122Y-28490279D01*
X84164823Y-29071980D01*
X84157007Y-29074075D01*
X84042993Y-29139901D01*
X83949901Y-29232993D01*
X83884075Y-29347007D01*
X83881980Y-29354823D01*
X83300279Y-28773122D01*
X83300278Y-28773122D01*
X83238141Y-28858648D01*
X83145244Y-29040968D01*
X83082009Y-29235582D01*
X83050000Y-29437682D01*
X83050000Y-29642317D01*
X83082009Y-29844417D01*
X83145244Y-30039031D01*
X83238139Y-30221347D01*
X83300279Y-30306876D01*
X83881980Y-29725176D01*
X83884075Y-29732993D01*
X83949901Y-29847007D01*
X84042993Y-29940099D01*
X84157007Y-30005925D01*
X84164822Y-30008019D01*
X83583121Y-30589719D01*
X83583122Y-30589720D01*
X83668640Y-30651852D01*
X83668654Y-30651861D01*
X83761629Y-30699234D01*
X83812426Y-30747208D01*
X83829221Y-30815029D01*
X83806684Y-30881164D01*
X83761631Y-30920203D01*
X83668388Y-30967713D01*
X83502786Y-31088028D01*
X83358028Y-31232786D01*
X83237715Y-31398386D01*
X83144781Y-31580776D01*
X83081522Y-31775465D01*
X83056605Y-31932787D01*
X83049500Y-31977648D01*
X83049500Y-32182352D01*
X83049677Y-32183469D01*
X83081522Y-32384534D01*
X83144781Y-32579223D01*
X83186332Y-32660770D01*
X83230830Y-32748102D01*
X83237715Y-32761613D01*
X83358028Y-32927213D01*
X83502786Y-33071971D01*
X83623115Y-33159393D01*
X83668390Y-33192287D01*
X83743387Y-33230500D01*
X83761080Y-33239515D01*
X83811876Y-33287490D01*
X83828671Y-33355311D01*
X83806134Y-33421446D01*
X83761080Y-33460485D01*
X83668386Y-33507715D01*
X83502786Y-33628028D01*
X83358028Y-33772786D01*
X83237715Y-33938386D01*
X83144781Y-34120776D01*
X83081522Y-34315465D01*
X83049500Y-34517648D01*
X83049500Y-34722351D01*
X83081522Y-34924534D01*
X83144781Y-35119223D01*
X83237715Y-35301613D01*
X83358028Y-35467213D01*
X83502786Y-35611971D01*
X83657749Y-35724556D01*
X83668390Y-35732287D01*
X83743385Y-35770499D01*
X83761080Y-35779515D01*
X83811876Y-35827490D01*
X83828671Y-35895311D01*
X83806134Y-35961446D01*
X83761080Y-36000485D01*
X83668386Y-36047715D01*
X83502786Y-36168028D01*
X83358028Y-36312786D01*
X83237715Y-36478386D01*
X83144781Y-36660776D01*
X83081522Y-36855465D01*
X83049500Y-37057648D01*
X83049500Y-37262351D01*
X83081522Y-37464534D01*
X83144781Y-37659223D01*
X83194932Y-37757648D01*
X83233242Y-37832836D01*
X83237715Y-37841613D01*
X83358028Y-38007213D01*
X83502786Y-38151971D01*
X83657749Y-38264556D01*
X83668390Y-38272287D01*
X83743385Y-38310499D01*
X83761080Y-38319515D01*
X83811876Y-38367490D01*
X83828671Y-38435311D01*
X83806134Y-38501446D01*
X83761080Y-38540485D01*
X83668386Y-38587715D01*
X83502786Y-38708028D01*
X83358028Y-38852786D01*
X83237715Y-39018386D01*
X83144781Y-39200776D01*
X83081522Y-39395465D01*
X83049500Y-39597648D01*
X83049500Y-39802351D01*
X83081522Y-40004534D01*
X83144781Y-40199223D01*
X83237715Y-40381613D01*
X83358028Y-40547213D01*
X83502786Y-40691971D01*
X83657749Y-40804556D01*
X83668390Y-40812287D01*
X83759840Y-40858883D01*
X83761080Y-40859515D01*
X83811876Y-40907490D01*
X83828671Y-40975311D01*
X83806134Y-41041446D01*
X83761080Y-41080485D01*
X83668386Y-41127715D01*
X83502786Y-41248028D01*
X83358028Y-41392786D01*
X83237715Y-41558386D01*
X83144781Y-41740776D01*
X83081522Y-41935465D01*
X83049500Y-42137648D01*
X83049500Y-42342351D01*
X83081522Y-42544534D01*
X83144781Y-42739223D01*
X83237715Y-42921613D01*
X83358028Y-43087213D01*
X83502786Y-43231971D01*
X83668385Y-43352284D01*
X83668387Y-43352285D01*
X83668390Y-43352287D01*
X83761080Y-43399515D01*
X83761630Y-43399795D01*
X83812426Y-43447770D01*
X83829221Y-43515591D01*
X83806684Y-43581725D01*
X83761630Y-43620765D01*
X83668649Y-43668141D01*
X83583122Y-43730278D01*
X83583122Y-43730279D01*
X84164823Y-44311980D01*
X84157007Y-44314075D01*
X84042993Y-44379901D01*
X83949901Y-44472993D01*
X83884075Y-44587007D01*
X83881980Y-44594823D01*
X83300279Y-44013122D01*
X83300278Y-44013122D01*
X83238141Y-44098648D01*
X83145244Y-44280968D01*
X83082009Y-44475582D01*
X83050000Y-44677682D01*
X83050000Y-44882317D01*
X83082009Y-45084417D01*
X83145244Y-45279031D01*
X83238139Y-45461347D01*
X83300279Y-45546876D01*
X83881980Y-44965176D01*
X83884075Y-44972993D01*
X83949901Y-45087007D01*
X84042993Y-45180099D01*
X84157007Y-45245925D01*
X84164822Y-45248019D01*
X83583121Y-45829719D01*
X83583122Y-45829720D01*
X83668640Y-45891852D01*
X83668649Y-45891858D01*
X83850968Y-45984755D01*
X84045582Y-46047990D01*
X84247683Y-46080000D01*
X84452317Y-46080000D01*
X84654417Y-46047990D01*
X84849031Y-45984755D01*
X85031349Y-45891859D01*
X85116876Y-45829719D01*
X85116877Y-45829718D01*
X84535178Y-45248019D01*
X84542993Y-45245925D01*
X84657007Y-45180099D01*
X84750099Y-45087007D01*
X84815925Y-44972993D01*
X84818019Y-44965177D01*
X85399718Y-45546877D01*
X85399719Y-45546876D01*
X85461859Y-45461349D01*
X85554755Y-45279031D01*
X85617990Y-45084417D01*
X85650000Y-44882317D01*
X85650000Y-44677682D01*
X85617990Y-44475582D01*
X85554755Y-44280968D01*
X85461858Y-44098649D01*
X85461852Y-44098640D01*
X85399720Y-44013122D01*
X85399719Y-44013121D01*
X84818019Y-44594821D01*
X84815925Y-44587007D01*
X84750099Y-44472993D01*
X84657007Y-44379901D01*
X84542993Y-44314075D01*
X84535176Y-44311980D01*
X85116876Y-43730279D01*
X85031347Y-43668139D01*
X84938369Y-43620765D01*
X84887573Y-43572790D01*
X84870778Y-43504969D01*
X84893315Y-43438835D01*
X84938370Y-43399795D01*
X84938920Y-43399515D01*
X85031610Y-43352287D01*
X85081144Y-43316298D01*
X85197213Y-43231971D01*
X85197215Y-43231968D01*
X85197219Y-43231966D01*
X85341966Y-43087219D01*
X85341968Y-43087215D01*
X85341971Y-43087213D01*
X85398259Y-43009738D01*
X85462287Y-42921610D01*
X85555220Y-42739219D01*
X85618477Y-42544534D01*
X85650500Y-42342352D01*
X85650500Y-42137648D01*
X85643394Y-42092781D01*
X85618477Y-41935465D01*
X85571050Y-41789500D01*
X85555220Y-41740781D01*
X85555218Y-41740778D01*
X85555218Y-41740776D01*
X85516305Y-41664407D01*
X85462287Y-41558390D01*
X85442098Y-41530602D01*
X85341971Y-41392786D01*
X85197213Y-41248028D01*
X85031614Y-41127715D01*
X85025006Y-41124348D01*
X84938917Y-41080483D01*
X84888123Y-41032511D01*
X84871328Y-40964690D01*
X84893865Y-40898555D01*
X84938917Y-40859516D01*
X85031610Y-40812287D01*
X85048614Y-40799932D01*
X85197216Y-40691969D01*
X85197217Y-40691967D01*
X85197219Y-40691966D01*
X85224919Y-40664265D01*
X85286240Y-40630779D01*
X85295504Y-40629129D01*
X95624852Y-39192773D01*
X95689380Y-39201030D01*
X95737334Y-39220894D01*
X95837232Y-39240765D01*
X95911304Y-39255499D01*
X95911307Y-39255500D01*
X95911309Y-39255500D01*
X96088693Y-39255500D01*
X96088694Y-39255499D01*
X96146682Y-39243964D01*
X96262658Y-39220896D01*
X96262661Y-39220894D01*
X96262666Y-39220894D01*
X96426547Y-39153013D01*
X96574035Y-39054464D01*
X96699464Y-38929035D01*
X96798013Y-38781547D01*
X96805828Y-38762676D01*
X96821462Y-38735367D01*
X96900433Y-38630888D01*
X96990603Y-38444637D01*
X97042707Y-38244374D01*
X97054739Y-38037793D01*
X97026238Y-37832835D01*
X96958300Y-37637374D01*
X96954079Y-37630185D01*
X96910212Y-37555465D01*
X96853535Y-37458925D01*
X96825940Y-37427916D01*
X96804012Y-37392938D01*
X96798013Y-37378453D01*
X96699464Y-37230965D01*
X96699461Y-37230961D01*
X96636181Y-37167681D01*
X96602696Y-37106358D01*
X96607680Y-37036666D01*
X96636181Y-36992319D01*
X96699461Y-36929038D01*
X96699464Y-36929035D01*
X96798013Y-36781547D01*
X96805866Y-36762586D01*
X96825025Y-36730827D01*
X96874308Y-36671475D01*
X96972899Y-36489540D01*
X97034102Y-36291869D01*
X97055566Y-36086054D01*
X97036464Y-35880007D01*
X96977532Y-35681645D01*
X96881034Y-35498593D01*
X96824425Y-35428801D01*
X96806169Y-35398144D01*
X96798011Y-35378449D01*
X96699464Y-35230965D01*
X96699461Y-35230961D01*
X96636181Y-35167681D01*
X96602696Y-35106358D01*
X96607680Y-35036666D01*
X96636181Y-34992319D01*
X96699461Y-34929038D01*
X96699464Y-34929035D01*
X96798013Y-34781547D01*
X96803089Y-34769288D01*
X96826008Y-34733207D01*
X96846108Y-34711155D01*
X96952982Y-34533960D01*
X97023234Y-34339320D01*
X97054164Y-34134714D01*
X97044582Y-33928006D01*
X96994858Y-33727137D01*
X96906902Y-33539831D01*
X96819933Y-33421886D01*
X96814424Y-33413758D01*
X96809064Y-33405134D01*
X96798013Y-33378453D01*
X96718833Y-33259953D01*
X96717755Y-33258218D01*
X96708942Y-33226435D01*
X96699092Y-33194977D01*
X96699652Y-33192932D01*
X96699086Y-33190889D01*
X96708853Y-33159393D01*
X96717576Y-33127597D01*
X96719303Y-33125696D01*
X96719782Y-33124154D01*
X96723694Y-33120865D01*
X96738066Y-33105055D01*
X96736927Y-33103916D01*
X96742913Y-33097928D01*
X96742922Y-33097922D01*
X96834361Y-32977342D01*
X96889877Y-32836564D01*
X96900500Y-32748102D01*
X96900500Y-32660770D01*
X96920185Y-32593731D01*
X96921399Y-32591878D01*
X96930941Y-32577598D01*
X97010130Y-32386420D01*
X97050500Y-32183465D01*
X97050500Y-31976535D01*
X97010130Y-31773580D01*
X96930941Y-31582402D01*
X96921395Y-31568116D01*
X96900520Y-31501439D01*
X96900500Y-31499228D01*
X96900500Y-31411903D01*
X96900500Y-31411898D01*
X96889877Y-31323436D01*
X96834361Y-31182658D01*
X96834360Y-31182657D01*
X96834360Y-31182656D01*
X96742922Y-31062077D01*
X96622343Y-30970639D01*
X96497347Y-30921347D01*
X96481564Y-30915123D01*
X96481563Y-30915122D01*
X96481561Y-30915122D01*
X96434098Y-30909423D01*
X96393102Y-30904500D01*
X95606898Y-30904500D01*
X95567853Y-30909188D01*
X95518438Y-30915122D01*
X95377658Y-30970638D01*
X95352787Y-30989499D01*
X95333262Y-31004304D01*
X95267953Y-31029127D01*
X95258339Y-31029500D01*
X85156943Y-31029500D01*
X85141073Y-31025166D01*
X85126553Y-31025718D01*
X85103409Y-31014880D01*
X85093914Y-31012287D01*
X85088835Y-31009289D01*
X85031610Y-30967713D01*
X84934952Y-30918463D01*
X84931636Y-30916506D01*
X84910288Y-30893681D01*
X84887574Y-30872229D01*
X84886619Y-30868376D01*
X84883909Y-30865478D01*
X84878289Y-30834734D01*
X84870779Y-30804407D01*
X84872058Y-30800651D01*
X84871345Y-30796747D01*
X84883238Y-30767845D01*
X84893317Y-30738273D01*
X84896568Y-30735455D01*
X84897935Y-30732135D01*
X84910594Y-30723302D01*
X84938371Y-30699234D01*
X85031347Y-30651861D01*
X85116876Y-30589719D01*
X85116877Y-30589718D01*
X84535178Y-30008019D01*
X84542993Y-30005925D01*
X84657007Y-29940099D01*
X84750099Y-29847007D01*
X84815925Y-29732993D01*
X84818019Y-29725177D01*
X85399718Y-30306877D01*
X85399719Y-30306876D01*
X85461859Y-30221349D01*
X85554755Y-30039031D01*
X85617990Y-29844417D01*
X85650000Y-29642317D01*
X85650000Y-29437682D01*
X85617990Y-29235582D01*
X85554755Y-29040968D01*
X85461858Y-28858649D01*
X85461852Y-28858640D01*
X85399720Y-28773122D01*
X85399719Y-28773121D01*
X84818019Y-29354821D01*
X84815925Y-29347007D01*
X84750099Y-29232993D01*
X84657007Y-29139901D01*
X84542993Y-29074075D01*
X84535176Y-29071980D01*
X85116876Y-28490279D01*
X85112465Y-28434230D01*
X85126829Y-28365852D01*
X85175880Y-28316095D01*
X85236083Y-28300500D01*
X88102351Y-28300500D01*
X88102352Y-28300500D01*
X88304534Y-28268477D01*
X88499219Y-28205220D01*
X88681610Y-28112287D01*
X88774590Y-28044732D01*
X88847213Y-27991971D01*
X88847215Y-27991968D01*
X88847219Y-27991966D01*
X88991966Y-27847219D01*
X88991968Y-27847215D01*
X88991971Y-27847213D01*
X89044732Y-27774590D01*
X89112287Y-27681610D01*
X89205220Y-27499219D01*
X89268477Y-27304534D01*
X89300500Y-27102352D01*
X89300500Y-14010738D01*
X89302111Y-13999251D01*
X89300500Y-13908492D01*
X89300500Y-13817648D01*
X89300038Y-13814730D01*
X89298682Y-13806174D01*
X89298478Y-13794580D01*
X89282681Y-13705148D01*
X89268477Y-13615466D01*
X89267566Y-13612664D01*
X89263386Y-13595908D01*
X89262872Y-13592997D01*
X89233273Y-13507121D01*
X89205220Y-13420781D01*
X89199951Y-13410440D01*
X89196169Y-13399467D01*
X89154041Y-13320292D01*
X89153025Y-13318340D01*
X89112290Y-13238394D01*
X89110549Y-13235998D01*
X89110549Y-13235997D01*
X89105462Y-13228995D01*
X89100013Y-13218754D01*
X89045362Y-13146275D01*
X89030668Y-13126051D01*
X88991969Y-13072784D01*
X88983753Y-13064568D01*
X88976770Y-13055307D01*
X88911453Y-12992268D01*
X88847219Y-12928034D01*
X88847218Y-12928033D01*
X88847217Y-12928032D01*
X88844830Y-12926298D01*
X88831601Y-12915201D01*
X88829480Y-12913154D01*
X88829478Y-12913152D01*
X88755055Y-12861073D01*
X88681610Y-12807713D01*
X88671273Y-12802446D01*
X88664180Y-12797483D01*
X88664180Y-12797482D01*
X82591124Y-8547780D01*
X81634988Y-7878711D01*
X100149500Y-7878711D01*
X100149500Y-8121288D01*
X100181161Y-8361785D01*
X100243947Y-8596104D01*
X100336773Y-8820205D01*
X100336776Y-8820212D01*
X100458064Y-9030289D01*
X100458066Y-9030292D01*
X100458067Y-9030293D01*
X100605733Y-9222736D01*
X100605739Y-9222743D01*
X100777256Y-9394260D01*
X100777262Y-9394265D01*
X100969711Y-9541936D01*
X101179788Y-9663224D01*
X101403900Y-9756054D01*
X101638211Y-9818838D01*
X101818586Y-9842584D01*
X101878711Y-9850500D01*
X101878712Y-9850500D01*
X102121289Y-9850500D01*
X102169388Y-9844167D01*
X102361789Y-9818838D01*
X102596100Y-9756054D01*
X102820212Y-9663224D01*
X103030289Y-9541936D01*
X103222738Y-9394265D01*
X103394265Y-9222738D01*
X103541936Y-9030289D01*
X103663224Y-8820212D01*
X103756054Y-8596100D01*
X103818838Y-8361789D01*
X103850500Y-8121288D01*
X103850500Y-7878712D01*
X103818838Y-7638211D01*
X103756054Y-7403900D01*
X103663224Y-7179788D01*
X103541936Y-6969711D01*
X103470313Y-6876370D01*
X103394266Y-6777263D01*
X103394260Y-6777256D01*
X103222743Y-6605739D01*
X103222736Y-6605733D01*
X103030293Y-6458067D01*
X103030292Y-6458066D01*
X103030289Y-6458064D01*
X102820212Y-6336776D01*
X102820205Y-6336773D01*
X102596104Y-6243947D01*
X102361785Y-6181161D01*
X102121289Y-6149500D01*
X102121288Y-6149500D01*
X101878712Y-6149500D01*
X101878711Y-6149500D01*
X101638214Y-6181161D01*
X101403895Y-6243947D01*
X101179794Y-6336773D01*
X101179785Y-6336777D01*
X100969706Y-6458067D01*
X100777263Y-6605733D01*
X100777256Y-6605739D01*
X100605739Y-6777256D01*
X100605733Y-6777263D01*
X100458067Y-6969706D01*
X100336777Y-7179785D01*
X100336773Y-7179794D01*
X100243947Y-7403895D01*
X100181161Y-7638214D01*
X100149500Y-7878711D01*
X81634988Y-7878711D01*
X81220288Y-7588519D01*
X81176648Y-7533956D01*
X81171609Y-7519023D01*
X81153710Y-7452219D01*
X81068405Y-7246274D01*
X80956948Y-7053226D01*
X80821247Y-6876376D01*
X80821242Y-6876370D01*
X80663629Y-6718757D01*
X80663622Y-6718751D01*
X80486782Y-6583058D01*
X80486780Y-6583057D01*
X80486774Y-6583052D01*
X80293726Y-6471595D01*
X80293722Y-6471593D01*
X80087790Y-6386293D01*
X80087783Y-6386291D01*
X80087781Y-6386290D01*
X79872463Y-6328596D01*
X79872457Y-6328595D01*
X79872452Y-6328594D01*
X79651466Y-6299501D01*
X79651463Y-6299500D01*
X79651457Y-6299500D01*
X79428543Y-6299500D01*
X79428537Y-6299500D01*
X79428533Y-6299501D01*
X79207547Y-6328594D01*
X79207540Y-6328595D01*
X79207537Y-6328596D01*
X78992219Y-6386290D01*
X78992209Y-6386293D01*
X78786277Y-6471593D01*
X78786273Y-6471595D01*
X78593226Y-6583052D01*
X78593217Y-6583058D01*
X78416377Y-6718751D01*
X78416370Y-6718757D01*
X78258757Y-6876370D01*
X78258751Y-6876377D01*
X78123058Y-7053217D01*
X78123052Y-7053226D01*
X78011595Y-7246273D01*
X78011593Y-7246277D01*
X77926293Y-7452209D01*
X77926290Y-7452219D01*
X77889769Y-7588520D01*
X77868597Y-7667534D01*
X77868594Y-7667547D01*
X77839501Y-7888533D01*
X77839500Y-7888549D01*
X76159997Y-7888549D01*
X76130914Y-7667645D01*
X76130911Y-7667632D01*
X76073236Y-7452381D01*
X75987954Y-7246497D01*
X75987945Y-7246479D01*
X75876537Y-7053511D01*
X75795256Y-6947585D01*
X75040330Y-7702511D01*
X75036022Y-7692110D01*
X74964888Y-7585649D01*
X74874351Y-7495112D01*
X74767890Y-7423978D01*
X74757487Y-7419669D01*
X75512413Y-6664742D01*
X75406488Y-6583462D01*
X75213520Y-6472054D01*
X75213502Y-6472045D01*
X75007618Y-6386763D01*
X74792367Y-6329088D01*
X74792354Y-6329085D01*
X74571425Y-6300000D01*
X74348575Y-6300000D01*
X74127645Y-6329085D01*
X74127632Y-6329088D01*
X73912381Y-6386763D01*
X73706497Y-6472045D01*
X73706479Y-6472054D01*
X73513508Y-6583464D01*
X73513506Y-6583465D01*
X73407585Y-6664741D01*
X73407585Y-6664742D01*
X74162512Y-7419669D01*
X74152110Y-7423978D01*
X74045649Y-7495112D01*
X73955112Y-7585649D01*
X73883978Y-7692110D01*
X73879669Y-7702512D01*
X73124742Y-6947585D01*
X73124741Y-6947585D01*
X73043465Y-7053506D01*
X73043464Y-7053508D01*
X72932054Y-7246479D01*
X72932045Y-7246497D01*
X72846763Y-7452381D01*
X72789088Y-7667632D01*
X72789085Y-7667645D01*
X72760000Y-7888575D01*
X9850500Y-7888575D01*
X9850500Y-7878712D01*
X9818838Y-7638211D01*
X9756054Y-7403900D01*
X9663224Y-7179788D01*
X9541936Y-6969711D01*
X9511083Y-6929503D01*
X9402644Y-6788181D01*
X9394266Y-6777263D01*
X9394260Y-6777256D01*
X9222743Y-6605739D01*
X9222736Y-6605733D01*
X9030293Y-6458067D01*
X9030292Y-6458066D01*
X9030289Y-6458064D01*
X8820212Y-6336776D01*
X8820205Y-6336773D01*
X8596104Y-6243947D01*
X8361785Y-6181161D01*
X8121289Y-6149500D01*
X8121288Y-6149500D01*
X7878712Y-6149500D01*
X7878711Y-6149500D01*
X7638214Y-6181161D01*
X7403895Y-6243947D01*
X7179794Y-6336773D01*
X7179785Y-6336777D01*
X6969706Y-6458067D01*
X6777263Y-6605733D01*
X6777256Y-6605739D01*
X6605739Y-6777256D01*
X6605733Y-6777263D01*
X6458067Y-6969706D01*
X6336777Y-7179785D01*
X6336773Y-7179794D01*
X6243947Y-7403895D01*
X6181161Y-7638214D01*
X6149500Y-7878711D01*
X5500500Y-7878711D01*
X5500500Y-5624500D01*
X5520185Y-5557461D01*
X5572989Y-5511706D01*
X5624500Y-5500500D01*
X104375500Y-5500500D01*
X104442539Y-5520185D01*
G37*
%TD.AperFunction*%
%TA.AperFunction,Conductor*%
G36*
X26601008Y-38330185D02*
G01*
X26644453Y-38378204D01*
X26668139Y-38424690D01*
X26727715Y-38541614D01*
X26848028Y-38707213D01*
X26992786Y-38851971D01*
X27098858Y-38929035D01*
X27158390Y-38972287D01*
X27248864Y-39018386D01*
X27251080Y-39019515D01*
X27301876Y-39067490D01*
X27318671Y-39135311D01*
X27296134Y-39201446D01*
X27251080Y-39240485D01*
X27158386Y-39287715D01*
X26992786Y-39408028D01*
X26848028Y-39552786D01*
X26727715Y-39718386D01*
X26634781Y-39900776D01*
X26571522Y-40095465D01*
X26539500Y-40297648D01*
X26539500Y-40502351D01*
X26571522Y-40704534D01*
X26634781Y-40899223D01*
X26698691Y-41024653D01*
X26707248Y-41041446D01*
X26727715Y-41081613D01*
X26848028Y-41247213D01*
X26992786Y-41391971D01*
X27147749Y-41504556D01*
X27158390Y-41512287D01*
X27248862Y-41558385D01*
X27251080Y-41559515D01*
X27301876Y-41607490D01*
X27318671Y-41675311D01*
X27296134Y-41741446D01*
X27251080Y-41780485D01*
X27158386Y-41827715D01*
X26992786Y-41948028D01*
X26848028Y-42092786D01*
X26727715Y-42258386D01*
X26634781Y-42440776D01*
X26571522Y-42635465D01*
X26539500Y-42837648D01*
X26539500Y-43042351D01*
X26571522Y-43244534D01*
X26634781Y-43439223D01*
X26686385Y-43540500D01*
X26727282Y-43620765D01*
X26727715Y-43621613D01*
X26848028Y-43787213D01*
X26992786Y-43931971D01*
X27147749Y-44044556D01*
X27158390Y-44052287D01*
X27248862Y-44098385D01*
X27251080Y-44099515D01*
X27301876Y-44147490D01*
X27318671Y-44215311D01*
X27296134Y-44281446D01*
X27251080Y-44320485D01*
X27158386Y-44367715D01*
X26992786Y-44488028D01*
X26848028Y-44632786D01*
X26727715Y-44798386D01*
X26634781Y-44980776D01*
X26571522Y-45175465D01*
X26539500Y-45377648D01*
X26539500Y-45582351D01*
X26571522Y-45784534D01*
X26634781Y-45979223D01*
X26727715Y-46161613D01*
X26848028Y-46327213D01*
X26992786Y-46471971D01*
X27158385Y-46592284D01*
X27158387Y-46592285D01*
X27158390Y-46592287D01*
X27251080Y-46639515D01*
X27251630Y-46639795D01*
X27302426Y-46687770D01*
X27319221Y-46755591D01*
X27296684Y-46821725D01*
X27251630Y-46860765D01*
X27158649Y-46908141D01*
X27073122Y-46970278D01*
X27073122Y-46970279D01*
X27654823Y-47551980D01*
X27647007Y-47554075D01*
X27532993Y-47619901D01*
X27439901Y-47712993D01*
X27374075Y-47827007D01*
X27371980Y-47834823D01*
X26790279Y-47253122D01*
X26790278Y-47253122D01*
X26728141Y-47338648D01*
X26635244Y-47520968D01*
X26572009Y-47715582D01*
X26540000Y-47917682D01*
X26540000Y-48122317D01*
X26572009Y-48324417D01*
X26635244Y-48519031D01*
X26728139Y-48701347D01*
X26790279Y-48786876D01*
X27371980Y-48205176D01*
X27374075Y-48212993D01*
X27439901Y-48327007D01*
X27532993Y-48420099D01*
X27647007Y-48485925D01*
X27654822Y-48488019D01*
X27073121Y-49069719D01*
X27073122Y-49069720D01*
X27158640Y-49131852D01*
X27158654Y-49131861D01*
X27251629Y-49179234D01*
X27302426Y-49227208D01*
X27319221Y-49295029D01*
X27296684Y-49361164D01*
X27251631Y-49400203D01*
X27158388Y-49447713D01*
X26992786Y-49568028D01*
X26848028Y-49712786D01*
X26727715Y-49878386D01*
X26634781Y-50060776D01*
X26571522Y-50255465D01*
X26539500Y-50457648D01*
X26539500Y-50662351D01*
X26571522Y-50864534D01*
X26634781Y-51059223D01*
X26687016Y-51161738D01*
X26712437Y-51211630D01*
X26727715Y-51241613D01*
X26848028Y-51407213D01*
X26992786Y-51551971D01*
X27147749Y-51664556D01*
X27158390Y-51672287D01*
X27249840Y-51718883D01*
X27251080Y-51719515D01*
X27301876Y-51767490D01*
X27318671Y-51835311D01*
X27296134Y-51901446D01*
X27251080Y-51940485D01*
X27158386Y-51987715D01*
X26992786Y-52108028D01*
X26848028Y-52252786D01*
X26727715Y-52418386D01*
X26634781Y-52600776D01*
X26571522Y-52795465D01*
X26539500Y-52997648D01*
X26539500Y-53202351D01*
X26571522Y-53404534D01*
X26634781Y-53599223D01*
X26727715Y-53781613D01*
X26848028Y-53947213D01*
X26992786Y-54091971D01*
X27147749Y-54204556D01*
X27158390Y-54212287D01*
X27249840Y-54258883D01*
X27251080Y-54259515D01*
X27301876Y-54307490D01*
X27318671Y-54375311D01*
X27296134Y-54441446D01*
X27251080Y-54480485D01*
X27158386Y-54527715D01*
X26992786Y-54648028D01*
X26848028Y-54792786D01*
X26727715Y-54958386D01*
X26634781Y-55140776D01*
X26571522Y-55335465D01*
X26539500Y-55537648D01*
X26539500Y-55742351D01*
X26571522Y-55944534D01*
X26634781Y-56139223D01*
X26727715Y-56321613D01*
X26848028Y-56487213D01*
X26992786Y-56631971D01*
X27147749Y-56744556D01*
X27158390Y-56752287D01*
X27249840Y-56798883D01*
X27251080Y-56799515D01*
X27301876Y-56847490D01*
X27318671Y-56915311D01*
X27296134Y-56981446D01*
X27251080Y-57020485D01*
X27158386Y-57067715D01*
X26992786Y-57188028D01*
X26848028Y-57332786D01*
X26727715Y-57498386D01*
X26634781Y-57680776D01*
X26571522Y-57875465D01*
X26539500Y-58077648D01*
X26539500Y-58282351D01*
X26571522Y-58484534D01*
X26634781Y-58679223D01*
X26727715Y-58861613D01*
X26848028Y-59027213D01*
X26992786Y-59171971D01*
X27147749Y-59284556D01*
X27158390Y-59292287D01*
X27249840Y-59338883D01*
X27251080Y-59339515D01*
X27301876Y-59387490D01*
X27318671Y-59455311D01*
X27296134Y-59521446D01*
X27251080Y-59560485D01*
X27158386Y-59607715D01*
X26992786Y-59728028D01*
X26848028Y-59872786D01*
X26727715Y-60038386D01*
X26634781Y-60220776D01*
X26571522Y-60415465D01*
X26539500Y-60617648D01*
X26539500Y-60822351D01*
X26571522Y-61024534D01*
X26634781Y-61219223D01*
X26727715Y-61401613D01*
X26848028Y-61567213D01*
X26992786Y-61711971D01*
X27147749Y-61824556D01*
X27158390Y-61832287D01*
X27249840Y-61878883D01*
X27251080Y-61879515D01*
X27301876Y-61927490D01*
X27318671Y-61995311D01*
X27296134Y-62061446D01*
X27251080Y-62100485D01*
X27158386Y-62147715D01*
X26992786Y-62268028D01*
X26848028Y-62412786D01*
X26727715Y-62578386D01*
X26634781Y-62760776D01*
X26571522Y-62955465D01*
X26539500Y-63157648D01*
X26539500Y-63362351D01*
X26571522Y-63564534D01*
X26634781Y-63759223D01*
X26727715Y-63941613D01*
X26848028Y-64107213D01*
X26992786Y-64251971D01*
X27147749Y-64364556D01*
X27158390Y-64372287D01*
X27274607Y-64431503D01*
X27340776Y-64465218D01*
X27340778Y-64465218D01*
X27340781Y-64465220D01*
X27445137Y-64499127D01*
X27535465Y-64528477D01*
X27636557Y-64544488D01*
X27737648Y-64560500D01*
X27737649Y-64560500D01*
X27942351Y-64560500D01*
X27942352Y-64560500D01*
X28144534Y-64528477D01*
X28339219Y-64465220D01*
X28521610Y-64372287D01*
X28614590Y-64304732D01*
X28687213Y-64251971D01*
X28687215Y-64251968D01*
X28687219Y-64251966D01*
X28831966Y-64107219D01*
X28831968Y-64107215D01*
X28831971Y-64107213D01*
X28890338Y-64026876D01*
X28952287Y-63941610D01*
X29045220Y-63759219D01*
X29108477Y-63564534D01*
X29140500Y-63362352D01*
X29140500Y-63157648D01*
X29111913Y-62977157D01*
X29108477Y-62955465D01*
X29056038Y-62794075D01*
X29045220Y-62760781D01*
X29045218Y-62760778D01*
X29045218Y-62760776D01*
X29011503Y-62694607D01*
X28952287Y-62578390D01*
X28890337Y-62493122D01*
X28831971Y-62412786D01*
X28687213Y-62268028D01*
X28521614Y-62147715D01*
X28515006Y-62144348D01*
X28428917Y-62100483D01*
X28378123Y-62052511D01*
X28361328Y-61984690D01*
X28383865Y-61918555D01*
X28428917Y-61879516D01*
X28521610Y-61832287D01*
X28607727Y-61769720D01*
X28687213Y-61711971D01*
X28687215Y-61711968D01*
X28687219Y-61711966D01*
X28831966Y-61567219D01*
X28831972Y-61567210D01*
X28834748Y-61563962D01*
X28893258Y-61525773D01*
X28929033Y-61520500D01*
X43078844Y-61520500D01*
X43078845Y-61520499D01*
X43233497Y-61489737D01*
X43320574Y-61453669D01*
X43378048Y-61429863D01*
X43447517Y-61422394D01*
X43509996Y-61453669D01*
X43545648Y-61513759D01*
X43549500Y-61544424D01*
X43549500Y-71425500D01*
X43529815Y-71492539D01*
X43477011Y-71538294D01*
X43425500Y-71549500D01*
X9074500Y-71549500D01*
X9007461Y-71529815D01*
X8961706Y-71477011D01*
X8950500Y-71425500D01*
X8950500Y-51324424D01*
X8970185Y-51257385D01*
X9022989Y-51211630D01*
X9092147Y-51201686D01*
X9121952Y-51209863D01*
X9236682Y-51257385D01*
X9266503Y-51269737D01*
X9421153Y-51300499D01*
X9421156Y-51300500D01*
X9421158Y-51300500D01*
X9578844Y-51300500D01*
X9578845Y-51300499D01*
X9733497Y-51269737D01*
X9879179Y-51209394D01*
X10010289Y-51121789D01*
X10121789Y-51010289D01*
X10124914Y-51005611D01*
X10178525Y-50960806D01*
X10228018Y-50950500D01*
X18059306Y-50950500D01*
X18059309Y-50950500D01*
X18173886Y-50919799D01*
X18276613Y-50860489D01*
X18360489Y-50776613D01*
X18419799Y-50673886D01*
X18450500Y-50559309D01*
X18450500Y-45420691D01*
X18419799Y-45306114D01*
X18360489Y-45203387D01*
X18276613Y-45119511D01*
X18173886Y-45060201D01*
X18059309Y-45029500D01*
X18059306Y-45029500D01*
X11306031Y-45029500D01*
X11238992Y-45009815D01*
X11195546Y-44961795D01*
X11112284Y-44798385D01*
X10991971Y-44632786D01*
X10847213Y-44488028D01*
X10681614Y-44367715D01*
X10675006Y-44364348D01*
X10588917Y-44320483D01*
X10538123Y-44272511D01*
X10521328Y-44204690D01*
X10543865Y-44138555D01*
X10588917Y-44099516D01*
X10681610Y-44052287D01*
X10702770Y-44036913D01*
X10847213Y-43931971D01*
X10847215Y-43931968D01*
X10847219Y-43931966D01*
X10991966Y-43787219D01*
X10991968Y-43787215D01*
X10991971Y-43787213D01*
X11049500Y-43708029D01*
X11112287Y-43621610D01*
X11205220Y-43439219D01*
X11268477Y-43244534D01*
X11300500Y-43042352D01*
X11300500Y-42837648D01*
X11286664Y-42750290D01*
X11268477Y-42635465D01*
X11215847Y-42473489D01*
X11205220Y-42440781D01*
X11205218Y-42440778D01*
X11205218Y-42440776D01*
X11155067Y-42342351D01*
X11112287Y-42258390D01*
X11104556Y-42247749D01*
X10991971Y-42092786D01*
X10847213Y-41948028D01*
X10681611Y-41827713D01*
X10588369Y-41780203D01*
X10537574Y-41732229D01*
X10520779Y-41664407D01*
X10543317Y-41598273D01*
X10588371Y-41559234D01*
X10681347Y-41511861D01*
X10766876Y-41449719D01*
X10766877Y-41449718D01*
X10185178Y-40868019D01*
X10192993Y-40865925D01*
X10307007Y-40800099D01*
X10400099Y-40707007D01*
X10465925Y-40592993D01*
X10468019Y-40585177D01*
X11049718Y-41166877D01*
X11049719Y-41166876D01*
X11111859Y-41081349D01*
X11204755Y-40899031D01*
X11267990Y-40704417D01*
X11300000Y-40502317D01*
X11300000Y-40297682D01*
X11267990Y-40095582D01*
X11204755Y-39900968D01*
X11111858Y-39718649D01*
X11111852Y-39718640D01*
X11049720Y-39633122D01*
X11049719Y-39633121D01*
X10468019Y-40214821D01*
X10465925Y-40207007D01*
X10400099Y-40092993D01*
X10307007Y-39999901D01*
X10192993Y-39934075D01*
X10185176Y-39931980D01*
X10766876Y-39350279D01*
X10681347Y-39288139D01*
X10588369Y-39240765D01*
X10537573Y-39192790D01*
X10520778Y-39124969D01*
X10543315Y-39058835D01*
X10588370Y-39019795D01*
X10588920Y-39019515D01*
X10681610Y-38972287D01*
X10741143Y-38929034D01*
X10847213Y-38851971D01*
X10847215Y-38851968D01*
X10847219Y-38851966D01*
X10991966Y-38707219D01*
X10991968Y-38707215D01*
X10991971Y-38707213D01*
X11112284Y-38541614D01*
X11112285Y-38541613D01*
X11112287Y-38541610D01*
X11195546Y-38378204D01*
X11243521Y-38327409D01*
X11306031Y-38310500D01*
X26533969Y-38310500D01*
X26601008Y-38330185D01*
G37*
%TD.AperFunction*%
%TA.AperFunction,Conductor*%
G36*
X54289718Y-31006877D02*
G01*
X54289720Y-31006876D01*
X54325182Y-30958068D01*
X54380512Y-30915402D01*
X54450125Y-30909423D01*
X54511920Y-30942029D01*
X54546277Y-31002867D01*
X54549500Y-31030953D01*
X54549500Y-31988196D01*
X54529815Y-32055235D01*
X54477011Y-32100990D01*
X54407853Y-32110934D01*
X54344297Y-32081909D01*
X54325182Y-32061081D01*
X54231971Y-31932787D01*
X54231967Y-31932782D01*
X54087213Y-31788028D01*
X53921611Y-31667713D01*
X53828369Y-31620203D01*
X53777574Y-31572229D01*
X53760779Y-31504407D01*
X53783317Y-31438273D01*
X53828371Y-31399234D01*
X53921347Y-31351861D01*
X54006876Y-31289719D01*
X54006877Y-31289718D01*
X53425178Y-30708019D01*
X53432993Y-30705925D01*
X53547007Y-30640099D01*
X53640099Y-30547007D01*
X53705925Y-30432993D01*
X53708019Y-30425177D01*
X54289718Y-31006877D01*
G37*
%TD.AperFunction*%
%TA.AperFunction,Conductor*%
G36*
X60492539Y-18010185D02*
G01*
X60538294Y-18062989D01*
X60549500Y-18114500D01*
X60549500Y-29599309D01*
X60580201Y-29713886D01*
X60639511Y-29816613D01*
X60723387Y-29900489D01*
X60826114Y-29959799D01*
X60940691Y-29990500D01*
X61059309Y-29990500D01*
X65721952Y-29990500D01*
X65788991Y-30010185D01*
X65834746Y-30062989D01*
X65844690Y-30132147D01*
X65815665Y-30195703D01*
X65769404Y-30229061D01*
X65620827Y-30290602D01*
X65620814Y-30290609D01*
X65489711Y-30378210D01*
X65489707Y-30378213D01*
X65378211Y-30489709D01*
X65375086Y-30494388D01*
X65321475Y-30539194D01*
X65271982Y-30549500D01*
X55059309Y-30549500D01*
X54940691Y-30549500D01*
X54826114Y-30580201D01*
X54826112Y-30580201D01*
X54826112Y-30580202D01*
X54723387Y-30639511D01*
X54723385Y-30639512D01*
X54719408Y-30643490D01*
X54658083Y-30676972D01*
X54588391Y-30671984D01*
X54532460Y-30630109D01*
X54508046Y-30564644D01*
X54509258Y-30536405D01*
X54540000Y-30342316D01*
X54540000Y-30137682D01*
X54507990Y-29935582D01*
X54444755Y-29740968D01*
X54351858Y-29558649D01*
X54351852Y-29558640D01*
X54289720Y-29473122D01*
X54289719Y-29473121D01*
X53708019Y-30054821D01*
X53705925Y-30047007D01*
X53640099Y-29932993D01*
X53547007Y-29839901D01*
X53432993Y-29774075D01*
X53425176Y-29771980D01*
X54006876Y-29190279D01*
X53921347Y-29128139D01*
X53828369Y-29080765D01*
X53777573Y-29032790D01*
X53760778Y-28964969D01*
X53783315Y-28898835D01*
X53828370Y-28859795D01*
X53828920Y-28859515D01*
X53921610Y-28812287D01*
X53975518Y-28773121D01*
X54087213Y-28691971D01*
X54087215Y-28691968D01*
X54087219Y-28691966D01*
X54231966Y-28547219D01*
X54231968Y-28547215D01*
X54231971Y-28547213D01*
X54284732Y-28474590D01*
X54352287Y-28381610D01*
X54445220Y-28199219D01*
X54508477Y-28004534D01*
X54540500Y-27802352D01*
X54540500Y-27597648D01*
X54518698Y-27460000D01*
X54508477Y-27395465D01*
X54461050Y-27249500D01*
X54445220Y-27200781D01*
X54445218Y-27200778D01*
X54445218Y-27200776D01*
X54395067Y-27102351D01*
X54352287Y-27018390D01*
X54344556Y-27007749D01*
X54231971Y-26852786D01*
X54087213Y-26708028D01*
X53921614Y-26587715D01*
X53915006Y-26584348D01*
X53828917Y-26540483D01*
X53778123Y-26492511D01*
X53761328Y-26424690D01*
X53783865Y-26358555D01*
X53828917Y-26319516D01*
X53921610Y-26272287D01*
X53985559Y-26225826D01*
X54087213Y-26151971D01*
X54087215Y-26151968D01*
X54087219Y-26151966D01*
X54231966Y-26007219D01*
X54231968Y-26007215D01*
X54231971Y-26007213D01*
X54318791Y-25887713D01*
X54352287Y-25841610D01*
X54445220Y-25659219D01*
X54508477Y-25464534D01*
X54540500Y-25262352D01*
X54540500Y-25057648D01*
X54538994Y-25048139D01*
X54508477Y-24855465D01*
X54460620Y-24708178D01*
X54445220Y-24660781D01*
X54445218Y-24660778D01*
X54445218Y-24660776D01*
X54406773Y-24585325D01*
X54352287Y-24478390D01*
X54324530Y-24440185D01*
X54231971Y-24312786D01*
X54087213Y-24168028D01*
X53921614Y-24047715D01*
X53915006Y-24044348D01*
X53828917Y-24000483D01*
X53778123Y-23952511D01*
X53761328Y-23884690D01*
X53783865Y-23818555D01*
X53828917Y-23779516D01*
X53921610Y-23732287D01*
X53942770Y-23716913D01*
X54087213Y-23611971D01*
X54087215Y-23611968D01*
X54087219Y-23611966D01*
X54231966Y-23467219D01*
X54231968Y-23467215D01*
X54231971Y-23467213D01*
X54284732Y-23394590D01*
X54352287Y-23301610D01*
X54445220Y-23119219D01*
X54508477Y-22924534D01*
X54540500Y-22722352D01*
X54540500Y-22517648D01*
X54536432Y-22491966D01*
X54508477Y-22315465D01*
X54468312Y-22191852D01*
X54445220Y-22120781D01*
X54445218Y-22120778D01*
X54445218Y-22120776D01*
X54383281Y-21999219D01*
X54352287Y-21938390D01*
X54285799Y-21846876D01*
X54231971Y-21772786D01*
X54087213Y-21628028D01*
X53921614Y-21507715D01*
X53915006Y-21504348D01*
X53828917Y-21460483D01*
X53778123Y-21412511D01*
X53761328Y-21344690D01*
X53783865Y-21278555D01*
X53828917Y-21239516D01*
X53921610Y-21192287D01*
X53985559Y-21145826D01*
X54087213Y-21071971D01*
X54087215Y-21071968D01*
X54087219Y-21071966D01*
X54231966Y-20927219D01*
X54231968Y-20927215D01*
X54231971Y-20927213D01*
X54311037Y-20818386D01*
X54352287Y-20761610D01*
X54445220Y-20579219D01*
X54508477Y-20384534D01*
X54540500Y-20182352D01*
X54540500Y-19977648D01*
X54538994Y-19968139D01*
X54508477Y-19775465D01*
X54445218Y-19580776D01*
X54406773Y-19505325D01*
X54352287Y-19398390D01*
X54299040Y-19325101D01*
X54231971Y-19232786D01*
X54087213Y-19088028D01*
X53921614Y-18967715D01*
X53915006Y-18964348D01*
X53828917Y-18920483D01*
X53778123Y-18872511D01*
X53761328Y-18804690D01*
X53783865Y-18738555D01*
X53828917Y-18699516D01*
X53921610Y-18652287D01*
X53942770Y-18636913D01*
X54087213Y-18531971D01*
X54087215Y-18531968D01*
X54087219Y-18531966D01*
X54231966Y-18387219D01*
X54231968Y-18387215D01*
X54231971Y-18387213D01*
X54352284Y-18221614D01*
X54352285Y-18221613D01*
X54352287Y-18221610D01*
X54435546Y-18058204D01*
X54483521Y-18007409D01*
X54546031Y-17990500D01*
X60425500Y-17990500D01*
X60492539Y-18010185D01*
G37*
%TD.AperFunction*%
%TA.AperFunction,Conductor*%
G36*
X10977763Y-24595730D02*
G01*
X11030261Y-24641836D01*
X11049500Y-24708178D01*
X11049500Y-25219308D01*
X11067748Y-25287412D01*
X11066085Y-25357262D01*
X11035654Y-25407186D01*
X10468019Y-25974821D01*
X10465925Y-25967007D01*
X10400099Y-25852993D01*
X10307007Y-25759901D01*
X10192993Y-25694075D01*
X10185176Y-25691980D01*
X10766876Y-25110279D01*
X10681347Y-25048139D01*
X10588369Y-25000765D01*
X10537573Y-24952790D01*
X10520778Y-24884969D01*
X10543315Y-24818835D01*
X10588370Y-24779795D01*
X10681610Y-24732287D01*
X10740068Y-24689815D01*
X10851161Y-24609103D01*
X10852270Y-24610629D01*
X10908673Y-24585325D01*
X10977763Y-24595730D01*
G37*
%TD.AperFunction*%
%TA.AperFunction,Conductor*%
G36*
X11013181Y-21810338D02*
G01*
X11046666Y-21871661D01*
X11049500Y-21898019D01*
X11049500Y-22531821D01*
X11029815Y-22598860D01*
X10977011Y-22644615D01*
X10907853Y-22654559D01*
X10852247Y-22629401D01*
X10851161Y-22630897D01*
X10681611Y-22507713D01*
X10588369Y-22460203D01*
X10537574Y-22412229D01*
X10520779Y-22344407D01*
X10543317Y-22278273D01*
X10588371Y-22239234D01*
X10681347Y-22191861D01*
X10766876Y-22129719D01*
X10766877Y-22129718D01*
X10185178Y-21548019D01*
X10192993Y-21545925D01*
X10307007Y-21480099D01*
X10400099Y-21387007D01*
X10465925Y-21272993D01*
X10468019Y-21265177D01*
X11013181Y-21810338D01*
G37*
%TD.AperFunction*%
%TA.AperFunction,Conductor*%
G36*
X10977763Y-19515730D02*
G01*
X11030261Y-19561836D01*
X11049500Y-19628178D01*
X11049500Y-20261980D01*
X11029815Y-20329019D01*
X11013181Y-20349661D01*
X10468019Y-20894822D01*
X10465925Y-20887007D01*
X10400099Y-20772993D01*
X10307007Y-20679901D01*
X10192993Y-20614075D01*
X10185176Y-20611980D01*
X10766876Y-20030279D01*
X10681347Y-19968139D01*
X10588369Y-19920765D01*
X10537573Y-19872790D01*
X10520778Y-19804969D01*
X10543315Y-19738835D01*
X10588370Y-19699795D01*
X10681610Y-19652287D01*
X10717813Y-19625984D01*
X10851161Y-19529103D01*
X10852270Y-19530629D01*
X10908673Y-19505325D01*
X10977763Y-19515730D01*
G37*
%TD.AperFunction*%
%TD*%
M02*
