M48
; DRILL file KiCad 10.0.4 date 2026-08-11T00:38:03
; FORMAT={-:-/ absolute / metric / decimal}
; #@! TF.CreationDate,2026-08-11T00:38:03+09:00
; #@! TF.GenerationSoftware,Kicad,Pcbnew,10.0.4
; #@! TF.FileFunction,Plated,1,2,PTH
FMAT,2
METRIC
; #@! TA.AperFunction,Plated,PTH,ViaDrill
T1C0.500
; #@! TA.AperFunction,Plated,PTH,ComponentDrill
T2C0.750
; #@! TA.AperFunction,Plated,PTH,ComponentDrill
T3C1.000
; #@! TA.AperFunction,Plated,PTH,ComponentDrill
T4C1.300
%
G90
G05
T1
X7.5Y-50.5
X9.5Y-50.5
X12.0Y-80.0
X14.0Y-78.0
X16.0Y-76.0
X40.0Y-74.0
X43.0Y-60.72
X45.5Y-82.0
X63.0Y-44.78
X63.0Y-80.0
X65.0Y-42.24
X65.0Y-78.0
X66.0Y-31.0
X66.0Y-37.16
X68.5Y-76.0
T2
X96.0Y-32.08
X96.0Y-34.08
X96.0Y-36.08
X96.0Y-38.08
T3
X10.0Y-16.0
X10.0Y-18.54
X10.0Y-21.08
X10.0Y-23.62
X10.0Y-26.16
X10.0Y-30.24
X10.0Y-32.78
X10.0Y-35.32
X10.0Y-37.86
X10.0Y-40.4
X10.0Y-42.94
X10.0Y-45.48
X10.0Y-48.02
X15.5Y-18.0
X15.5Y-21.5
X15.5Y-25.16
X15.5Y-27.7
X20.58Y-18.0
X20.58Y-21.5
X20.58Y-25.16
X20.58Y-27.7
X27.84Y-15.0
X27.84Y-17.54
X27.84Y-20.08
X27.84Y-22.62
X27.84Y-25.16
X27.84Y-27.7
X27.84Y-30.24
X27.84Y-32.78
X27.84Y-35.32
X27.84Y-37.86
X27.84Y-40.4
X27.84Y-42.94
X27.84Y-45.48
X27.84Y-48.02
X27.84Y-50.56
X27.84Y-53.1
X27.84Y-55.64
X27.84Y-58.18
X27.84Y-60.72
X27.84Y-63.26
X53.24Y-15.0
X53.24Y-17.54
X53.24Y-20.08
X53.24Y-22.62
X53.24Y-25.16
X53.24Y-27.7
X53.24Y-30.24
X53.24Y-32.78
X53.24Y-35.32
X53.24Y-37.86
X53.24Y-40.4
X53.24Y-42.94
X53.24Y-45.48
X53.24Y-48.02
X53.24Y-50.56
X53.24Y-53.1
X53.24Y-55.64
X53.24Y-58.18
X53.24Y-60.72
X53.24Y-63.26
X71.65Y-27.0
X71.65Y-29.54
X71.65Y-32.08
X71.65Y-34.62
X71.65Y-37.16
X71.65Y-39.7
X71.65Y-42.24
X71.65Y-44.78
X84.35Y-27.0
X84.35Y-29.54
X84.35Y-32.08
X84.35Y-34.62
X84.35Y-37.16
X84.35Y-39.7
X84.35Y-42.24
X84.35Y-44.78
T4
X74.46Y-8.0
X79.54Y-8.0
M30
